<?xml version="1.0" standalone="no"?>
<!DOCTYPE svg PUBLIC "-//W3C//DTD SVG 1.1//EN" "http://www.w3.org/Graphics/SVG/1.1/DTD/svg11.dtd">
<svg xmlns="http://www.w3.org/2000/svg"><metadata>This SVG WebFont was generated by YouWorkForThem.
Copyright (c) 2016 by Ufuk Aracâºoâ¬lu. All rights reserved.</metadata><defs><font horiz-adv-x="1241" id="ywftsvg"><font-face ascent="1638" bbox="-83.3571 -771.556 2501 2429.7" cap-height="1434" descent="-410" font-family="" font-stretch="normal" font-weight="300" panose-1="2 0 5 5 0 0 0 2 0 4" underline-position="0" underline-thickness="0" unicode-range="U+000D-FB03" units-per-em="2048" x-height="1042"/><missing-glyph horiz-adv-x="518"/><glyph d="M381 1038h545v64q0 225 85 341t279 116q98 0 172 -37q18 -12 15 -37l-13 -51q-4 -16 -11 -19.5t-23 4.5q-57 23 -130 23q-133 0 -190 -79t-57 -271v-54h387q29 0 28 -28v-52q0 -27 -28 -26h-387v-903q0 -16 -6.5 -22.5t-22.5 -6.5h-70q-29 0 -28 29v903h-545v-903 q0 -29 -27 -29h-71q-27 0 -27 29v903h-162q-29 0 -28 26v52q0 29 28 28h162v64q0 225 84 341t278 116q100 0 175 -37q16 -12 12 -37l-12 -51q-4 -29 -35 -15q-59 23 -127 23q-133 0 -191.5 -80t-58.5 -270v-54z" glyph-name="uniFB00" horiz-adv-x="1515" unicode="ff"/><glyph d="M975 934h-594v-905q0 -29 -27 -29h-71q-27 0 -27 29v905h-162q-29 0 -28 29v51q0 29 28 28h162v60q0 225 84 341t278 116q100 0 175 -37q16 -12 12 -37l-12 -51q-4 -16 -11.5 -19.5t-23.5 4.5q-59 23 -127 23q-133 0 -191.5 -80t-58.5 -270v-50h692q29 0 29 -28v-985 q0 -29 -29 -29h-72q-27 0 -26 29v905zM940 1389q0 41 27.5 68.5t68.5 27.5q39 0 66.5 -29t27.5 -67.5t-27.5 -66.5t-66.5 -28t-67.5 28t-28.5 67z" glyph-name="uniFB01" horiz-adv-x="1351" unicode="fi"/><glyph d="M1645 934h-592v-905q0 -16 -6.5 -22.5t-22.5 -6.5h-70q-29 0 -28 29v905h-545v-905q0 -29 -27 -29h-71q-27 0 -27 29v905h-162q-29 0 -28 29v51q0 29 28 28h162v60q0 225 84 341t278 116q100 0 175 -37q16 -12 12 -37l-12 -51q-4 -16 -11.5 -19.5t-23.5 4.5 q-59 23 -127 23q-133 0 -191.5 -80t-58.5 -270v-50h545v60q0 225 85 341t279 116q98 0 172 -37q18 -12 15 -37l-13 -51q-4 -16 -11 -19.5t-23 4.5q-59 23 -127 23q-133 0 -191.5 -80t-58.5 -270v-50h692q27 0 27 -28v-985q0 -29 -27 -29h-72q-16 0 -22 6t-6 23v905z M1612 1388.5q0 38.5 27.5 67.5t66.5 29t67.5 -27.5t28.5 -68.5q0 -39 -28.5 -67t-67.5 -28t-66.5 28t-27.5 66.5z" glyph-name="uniFB03" horiz-adv-x="2023" unicode="ffi"/><glyph d="M381 1040l745 2q29 0 29 -28v-1041q0 -225 -86 -340.5t-281 -115.5q-119 0 -202 53q-18 10 -11 35l11 51q6 20 12 22.5t23 -6.5q63 -39 157 -39q133 0 191.5 80t58.5 271v893v57h-647v-905q0 -29 -27 -29h-71q-27 0 -27 29v905h-162q-29 0 -28 29v51q0 27 28 26h162v62 q0 225 84 341t278 116q100 0 175 -37q16 -12 12 -37l-12 -51q-4 -16 -11.5 -19.5t-23.5 4.5q-59 23 -127 23q-133 0 -191.5 -80t-58.5 -270v-52zM991 1389q0 41 29 68.5t67.5 27.5t66.5 -29t28 -67.5t-28 -66.5t-66.5 -28t-67.5 28t-29 67z" glyph-name="f_j.liga" horiz-adv-x="1386" unicode="fj"/><glyph d="M1053 1040l745 2q27 0 27 -28v-1041q0 -225 -85 -340.5t-280 -115.5q-121 0 -203 53q-18 10 -12 35l12 51q4 20 11.5 23.5t23.5 -7.5q63 -39 158 -39q133 0 191.5 80t58.5 271v950h-647v-905q0 -16 -6.5 -22.5t-22.5 -6.5h-70q-29 0 -28 29v905h-545v-905q0 -29 -27 -29 h-71q-27 0 -27 29v905h-162q-29 0 -28 29v51q0 27 28 26h162v62q0 225 84 341t278 116q100 0 175 -37q16 -12 12 -37l-12 -51q-4 -16 -11.5 -19.5t-23.5 4.5q-59 23 -127 23q-133 0 -191.5 -80t-58.5 -270v-52h545v62q0 225 85 341t279 116q98 0 172 -37q18 -12 15 -37 l-13 -51q-4 -16 -11 -19.5t-23 4.5q-59 23 -127 23q-133 0 -191.5 -80t-58.5 -270v-52zM1661 1389q0 41 27.5 68.5t68.5 27.5q39 0 66.5 -29t27.5 -67.5t-27.5 -66.5t-66.5 -28t-67.5 28t-28.5 67z" glyph-name="f_f_j.liga" horiz-adv-x="2056" unicode="ffj"/><glyph glyph-name=".notdef" horiz-adv-x="518"/><glyph glyph-name="glyph1" horiz-adv-x="0"/><glyph glyph-name="glyph2" horiz-adv-x="681"/><glyph glyph-name="glyph3" horiz-adv-x="0"/><glyph glyph-name="glyph3" horiz-adv-x="0"/><glyph glyph-name="space" horiz-adv-x="518" unicode=" "/><glyph d="M287 510l-13 895q0 29 27 29h94q29 0 29 -29l-14 -895q0 -29 -27 -29h-68q-28 0 -28 29zM244 82q0 45 30.5 74.5t73.5 29.5q45 0 76 -29.5t31 -74.5q0 -43 -31 -74t-76 -31q-43 0 -73.5 31t-30.5 74z" glyph-name="exclam" horiz-adv-x="696" unicode="!"/><glyph d="M137 936v469q0 29 27 29h65q33 0 27 -33l-33 -473q-2 -20 -26 -21h-33q-27 0 -27 29zM500 936v469q0 16 6 22.5t22 6.5h64q33 0 26 -33l-32 -473q-2 -20 -27 -21h-31q-16 0 -22 6.5t-6 22.5z" glyph-name="quotedbl" horiz-adv-x="749" unicode="&quot;"/><glyph d="M236 1044h374l92 365q8 25 37 25h47q31 0 23 -29l-92 -361h432l94 365q10 25 37 25h47q35 0 23 -29l-90 -361h344q29 0 28 -28v-47q0 -16 -5 -22.5t-23 -6.5h-371l-113 -438h359q27 0 26 -29v-47q0 -29 -26 -29h-385l-95 -372q-10 -25 -36 -25h-50q-31 0 -22 29l94 368 h-434l-94 -372q-10 -25 -37 -25h-49q-29 0 -21 29l92 368h-331q-29 0 -29 29v47q0 16 6 22.5t23 6.5h360l113 438h-348q-16 0 -22.5 6t-6.5 23v47q0 28 29 28zM692 940l-114 -438h434l112 438h-432z" glyph-name="numbersign" horiz-adv-x="1695" unicode="#"/><glyph d="M584 -158v138q-283 16 -484 155q-25 14 -8 41l33 53q14 25 41 9q190 -133 418 -140v574q-76 12 -134.5 25.5t-126 41t-111.5 63.5t-73.5 96t-29.5 136q0 158 125.5 285t349.5 135v123q0 27 26 27h29q29 0 29 -27v-123q213 -4 458 -154q20 -14 9 -40l-33 -52 q-16 -29 -39 -12q-205 135 -395 139v-553q100 -12 177 -32.5t154.5 -61.5t120.5 -114.5t43 -176.5q0 -172 -129 -292.5t-366 -127.5v-135q0 -29 -29 -28h-29q-26 -1 -26 28zM1034 393q0 117 -91 175.5t-275 90.5v-561q66 2 124 17.5t116.5 46.5t92 91t33.5 140zM238 1038 q0 -193 346 -243v538q-182 -10 -264 -102.5t-82 -192.5z" glyph-name="dollar" horiz-adv-x="1259" unicode="$"/><glyph d="M419.5 727q-153.5 0 -246.5 95.5t-93 271.5t93 271t246.5 95t248 -96t94.5 -270t-94.5 -270.5t-248 -96.5zM420 813q115 0 178.5 76t63.5 205t-63.5 203.5t-178.5 74.5t-177.5 -74.5t-62.5 -203.5t62.5 -205t177.5 -76zM1427 1405l-970 -1382q-16 -23 -37 -23h-60 q-39 0 -18 29l969 1382q16 23 37 23h61q36 0 18 -29zM1346 -4q-154 0 -247 95t-93 271.5t93 271.5t247 95q156 0 249 -95t93 -271.5t-93 -271.5t-249 -95zM1345.5 82q114.5 0 178 75.5t63.5 205t-63.5 204t-178 74.5t-177 -74.5t-62.5 -204t62.5 -205t177 -75.5z" glyph-name="percent" horiz-adv-x="1767" unicode="%"/><glyph d="M924 375l-301 301q-385 -98 -385 -295q0 -137 86 -214t225 -77q41 0 83 15.5t70.5 33t66.5 55t54.5 57t54.5 67zM643 809l4 -4q113 37 212 126t99 189q0 98 -77.5 163t-200.5 65q-119 0 -185.5 -63.5t-66.5 -164.5q0 -123 215 -311zM1425 643q-246 -170 -333 -264 l360 -348q27 -31 -10 -31h-113q-25 0 -55 31l-273 260q-8 -10 -39.5 -48t-43 -51.5t-41 -46t-47 -47t-48 -39t-55.5 -36t-56.5 -25.5t-65.5 -19.5t-70 -5.5q-203 0 -319 113t-116 293q0 86 39 152.5t109.5 110.5t134 70.5t147.5 49.5l-2 2q-70 66 -105.5 103.5t-79.5 116.5 t-44 153q0 123 99.5 223t281.5 100q186 0 296.5 -101.5t110.5 -221.5q0 -80 -36.5 -153t-98 -123t-114 -81.5t-105.5 -54.5l273 -262q98 104 348 276q20 14 37 -4l45 -51q16 -23 -11 -41z" glyph-name="ampersand" horiz-adv-x="1540" unicode="&amp;"/><glyph d="M129 936v469q0 16 6 22.5t23 6.5h63q33 0 29 -33l-35 -473q-2 -20 -25 -21h-32q-16 0 -22.5 6.5t-6.5 22.5z" glyph-name="quotesingle" horiz-adv-x="380" unicode="'"/><glyph d="M76 590q0 293 140 512t382 348q29 14 41 -12l33 -56q18 -29 -15 -45q-205 -96 -329.5 -296.5t-124.5 -450.5t125 -450.5t329 -297.5q33 -16 15 -45l-33 -55q-12 -27 -41 -12q-240 123 -381 345t-141 515z" glyph-name="parenleft" horiz-adv-x="786" unicode="("/><glyph d="M770 590q0 -293 -141.5 -515t-380.5 -345q-29 -14 -41 12l-33 55q-18 29 14 45q203 96 328 297t125 451t-125 450.5t-328 296.5q-33 16 -14 45l33 56q12 27 41 12q242 -129 382 -348t140 -512z" glyph-name="parenright" horiz-adv-x="786" unicode=")"/><glyph d="M102 928l256 125l-249 118q-27 10 -15 37l19 37q14 27 41 12l254 -133l-7 285q-2 29 29 29h41q27 0 27 -29l-9 -283l252 140q25 12 39 -13l19 -36q14 -27 -11 -39l-245 -123l254 -117q27 -12 12 -39l-18 -37q-14 -25 -39 -14l-263 139l9 -301q0 -29 -29 -29h-39 q-31 0 -29 29l7 299l-261 -145q-27 -12 -38 12l-17 35q-15 29 10 41z" glyph-name="asterisk" horiz-adv-x="894" unicode="*"/><glyph d="M555 995v-313h315q27 0 27 -27v-55q0 -27 -27 -27h-315v-317q0 -29 -29 -29h-51q-16 0 -22.5 6.5t-6.5 22.5v317h-315q-29 0 -29 29v51q0 16 6.5 22.5t22.5 6.5h315v313q0 29 27 29h55q27 0 27 -29z" glyph-name="plus" horiz-adv-x="999" unicode="+"/><glyph d="M283 -10h-17q-45 2 -74.5 31.5t-29.5 74.5t30.5 77t75.5 32q47 0 79 -37t32 -100q0 -268 -221 -392q-16 -8 -21 2l-24 37q-6 12 6 21q150 98 164 254z" glyph-name="comma" horiz-adv-x="540" unicode=","/><glyph d="M721 530h-565q-27 0 -27 29v47q0 29 27 29h565q29 0 29 -27v-51q0 -27 -29 -27z" glyph-name="hyphen" horiz-adv-x="878" unicode="-"/><glyph d="M162 84q0 45 30.5 77t75.5 32t76 -32t31 -77t-31 -76t-76 -31t-75.5 31t-30.5 76z" glyph-name="period" horiz-adv-x="536" unicode="."/><glyph d="M676 1405l-475 -1380q-10 -25 -35 -25h-72q-29 0 -20 29l473 1380q10 25 37 25h67q33 0 25 -29z" glyph-name="slash" horiz-adv-x="739" unicode="/"/><glyph d="M236 717q0 -121 22.5 -228.5t70.5 -198.5t135 -144.5t201.5 -53.5t201.5 53.5t134.5 145.5t70 197.5t22.5 228.5q0 121 -22.5 227.5t-70 198.5t-134.5 145t-201.5 53t-201.5 -53t-135 -145t-70.5 -198.5t-22.5 -227.5zM102 717q0 211 58.5 374.5t187.5 266t317.5 102.5 t317.5 -102.5t187.5 -266t58.5 -374.5t-58.5 -375t-187.5 -266.5t-317.5 -102.5t-317.5 102.5t-187.5 266.5t-58.5 375z" glyph-name="zero" horiz-adv-x="1331" unicode="0"/><glyph d="M78 1241l295 170q41 23 57 23h49q29 0 29 -29v-1376q0 -16 -6 -22.5t-23 -6.5h-76q-16 0 -22 6t-6 23v1241l-285 -129q-27 -6 -27 20v51q1 19 15 29z" glyph-name="one" horiz-adv-x="747" unicode="1"/><glyph d="M928 829l-623 -712h727q29 0 29 -27v-61q0 -16 -6 -22.5t-23 -6.5h-919q-16 0 -17 16v19q0 16 17 39l721 827q57 66 71.5 143.5t-13.5 143t-110 109.5t-200 44q-231 0 -394 -176q-20 -20 -41 0l-45 49q-20 20 0 37q209 209 480 209q154 0 266.5 -59.5t159.5 -150.5 t28.5 -205t-108.5 -216z" glyph-name="two" horiz-adv-x="1148" unicode="2"/><glyph d="M612 674h-219q-16 0 -22 6t-6 22v58q0 27 28 26h225q160 0 232 78t72 160q0 150 -99.5 233.5t-259.5 83.5q-201 0 -362 -174q-20 -23 -39 0l-45 47q-16 20 0 37q104 104 205.5 156.5t240.5 52.5q197 0 343.5 -108.5t146.5 -317.5q0 -111 -72 -194.5t-160 -108.5v-2 q102 -27 189.5 -109.5t87.5 -220.5q0 -215 -144.5 -320.5t-390.5 -105.5q-266 0 -475 209q-18 18 2 37l43 47q20 20 41 0q166 -174 389 -174q401 0 402 316q0 115 -99.5 190.5t-253.5 75.5z" glyph-name="three" horiz-adv-x="1196" unicode="3"/><glyph d="M842 1434h100q27 0 27 -29v-963h243q27 0 27 -26v-54q0 -29 -27 -28h-243v-305q0 -29 -27 -29h-72q-29 0 -28 29v305h-719q-29 0 -29 28v58q0 27 21 55l694 942q13 17 33 17zM842 1270l-609 -828h609v828z" glyph-name="four" horiz-adv-x="1325" unicode="4"/><glyph d="M274 1434h691q29 0 28 -29v-62q0 -29 -28 -28h-609l-67 -469h282q233 0 372.5 -96.5t139.5 -313.5q0 -233 -144 -348t-384 -115q-266 0 -477 211q-16 16 2 33l45 49q18 18 37 2q176 -176 393 -176q190 0 292.5 77t102.5 263q0 295 -383 295h-381q-35 0 -28 29l90 649 q2 16 7 22.5t19 6.5z" glyph-name="five" horiz-adv-x="1185" unicode="5"/><glyph d="M680 936q195 0 330 -118t135 -331q0 -219 -131 -366.5t-359 -147.5q-547 0 -546 645q0 842 553 842q137 0 237 -38t203 -128q20 -16 -2 -39l-43 -49q-25 -25 -45 0q-88 80 -166 107.5t-193 27.5q-215 0 -313 -185t-98 -497q51 125 164.5 201t273.5 76zM649 90 q176 0 270.5 112.5t94.5 278.5q0 156 -105.5 250t-259.5 94q-150 0 -271.5 -111.5t-121.5 -254.5q0 -35 8 -77t34 -95.5t67 -95t114.5 -71.5t169.5 -30z" glyph-name="six" horiz-adv-x="1245" unicode="6"/><glyph d="M1108 1411v-10q0 -16 -18 -47l-807 -1329q-16 -25 -39 -25h-94q-35 0 -21 27l780 1282h-817q-29 2 -29 28v68q0 29 29 29h991q25 0 25 -23z" glyph-name="seven" horiz-adv-x="1148" unicode="7"/><glyph d="M614 -27q-254 0 -383 113t-129 291q0 86 38 155.5t94.5 110.5t98.5 61.5t75 28.5v4q-33 10 -67 27.5t-86 55.5t-85 102.5t-33 146.5q0 170 130 280.5t349 110.5q217 0 345.5 -109.5t128.5 -281.5q0 -233 -267 -334v-4q31 -8 72 -28.5t97.5 -60.5t94 -109.5t37.5 -155.5 q0 -180 -127 -292t-383 -112zM616 682q-154 -10 -268.5 -90t-114.5 -209q0 -125 95.5 -209t285.5 -84q197 0 289 83t92 210q0 129 -113.5 209t-265.5 90zM616 1343q-156 0 -252 -79.5t-96 -200.5t100.5 -194.5t247.5 -82.5q145 8 245 82t100 195t-95.5 200.5t-249.5 79.5z " glyph-name="eight" horiz-adv-x="1228" unicode="8"/><glyph d="M565 498q-195 0 -330 117.5t-135 330.5q0 219 131 366.5t359 147.5q547 0 547 -645q0 -842 -553 -842q-252 0 -457 177q-20 18 2 40l43 48q25 25 45 2q90 -80 177 -114t198 -34q215 0 314.5 186.5t99.5 495.5q-53 -125 -168 -200.5t-273 -75.5zM596 1343 q-174 0 -269.5 -113.5t-95.5 -277.5q0 -156 105.5 -250t259.5 -94q150 0 272.5 111.5t122.5 255.5q0 35 -8 76t-33.5 95t-67.5 96t-116 71.5t-170 29.5z" glyph-name="nine" horiz-adv-x="1243" unicode="9"/><glyph d="M162 84q0 43 30.5 76t75.5 33q43 0 75 -33t32 -76q0 -45 -32 -76t-75 -31q-47 0 -76.5 30t-29.5 77zM162 780q0 47 29.5 79t74.5 32t77 -32t32 -79q0 -45 -31 -74.5t-78 -29.5q-45 0 -74.5 29.5t-29.5 74.5z" glyph-name="colon" horiz-adv-x="536" unicode=":"/><glyph d="M162 782q0 45 30.5 77t75.5 32t76 -32t31 -77t-31 -75.5t-76 -30.5t-75.5 30.5t-30.5 75.5zM283 -23h-17q-45 0 -74.5 31t-29.5 76q0 43 30.5 76t75.5 33q47 0 79 -37t32 -101q0 -268 -221 -391q-14 -10 -21 2l-24 37q-6 12 6 21q150 95 164 253z" glyph-name="semicolon" horiz-adv-x="540" unicode=";"/><glyph d="M35 719v4q0 18 22 31l920 524q29 14 29 -12v-70q0 -25 -29 -39l-764 -436l764 -438q29 -12 29 -39v-68q0 -27 -29 -12l-920 522q-22 13 -22 33z" glyph-name="less" horiz-adv-x="1107" unicode="&lt;"/><glyph d="M817 774h-661q-27 0 -27 27v49q0 29 27 29h661q27 0 27 -29v-49q0 -27 -27 -27zM817 369h-661q-27 0 -27 28v47q0 31 27 31h661q27 0 27 -29v-51q0 -26 -27 -26z" glyph-name="equal" horiz-adv-x="972" unicode="="/><glyph d="M1073 723v-4q-4 -23 -22 -33l-920 -522q-29 -12 -29 12v68q0 27 29 39l764 438l-764 436q-29 14 -29 39v70q0 25 29 12l920 -524q20 -11 22 -31z" glyph-name="greater" horiz-adv-x="1107" unicode=">"/><glyph d="M440 686q461 90 461 330q0 131 -113.5 226t-304.5 95q-164 0 -383 -145q-23 -16 -39 12l-32 53q-16 25 8 39q238 160 452 160q264 0 402.5 -133t138.5 -301q0 -176 -132 -271.5t-359 -144.5v-166q0 -29 -29 -28h-64q-27 0 -26 28v222q0 22 20 24zM371 82q0 45 30.5 75.5 t75.5 30.5t76 -30.5t31 -75.5t-31 -76t-76 -31t-75.5 31t-30.5 76z" glyph-name="question" horiz-adv-x="1050" unicode="?"/><glyph d="M1919 530q0 258 -120 451t-311.5 287t-424.5 96q-354 0 -599 -248t-245 -594t243 -595t585 -249q156 0 268 54q31 14 39 -8l12 -52q8 -29 -14 -41q-129 -61 -305 -61q-399 0 -671 277.5t-272 674.5q0 395 274.5 673t684.5 278q203 0 379 -63.5t308 -181.5t209 -297 t77 -401q0 -106 -14.5 -201.5t-47 -189.5t-99.5 -148t-161 -52q-113 0 -184.5 60t-89.5 173l-13 66q-27 -45 -49 -74t-72.5 -80t-124 -79t-163.5 -28q-211 0 -340 158t-129 387q0 231 129 387t340 156q90 0 163.5 -29.5t121 -80t71 -82t39.5 -66.5l14 211q6 25 27 24h53 q27 0 27 -28v-766q0 -203 174 -203q63 0 107.5 39t66 112.5t29.5 152.5t8 181zM1040 92q164 0 267.5 129t103.5 299t-103.5 299t-267 129t-266 -126t-102.5 -300q0 -184 100 -307t268 -123z" glyph-name="at" horiz-adv-x="2140" unicode="@"/><glyph d="M727 1235h-2l-324 -719h648zM750 1446l661 -1417q14 -29 -18 -29h-95q-20 0 -36 29l-168 370h-738l-168 -370q-12 -29 -36 -29h-97q-27 0 -16 29l661 1417q10 25 23 24h6q11 1 21 -24z" glyph-name="A" horiz-adv-x="1443" unicode="A"/><glyph d="M774 0h-543q-16 0 -22 5t-6 24v1376q0 29 28 29h492q94 0 178 -20.5t159 -64.5t119 -124t44 -189q0 -123 -76 -194.5t-168 -102.5v-2q37 -8 80 -29.5t95 -59.5t87 -104.5t35 -148.5q0 -203 -140.5 -299t-361.5 -96zM336 117h426q377 0 377 291q0 113 -102.5 191.5 t-252.5 78.5h-448v-561zM336 791h432q139 0 229 64.5t90 168.5q0 147 -100 220t-274 73h-377v-526z" glyph-name="B" horiz-adv-x="1368" unicode="B"/><glyph d="M838 92q264 0 450 191q20 20 39 -2l49 -54q18 -23 -2 -43q-98 -98 -242.5 -154.5t-293.5 -56.5q-303 0 -518.5 219.5t-215.5 524.5t215.5 524t518.5 219q150 0 294 -56t242 -155q18 -20 0 -39l-49 -55q-23 -20 -43 0q-174 186 -444 186q-246 0 -422 -189t-176 -435 t176 -435.5t422 -189.5z" glyph-name="C" horiz-adv-x="1474" unicode="C"/><glyph d="M240 1434h499q303 0 505 -206t202 -511t-202 -511t-505 -206h-499q-29 0 -29 29v1376q0 29 29 29zM737 1317h-393v-1200h393q252 0 414 176t162 424q0 250 -162 425t-414 175z" glyph-name="D" horiz-adv-x="1552" unicode="D"/><glyph d="M1141 0h-910q-29 0 -28 29v1376q0 29 28 29h910q27 0 26 -29v-62q0 -29 -26 -28h-805v-533h768q27 0 26 -26v-62q0 -29 -26 -28h-768v-549h805q27 0 26 -27v-61q1 -29 -26 -29z" glyph-name="E" horiz-adv-x="1296" unicode="E"/><glyph d="M344 666v-637q0 -29 -27 -29h-77q-16 0 -22.5 6t-6.5 23v1376q0 29 29 29h905q29 0 29 -29v-62q0 -29 -29 -28h-801v-533h784q29 0 29 -26v-62q0 -29 -29 -28h-784z" glyph-name="F" horiz-adv-x="1277" unicode="F"/><glyph d="M834 1341q-246 0 -420 -188t-174 -436q0 -246 175 -435.5t419 -189.5q260 0 450 172v357h-424q-29 0 -29 28v62q0 29 29 28h529q29 0 28 -28v-449q0 -41 -33 -74q-100 -98 -249.5 -156.5t-300.5 -58.5q-301 0 -515.5 218.5t-214.5 525.5t214 525t516 218q147 0 288.5 -55 t245.5 -154q18 -18 -2 -39l-51 -55q-18 -20 -41 0q-76 76 -196.5 130t-243.5 54z" glyph-name="G" horiz-adv-x="1550" unicode="G"/><glyph d="M1198 780v625q0 16 6 22.5t23 6.5h76q16 0 22 -6.5t6 -22.5v-1376q0 -16 -6 -22.5t-22 -6.5h-76q-16 0 -22.5 6t-6.5 23v630h-844v-630q0 -16 -6 -22.5t-22 -6.5h-76q-16 0 -22.5 6t-6.5 23v1376q0 16 6 22.5t23 6.5h76q16 0 22 -6.5t6 -22.5v-625h844z" glyph-name="H" horiz-adv-x="1552" unicode="H"/><glyph d="M221 29v1376q0 16 6 22.5t23 6.5h76q29 0 28 -29v-1376q0 -16 -6 -22.5t-22 -6.5h-76q-16 0 -22.5 6.5t-6.5 22.5z" glyph-name="I" horiz-adv-x="575" unicode="I"/><glyph d="M623 1325h-340q-16 0 -22.5 6t-6.5 23v51q0 16 6 22.5t23 6.5h446q27 0 27 -29v-848q0 -309 -153.5 -445.5t-473.5 -138.5q-20 0 -27.5 6.5t-11.5 22.5l-6 64q-2 16 6 23t29 7q270 0 387 110.5t117 350.5v768z" glyph-name="J" horiz-adv-x="915" unicode="J"/><glyph d="M463 750l794 -721q12 -16 8.5 -22.5t-16.5 -6.5h-116q-20 0 -50 29l-727 661v-661q0 -18 -6 -23.5t-22 -5.5h-78q-16 0 -22.5 6t-6.5 23v1376q0 16 6 22.5t23 6.5h78q29 0 28 -29v-600l686 600q29 29 54 29h106q14 0 18.5 -7.5t-8.5 -21.5z" glyph-name="K" horiz-adv-x="1323" unicode="K"/><glyph d="M344 117h727q29 0 29 -27v-61q0 -29 -29 -29h-831q-16 0 -22.5 6t-6.5 23v1376q0 16 6 22.5t23 6.5h75q16 0 22.5 -6.5t6.5 -22.5v-1288z" glyph-name="L" horiz-adv-x="1167" unicode="L"/><glyph d="M1642 1174l-577 -1172q-12 -29 -35 -29h-14q-16 0 -35 29l-573 1169l-132 -1142q-2 -29 -26 -29h-80q-29 0 -27 29l172 1413q2 18 19 18h12q12 0 25 -18l653 -1282l653 1282q12 18 25 18h12q16 0 19 -18l170 -1413q2 -29 -25 -29h-80q-27 0 -29 29z" glyph-name="M" horiz-adv-x="2048" unicode="M"/><glyph d="M350 1192v-1163q0 -29 -26 -29h-78q-29 0 -29 29v1415q0 16 19 16h10q12 0 24 -12l969 -1200v1157q0 16 6 22.5t23 6.5h75q16 0 22.5 -6.5t6.5 -22.5v-1415q0 -16 -16 -17h-8q-14 0 -29 17z" glyph-name="N" horiz-adv-x="1589" unicode="N"/><glyph d="M104 717q0 305 215.5 524t518.5 219t518 -219t215 -524t-215 -524.5t-518 -219.5t-518.5 219.5t-215.5 524.5zM240 717q0 -246 176 -435.5t421.5 -189.5t422 189.5t176.5 435.5q0 248 -176.5 436t-422 188t-421.5 -189t-176 -435z" glyph-name="O" horiz-adv-x="1675" unicode="O"/><glyph d="M344 676h363q381 0 380 330q0 133 -84.5 222t-295.5 89h-363v-641zM717 559h-373v-530q0 -16 -6 -22.5t-23 -6.5h-75q-18 0 -23.5 6t-5.5 23v1376q0 18 6 23.5t23 5.5h477q100 0 185 -21.5t159 -68t116 -133.5t42 -205.5t-42 -208.5t-115 -140.5t-159 -74t-186 -23.5z " glyph-name="P" horiz-adv-x="1269" unicode="P"/><glyph d="M104 717q0 305 215.5 524t518.5 219t518 -219t215 -524q0 -360 -330 -613l180 -251q16 -23 -6 -39l-63 -45q-25 -16 -39 8l-180 268q-57 -25 -90 -38t-88.5 -23.5t-116.5 -10.5q-303 0 -518.5 219.5t-215.5 524.5zM240 717q0 -246 176 -435.5t421.5 -189.5t422 189.5 t176.5 435.5t-176.5 434t-421.5 190q-246 0 -422 -189t-176 -435z" glyph-name="Q" horiz-adv-x="1675" unicode="Q"/><glyph d="M1219 1004q0 -342 -328 -429l393 -542q20 -33 -22 -33h-78q-29 0 -47 29l-385 530h-408v-530q0 -18 -6 -23.5t-23 -5.5h-75q-16 0 -22.5 5t-6.5 24v1376q0 29 29 29h485q94 0 177 -21.5t157 -69t117 -134t43 -205.5zM344 676h371q188 0 280 86t92 242q0 160 -99 236.5 t-273 76.5h-371v-641z" glyph-name="R" horiz-adv-x="1370" unicode="R"/><glyph d="M670 1337q-115 0 -200 -30.5t-126 -78.5t-58.5 -95.5t-17.5 -94.5q0 -66 34 -111.5t101.5 -73.5t134 -42t169.5 -29q109 -14 189.5 -38.5t152 -66.5t108.5 -112.5t37 -167.5q0 -176 -134 -298t-386 -122q-322 0 -551 158q-20 14 -8 41l32 53q16 25 41 9 q205 -141 465 -142q109 0 195 23.5t150.5 93.5t64.5 180q0 127 -105.5 186.5t-332.5 92.5q-98 14 -172 33.5t-153 58.5t-121 107.5t-42 162.5q0 49 14.5 102.5t52.5 112t93 103.5t147.5 74.5t204.5 29.5q147 0 261 -38t245 -118q20 -14 8 -40l-30 -52q-16 -29 -41 -12 q-211 141 -422 141z" glyph-name="S" horiz-adv-x="1306" unicode="S"/><glyph d="M49 1434h1143q29 0 29 -29v-66q0 -29 -29 -28h-506v-1282q0 -29 -27 -29h-77q-29 0 -29 29v1282h-504q-29 0 -29 28v66q0 16 6.5 22.5t22.5 6.5z" glyph-name="T" unicode="T"/><glyph d="M731 -27q-258 0 -415.5 160t-157.5 457v815q0 29 28 29h78q27 0 27 -29v-805q0 -258 118.5 -383t321.5 -125t321.5 125t118.5 383v805q0 16 6.5 22.5t22.5 6.5h78q16 0 21.5 -6.5t5.5 -22.5v-815q0 -297 -158 -457t-416 -160z" glyph-name="U" horiz-adv-x="1464" unicode="U"/><glyph d="M700 -12l-661 1417q-10 29 16 29h97q25 0 36 -29l537 -1184h2l535 1184q16 29 36 29h95q31 0 18 -29l-661 -1417q-12 -25 -21 -25h-6q-7 0 -23 25z" glyph-name="V" horiz-adv-x="1443" unicode="V"/><glyph d="M190 1405l410 -1157l352 1184q8 29 27 28h16q18 0 27 -28l352 -1184l410 1157q10 29 37 29h100q23 0 12 -29l-528 -1417q-8 -25 -21 -25h-10q-10 0 -20 25l-367 1222l-366 -1222q-10 -25 -21 -25h-12q-10 0 -19 25l-528 1417q-12 29 12 29h101q26 0 36 -29z" glyph-name="W" horiz-adv-x="1966" unicode="W"/><glyph d="M684 608l-475 -579q-23 -29 -45 -29h-94q-35 0 -15 29l553 684l-555 692q-20 29 13 29h96q25 0 45 -29l477 -582l479 582q23 29 43 29h97q33 0 12 -29l-553 -692l553 -684q20 -29 -12 -29h-97q-23 0 -45 29z" glyph-name="X" horiz-adv-x="1363" unicode="X"/><glyph d="M569 569l-540 836q-16 29 12 29h92q25 0 41 -29l461 -709l461 709q18 29 39 29h92q29 0 12 -29l-541 -836v-540q0 -29 -26 -29h-74q-16 0 -22.5 6t-6.5 23v540z" glyph-name="Y" horiz-adv-x="1259" unicode="Y"/><glyph d="M1157 0h-1069q-18 0 -18 16v11q0 10 12 28l926 1260h-846q-29 0 -29 28v62q0 29 29 29h1034q16 0 16 -17v-12q0 -10 -10 -29l-926 -1259h881q29 0 29 -27v-61q0 -16 -6.5 -22.5t-22.5 -6.5z" glyph-name="Z" horiz-adv-x="1275" unicode="Z"/><glyph d="M643 -295v-55q0 -16 -6 -22.5t-23 -6.5h-378q-16 0 -22.5 6t-6.5 23v1780q0 16 6 22t23 6h378q16 0 22.5 -6t6.5 -22v-56q0 -29 -29 -28h-286v-1614h286q29 0 29 -27z" glyph-name="bracketleft" horiz-adv-x="784" unicode="["/><glyph d="M621 25l-478 1380q-8 29 25 29h65q25 0 33 -25l477 -1380q8 -29 -26 -29h-64q-16 0 -21 4.5t-11 20.5z" glyph-name="backslash" horiz-adv-x="880" unicode="\"/><glyph d="M135 -350v55q0 27 29 27h287v1614h-287q-29 0 -29 28v56q0 16 6 22t23 6h379q16 0 22 -6t6 -22v-1780q0 -16 -6 -22.5t-22 -6.5h-379q-16 0 -22.5 6.5t-6.5 22.5z" glyph-name="bracketright" horiz-adv-x="776" unicode="]"/><glyph d="M342 1542h43q16 0 39 -29l219 -311q18 -29 -10 -28h-53q-31 0 -48 28l-167 252l-170 -252q-16 -29 -45 -28h-54q-31 0 -12 28l219 311q19 29 39 29z" glyph-name="asciicircum" horiz-adv-x="720" unicode="^"/><glyph d="M932 -135h-815q-29 0 -29 29v53q0 16 6 22t23 6h815q27 0 26 -28v-56q1 -26 -26 -26z" glyph-name="underscore" horiz-adv-x="1040" unicode="_"/><glyph d="M279 1202l-197 187q-18 14 -6 34l33 52q18 29 36 6l254 -269q29 -29 -6 -28h-67q-27 0 -47 18z" glyph-name="grave" horiz-adv-x="471" unicode="`"/><glyph d="M250 918q-18 -4 -24.5 1t-10.5 25l-12 47q-8 29 22 37q147 37 350 37q240 0 335.5 -113.5t95.5 -376.5v-546q0 -29 -27 -29h-49q-18 0 -27 29l-6 153q-51 -76 -160.5 -140.5t-259.5 -64.5q-156 0 -261 91.5t-105 246.5q0 166 112.5 250t313.5 84q162 0 342 -78 q0 209 -70 295t-238 86q-151 1 -321 -34zM561 551q-324 0 -323 -236q0 -106 73.5 -170.5t202.5 -64.5q109 0 210 62.5t155 144.5v184q-185 80 -318 80z" glyph-name="a" horiz-adv-x="1157" unicode="a"/><glyph d="M328 1483v-674q12 31 36.5 65.5t70.5 82t120 78t164 30.5q213 0 343 -155.5t130 -387t-130 -388.5t-343 -157q-72 0 -136.5 21.5t-104.5 48.5t-79 69t-53 64.5t-35 57.5l-12 -209q-12 -29 -31 -29h-41q-27 0 -26 29v1454q0 29 26 28h74q27 1 27 -28zM696 92 q168 0 269.5 123t101.5 307q0 174 -102.5 300t-268.5 126q-164 0 -266 -129t-102 -299q0 -168 102 -298t266 -130z" glyph-name="b" horiz-adv-x="1294" unicode="b"/><glyph d="M639 94q182 0 301 123q18 16 39 -4l39 -43q16 -20 -2 -39q-154 -154 -379 -154q-223 0 -379 159t-156 384t156 385t379 160q225 0 379 -154q20 -20 2 -39l-39 -43q-20 -23 -39 -4q-119 123 -301 123q-172 0 -292 -125t-120 -303q0 -180 120 -303t292 -123z" glyph-name="c" horiz-adv-x="1112" unicode="c"/><glyph d="M967 809v674q0 29 26 28h74q27 0 27 -28v-1454q0 -29 -27 -29h-41q-20 0 -29 29l-12 209q-23 -37 -36 -57.5t-53 -64.5t-79 -70t-104.5 -47.5t-137.5 -21.5q-213 0 -343 157t-130 388.5t130 387t343 155.5q90 0 164 -30.5t120 -78t71 -82t37 -65.5zM598 92 q164 0 267.5 130t103.5 298q0 170 -103.5 299t-267.5 129q-166 0 -267.5 -126t-101.5 -300q0 -184 100.5 -307t268.5 -123z" glyph-name="d" horiz-adv-x="1294" unicode="d"/><glyph d="M1030 199l33 -37q18 -25 -2 -41q-70 -68 -182.5 -106t-231.5 -38q-229 0 -387 159t-158 384t156 385t379 160q229 0 367.5 -163t138.5 -400q0 -29 -27 -29h-885q8 -156 132 -269.5t290 -113.5q190 0 336 111q25 16 41 -2zM236 565h776q-4 158 -110.5 274.5t-266.5 116.5 q-162 0 -278.5 -118.5t-120.5 -272.5z" glyph-name="e" horiz-adv-x="1232" unicode="e"/><glyph d="M256 1038v64q0 225 84 341t278 116q100 0 175 -37q16 -12 12 -37l-12 -51q-4 -16 -11.5 -19.5t-23.5 4.5q-59 23 -127 23q-133 0 -191.5 -80t-58.5 -270v-54h389q27 0 27 -28v-49q0 -29 -27 -29h-389v-903q0 -29 -27 -29h-71q-27 0 -27 29v903h-162q-16 0 -22 5t-6 24v49 q0 29 28 28h162z" glyph-name="f" horiz-adv-x="843" unicode="f"/><glyph d="M967 57v176q-10 -23 -25.5 -49t-49.5 -65t-75 -69t-105.5 -51.5t-136.5 -21.5q-213 0 -343 156t-130 387q0 229 130 387t343 158q72 0 137.5 -21.5t104.5 -47t79 -69.5t53.5 -64.5t35.5 -57.5l12 209q8 29 29 28h41q27 0 27 -28v-944q0 -575 -471 -576q-205 0 -402 72 q-25 10 -16 33l16 63q8 27 31 16q4 -2 28.5 -11t38 -13t40 -12.5t50 -12.5t55.5 -10t67.5 -8t74.5 -2q104 0 177 34.5t112 98t55.5 140.5t16.5 175zM598 950q-168 0 -268.5 -122.5t-100.5 -307.5q0 -172 101.5 -299t267.5 -127q164 0 267.5 130t103.5 298t-103.5 298 t-267.5 130z" glyph-name="g" horiz-adv-x="1294" unicode="g"/><glyph d="M330 1483v-656q37 82 125 160t221 78q174 0 289.5 -114.5t115.5 -342.5v-579q0 -29 -26 -29h-74q-27 0 -27 29v540q0 182 -87 280.5t-222 98.5q-137 0 -226 -116.5t-89 -276.5v-526q0 -29 -27 -29h-74q-27 0 -26 29v514v940q0 29 26 28h74q27 1 27 -28z" glyph-name="h" horiz-adv-x="1232" unicode="h"/><glyph d="M254 29v985q0 16 6 22t23 6h69q29 0 29 -28v-985q0 -16 -6 -22.5t-23 -6.5h-69q-16 0 -22.5 6.5t-6.5 22.5zM221 1389q0 41 27.5 68.5t66.5 27.5t68 -29t29 -67.5t-29 -66.5t-68 -28t-66.5 28t-27.5 67z" glyph-name="i" horiz-adv-x="630" unicode="i"/><glyph d="M383 1389q0 41 27.5 68.5t68.5 27.5q39 0 66.5 -29t27.5 -67.5t-27.5 -66.5t-66.5 -28t-67.5 28t-28.5 67zM92 963v51q0 29 29 28h399q27 0 27 -28v-1041q0 -225 -85 -340.5t-280 -115.5q-121 0 -202 53q-18 10 -13 35l13 51q4 20 11 23.5t21 -7.5q66 -39 160 -39 q133 0 191.5 80t58.5 271v893v57h-301q-29 0 -29 29z" glyph-name="j" horiz-adv-x="776" unicode="j"/><glyph d="M463 553l569 -524q27 -29 -8 -29h-106q-23 0 -50 29l-534 489v-489q0 -29 -27 -29h-71q-29 0 -29 29v1454q0 29 29 28h71q27 0 27 -28v-903l508 434q27 29 49 28h102q14 0 17.5 -9t-9.5 -19z" glyph-name="k" horiz-adv-x="1124" unicode="k"/><glyph d="M221 29v1454q0 16 6 22t23 6h69q29 0 29 -28v-1454q0 -16 -6 -22.5t-23 -6.5h-69q-16 0 -22.5 6.5t-6.5 22.5z" glyph-name="l" horiz-adv-x="569" unicode="l"/><glyph d="M999 797q39 98 127 183t224 85q160 0 271.5 -115.5t111.5 -341.5v-579q0 -29 -27 -29h-74q-27 0 -26 29v540q0 180 -84 279.5t-203 99.5q-121 0 -203 -106.5t-82 -280.5v-532q0 -29 -26 -29h-74q-27 0 -27 29v540q0 168 -78.5 273.5t-207.5 105.5q-127 0 -207 -112.5 t-80 -280.5v-526q0 -29 -27 -29h-74q-27 0 -26 29v985q0 29 26 28h43q18 0 31 -28l12 -209q33 94 116 177t216 83q137 0 226 -85t122 -183z" glyph-name="m" horiz-adv-x="1884" unicode="m"/><glyph d="M309 1014l13 -203q25 53 62.5 103.5t119.5 100.5t178 50q174 0 291 -115.5t117 -341.5v-579q0 -29 -27 -29h-74q-27 0 -26 29v540q0 182 -87.5 280.5t-224.5 98.5q-135 0 -224 -116.5t-89 -276.5v-526q0 -29 -27 -29h-73q-27 0 -27 29v514v471q0 29 27 28h43q20 1 28 -28 z" glyph-name="n" unicode="n"/><glyph d="M102 520q0 225 157 385t380 160t381 -160t158 -385t-158 -384t-381 -159t-380 159t-157 384zM639 92q172 0 292 125t120 303t-120 303t-292 125q-170 0 -290 -125t-120 -303t120 -303t290 -125z" glyph-name="o" horiz-adv-x="1280" unicode="o"/><glyph d="M328 233v-622q0 -29 -27 -29h-74q-27 0 -26 29v1403q0 29 26 28h41q18 0 31 -28l12 -209q20 35 34.5 57.5t53.5 64.5t79 68.5t104.5 48t136.5 21.5q213 0 343 -157.5t130 -387.5q0 -231 -130 -387t-343 -156q-72 0 -136.5 21.5t-105.5 51.5t-74.5 69t-49 65t-25.5 49z M696 950q-164 0 -266 -130t-102 -298q0 -170 102 -299t266 -129q166 0 268.5 126t102.5 300q0 184 -101.5 307t-269.5 123z" glyph-name="p" horiz-adv-x="1294" unicode="p"/><glyph d="M967 -389v622q-10 -23 -25.5 -49t-49.5 -65t-75 -69t-105.5 -51.5t-136.5 -21.5q-213 0 -343 156t-130 387q0 229 130 387t343 158q72 0 137.5 -21.5t104.5 -47t79 -69.5t53.5 -64.5t35.5 -57.5l12 209q8 29 29 28h41q27 0 27 -28v-1403q0 -29 -27 -29h-74q-26 0 -26 29z M598 950q-168 0 -268.5 -122.5t-100.5 -307.5q0 -174 101.5 -300t267.5 -126q164 0 267.5 129t103.5 299q0 168 -103.5 298t-267.5 130z" glyph-name="q" horiz-adv-x="1294" unicode="q"/><glyph d="M748 940q-195 0 -302.5 -117.5t-107.5 -277.5v-516q0 -29 -27 -29h-73q-27 0 -27 29v985q0 29 27 28h43q20 0 28 -28l19 -221q125 272 438 272q31 0 25 -25l-11 -73q-3 -27 -32 -27z" glyph-name="r" horiz-adv-x="843" unicode="r"/><glyph d="M524 82q152 0 225.5 58.5t73.5 150.5q0 133 -305 178q-72 10 -119 19.5t-104 30t-91 48t-57.5 74.5t-23.5 109q0 145 104.5 230t282.5 85q205 0 389 -115q25 -14 10 -39l-22 -41q-12 -29 -39 -12q-94 57 -165 80t-167 23q-133 0 -202.5 -55.5t-69.5 -149.5 q0 -84 66.5 -116t236.5 -56q397 -57 397 -287q0 -141 -109.5 -230.5t-304.5 -89.5q-223 0 -421 132q-20 12 -7 38l25 43q16 27 41 11q166 -119 356 -119z" glyph-name="s" horiz-adv-x="1038" unicode="s"/><glyph d="M793 25q-82 -47 -195 -48q-195 0 -280 116t-85 341v502h-108q-16 0 -22.5 6t-6.5 23v49q0 29 29 28h108v215q0 29 29 29h70q16 0 22 -6t6 -23v-215h388q29 0 28 -28v-49q0 -16 -6 -22.5t-22 -6.5h-388v-492q0 -190 58.5 -270t191.5 -80q86 0 148 31q16 10 23 7t12 -19 l12 -54q4 -22 -12 -34z" glyph-name="t" horiz-adv-x="894" unicode="t"/><glyph d="M932 29l-12 202q-41 -90 -131.5 -172t-229.5 -82q-174 0 -290.5 116t-116.5 341v580q0 29 26 28h74q27 0 27 -28v-543q0 -182 87 -279.5t224 -97.5q135 0 224 117t89 276v527q0 29 27 28h74q27 0 26 -28v-514v-471q0 -29 -26 -29h-43q-21 0 -29 29z" glyph-name="u" unicode="u"/><glyph d="M496 -12l-478 1026q-14 29 15 28h84q25 0 37 -28l366 -803v-2l365 805q12 29 37 28h82q29 0 16 -28l-475 -1026q-12 -25 -23 -25h-6q-4 0 -20 25z" glyph-name="v" horiz-adv-x="1038" unicode="v"/><glyph d="M170 1018l236 -774l309 805q16 25 24 24h15q10 0 26 -24l312 -805l233 770q8 29 37 28h90q27 0 12 -28l-315 -1010q-8 -27 -25 -27h-12q-16 0 -29 27l-335 860l-336 -860q-12 -27 -29 -27h-12q-12 0 -25 27l-315 1010q-12 29 14 28h88q29 1 37 -24z" glyph-name="w" horiz-adv-x="1495" unicode="w"/><glyph d="M496 442l-316 -413q-18 -29 -41 -29h-94q-33 0 -12 29l373 491l-373 494q-20 29 12 28h94q20 0 41 -28l316 -416l303 416q18 29 41 28h92q33 0 12 -28l-360 -494l360 -491q20 -29 -12 -29h-92q-23 0 -41 29z" glyph-name="x" horiz-adv-x="978" unicode="x"/><glyph d="M524 184l361 830q16 29 39 28h84q27 0 14 -28l-621 -1403q-14 -29 -39 -29h-83q-27 0 -15 29l189 428l-435 975q-12 29 15 28h86q25 0 37 -28l366 -830h2z" glyph-name="y" horiz-adv-x="1044" unicode="y"/><glyph d="M899 0h-813q-16 0 -16 16v11q0 12 10 28l641 873h-567q-16 0 -22.5 6t-6.5 22v58q0 16 6 22t23 6h745q18 0 19 -16v-10q0 -8 -13 -31l-639 -870h633q29 0 29 -29v-57q0 -16 -6.5 -22.5t-22.5 -6.5z" glyph-name="z" horiz-adv-x="997" unicode="z"/><glyph d="M76 477v66q0 18 28 30q70 20 125.5 81t55.5 130v162q0 131 37.5 229.5t91 150.5t127 84t130 41t115.5 9q16 0 22.5 -6t6.5 -22v-64q0 -27 -29 -27q-41 0 -84 -7t-97 -32.5t-94 -66.5t-68.5 -116t-28.5 -173v-162q0 -106 -57.5 -179t-129.5 -93v-4q72 -23 129.5 -93.5 t57.5 -178.5v-162q0 -98 28.5 -173t68.5 -116t94 -66.5t97 -33t84 -7.5q29 0 29 -26v-64q0 -29 -29 -28q-59 0 -115.5 9t-130 41t-127 84t-91 150.5t-37.5 229.5v162q0 72 -55.5 131t-125.5 79q-28 8 -28 31z" glyph-name="braceleft" horiz-adv-x="923" unicode="{"/><glyph d="M203 -174v1782q0 29 28 28h56q29 0 28 -28v-1782q0 -29 -28 -29h-56q-28 0 -28 29z" glyph-name="bar" horiz-adv-x="518" unicode="|"/><glyph d="M848 543v-66q0 -23 -29 -31q-70 -20 -125 -79.5t-55 -130.5v-162q0 -131 -38 -229.5t-91 -150.5t-127 -84t-130 -41t-116 -9q-29 0 -28 28v64q0 27 28 26q41 0 84 7.5t96.5 33t94.5 66.5t68.5 115.5t27.5 173.5v162q0 109 58.5 179t129.5 93v4q-72 23 -130 94.5 t-58 177.5v162q0 98 -27.5 173t-68.5 116t-94.5 66.5t-96.5 32.5t-84 7q-29 0 -28 27v64q0 16 6 22t22 6q59 0 115.5 -9t130.5 -41t127 -84t91 -150.5t38 -229.5v-162q0 -70 55.5 -130t124.5 -81q29 -12 29 -30z" glyph-name="braceright" horiz-adv-x="923" unicode="}"/><glyph d="M528 772q-86 80 -147 80q-55 0 -91 -27.5t-71 -91.5q-18 -27 -43 -10l-35 33q-20 18 -2 45q31 47 55.5 74.5t72.5 53t106 25.5q90 0 192 -90q49 -45 77 -60.5t67 -15.5q55 0 91 28t70 91q18 29 43 11l35 -33q23 -16 0 -45q-31 -45 -54.5 -73t-71.5 -53.5t-107 -25.5 q-97 0 -187 84z" glyph-name="asciitilde" horiz-adv-x="1089" unicode="~"/><glyph d="M274 -637l13 895q0 29 28 29h68q27 0 27 -29l14 -895q0 -29 -29 -29h-94q-27 0 -27 29zM244 686q0 43 30.5 74t73.5 31q45 0 76 -31t31 -74q0 -45 -31 -75.5t-76 -30.5q-43 0 -73.5 30.5t-30.5 75.5z" glyph-name="exclamdown" horiz-adv-x="696" unicode="¡"/><glyph d="M500 -272l35 258q-193 37 -313 189.5t-120 344.5q0 223 161 386t374 159l45 -2l27 194q6 29 32 27l27 -4q27 -2 25 -31l-29 -198q141 -29 252 -140q20 -20 2 -39l-39 -43q-20 -23 -39 -4q-78 80 -190 109l-117 -840q182 -2 307 123q18 16 39 -4l39 -43q16 -20 -2 -39 q-156 -156 -400 -156l-32 -258q-6 -31 -33 -24l-27 2q-16 4 -21 9.5t-3 23.5zM227 520q0 -160 100.5 -275.5t223.5 -138.5l117 840q-186 8 -313.5 -119t-127.5 -307z" glyph-name="cent" horiz-adv-x="1105" unicode="¢"/><glyph d="M143 719h127q-10 16 -42.5 68.5t-50 84t-35 88t-17.5 113.5q0 154 101.5 270.5t304 116.5t425.5 -147q18 -10 7 -37l-35 -55q-16 -27 -39 -9q-68 51 -174.5 90t-177.5 39q-139 0 -211 -86t-72 -196q0 -31 9 -64.5t27.5 -72.5t34 -66t43 -73t38.5 -64h432q29 0 28 -29v-18 q0 -16 -6 -22.5t-22 -6.5h-416q12 -86 -5.5 -183.5t-56 -212t-43.5 -130.5h629q29 0 29 -27v-61q0 -16 -6 -22.5t-23 -6.5h-768q-27 0 -26 29q0 27 45 135t80.5 242.5t17.5 236.5h-152q-27 0 -26 29v18q-1 29 26 29z" glyph-name="sterling" horiz-adv-x="1077" unicode="£"/><glyph d="M182 700q0 115 70 215l-139 140q-18 18 0 39l28 28q18 20 39 -2l139 -137q96 70 213 70t213 -72l142 139q18 23 39 0l28 -26q20 -20 0 -39l-143 -144q74 -94 74 -211q0 -115 -74 -213l141 -141q20 -18 0 -39l-26 -28q-20 -20 -39 0l-142 141q-96 -70 -212.5 -70 t-213.5 72l-139 -139q-20 -20 -39 0l-26 28q-20 20 0 39l137 137q-70 100 -70 213zM281 700.5q0 -108.5 68.5 -182.5t183 -74t184 74t69.5 182.5t-69.5 182t-184.5 73.5q-113 0 -182 -73.5t-69 -182z" glyph-name="currency" horiz-adv-x="1067" unicode="¤"/><glyph d="M645 696l461 709q18 29 39 29h92q12 0 25 2h4q0 -2 -2 -4q-8 -14 -15 -27l-422 -651h301q29 0 29 -27v-37q0 -16 -6 -22t-23 -6h-350l-53 -68l-16 -74v-110h419q29 0 29 -27v-37q0 -16 -6 -22.5t-23 -6.5h-419v-288q0 -29 -27 -29h-74q-16 0 -22 6t-6 23v288h-410 q-16 0 -22.5 6.5t-6.5 22.5v37q0 27 29 27h410v159l-62 93h-348q-16 0 -22.5 6t-6.5 22v37q0 27 29 27h291l-422 651q-16 29 12 29h92q25 0 41 -29z" glyph-name="yen" horiz-adv-x="1298" unicode="¥"/><glyph d="M217 -158v762q0 29 29 29h41q29 0 28 -29v-762q0 -16 -6 -22t-22 -6h-41q-29 -1 -29 28zM217 895v657q0 29 29 29h41q29 0 28 -29v-657q0 -16 -6 -22.5t-22 -6.5h-41q-29 0 -29 29z" glyph-name="brokenbar" horiz-adv-x="532" unicode="¦"/><glyph d="M1186 397q0 -76 -34 -157.5t-89 -128.5q123 -96 123 -263q0 -184 -134 -301.5t-386 -117.5q-307 0 -539 153q-29 18 -12 45l32 54q14 25 39 8q209 -141 459 -142q106 0 192.5 23.5t152 93.5t65.5 180q0 127 -105.5 187.5t-333.5 91.5q-80 10 -140 23.5t-128.5 40 t-114 63.5t-75 97.5t-29.5 137.5q0 164 139 295q-139 88 -139 254q0 49 14.5 102.5t52 112t93 103.5t147.5 74.5t205 29.5q150 0 263.5 -37t238.5 -116q27 -16 12 -43l-31 -52q-16 -29 -41 -12q-211 141 -421 141q-115 0 -199 -32.5t-125 -83t-59.5 -96.5t-18.5 -87 q0 -53 24.5 -93t61.5 -65.5t99.5 -45t116.5 -29.5t136 -23q109 -14 190 -38.5t152.5 -66.5t108.5 -113t37 -167zM616 672q-47 8 -223 51q-57 -35 -95 -102.5t-38 -131.5q0 -53 24.5 -93t61.5 -65.5t99.5 -45t116.5 -29.5t136 -23q61 -10 108.5 -20t66 -16.5t39 -14.5 t24.5 -10q43 18 81 80.5t38 140.5q0 127 -106 186.5t-333 92.5z" glyph-name="section" horiz-adv-x="1298" unicode="§"/><glyph d="M117 1390.5q0 34.5 24.5 59.5t59.5 25t59.5 -25t24.5 -59.5t-24.5 -60t-59.5 -25.5t-59.5 25.5t-24.5 60zM506 1390.5q0 34.5 24.5 59.5t59.5 25t59.5 -25t24.5 -59.5t-24.5 -60t-59.5 -25.5t-59.5 25.5t-24.5 60z" glyph-name="dieresis" horiz-adv-x="790" unicode="¨"/><glyph d="M102 717q0 307 217.5 525t526.5 218q231 0 400 -110.5t245 -275.5t76 -357.5t-76 -357t-245 -275.5t-400 -111q-309 0 -526.5 217.5t-217.5 526.5zM162 717q0 -285 200.5 -484.5t485.5 -199.5q160 0 290 58.5t208.5 154.5t121.5 219t43 252t-43 252t-121.5 219 t-208.5 154.5t-290 58.5q-285 0 -485.5 -200.5t-200.5 -483.5zM844 418q125 0 213 88q10 10 22 0l29 -33q10 -14 -2 -27q-104 -104 -262 -104q-154 0 -261.5 109.5t-107.5 263.5q0 156 107.5 266.5t261.5 110.5q156 0 262 -107q12 -14 2 -24l-29 -33q-12 -10 -22 0 q-88 88 -213 88q-123 0 -204 -88t-81 -213q0 -123 81 -210t204 -87z" glyph-name="copyright" horiz-adv-x="1691" unicode="©"/><glyph d="M199 1354q-20 -2 -23 16l-14 43q-6 18 14 25q78 23 217 22q150 0 210.5 -70.5t60.5 -234.5v-338q0 -18 -19 -18h-41q-12 0 -18 18l-2 96q-86 -129 -250 -129q-98 0 -163 57.5t-65 153.5q0 102 70 154.5t195 52.5q96 0 200 -47q0 123 -39.5 173t-140.5 50q-73 1 -192 -24z M385 1126q-188 0 -188 -131q0 -61 43 -98t118 -37q125 0 213 135v84q-92 47 -186 47z" glyph-name="ordfeminine" horiz-adv-x="806" unicode="ª"/><glyph d="M106 584l347 381q20 18 36 6l54 -29q20 -14 2 -35l-334 -387l334 -387q18 -20 -2 -35l-54 -28q-18 -12 -36 6l-347 381q-29 35 -28 57v12q-1 23 28 58zM539 584l348 381q18 18 35 6l53 -29q20 -14 2 -35l-334 -387l334 -387q18 -20 -2 -35l-53 -28q-18 -12 -35 6 l-348 381q-29 35 -29 57v12q0 23 29 58z" glyph-name="guillemotleft" horiz-adv-x="1081" unicode="«"/><glyph d="M829 154v440h-698q-29 0 -29 29v49q0 16 6.5 22t22.5 6h778q27 0 27 -28v-518q0 -16 -6 -22.5t-23 -6.5h-49q-16 0 -22.5 6.5t-6.5 22.5z" glyph-name="logicalnot" horiz-adv-x="1052" unicode="¬"/><glyph d="M696 528h-565q-16 0 -22.5 6.5t-6.5 22.5v47q0 18 6.5 24.5t22.5 6.5h565q27 0 27 -29v-51q0 -27 -27 -27z" glyph-name="uni00AD" horiz-adv-x="825" unicode="­"/><glyph d="M1114 866q0 -90 -50 -148.5t-120 -74.5l207 -285q6 -16 -18 -16h-58q-16 0 -24 14l-201 279h-176v-279q0 -14 -15 -14h-57q-14 0 -14 14v721q0 14 14 15h258q109 0 181.5 -52.5t72.5 -173.5zM674 711h184q172 0 172 155q0 150 -178 150h-178v-305zM102 717 q0 307 217.5 525t526.5 218q307 0 525 -218t218 -525q0 -309 -218 -526.5t-525 -217.5q-309 0 -526.5 217.5t-217.5 526.5zM160 717q0 -285 200.5 -484.5t485.5 -199.5q283 0 483.5 199.5t200.5 484.5q0 283 -201 483.5t-483 200.5q-285 0 -485.5 -200.5t-200.5 -483.5z" glyph-name="registered" horiz-adv-x="1691" unicode="®"/><glyph d="M625 1362h-494q-29 0 -29 27v43q0 16 6.5 22t22.5 6h494q16 0 22 -6t6 -22v-43q1 -27 -28 -27z" glyph-name="macron" horiz-adv-x="755" unicode="¯"/><glyph d="M102 1147q0 131 89.5 220t220.5 89q129 0 220 -90t91 -219q0 -131 -91 -221t-220 -90q-131 0 -220.5 90t-89.5 221zM197 1147q0 -92 61 -153.5t151.5 -61.5t153 61.5t62.5 153.5q0 86 -63.5 149.5t-151.5 63.5t-150.5 -63.5t-62.5 -149.5z" glyph-name="degree" horiz-adv-x="825" unicode="°"/><glyph d="M621 1331v-313h315q29 0 29 -27v-55q0 -27 -29 -27h-315v-286q0 -29 -27 -29h-51q-31 0 -31 29v286h-313q-29 0 -29 29v51q0 16 6 22.5t23 6.5h313v313q0 29 29 29h53q27 0 27 -29zM948 190h-762q-29 0 -28 27v55q0 16 6 22.5t22 6.5h762q27 0 27 -29v-55q0 -27 -27 -27z " glyph-name="plusminus" horiz-adv-x="1132" unicode="±"/><glyph d="M424 1389l-199 -187q-18 -18 -47 -18h-67q-14 0 -16.5 7t9.5 21l256 269q18 20 35 -6l33 -52q10 -20 -4 -34z" glyph-name="acute" horiz-adv-x="524" unicode="´"/><glyph d="M965 29l-13 209q-6 -8 -34.5 -51.5t-43 -62t-47 -53t-61.5 -50t-73 -30t-93 -14.5q-82 0 -153.5 38t-108.5 112v-516q0 -29 -27 -29h-73q-27 0 -27 29v1403q0 29 27 28h73q27 0 27 -28v-539q0 -74 13.5 -138.5t44 -120.5t90 -89t139.5 -33q133 0 222 128t89 300v492 q0 29 27 28h73q27 0 27 -28v-985q0 -29 -27 -29h-41q-22 0 -30 29z" glyph-name="uni00B5" horiz-adv-x="1273" unicode="µ"/><glyph d="M635 -457v953q-238 0 -386.5 128t-148.5 349q0 213 135.5 337t321.5 124h879q29 0 28 -29v-64q0 -27 -28 -26h-248v-1774q0 -16 -6 -22t-23 -6h-57q-29 0 -29 28v1774h-323v-1772q0 -29 -29 -28h-57q-16 0 -22.5 6t-6.5 22z" glyph-name="paragraph" horiz-adv-x="1550" unicode="¶"/><glyph d="M109 702q0 49 34.5 83t83.5 34t84 -33.5t35 -83.5q0 -51 -35 -84.5t-84 -33.5t-83.5 33.5t-34.5 84.5z" glyph-name="periodcentered" horiz-adv-x="456" unicode="·"/><glyph d="M199 -20l69 -7l-18 -125q231 0 231 -184q0 -80 -52 -127t-140 -47q-96 0 -193 74q-18 14 -4 28l21 27q8 12 26 4q70 -53 156 -53q104 0 104 94q0 109 -143 109h-72q-20 0 -20 22z" glyph-name="cedilla" horiz-adv-x="565" unicode="¸"/><glyph d="M78 1116.5q0 151.5 66.5 247.5t199.5 96t199.5 -96t66.5 -247.5t-66.5 -248t-199.5 -96.5t-199.5 96.5t-66.5 248zM170 1116q0 -256 174 -256t174 256t-174 256t-174 -256z" glyph-name="ordmasculine" horiz-adv-x="686" unicode="º"/><glyph d="M627 965l346 -381q31 -37 31 -58v-12q0 -25 -31 -57l-346 -381q-16 -18 -35 -6l-53 28q-18 14 -4 35l335 387l-335 387q-14 20 4 35l53 29q17 12 35 -6zM195 965l346 -381q31 -37 30 -58v-12q0 -25 -30 -57l-346 -381q-16 -18 -37 -6l-52 28q-18 14 -4 35l336 387 l-336 387q-14 20 4 35l52 29q19 12 37 -6z" glyph-name="guillemotright" horiz-adv-x="1081" unicode="»"/><glyph d="M1018 1405l-705 -1380q-14 -25 -37 -25h-45q-37 0 -22 29l706 1380q10 25 37 25h45q35 0 21 -29zM90 1341l143 80q20 12 37 13h39q18 0 19 -19v-598q0 -18 -19 -18h-51q-20 0 -20 18v508l-142 -63q-16 -4 -16 12v49q0 12 10 18zM1028 635h62q18 0 18 -19v-368h100 q18 0 19 -21v-34q0 -20 -19 -21h-100v-154q0 -18 -18 -18h-43q-18 0 -19 18v154h-278q-18 0 -19 21v28q0 20 17 39l253 361q11 14 27 14zM1028 532l-203 -284h203v284z" glyph-name="onequarter" horiz-adv-x="1306" unicode="¼"/><glyph d="M1063 1405l-707 -1380q-10 -25 -37 -25h-45q-35 0 -22 29l706 1380q10 25 37 25h45q37 0 23 -29zM90 1341l143 80q20 12 37 13h39q18 0 19 -19v-598q0 -18 -19 -18h-51q-20 0 -20 18v508l-142 -63q-16 -4 -16 12v49q0 12 10 18zM1016 84h262q18 0 18 -18v-50 q0 -16 -18 -16h-406q-6 0 -6 6v6q0 10 8 21l273 358q57 88 28.5 138.5t-98.5 50.5q-94 0 -153 -62q-14 -14 -27 -2l-35 35q-10 14 2 27q94 84 213 84q90 0 143.5 -47.5t51.5 -112t-43 -129.5z" glyph-name="onehalf" horiz-adv-x="1376" unicode="½"/><glyph d="M1110 1405l-704 -1380q-10 -25 -37 -25h-45q-37 0 -23 29l707 1380q10 25 36 25h46q34 0 20 -29zM301 782q-125 0 -213 88q-12 12 -2 27l31 31q12 12 28 0q23 -23 37.5 -35t46 -23.5t72.5 -11.5q156 0 156 123q0 43 -44 74.5t-112 31.5h-59q-20 0 -21 19v31q0 20 21 20 h59q68 0 112 32t44 75q0 121 -156 120q-41 0 -72.5 -11t-46 -23.5t-37.5 -34.5q-16 -12 -28 0l-31 33q-12 12 2 24q90 90 213 90q94 0 165 -48t71 -144q0 -57 -34 -95t-81 -53v-2q47 -14 81 -52t34 -97q0 -94 -71 -141.5t-165 -47.5zM1120 635h62q18 0 18 -19v-368h100 q18 0 19 -21v-34q0 -20 -19 -21h-100v-154q0 -18 -18 -18h-43q-18 0 -19 18v154h-278q-18 0 -19 21v28q0 20 17 39l254 361q10 14 26 14zM1120 532l-205 -284h205v284z" glyph-name="threequarters" horiz-adv-x="1404" unicode="¾"/><glyph d="M610 82q-461 -90 -460 -330q0 -131 113.5 -226t303.5 -95q166 0 383 145q23 16 39 -12l33 -53q16 -25 -8 -39q-238 -160 -453 -160q-264 0 -402.5 133t-138.5 301q0 176 132.5 271.5t359.5 144.5v166q0 29 29 28h63q27 0 27 -28v-222q-1 -22 -21 -24zM680 686 q0 -45 -31 -75.5t-76 -30.5t-75.5 30.5t-30.5 75.5t30.5 76t75.5 31t76 -31t31 -76z" glyph-name="questiondown" horiz-adv-x="1050" unicode="¿"/><glyph d="M727 1235h-2l-324 -719h648zM750 1446l661 -1417q14 -29 -18 -29h-95q-20 0 -36 29l-168 370h-738l-168 -370q-12 -29 -36 -29h-97q-27 0 -16 29l661 1417q10 25 23 24h6q11 1 21 -24zM713 1593l-199 187q-14 14 -4 35l33 51q16 27 35 6l256 -268q12 -14 10 -21.5 t-17 -7.5h-67q-29 0 -47 18z" glyph-name="Agrave" horiz-adv-x="1443" unicode="À"/><glyph d="M727 1235h-2l-324 -719h648zM750 1446l661 -1417q14 -29 -18 -29h-95q-20 0 -36 29l-168 370h-738l-168 -370q-12 -29 -36 -29h-97q-27 0 -16 29l661 1417q10 25 23 24h6q11 1 21 -24zM967 1780l-199 -187q-18 -18 -47 -18h-68q-14 0 -16 7t10 22l256 268q18 20 35 -6 l33 -51q10 -21 -4 -35z" glyph-name="Aacute" horiz-adv-x="1443" unicode="Á"/><glyph d="M727 1235h-2l-324 -719h648zM750 1446l661 -1417q14 -29 -18 -29h-95q-20 0 -36 29l-168 370h-738l-168 -370q-12 -29 -36 -29h-97q-27 0 -16 29l661 1417q10 25 23 24h6q11 1 21 -24zM705 1933h43q18 0 38 -28l220 -312q18 -29 -13 -28h-51q-31 0 -47 28l-168 252 l-170 -252q-16 -29 -47 -28h-51q-31 0 -13 28l220 312q19 28 39 28z" glyph-name="Acircumflex" horiz-adv-x="1443" unicode="Â"/><glyph d="M727 1235h-2l-324 -719h648zM750 1446l661 -1417q14 -29 -18 -29h-95q-20 0 -36 29l-168 370h-738l-168 -370q-12 -29 -36 -29h-97q-27 0 -16 29l661 1417q10 25 23 24h6q11 1 21 -24zM874 1759q53 0 83 21.5t53 79.5q12 31 41 20l34 -14q25 -10 13 -43 q-68 -160 -211 -160q-96 0 -176 72q-49 43 -77 58t-63 15q-51 0 -80.5 -22.5t-54.5 -79.5q-12 -31 -41 -18l-33 14q-27 12 -12 43q66 158 211 158q88 0 180 -76q47 -41 72.5 -54.5t60.5 -13.5z" glyph-name="Atilde" horiz-adv-x="1443" unicode="Ã"/><glyph d="M727 1235h-2l-324 -719h648zM750 1446l661 -1417q14 -29 -18 -29h-95q-20 0 -36 29l-168 370h-738l-168 -370q-12 -29 -36 -29h-97q-27 0 -16 29l661 1417q10 25 23 24h6q11 1 21 -24zM446 1782q0 35 25 59.5t59.5 24.5t59 -24.5t24.5 -59.5t-24.5 -60.5t-59 -25.5 t-59.5 25.5t-25 60.5zM836 1782q0 35 24.5 59.5t59 24.5t59.5 -24.5t25 -59.5t-25 -60.5t-59.5 -25.5t-59 25.5t-24.5 60.5z" glyph-name="Adieresis" horiz-adv-x="1443" unicode="Ä"/><glyph d="M727 1235h-2l-324 -719h648zM750 1446l661 -1417q14 -29 -18 -29h-95q-20 0 -36 29l-168 370h-738l-168 -370q-12 -29 -36 -29h-97q-27 0 -16 29l661 1417q10 25 23 24h6q11 1 21 -24zM725 1579q-94 0 -154.5 62.5t-60.5 158.5t60.5 158.5t154.5 62.5t153.5 -62.5 t59.5 -158.5t-59.5 -158.5t-153.5 -62.5zM725 1651q63 0 100 44t37 105.5t-35.5 104.5t-99 43t-102.5 -44t-39 -103.5t38 -104.5t101 -45z" glyph-name="Aring" horiz-adv-x="1443" unicode="Å"/><glyph d="M911 0q-16 0 -22 6t-6 23v370h-477l-218 -370q-12 -29 -36 -29h-97q-27 0 -16 29l776 1349q31 55 49 56h965q27 0 26 -29v-62q0 -29 -26 -28h-805v-533h760q27 0 26 -26v-62q0 -29 -26 -28h-760v-549h805q27 0 26 -27v-61q0 -29 -26 -29h-918zM883 1255l-418 -739h418 v739z" glyph-name="AE" horiz-adv-x="1984" unicode="Æ"/><glyph d="M711 -205l34 185q-266 37 -453.5 251.5t-187.5 485.5q0 305 215.5 524t518.5 219q150 0 294 -56t242 -155q18 -20 0 -39l-49 -55q-23 -20 -43 0q-174 186 -444 186q-246 0 -422 -189t-176 -435t176 -435.5t422 -189.5q264 0 450 191q20 20 39 -2l49 -54q20 -20 -2 -43 q-211 -207 -559 -211l-18 -125q229 0 229 -184q0 -80 -52 -127t-140 -47q-94 0 -191 74q-20 16 -4 28l18 27q10 12 29 4q70 -53 156 -53q102 0 102 94q0 109 -141 109h-74q-18 -1 -18 22z" glyph-name="Ccedilla" horiz-adv-x="1474" unicode="Ç"/><glyph d="M1128 0h-909q-29 0 -29 29v1376q0 29 29 29h909q27 0 27 -29v-62q0 -29 -27 -28h-804v-533h768q27 0 26 -26v-62q0 -29 -26 -28h-768v-549h804q27 0 27 -27v-61q0 -29 -27 -29zM662 1593l-197 187q-18 14 -6 35l33 51q18 29 36 6l254 -268q29 -29 -6 -29h-67 q-24 0 -47 18z" glyph-name="Egrave" horiz-adv-x="1296" unicode="È"/><glyph d="M1128 0h-909q-29 0 -29 29v1376q0 29 29 29h909q27 0 27 -29v-62q0 -29 -27 -28h-804v-533h768q27 0 26 -26v-62q0 -29 -26 -28h-768v-549h804q27 0 27 -27v-61q0 -29 -27 -29zM848 1780l-199 -187q-18 -18 -47 -18h-67q-14 0 -16.5 7t9.5 22l256 268q18 20 35 -6l33 -51 q10 -21 -4 -35z" glyph-name="Eacute" horiz-adv-x="1296" unicode="É"/><glyph d="M655 1933h43q18 0 39 -28l219 -312q18 -29 -12 -28h-51q-31 0 -47 28l-168 252l-170 -252q-16 -29 -47 -28h-51q-31 0 -13 28l219 312q19 28 39 28zM1126 0h-909q-29 0 -29 29v1376q0 29 29 29h909q27 0 27 -29v-62q0 -29 -27 -28h-804v-533h768q27 0 26 -26v-62 q0 -29 -26 -28h-768v-549h804q27 0 27 -27v-61q0 -29 -27 -29z" glyph-name="Ecircumflex" horiz-adv-x="1265" unicode="Ê"/><glyph d="M1128 0h-909q-29 0 -29 29v1376q0 29 29 29h909q27 0 27 -29v-62q0 -29 -27 -28h-804v-533h768q27 0 26 -26v-62q0 -29 -26 -28h-768v-549h804q27 0 27 -27v-61q0 -29 -27 -29zM403 1782q0 35 25 59.5t59.5 24.5t59 -24.5t24.5 -59.5t-24.5 -60.5t-59 -25.5t-59.5 25.5 t-25 60.5zM793 1782q0 35 24.5 59.5t59 24.5t59.5 -24.5t25 -59.5t-25 -60.5t-59.5 -25.5t-59 25.5t-24.5 60.5z" glyph-name="Edieresis" horiz-adv-x="1296" unicode="Ë"/><glyph d="M233 29v1376q0 16 6.5 22.5t22.5 6.5h76q29 0 29 -29v-1376q0 -16 -6.5 -22.5t-22.5 -6.5h-76q-16 0 -22.5 6.5t-6.5 22.5zM268 1593l-196 187q-18 14 -6 35l32 51q18 29 37 6l254 -268q29 -29 -6 -29h-68q-24 0 -47 18z" glyph-name="Igrave" horiz-adv-x="624" unicode="Ì"/><glyph d="M240 29v1376q0 16 6 22.5t22 6.5h76q29 0 29 -29v-1376q0 -16 -6.5 -22.5t-22.5 -6.5h-76q-16 0 -22 6.5t-6 22.5zM524 1780l-198 -187q-18 -18 -47 -18h-68q-14 0 -16 7t10 22l256 268q18 20 35 -6l32 -51q10 -21 -4 -35z" glyph-name="Iacute" horiz-adv-x="612" unicode="Í"/><glyph d="M240 29v1376q0 16 6 22.5t22 6.5h76q29 0 29 -29v-1376q0 -16 -6.5 -22.5t-22.5 -6.5h-76q-16 0 -22 6.5t-6 22.5zM285 1933h43q16 0 39 -28l219 -312q18 -29 -13 -28h-51q-31 0 -47 28l-168 252l-170 -252q-16 -29 -47 -28h-51q-31 0 -12 28l219 312q19 28 39 28z" glyph-name="Icircumflex" horiz-adv-x="614" unicode="Î"/><glyph d="M240 29v1376q0 16 6 22.5t22 6.5h76q29 0 29 -29v-1376q0 -16 -6.5 -22.5t-22.5 -6.5h-76q-16 0 -22 6.5t-6 22.5zM2 1782q0 35 24.5 59.5t59.5 24.5t59.5 -24.5t24.5 -59.5t-24.5 -60.5t-59.5 -25.5t-59.5 25.5t-24.5 60.5zM391 1782q0 35 24.5 59.5t59.5 24.5 t59.5 -24.5t24.5 -59.5t-24.5 -60.5t-59.5 -25.5t-59.5 25.5t-24.5 60.5z" glyph-name="Idieresis" horiz-adv-x="612" unicode="Ï"/><glyph d="M74 784h219v621q0 29 29 29h499q303 0 506 -206t203 -511t-203 -511t-506 -206h-499q-29 0 -29 29v641h-219q-29 0 -29 28v58q0 28 29 28zM819 1317h-393v-533h369q29 0 28 -28v-58q0 -29 -28 -28h-369v-553h393q252 0 414 176t162 424t-162 424t-414 176z" glyph-name="Eth" horiz-adv-x="1634" unicode="Ð"/><glyph d="M350 1188v-1159q0 -29 -26 -29h-78q-29 0 -29 29v1415q0 16 19 16h10q12 0 24 -12l969 -1200v1157q0 16 6 22.5t23 6.5h75q16 0 22.5 -6.5t6.5 -22.5v-1415q0 -16 -16 -17h-8q-14 0 -29 17zM926 1759q53 0 82.5 21.5t52.5 79.5q12 31 41 20l35 -14q25 -10 12 -43 q-68 -160 -211 -160q-96 0 -176 72q-49 43 -77 58t-62 15q-51 0 -81 -22.5t-55 -79.5q-12 -31 -41 -18l-32 14q-27 12 -13 43q66 158 211 158q88 0 181 -76q47 -41 72.5 -54.5t60.5 -13.5z" glyph-name="Ntilde" horiz-adv-x="1589" unicode="Ñ"/><glyph d="M104 717q0 305 215.5 524t518.5 219t518 -219t215 -524t-215 -524.5t-518 -219.5t-518.5 219.5t-215.5 524.5zM240 717q0 -246 176 -435.5t421.5 -189.5t422 189.5t176.5 435.5q0 248 -176.5 436t-422 188t-421.5 -189t-176 -435zM821 1593l-196 187q-18 14 -7 35l33 51 q18 29 37 6l254 -268q29 -29 -6 -29h-68q-24 0 -47 18z" glyph-name="Ograve" horiz-adv-x="1675" unicode="Ò"/><glyph d="M104 717q0 305 215.5 524t518.5 219t518 -219t215 -524t-215 -524.5t-518 -219.5t-518.5 219.5t-215.5 524.5zM240 717q0 -246 176 -435.5t421.5 -189.5t422 189.5t176.5 435.5q0 248 -176.5 436t-422 188t-421.5 -189t-176 -435zM1061 1780l-199 -187q-18 -18 -47 -18 h-67q-14 0 -16.5 7t9.5 22l256 268q18 20 35 -6l33 -51q10 -21 -4 -35z" glyph-name="Oacute" horiz-adv-x="1675" unicode="Ó"/><glyph d="M104 717q0 305 215.5 524t518.5 219t518 -219t215 -524t-215 -524.5t-518 -219.5t-518.5 219.5t-215.5 524.5zM240 717q0 -246 176 -435.5t421.5 -189.5t422 189.5t176.5 435.5q0 248 -176.5 436t-422 188t-421.5 -189t-176 -435zM815 1933h43q18 0 39 -28l219 -312 q18 -29 -12 -28h-51q-31 0 -47 28l-168 252l-170 -252q-16 -29 -47 -28h-52q-31 0 -12 28l219 312q19 28 39 28z" glyph-name="Ocircumflex" horiz-adv-x="1675" unicode="Ô"/><glyph d="M104 717q0 305 215.5 524t518.5 219t518 -219t215 -524t-215 -524.5t-518 -219.5t-518.5 219.5t-215.5 524.5zM240 717q0 -246 176 -435.5t421.5 -189.5t422 189.5t176.5 435.5q0 248 -176.5 436t-422 188t-421.5 -189t-176 -435zM979 1759q53 0 83 21.5t52 79.5 q12 31 41 20l35 -14q25 -10 12 -43q-68 -160 -211 -160q-96 0 -176 72q-49 43 -76.5 58t-62.5 15q-51 0 -81 -22.5t-54 -79.5q-12 -31 -41 -18l-33 14q-27 12 -12 43q66 158 211 158q88 0 180 -76q47 -41 72.5 -54.5t60.5 -13.5z" glyph-name="Otilde" horiz-adv-x="1675" unicode="Õ"/><glyph d="M104 717q0 305 215.5 524t518.5 219t518 -219t215 -524t-215 -524.5t-518 -219.5t-518.5 219.5t-215.5 524.5zM240 717q0 -246 176 -435.5t421.5 -189.5t422 189.5t176.5 435.5q0 248 -176.5 436t-422 188t-421.5 -189t-176 -435zM539 1782q0 35 24.5 59.5t59 24.5 t59.5 -24.5t25 -59.5t-25 -60.5t-59.5 -25.5t-59 25.5t-24.5 60.5zM928 1782q0 35 24.5 59.5t59.5 24.5t59.5 -24.5t24.5 -59.5t-24.5 -60.5t-59.5 -25.5t-59.5 25.5t-24.5 60.5z" glyph-name="Odieresis" horiz-adv-x="1675" unicode="Ö"/><glyph d="M643 317l-225 228l-225 -228q-23 -18 -41 0l-37 37q-23 18 0 39l225 228l-225 227q-20 18 0 39l37 37q18 18 41 0l225 -228l225 228q20 20 41 0l37 -37q18 -20 0 -39l-225 -227l225 -228q18 -20 0 -39l-37 -37q-23 -23 -41 0z" glyph-name="multiply" horiz-adv-x="827" unicode="×"/><glyph d="M104 719q0 305 215.5 523t518.5 218q147 0 286 -59l54 98q10 23 34 23h50q39 0 22 -33l-74 -133q360 -240 361 -639q0 -305 -215 -524.5t-518 -219.5q-174 0 -310 72l-59 -111q-10 -23 -35 -22h-49q-37 0 -23 29l80 149q-152 102 -245 267t-93 362zM1436 717 q0 102 -31 193t-81 157t-90 103.5t-83 68.5l-565 -1085q117 -61 252 -62q246 0 422 189.5t176 435.5zM240 717q0 -98 29.5 -187.5t77.5 -154t85 -101t76 -67.5l561 1081q-113 53 -231 53q-244 0 -423 -190t-175 -434z" glyph-name="Oslash" horiz-adv-x="1675" unicode="Ø"/><glyph d="M731 -27q-258 0 -415.5 160t-157.5 457v815q0 29 28 29h78q27 0 27 -29v-805q0 -258 118.5 -383t321.5 -125t321.5 125t118.5 383v805q0 16 6.5 22.5t22.5 6.5h78q16 0 21.5 -6.5t5.5 -22.5v-815q0 -297 -158 -457t-416 -160zM709 1593l-197 187q-18 14 -6 35l33 51 q18 29 36 6l254 -268q29 -29 -6 -29h-67q-27 0 -47 18z" glyph-name="Ugrave" horiz-adv-x="1464" unicode="Ù"/><glyph d="M731 -27q-258 0 -415.5 160t-157.5 457v815q0 29 28 29h78q27 0 27 -29v-805q0 -258 118.5 -383t321.5 -125t321.5 125t118.5 383v805q0 16 6.5 22.5t22.5 6.5h78q16 0 21.5 -6.5t5.5 -22.5v-815q0 -297 -158 -457t-416 -160zM909 1780l-198 -187q-18 -18 -47 -18h-68 q-14 0 -16 7t10 22l256 268q18 20 35 -6l32 -51q10 -21 -4 -35z" glyph-name="Uacute" horiz-adv-x="1464" unicode="Ú"/><glyph d="M731 -27q-258 0 -415.5 160t-157.5 457v815q0 29 28 29h78q27 0 27 -29v-805q0 -258 118.5 -383t321.5 -125t321.5 125t118.5 383v805q0 16 6.5 22.5t22.5 6.5h78q16 0 21.5 -6.5t5.5 -22.5v-815q0 -297 -158 -457t-416 -160zM711 1933h43q16 0 39 -28l219 -312 q18 -29 -13 -28h-51q-31 0 -47 28l-168 252l-170 -252q-16 -29 -47 -28h-51q-31 0 -12 28l219 312q19 28 39 28z" glyph-name="Ucircumflex" horiz-adv-x="1464" unicode="Û"/><glyph d="M731 -27q-258 0 -415.5 160t-157.5 457v815q0 29 28 29h78q27 0 27 -29v-805q0 -258 118.5 -383t321.5 -125t321.5 125t118.5 383v805q0 16 6.5 22.5t22.5 6.5h78q16 0 21.5 -6.5t5.5 -22.5v-815q0 -297 -158 -457t-416 -160zM455 1782q0 35 24.5 59.5t59 24.5 t59.5 -24.5t25 -59.5t-25 -60.5t-59.5 -25.5t-59 25.5t-24.5 60.5zM844 1782q0 35 24.5 59.5t59.5 24.5t59.5 -24.5t24.5 -59.5t-24.5 -60.5t-59.5 -25.5t-59.5 25.5t-24.5 60.5z" glyph-name="Udieresis" horiz-adv-x="1464" unicode="Ü"/><glyph d="M571 569l-540 836q-16 29 12 29h92q25 0 41 -29l461 -709l461 709q18 29 39 29h92q29 0 12 -29l-541 -836v-540q0 -29 -26 -29h-74q-16 0 -22.5 6t-6.5 23v540zM819 1780l-198 -187q-18 -18 -48 -18h-67q-14 0 -16.5 7t10.5 22l256 268q18 20 35 -6l32 -51q10 -21 -4 -35 z" glyph-name="Yacute" horiz-adv-x="1263" unicode="Ý"/><glyph d="M743 0h-415v-389q0 -16 -6.5 -22.5t-22.5 -6.5h-70q-16 0 -22 6t-6 23v1821q0 16 6 22t22 6h70q29 0 29 -28v-390h415q207 0 345.5 -149.5t138.5 -372.5t-138.5 -371.5t-345.5 -148.5zM328 117h389q158 0 270.5 110.5t112.5 292.5t-113 295t-270 113h-389v-811z" glyph-name="Thorn" horiz-adv-x="1325" unicode="Þ"/><glyph d="M659 791h84q139 0 229.5 64.5t90.5 168.5q0 145 -102.5 219t-282.5 74q-162 0 -261.5 -69.5t-99.5 -219.5v-438v-561q0 -29 -26 -29h-76q-16 0 -22.5 6t-6.5 23v1007q0 109 42 189t114 124t155 64.5t175 20.5h10q215 0 365.5 -95.5t150.5 -302.5q0 -121 -75.5 -193.5 t-168.5 -103.5v-2q37 -8 79 -29.5t95.5 -59.5t88 -104.5t34.5 -148.5q0 -209 -141 -302t-360 -93h-154q-16 0 -22.5 6t-6.5 23v57q0 31 29 31h141q377 0 377 291q0 113 -102.5 191.5t-251.5 78.5h-101q-29 0 -28 29v55q0 16 6 22.5t22 6.5z" glyph-name="germandbls" horiz-adv-x="1314" unicode="ß"/><glyph d="M240 918q-18 -4 -24.5 1t-10.5 25l-12 47q-8 29 22 37q147 37 350 37q240 0 335 -113.5t95 -376.5v-546q0 -29 -26 -29h-49q-18 0 -27 29l-6 153q-51 -76 -161 -140.5t-259 -64.5q-156 0 -261.5 91.5t-105.5 246.5q0 166 113 250t313 84q162 0 342 -78q0 209 -69.5 295 t-237.5 86q-151 1 -321 -34zM551 551q-324 0 -324 -236q0 -106 74 -170.5t203 -64.5q109 0 210 62.5t154 144.5v184q-184 80 -317 80zM600 1202l-197 187q-18 14 -6 34l33 52q18 29 37 6l254 -269q29 -29 -6 -28h-68q-24 0 -47 18z" glyph-name="agrave" horiz-adv-x="1146" unicode="à"/><glyph d="M240 918q-18 -4 -24.5 1t-10.5 25l-12 47q-8 29 22 37q147 37 350 37q240 0 335 -113.5t95 -376.5v-546q0 -29 -26 -29h-49q-18 0 -27 29l-6 153q-51 -76 -161 -140.5t-259 -64.5q-156 0 -261.5 91.5t-105.5 246.5q0 166 113 250t313 84q162 0 342 -78q0 209 -69.5 295 t-237.5 86q-151 1 -321 -34zM551 551q-324 0 -324 -236q0 -106 74 -170.5t203 -64.5q109 0 210 62.5t154 144.5v184q-184 80 -317 80zM774 1389l-199 -187q-18 -18 -47 -18h-67q-14 0 -16.5 7t10.5 21l256 269q18 20 34 -6l33 -52q10 -20 -4 -34z" glyph-name="aacute" horiz-adv-x="1146" unicode="á"/><glyph d="M240 918q-18 -4 -24.5 1t-10.5 25l-12 47q-8 29 22 37q147 37 350 37q240 0 335 -113.5t95 -376.5v-546q0 -29 -26 -29h-49q-18 0 -27 29l-6 153q-51 -76 -161 -140.5t-259 -64.5q-156 0 -261.5 91.5t-105.5 246.5q0 166 113 250t313 84q162 0 342 -78q0 209 -69.5 295 t-237.5 86q-151 1 -321 -34zM551 551q-324 0 -324 -236q0 -106 74 -170.5t203 -64.5q109 0 210 62.5t154 144.5v184q-184 80 -317 80zM551 1542h43q16 0 39 -29l219 -311q18 -29 -12 -28h-52q-31 0 -47 28l-168 252l-170 -252q-16 -29 -47 -28h-51q-31 0 -12 28l219 311 q19 29 39 29z" glyph-name="acircumflex" horiz-adv-x="1146" unicode="â"/><glyph d="M240 918q-18 -4 -24.5 1t-10.5 25l-12 47q-8 29 22 37q147 37 350 37q240 0 335 -113.5t95 -376.5v-546q0 -29 -26 -29h-49q-18 0 -27 29l-6 153q-51 -76 -161 -140.5t-259 -64.5q-156 0 -261.5 91.5t-105.5 246.5q0 166 113 250t313 84q162 0 342 -78q0 209 -69.5 295 t-237.5 86q-151 1 -321 -34zM551 551q-324 0 -324 -236q0 -106 74 -170.5t203 -64.5q109 0 210 62.5t154 144.5v184q-184 80 -317 80zM723 1368q53 0 83 21.5t52 78.5q12 31 41 21l35 -14q25 -10 12 -43q-68 -160 -211 -160q-96 0 -176 71q-49 43 -76.5 58.5t-62.5 15.5 q-51 0 -81 -22.5t-54 -79.5q-12 -31 -41 -19l-33 15q-27 12 -12 43q66 158 211 157q88 0 180 -75q47 -41 72.5 -54.5t60.5 -13.5z" glyph-name="atilde" horiz-adv-x="1146" unicode="ã"/><glyph d="M240 918q-18 -4 -24.5 1t-10.5 25l-12 47q-8 29 22 37q147 37 350 37q240 0 335 -113.5t95 -376.5v-546q0 -29 -26 -29h-49q-18 0 -27 29l-6 153q-51 -76 -161 -140.5t-259 -64.5q-156 0 -261.5 91.5t-105.5 246.5q0 166 113 250t313 84q162 0 342 -78q0 209 -69.5 295 t-237.5 86q-151 1 -321 -34zM551 551q-324 0 -324 -236q0 -106 74 -170.5t203 -64.5q109 0 210 62.5t154 144.5v184q-184 80 -317 80zM274 1390.5q0 34.5 25 59.5t59.5 25t59 -25t24.5 -59.5t-24.5 -60t-59 -25.5t-59.5 25.5t-25 60zM664 1390.5q0 34.5 24.5 59.5t59 25 t59 -25t24.5 -59.5t-24.5 -60t-59 -25.5t-59 25.5t-24.5 60z" glyph-name="adieresis" horiz-adv-x="1146" unicode="ä"/><glyph d="M240 918q-18 -4 -24.5 1t-10.5 25l-12 47q-8 29 22 37q147 37 350 37q240 0 335 -113.5t95 -376.5v-546q0 -29 -26 -29h-49q-18 0 -27 29l-6 153q-51 -76 -161 -140.5t-259 -64.5q-156 0 -261.5 91.5t-105.5 246.5q0 166 113 250t313 84q162 0 342 -78q0 209 -69.5 295 t-237.5 86q-151 1 -321 -34zM551 551q-324 0 -324 -236q0 -106 74 -170.5t203 -64.5q109 0 210 62.5t154 144.5v184q-184 80 -317 80zM575.5 1188q-94.5 0 -155 62.5t-60.5 158.5t60.5 158.5t155 62.5t153.5 -62.5t59 -158.5t-59 -158.5t-153.5 -62.5zM575.5 1260 q63.5 0 100.5 44t37 105t-36 104t-99.5 43t-102.5 -44t-39 -103t38 -104t101.5 -45z" glyph-name="aring" horiz-adv-x="1146" unicode="å"/><glyph d="M877 571v199q-27 102 -104 142t-208 40q-152 0 -321 -34q-27 -4 -37 24l-10 49q-8 29 20 37q35 8 145.5 22.5t208.5 14.5q283 0 369 -166q168 166 395 166q244 0 372 -167t128 -390v-8q0 -27 -27 -27h-802v-154q39 -92 133 -160.5t202 -68.5q205 0 340 111q25 16 41 -2 l33 -37q18 -23 2 -39q-68 -68 -184.5 -107t-237.5 -39q-133 0 -241.5 73t-153.5 161q-70 -88 -197 -161t-276 -73q-158 0 -261.5 89.5t-103.5 246.5q0 168 111 252t309 84q173 0 355 -78zM877 287v184q-184 80 -330 80q-328 0 -328 -242q0 -102 73 -165.5t202 -63.5 q113 0 222.5 62.5t160.5 144.5zM1010 772v-207h694q-4 164 -98.5 277.5t-272.5 113.5q-202 0 -323 -184z" glyph-name="ae" horiz-adv-x="1927" unicode="æ"/><glyph d="M528 -201l35 181q-201 37 -331 181t-130 359q0 225 156 385t379 160q225 0 379 -154q20 -20 2 -39l-39 -43q-20 -23 -39 -4q-119 123 -301 123q-172 0 -292 -125t-120 -303q0 -180 120 -303t292 -123q182 0 301 123q18 16 39 -4l39 -43q16 -20 -2 -39 q-152 -152 -383 -154l-19 -124q229 0 230 -185q0 -80 -52.5 -127t-140.5 -47q-86 0 -190 74q-20 16 -4 29l18 26q10 12 29 4q70 -53 155 -53q102 0 103 94q0 109 -141 109h-74q-19 -1 -19 22z" glyph-name="ccedilla" horiz-adv-x="1112" unicode="ç"/><glyph d="M1063 162q18 -25 -2 -41q-70 -68 -182.5 -106t-231.5 -38q-229 0 -387 159t-158 384t156 385t379 160q229 0 367.5 -163t138.5 -400q0 -29 -27 -29h-885q8 -156 132 -269.5t290 -113.5q190 0 336 111q25 16 41 -2zM1012 565q-4 158 -110.5 274.5t-266.5 116.5 q-162 0 -278.5 -118.5t-120.5 -272.5h776zM614 1202l-196 187q-18 14 -6 34l32 52q18 29 37 6l254 -269q29 -29 -6 -28h-67q-28 0 -48 18z" glyph-name="egrave" horiz-adv-x="1232" unicode="è"/><glyph d="M1030 199l33 -37q18 -25 -2 -41q-70 -68 -182.5 -106t-231.5 -38q-229 0 -387 159t-158 384t156 385t379 160q229 0 367.5 -163t138.5 -400q0 -29 -27 -29h-885q8 -156 132 -269.5t290 -113.5q190 0 336 111q25 16 41 -2zM236 565h776q-4 158 -110.5 274.5t-266.5 116.5 q-162 0 -278.5 -118.5t-120.5 -272.5zM848 1389l-199 -187q-18 -18 -47 -18h-67q-14 0 -16.5 7t9.5 21l256 269q18 20 35 -6l33 -52q10 -20 -4 -34z" glyph-name="eacute" horiz-adv-x="1232" unicode="é"/><glyph d="M1063 162q18 -25 -2 -41q-70 -68 -182.5 -106t-231.5 -38q-229 0 -387 159t-158 384t156 385t379 160q229 0 367.5 -163t138.5 -400q0 -29 -27 -29h-885q8 -156 132 -269.5t290 -113.5q190 0 336 111q25 16 41 -2zM1012 565q-4 158 -110.5 274.5t-266.5 116.5 q-162 0 -278.5 -118.5t-120.5 -272.5h776zM625 1542h43q16 0 39 -29l219 -311q18 -29 -13 -28h-51q-31 0 -47 28l-168 252l-170 -252q-16 -29 -47 -28h-51q-31 0 -12 28l219 311q19 29 39 29z" glyph-name="ecircumflex" horiz-adv-x="1232" unicode="ê"/><glyph d="M1063 162q18 -25 -2 -41q-70 -68 -182.5 -106t-231.5 -38q-229 0 -387 159t-158 384t156 385t379 160q229 0 367.5 -163t138.5 -400q0 -29 -27 -29h-885q8 -156 132 -269.5t290 -113.5q190 0 336 111q25 16 41 -2zM1012 565q-4 158 -110.5 274.5t-266.5 116.5 q-162 0 -278.5 -118.5t-120.5 -272.5h776zM352 1390.5q0 34.5 24.5 59.5t59.5 25t59.5 -25t24.5 -59.5t-24.5 -60t-59.5 -25.5t-59.5 25.5t-24.5 60zM741 1390.5q0 34.5 25 59.5t59.5 25t59 -25t24.5 -59.5t-24.5 -60t-59 -25.5t-59.5 25.5t-25 60z" glyph-name="edieresis" horiz-adv-x="1232" unicode="ë"/><glyph d="M236 29v985q0 29 28 28h72q27 0 26 -28v-985q0 -29 -26 -29h-72q-28 0 -28 29zM252 1202l-197 187q-18 14 -6 34l33 52q18 29 37 6l254 -269q29 -29 -6 -28h-68q-24 0 -47 18z" glyph-name="igrave" horiz-adv-x="600" unicode="ì"/><glyph d="M231 29v985q0 29 29 28h72q27 0 26 -28v-985q0 -29 -26 -29h-72q-29 0 -29 29zM537 1389l-199 -187q-18 -18 -47 -18h-68q-14 0 -16 7t10 21l256 269q18 20 35 -6l33 -52q10 -20 -4 -34z" glyph-name="iacute" horiz-adv-x="591" unicode="í"/><glyph d="M233 29v985q0 29 29 28h72q27 0 26 -28v-985q0 -29 -26 -29h-72q-29 0 -29 29zM276 1542h43q16 0 39 -29l220 -311q18 -29 -13 -28h-51q-31 0 -47 28l-168 252l-170 -252q-16 -29 -47 -28h-51q-31 0 -13 28l220 311q18 29 38 29z" glyph-name="icircumflex" horiz-adv-x="598" unicode="î"/><glyph d="M233 29v985q0 29 29 28h72q27 0 26 -28v-985q0 -29 -26 -29h-72q-29 0 -29 29zM20 1390.5q0 34.5 25 59.5t59.5 25t59 -25t24.5 -59.5t-24.5 -60t-59 -25.5t-59.5 25.5t-25 60zM410 1390.5q0 34.5 24.5 59.5t59 25t59.5 -25t25 -59.5t-25 -60t-59.5 -25.5t-59 25.5 t-24.5 60z" glyph-name="idieresis" horiz-adv-x="598" unicode="ï"/><glyph d="M883 1501l-60 -100q160 -90 229.5 -280.5t69.5 -502.5q0 -319 -124 -482t-423 -163q-227 0 -359 147.5t-132 366.5q0 213 135 331t330 118q158 0 272.5 -76t167.5 -201q0 487 -227 633l-125 -211q-18 -25 -39 -10l-14 8q-27 14 -13 39l121 201q-98 23 -217 16 q-29 -6 -29 27v61q0 31 29 33q10 0 35 1t37 1q102 0 209 -28l65 108q14 25 37 12l16 -10q25 -14 9 -39zM580 90q119 0 202.5 39t122.5 100.5t54.5 117.5t15.5 112q0 143 -123 254.5t-272 111.5q-154 0 -259.5 -94t-105.5 -250q0 -166 95.5 -278.5t269.5 -112.5z" glyph-name="eth" horiz-adv-x="1224" unicode="ð"/><glyph d="M322 811q25 53 62.5 103.5t119.5 100.5t178 50q174 0 291 -115.5t117 -341.5v-579q0 -29 -27 -29h-74q-27 0 -26 29v540q0 182 -87.5 280.5t-224.5 98.5q-135 0 -224 -116.5t-89 -276.5v-526q0 -29 -27 -29h-73q-27 0 -27 29v514v471q0 29 27 28h43q20 0 28 -28z M795 1368q53 0 82.5 21.5t52.5 78.5q12 31 41 21l35 -14q25 -10 12 -43q-68 -160 -211 -160q-96 0 -176 71q-49 43 -77 58.5t-62 15.5q-51 0 -81 -22.5t-55 -79.5q-12 -31 -41 -19l-32 15q-27 12 -13 43q66 158 211 157q88 0 181 -75q47 -41 72.5 -54.5t60.5 -13.5z" glyph-name="ntilde" unicode="ñ"/><glyph d="M102 520q0 225 157 385t380 160t381 -160t158 -385t-158 -384t-381 -159t-380 159t-157 384zM639 92q172 0 292 125t120 303t-120 303t-292 125q-170 0 -290 -125t-120 -303t120 -303t290 -125zM625 1202l-197 187q-18 14 -6 34l33 52q18 29 37 6l253 -269q29 -29 -6 -28 h-67q-24 0 -47 18z" glyph-name="ograve" horiz-adv-x="1280" unicode="ò"/><glyph d="M102 520q0 225 157 385t380 160t381 -160t158 -385t-158 -384t-381 -159t-380 159t-157 384zM639 92q172 0 292 125t120 303t-120 303t-292 125q-170 0 -290 -125t-120 -303t120 -303t290 -125zM842 1389l-199 -187q-18 -18 -47 -18h-68q-14 0 -16 7t10 21l256 269 q18 20 35 -6l33 -52q10 -20 -4 -34z" glyph-name="oacute" horiz-adv-x="1280" unicode="ó"/><glyph d="M102 520q0 225 157 385t380 160t381 -160t158 -385t-158 -384t-381 -159t-380 159t-157 384zM639 92q172 0 292 125t120 303t-120 303t-292 125q-170 0 -290 -125t-120 -303t120 -303t290 -125zM618 1542h44q18 0 38 -29l220 -311q18 -29 -13 -28h-51q-31 0 -47 28 l-168 252l-170 -252q-16 -29 -47 -28h-51q-31 0 -13 28l220 311q18 29 38 29z" glyph-name="ocircumflex" horiz-adv-x="1280" unicode="ô"/><glyph d="M102 520q0 225 157 385t380 160t381 -160t158 -385t-158 -384t-381 -159t-380 159t-157 384zM639 92q172 0 292 125t120 303t-120 303t-292 125q-170 0 -290 -125t-120 -303t120 -303t290 -125zM791 1368q53 0 82.5 21.5t52.5 78.5q12 31 41 21l34 -14q25 -10 13 -43 q-68 -160 -211 -160q-96 0 -176 71q-49 43 -77 58.5t-63 15.5q-51 0 -80.5 -22.5t-54.5 -79.5q-12 -31 -41 -19l-32 15q-27 12 -13 43q66 158 211 157q88 0 180 -75q47 -41 73 -54.5t61 -13.5z" glyph-name="otilde" horiz-adv-x="1280" unicode="õ"/><glyph d="M102 520q0 225 157 385t380 160t381 -160t158 -385t-158 -384t-381 -159t-380 159t-157 384zM639 92q172 0 292 125t120 303t-120 303t-292 125q-170 0 -290 -125t-120 -303t120 -303t290 -125zM358 1390.5q0 34.5 25 59.5t59.5 25t59 -25t24.5 -59.5t-24.5 -60 t-59 -25.5t-59.5 25.5t-25 60zM748 1390.5q0 34.5 24.5 59.5t59 25t59 -25t24.5 -59.5t-24.5 -60t-59 -25.5t-59 25.5t-24.5 60z" glyph-name="odieresis" horiz-adv-x="1280" unicode="ö"/><glyph d="M999 578h-903q-29 0 -28 28v43q0 16 6 22.5t22 6.5h903q27 0 27 -29v-45q0 -26 -27 -26zM457 229q0 39 24.5 64.5t63.5 25.5t63.5 -25.5t24.5 -64.5t-24.5 -63.5t-63.5 -24.5t-63.5 24.5t-24.5 63.5zM457 1010q0 37 25.5 63.5t62.5 26.5q35 0 61.5 -26.5t26.5 -63.5 t-25.5 -62.5t-62.5 -25.5t-62.5 25.5t-25.5 62.5z" glyph-name="divide" horiz-adv-x="1087" unicode="÷"/><glyph d="M98 520q0 225 158 385t381 160q115 0 194 -39l50 82q12 27 41 27h45q41 0 22 -29l-69 -125q115 -74 184.5 -193.5t69.5 -267.5q0 -225 -157 -384t-380 -159q-100 0 -217 46l-39 -86q-14 -29 -41 -29h-45q-39 0 -23 29l64 133q-109 72 -173.5 192.5t-64.5 257.5zM637 92 q170 0 290 125t120 303q0 213 -185 350l-389 -741q82 -37 164 -37zM225 520q0 -70 17.5 -128t52.5 -103t50 -62.5t48 -46.5l385 740q-72 29 -141 28q-172 0 -292 -125t-120 -303z" glyph-name="oslash" horiz-adv-x="1275" unicode="ø"/><glyph d="M920 231q-41 -90 -131.5 -172t-229.5 -82q-174 0 -290.5 116t-116.5 341v580q0 29 26 28h74q27 0 27 -28v-543q0 -182 87 -279.5t224 -97.5q135 0 224 117t89 276v527q0 29 27 28h74q27 0 26 -28v-514v-471q0 -29 -26 -29h-43q-20 0 -29 29zM559 1202l-197 187 q-18 14 -6 34l33 52q18 29 37 6l254 -269q29 -29 -6 -28h-68q-24 0 -47 18z" glyph-name="ugrave" unicode="ù"/><glyph d="M932 29l-12 202q-41 -90 -131.5 -172t-229.5 -82q-174 0 -290.5 116t-116.5 341v580q0 29 26 28h74q27 0 27 -28v-543q0 -182 87 -279.5t224 -97.5q135 0 224 117t89 276v527q0 29 27 28h74q27 0 26 -28v-514v-471q0 -29 -26 -29h-43q-21 0 -29 29zM791 1389l-199 -187 q-18 -18 -47 -18h-68q-14 0 -16 7t10 21l256 269q18 20 35 -6l33 -52q10 -20 -4 -34z" glyph-name="uacute" unicode="ú"/><glyph d="M920 231q-41 -90 -131.5 -172t-229.5 -82q-174 0 -290.5 116t-116.5 341v580q0 29 26 28h74q27 0 27 -28v-543q0 -182 87 -279.5t224 -97.5q135 0 224 117t89 276v527q0 29 27 28h74q27 0 26 -28v-514v-471q0 -29 -26 -29h-43q-20 0 -29 29zM575 1542h43q16 0 39 -29 l220 -311q18 -29 -13 -28h-51q-31 0 -47 28l-168 252l-170 -252q-16 -29 -47 -28h-51q-31 0 -13 28l220 311q18 29 38 29z" glyph-name="ucircumflex" unicode="û"/><glyph d="M920 231q-41 -90 -131.5 -172t-229.5 -82q-174 0 -290.5 116t-116.5 341v580q0 29 26 28h74q27 0 27 -28v-543q0 -182 87 -279.5t224 -97.5q135 0 224 117t89 276v527q0 29 27 28h74q27 0 26 -28v-514v-471q0 -29 -26 -29h-43q-20 0 -29 29zM313 1390.5q0 34.5 24.5 59.5 t59.5 25t59.5 -25t24.5 -59.5t-24.5 -60t-59.5 -25.5t-59.5 25.5t-24.5 60zM702 1390.5q0 34.5 25 59.5t59.5 25t59 -25t24.5 -59.5t-24.5 -60t-59 -25.5t-59.5 25.5t-25 60z" glyph-name="udieresis" unicode="ü"/><glyph d="M524 184l361 830q16 29 39 28h84q27 0 14 -28l-621 -1403q-14 -29 -39 -29h-83q-27 0 -15 29l189 428l-435 975q-12 29 15 28h86q25 0 37 -28l366 -830h2zM709 1389l-199 -187q-18 -18 -47 -18h-68q-14 0 -16 7t10 21l256 269q18 20 35 -6l33 -52q10 -20 -4 -34z" glyph-name="yacute" horiz-adv-x="1044" unicode="ý"/><glyph d="M750 0h-416v-389q0 -29 -27 -29h-71q-29 0 -29 29v1821q0 29 29 28h71q27 0 27 -28v-390h416q207 0 346 -149.5t139 -372.5t-139 -371.5t-346 -148.5zM334 117h389q160 0 272.5 110.5t112.5 292.5t-113.5 295t-271.5 113h-389v-811z" glyph-name="thorn" horiz-adv-x="1337" unicode="þ"/><glyph d="M524 184l361 830q16 29 39 28h84q27 0 14 -28l-621 -1403q-14 -29 -39 -29h-83q-27 0 -15 29l189 428l-435 975q-12 29 15 28h86q25 0 37 -28l366 -830h2zM236 1390.5q0 34.5 24.5 59.5t59 25t59 -25t24.5 -59.5t-24.5 -60t-59 -25.5t-59 25.5t-24.5 60zM625 1390.5 q0 34.5 24.5 59.5t59 25t59.5 -25t25 -59.5t-25 -60t-59.5 -25.5t-59 25.5t-24.5 60z" glyph-name="ydieresis" horiz-adv-x="1044" unicode="ÿ"/><glyph d="M727 1235h-2l-324 -719h648zM750 1446l661 -1417q14 -29 -18 -29h-95q-20 0 -36 29l-168 370h-738l-168 -370q-12 -29 -36 -29h-97q-27 0 -16 29l661 1417q10 25 23 24h6q11 1 21 -24zM975 1753h-494q-29 0 -28 27v43q0 16 6 22t22 6h494q16 0 22.5 -6t6.5 -22v-43 q0 -27 -29 -27z" glyph-name="Amacron" horiz-adv-x="1443" unicode="Ā"/><glyph d="M240 918q-18 -4 -24.5 1t-10.5 25l-12 47q-8 29 22 37q147 37 350 37q240 0 335 -113.5t95 -376.5v-546q0 -29 -26 -29h-49q-18 0 -27 29l-6 153q-51 -76 -161 -140.5t-259 -64.5q-156 0 -261.5 91.5t-105.5 246.5q0 166 113 250t313 84q162 0 342 -78q0 209 -69.5 295 t-237.5 86q-151 1 -321 -34zM551 551q-324 0 -324 -236q0 -106 74 -170.5t203 -64.5q109 0 210 62.5t154 144.5v184q-184 80 -317 80zM823 1362h-493q-29 0 -29 27v43q0 16 6 22t23 6h493q16 0 22.5 -6t6.5 -22v-43q0 -27 -29 -27z" glyph-name="amacron" horiz-adv-x="1146" unicode="ā"/><glyph d="M727 1235h-2l-324 -719h648zM750 1446l661 -1417q14 -29 -18 -29h-95q-20 0 -36 29l-168 370h-738l-168 -370q-12 -29 -36 -29h-97q-27 0 -16 29l661 1417q10 25 23 24h6q11 1 21 -24zM725 1659q-205 0 -283 182q-14 31 7 39l45 25q18 8 30 -15q33 -78 77 -108.5 t124 -30.5q78 0 124 30.5t79 108.5q8 23 28 15l45 -25q20 -8 7 -39q-76 -182 -283 -182z" glyph-name="Abreve" horiz-adv-x="1443" unicode="Ă"/><glyph d="M240 918q-18 -4 -24.5 1t-10.5 25l-12 47q-8 29 22 37q147 37 350 37q240 0 335 -113.5t95 -376.5v-546q0 -29 -26 -29h-49q-18 0 -27 29l-6 153q-51 -76 -161 -140.5t-259 -64.5q-156 0 -261.5 91.5t-105.5 246.5q0 166 113 250t313 84q162 0 342 -78q0 209 -69.5 295 t-237.5 86q-151 1 -321 -34zM551 551q-324 0 -324 -236q0 -106 74 -170.5t203 -64.5q109 0 210 62.5t154 144.5v184q-184 80 -317 80zM580 1268q-205 0 -283 182q-14 31 6 39l45 24q18 8 31 -14q33 -78 77 -108.5t123.5 -30.5t125 30.5t77.5 108.5q8 23 29 14l45 -24 q20 -8 6 -39q-75 -182 -282 -182z" glyph-name="abreve" horiz-adv-x="1146" unicode="ă"/><glyph d="M1262 31l-168 368h-738l-168 -370q-12 -29 -36 -29h-97q-27 0 -16 29l661 1417q10 25 23 24h6q8 0 21 -20l661 -1421q14 -29 -18 -29h-50q-57 -6 -124.5 -53t-67.5 -125q0 -156 121 -156q23 0 92 4q27 0 27 -24v-23q0 -27 -27 -29q-49 -4 -104 -4q-82 0 -136.5 52.5 t-54.5 162.5q0 158 193 226zM725 1237l-324 -721h648l-322 719z" glyph-name="Aogonek" horiz-adv-x="1443" unicode="Ą"/><glyph d="M1057 -406q-49 -4 -105 -4q-90 0 -152.5 52.5t-62.5 164.5q0 139 150 222q-6 41 -6 51l-7 65q-174 -168 -413 -168q-147 0 -253 91.5t-106 246.5q0 164 111 249t301 85q160 0 342 -78q0 209 -69.5 295t-239.5 86q-135 0 -305 -34q-18 -4 -25.5 2t-11.5 24l-12 47 q-8 29 22 37q147 37 338 37q240 0 335 -113.5t95 -376.5v-546q0 -29 -25 -29q-141 -68 -141 -176q0 -78 44 -118t104 -40q23 0 92 4q29 0 28 -24v-23q1 -27 -28 -29zM537 551q-145 0 -226.5 -60.5t-81.5 -175.5q0 -106 75 -170.5t194 -64.5q96 0 196.5 53t161.5 115v223 q-188 80 -319 80z" glyph-name="aogonek" horiz-adv-x="1144" unicode="ą"/><glyph d="M831 92q264 0 451 191q20 20 39 -2l49 -54q18 -23 -2 -43q-98 -98 -242.5 -154.5t-294.5 -56.5q-303 0 -518 219.5t-215 524.5t215 524t518 219q150 0 294.5 -56t242.5 -155q20 -20 0 -39l-49 -55q-20 -20 -43 0q-174 186 -445 186q-246 0 -422 -189t-176 -435 t176 -435.5t422 -189.5zM977 1780l-199 -187q-18 -18 -47 -18h-67q-14 0 -16.5 7t9.5 22l256 268q18 20 35 -6l33 -51q10 -21 -4 -35z" glyph-name="Cacute" horiz-adv-x="1484" unicode="Ć"/><glyph d="M635 94q182 0 301 123q18 16 39 -4l39 -43q16 -20 -2 -39q-154 -154 -379 -154q-223 0 -379 159t-156 384t156 385t379 160q225 0 379 -154q20 -20 2 -39l-39 -43q-20 -23 -39 -4q-119 123 -301 123q-172 0 -292 -125t-120 -303q0 -180 120 -303t292 -123zM834 1389 l-199 -187q-18 -18 -47 -18h-68q-14 0 -16 7t10 21l256 269q18 20 35 -6l33 -52q10 -20 -4 -34z" glyph-name="cacute" horiz-adv-x="1099" unicode="ć"/><glyph d="M831 92q264 0 451 191q20 20 39 -2l49 -54q18 -23 -2 -43q-98 -98 -242.5 -154.5t-294.5 -56.5q-303 0 -518 219.5t-215 524.5t215 524t518 219q150 0 294.5 -56t242.5 -155q20 -20 0 -39l-49 -55q-20 -20 -43 0q-174 186 -445 186q-246 0 -422 -189t-176 -435 t176 -435.5t422 -189.5zM805 1933h43q18 0 39 -28l219 -312q18 -29 -12 -28h-52q-31 0 -47 28l-168 252l-170 -252q-16 -29 -47 -28h-51q-31 0 -12 28l219 312q19 28 39 28z" glyph-name="Ccircumflex" horiz-adv-x="1484" unicode="Ĉ"/><glyph d="M635 94q182 0 301 123q18 16 39 -4l39 -43q16 -20 -2 -39q-154 -154 -379 -154q-223 0 -379 159t-156 384t156 385t379 160q225 0 379 -154q20 -20 2 -39l-39 -43q-20 -23 -39 -4q-119 123 -301 123q-172 0 -292 -125t-120 -303q0 -180 120 -303t292 -123zM594 1542h43 q18 0 39 -29l219 -311q18 -29 -12 -28h-52q-31 0 -47 28l-168 252l-170 -252q-16 -29 -47 -28h-51q-31 0 -12 28l219 311q19 29 39 29z" glyph-name="ccircumflex" horiz-adv-x="1099" unicode="ĉ"/><glyph d="M831 92q264 0 451 191q20 20 39 -2l49 -54q18 -23 -2 -43q-98 -98 -242.5 -154.5t-294.5 -56.5q-303 0 -518 219.5t-215 524.5t215 524t518 219q150 0 294.5 -56t242.5 -155q20 -20 0 -39l-49 -55q-20 -20 -43 0q-174 186 -445 186q-246 0 -422 -189t-176 -435 t176 -435.5t422 -189.5zM723 1780q0 41 27.5 68.5t66.5 27.5t67.5 -28.5t28.5 -67.5t-28.5 -66.5t-67.5 -27.5t-66.5 27.5t-27.5 66.5z" glyph-name="Cdotaccent" horiz-adv-x="1484" unicode="Ċ"/><glyph d="M635 94q182 0 301 123q18 16 39 -4l39 -43q16 -20 -2 -39q-154 -154 -379 -154q-223 0 -379 159t-156 384t156 385t379 160q225 0 379 -154q20 -20 2 -39l-39 -43q-20 -23 -39 -4q-119 123 -301 123q-172 0 -292 -125t-120 -303q0 -180 120 -303t292 -123zM530 1389 q0 41 28 68.5t67 27.5t67.5 -29t28.5 -67.5t-28.5 -66.5t-67.5 -28t-67 28t-28 67z" glyph-name="cdotaccent" horiz-adv-x="1099" unicode="ċ"/><glyph d="M831 92q264 0 451 191q20 20 39 -2l49 -54q18 -23 -2 -43q-98 -98 -242.5 -154.5t-294.5 -56.5q-303 0 -518 219.5t-215 524.5t215 524t518 219q150 0 294.5 -56t242.5 -155q20 -20 0 -39l-49 -55q-20 -20 -43 0q-174 186 -445 186q-246 0 -422 -189t-176 -435 t176 -435.5t422 -189.5zM834 1565h-43q-20 0 -39 28l-220 312q-18 29 13 28h51q31 0 47 -28l170 -252l168 252q16 29 47 28h51q31 0 13 -28l-220 -312q-20 -28 -38 -28z" glyph-name="Ccaron" horiz-adv-x="1484" unicode="Č"/><glyph d="M635 94q182 0 301 123q18 16 39 -4l39 -43q16 -20 -2 -39q-154 -154 -379 -154q-223 0 -379 159t-156 384t156 385t379 160q225 0 379 -154q20 -20 2 -39l-39 -43q-20 -23 -39 -4q-119 123 -301 123q-172 0 -292 -125t-120 -303q0 -180 120 -303t292 -123zM635 1174h-43 q-20 0 -39 28l-219 311q-18 29 12 29h51q31 0 47 -29l170 -251l168 251q16 29 47 29h52q31 0 12 -29l-219 -311q-23 -28 -39 -28z" glyph-name="ccaron" horiz-adv-x="1099" unicode="č"/><glyph d="M236 1434h499q303 0 505 -206t202 -511t-202 -511t-505 -206h-499q-29 0 -29 29v1376q0 29 29 29zM733 1317h-393v-1200h393q252 0 414 176t162 424q0 250 -162 425t-414 175zM737 1565h-43q-20 0 -39 28l-219 312q-18 29 13 28h51q31 0 47 -28l170 -252l168 252 q16 29 47 28h51q31 0 12 -28l-219 -312q-23 -28 -39 -28z" glyph-name="Dcaron" horiz-adv-x="1544" unicode="Ď"/><glyph d="M967 809v674q0 29 26 28h74q27 0 27 -28v-1454q0 -29 -27 -29h-41q-20 0 -29 29l-12 209q-23 -37 -36 -57.5t-53 -64.5t-79 -70t-104.5 -47.5t-137.5 -21.5q-213 0 -343 157t-130 388.5t130 387t343 155.5q90 0 164 -30.5t120 -78t71 -82t37 -65.5zM598 92 q164 0 267.5 130t103.5 298q0 170 -103.5 299t-267.5 129q-166 0 -267.5 -126t-101.5 -300q0 -184 100.5 -307t268.5 -123zM1487 1296h-17q-45 2 -74.5 32t-29.5 75t30.5 76.5t76.5 31.5q47 0 78.5 -35.5t31.5 -99.5q0 -266 -221 -393q-16 -8 -21 2l-24 37q-6 12 6 22 q150 96 164 252z" glyph-name="dcaron" horiz-adv-x="1478" unicode="ď"/><glyph d="M51 784h221v621q0 29 29 29h500q303 0 504.5 -206t201.5 -511t-201.5 -511t-504.5 -206h-500q-29 0 -29 29v641h-221q-29 0 -28 28v58q-1 28 28 28zM799 1317h-393v-533h368q27 0 27 -28v-58q0 -29 -27 -28h-368v-553h393q252 0 413.5 176t161.5 424t-161.5 424 t-413.5 176z" glyph-name="Dcroat" horiz-adv-x="1613" unicode="Đ"/><glyph d="M1202 1180h-108v-1151q0 -29 -27 -29h-43q-20 0 -29 29l-12 209q-20 -35 -34.5 -57.5t-53.5 -64.5t-79 -69t-104.5 -48.5t-136.5 -21.5q-213 0 -343 157t-130 388.5t130 387t343 155.5q90 0 164 -29.5t120 -78t69.5 -82t38.5 -66.5v371h-246q-29 0 -29 26v41q0 27 29 27 h246v178q0 29 26 29h74q27 0 27 -29v-178h108q29 0 29 -27v-41q0 -26 -29 -26zM596 92q164 0 267.5 130t103.5 298q0 170 -103.5 299t-267.5 129t-265.5 -126t-101.5 -300q0 -184 100.5 -307t266.5 -123z" glyph-name="dcroat" horiz-adv-x="1282" unicode="đ"/><glyph d="M1128 0h-909q-29 0 -29 29v1376q0 29 29 29h909q27 0 27 -29v-62q0 -29 -27 -28h-804v-533h768q27 0 26 -26v-62q0 -29 -26 -28h-768v-549h804q27 0 27 -27v-61q0 -29 -27 -29zM920 1761h-494q-29 0 -29 27v43q0 16 6.5 22.5t22.5 6.5h494q16 0 22 -6.5t6 -22.5v-43 q1 -27 -28 -27z" glyph-name="Emacron" horiz-adv-x="1296" unicode="Ē"/><glyph d="M1063 162q18 -25 -2 -41q-70 -68 -182.5 -106t-231.5 -38q-229 0 -387 159t-158 384t156 385t379 160q229 0 367.5 -163t138.5 -400q0 -29 -27 -29h-885q8 -156 132 -269.5t290 -113.5q190 0 336 111q25 16 41 -2zM1012 565q-4 158 -110.5 274.5t-266.5 116.5 q-162 0 -278.5 -118.5t-120.5 -272.5h776zM885 1362h-494q-29 0 -29 27v43q0 16 6.5 22t22.5 6h494q16 0 22 -6t6 -22v-43q1 -27 -28 -27z" glyph-name="emacron" horiz-adv-x="1232" unicode="ē"/><glyph d="M1128 0h-909q-29 0 -29 29v1376q0 29 29 29h909q27 0 27 -29v-62q0 -29 -27 -28h-804v-533h768q27 0 26 -26v-62q0 -29 -26 -28h-768v-549h804q27 0 27 -27v-61q0 -29 -27 -29zM674 1659q-205 0 -283 182q-14 31 6 39l45 25q18 8 31 -15q33 -78 77 -108.5t124 -30.5 t125 30.5t78 108.5q8 23 28 15l45 -25q20 -8 6 -39q-75 -182 -282 -182z" glyph-name="Ebreve" horiz-adv-x="1296" unicode="Ĕ"/><glyph d="M1063 162q18 -25 -2 -41q-70 -68 -182.5 -106t-231.5 -38q-229 0 -387 159t-158 384t156 385t379 160q229 0 367.5 -163t138.5 -400q0 -29 -27 -29h-885q8 -156 132 -269.5t290 -113.5q190 0 336 111q25 16 41 -2zM1012 565q-4 158 -110.5 274.5t-266.5 116.5 q-162 0 -278.5 -118.5t-120.5 -272.5h776zM633 1268q-205 0 -283 182q-14 31 6 39l45 24q18 8 31 -14q33 -78 77 -108.5t124 -30.5t125 30.5t78 108.5q8 23 28 14l45 -24q20 -8 6 -39q-75 -182 -282 -182z" glyph-name="ebreve" horiz-adv-x="1232" unicode="ĕ"/><glyph d="M1128 0h-909q-29 0 -29 29v1376q0 29 29 29h909q27 0 27 -29v-62q0 -29 -27 -28h-804v-533h768q27 0 26 -26v-62q0 -29 -26 -28h-768v-549h804q27 0 27 -27v-61q0 -29 -27 -29zM594 1780q0 41 27.5 68.5t66.5 27.5t67.5 -28.5t28.5 -67.5t-28.5 -66.5t-67.5 -27.5 t-66.5 27.5t-27.5 66.5z" glyph-name="Edotaccent" horiz-adv-x="1296" unicode="Ė"/><glyph d="M1063 162q18 -25 -2 -41q-70 -68 -182.5 -106t-231.5 -38q-229 0 -387 159t-158 384t156 385t379 160q229 0 367.5 -163t138.5 -400q0 -29 -27 -29h-885q8 -156 132 -269.5t290 -113.5q190 0 336 111q25 16 41 -2zM1012 565q-4 158 -110.5 274.5t-266.5 116.5 q-162 0 -278.5 -118.5t-120.5 -272.5h776zM535 1389q0 41 27.5 68.5t66.5 27.5t67.5 -29t28.5 -67.5t-28.5 -66.5t-67.5 -28t-66.5 28t-27.5 67z" glyph-name="edotaccent" horiz-adv-x="1232" unicode="ė"/><glyph d="M1155 0q-53 -6 -117.5 -54t-64.5 -124q0 -156 119 -156q23 0 92 4q29 0 28 -24v-23q0 -27 -28 -29q-47 -4 -103 -4q-82 0 -136 52.5t-54 162.5q0 109 117 195h-772q-16 0 -22.5 6t-6.5 23v1376q0 29 29 29h907q29 0 28 -29v-62q0 -29 -28 -28h-803v-533h758q29 0 28 -26 v-62q0 -16 -6 -22t-22 -6h-758v-549h803q29 0 28 -27v-61q0 -27 -16 -29z" glyph-name="Eogonek" horiz-adv-x="1284" unicode="Ę"/><glyph d="M678 -20q-100 -63 -100 -156q0 -78 44 -118t103 -40q23 0 92 4q29 0 29 -24v-23q0 -27 -29 -29q-43 -4 -98 -4q-90 0 -155.5 52.5t-65.5 164.5q0 102 82 175q-199 23 -338.5 173t-139.5 365q0 225 156 385t379 160q229 0 367.5 -158.5t138.5 -384.5v-20q0 -29 -27 -29 h-885q8 -156 132 -269.5t290 -113.5q190 0 336 111q25 16 41 -2l33 -37q18 -25 0 -39q-68 -68 -173.5 -104.5t-211.5 -38.5zM236 565h776q-4 158 -110.5 274.5t-266.5 116.5q-162 0 -278.5 -118.5t-120.5 -272.5z" glyph-name="eogonek" horiz-adv-x="1232" unicode="ę"/><glyph d="M1128 0h-909q-29 0 -29 29v1376q0 29 29 29h909q27 0 27 -29v-62q0 -29 -27 -28h-804v-533h768q27 0 26 -26v-62q0 -29 -26 -28h-768v-549h804q27 0 27 -27v-61q0 -29 -27 -29zM696 1565h-43q-20 0 -39 28l-219 312q-18 29 13 28h51q31 0 47 -28l170 -252l168 252 q16 29 47 28h51q31 0 12 -28l-219 -312q-23 -28 -39 -28z" glyph-name="Ecaron" horiz-adv-x="1302" unicode="Ě"/><glyph d="M1063 162q18 -25 -2 -41q-70 -68 -182.5 -106t-231.5 -38q-229 0 -387 159t-158 384t156 385t379 160q229 0 367.5 -163t138.5 -400q0 -29 -27 -29h-885q8 -156 132 -269.5t290 -113.5q190 0 336 111q25 16 41 -2zM1012 565q-4 158 -110.5 274.5t-266.5 116.5 q-162 0 -278.5 -118.5t-120.5 -272.5h776zM641 1174h-43q-20 0 -39 28l-219 311q-18 29 12 29h51q31 0 48 -29l170 -251l167 251q16 29 48 29h51q31 0 12 -29l-219 -311q-21 -28 -39 -28z" glyph-name="ecaron" horiz-adv-x="1232" unicode="ě"/><glyph d="M834 1341q-246 0 -420 -188t-174 -436q0 -246 175 -435.5t419 -189.5q260 0 450 172v357h-424q-29 0 -29 28v62q0 29 29 28h529q29 0 28 -28v-449q0 -41 -33 -74q-100 -98 -249.5 -156.5t-300.5 -58.5q-301 0 -515.5 218.5t-214.5 525.5t214 525t516 218q147 0 288.5 -55 t245.5 -154q18 -18 -2 -39l-51 -55q-18 -20 -41 0q-76 76 -196.5 130t-243.5 54zM784 1933h43q16 0 39 -28l219 -312q18 -29 -12 -28h-51q-31 0 -47 28l-168 252l-170 -252q-16 -29 -47 -28h-51q-31 0 -13 28l219 312q19 28 39 28z" glyph-name="Gcircumflex" horiz-adv-x="1550" unicode="Ĝ"/><glyph d="M967 233q-10 -23 -25.5 -49t-49.5 -65t-75 -69t-105.5 -51.5t-136.5 -21.5q-213 0 -343 156t-130 387q0 229 130 387t343 158q72 0 137.5 -21.5t104.5 -47t79 -69.5t53.5 -64.5t35.5 -57.5l12 209q8 29 29 28h41q27 0 27 -28v-944q0 -575 -471 -576q-205 0 -402 72 q-25 10 -16 33l16 63q8 27 31 16q4 -2 28.5 -11t38 -13t40 -12.5t50 -12.5t55.5 -10t67.5 -8t74.5 -2q104 0 177 34.5t112 98t55.5 140.5t16.5 175v176zM598 950q-168 0 -268.5 -122.5t-100.5 -307.5q0 -172 101.5 -299t267.5 -127q164 0 267.5 130t103.5 298t-103.5 298 t-267.5 130zM608 1542h43q16 0 39 -29l219 -311q18 -29 -12 -28h-51q-31 0 -47 28l-168 252l-170 -252q-16 -29 -47 -28h-52q-31 0 -12 28l219 311q19 29 39 29z" glyph-name="gcircumflex" horiz-adv-x="1294" unicode="ĝ"/><glyph d="M834 1341q-246 0 -420 -188t-174 -436q0 -246 175 -435.5t419 -189.5q260 0 450 172v357h-424q-29 0 -29 28v62q0 29 29 28h529q29 0 28 -28v-449q0 -41 -33 -74q-100 -98 -249.5 -156.5t-300.5 -58.5q-301 0 -515.5 218.5t-214.5 525.5t214 525t516 218q147 0 288.5 -55 t245.5 -154q18 -18 -2 -39l-51 -55q-18 -20 -41 0q-76 76 -196.5 130t-243.5 54zM799 1659q-205 0 -283 182q-14 31 6 39l45 25q18 8 31 -15q33 -78 77 -108.5t124 -30.5q78 0 124 30.5t78 108.5q8 23 29 15l45 -25q20 -8 6 -39q-75 -182 -282 -182z" glyph-name="Gbreve" horiz-adv-x="1550" unicode="Ğ"/><glyph d="M631 1268q-205 0 -283 182q-14 31 6 39l45 24q18 8 31 -14q33 -78 77 -108.5t124 -30.5q78 0 124 30.5t79 108.5q8 23 28 14l45 -24q20 -8 6 -39q-75 -182 -282 -182zM967 233q-10 -23 -25.5 -49t-49.5 -65t-75 -69t-105.5 -51.5t-136.5 -21.5q-213 0 -343 156t-130 387 q0 229 130 387t343 158q72 0 137.5 -21.5t104.5 -47t79 -69.5t53.5 -64.5t35.5 -57.5l12 209q8 29 29 28h41q27 0 27 -28v-944q0 -575 -471 -576q-205 0 -402 72q-25 10 -16 33l16 63q8 27 31 16q4 -2 28.5 -11t38 -13t40 -12.5t50 -12.5t55.5 -10t67.5 -8t74.5 -2 q104 0 177 34.5t112 98t55.5 140.5t16.5 175v176zM598 950q-168 0 -268.5 -122.5t-100.5 -307.5q0 -172 101.5 -299t267.5 -127q164 0 267.5 130t103.5 298t-103.5 298t-267.5 130z" glyph-name="gbreve" horiz-adv-x="1294" unicode="ğ"/><glyph d="M834 1341q-246 0 -420 -188t-174 -436q0 -246 175 -435.5t419 -189.5q260 0 450 172v357h-424q-29 0 -29 28v62q0 29 29 28h529q29 0 28 -28v-449q0 -41 -33 -74q-100 -98 -249.5 -156.5t-300.5 -58.5q-301 0 -515.5 218.5t-214.5 525.5t214 525t516 218q147 0 288.5 -55 t245.5 -154q18 -18 -2 -39l-51 -55q-18 -20 -41 0q-76 76 -196.5 130t-243.5 54zM707 1780q0 41 27.5 68.5t66.5 27.5t67.5 -28.5t28.5 -67.5t-28.5 -66.5t-67.5 -27.5t-66.5 27.5t-27.5 66.5z" glyph-name="Gdotaccent" horiz-adv-x="1550" unicode="Ġ"/><glyph d="M967 233q-10 -23 -25.5 -49t-49.5 -65t-75 -69t-105.5 -51.5t-136.5 -21.5q-213 0 -343 156t-130 387q0 229 130 387t343 158q72 0 137.5 -21.5t104.5 -47t79 -69.5t53.5 -64.5t35.5 -57.5l12 209q8 29 29 28h41q27 0 27 -28v-944q0 -575 -471 -576q-205 0 -402 72 q-25 10 -16 33l16 63q8 27 31 16q4 -2 28.5 -11t38 -13t40 -12.5t50 -12.5t55.5 -10t67.5 -8t74.5 -2q104 0 177 34.5t112 98t55.5 140.5t16.5 175v176zM598 950q-168 0 -268.5 -122.5t-100.5 -307.5q0 -172 101.5 -299t267.5 -127q164 0 267.5 130t103.5 298t-103.5 298 t-267.5 130zM522 1389q0 41 28 68.5t66.5 27.5t67.5 -29t29 -67.5t-29 -66.5t-67.5 -28t-66.5 28t-28 67z" glyph-name="gdotaccent" horiz-adv-x="1294" unicode="ġ"/><glyph d="M858 -455h-16q-45 2 -75 33t-30 74q0 45 31 76.5t76 31.5q47 0 78.5 -35.5t31.5 -99.5q0 -266 -221 -393q-16 -8 -20 2l-25 37q-8 10 6 22q150 96 164 252zM834 1341q-246 0 -420 -188t-174 -436q0 -246 175 -435.5t419 -189.5q260 0 450 172v357h-424q-29 0 -29 28v62 q0 29 29 28h529q29 0 28 -28v-449q0 -41 -33 -74q-100 -98 -249.5 -156.5t-300.5 -58.5q-301 0 -515.5 218.5t-214.5 525.5t214 525t516 218q147 0 288.5 -55t245.5 -154q18 -18 -2 -39l-51 -55q-18 -20 -41 0q-76 76 -196.5 130t-243.5 54z" glyph-name="Gcommaaccent" horiz-adv-x="1550" unicode="Ģ"/><glyph d="M621 1440h16q45 0 75.5 -31t30.5 -76q0 -43 -30.5 -74.5t-75.5 -31.5q-49 0 -81 35.5t-32 99.5q0 266 221 393q16 8 21 -2l25 -37q6 -12 -7 -22q-149 -96 -163 -254zM967 233q-10 -23 -25.5 -49t-49.5 -65t-75 -69t-105.5 -51.5t-136.5 -21.5q-213 0 -343 156t-130 387 q0 229 130 387t343 158q72 0 137.5 -21.5t104.5 -47t79 -69.5t53.5 -64.5t35.5 -57.5l12 209q8 29 29 28h41q27 0 27 -28v-944q0 -575 -471 -576q-205 0 -402 72q-25 10 -16 33l16 63q8 27 31 16q4 -2 28.5 -11t38 -13t40 -12.5t50 -12.5t55.5 -10t67.5 -8t74.5 -2 q104 0 177 34.5t112 98t55.5 140.5t16.5 175v176zM598 950q-168 0 -268.5 -122.5t-100.5 -307.5q0 -172 101.5 -299t267.5 -127q164 0 267.5 130t103.5 298t-103.5 298t-267.5 130z" glyph-name="gcommaaccent" horiz-adv-x="1294" unicode="ģ"/><glyph d="M1198 780v625q0 16 6 22.5t23 6.5h76q16 0 22 -6.5t6 -22.5v-1376q0 -16 -6 -22.5t-22 -6.5h-76q-16 0 -22.5 6t-6.5 23v630h-844v-630q0 -16 -6 -22.5t-22 -6.5h-76q-16 0 -22.5 6t-6.5 23v1376q0 16 6 22.5t23 6.5h76q16 0 22 -6.5t6 -22.5v-625h844zM756 1933h43 q18 0 39 -28l219 -312q18 -29 -13 -28h-51q-31 0 -47 28l-168 252l-170 -252q-16 -29 -47 -28h-51q-31 0 -12 28l219 312q19 28 39 28z" glyph-name="Hcircumflex" horiz-adv-x="1552" unicode="Ĥ"/><glyph d="M330 827q37 82 125 160t221 78q174 0 289.5 -114.5t115.5 -342.5v-579q0 -29 -26 -29h-74q-27 0 -27 29v540q0 182 -87 280.5t-222 98.5q-137 0 -226 -116.5t-89 -276.5v-526q0 -29 -27 -29h-74q-27 0 -26 29v514v940q0 29 26 28h74q27 0 27 -28v-656zM246 1933h43 q18 0 39 -28l219 -312q18 -29 -12 -28h-52q-31 0 -47 28l-168 252l-170 -252q-16 -29 -47 -28h-51q-31 0 -12 28l219 312q19 28 39 28z" glyph-name="hcircumflex" horiz-adv-x="1232" unicode="ĥ"/><glyph d="M1491 1051h-176v-1022q0 -29 -29 -29h-78q-27 0 -26 29v630h-846v-630q0 -29 -27 -29h-78q-29 0 -28 29v1022h-174q-29 0 -29 26v37q0 16 6 22.5t23 6.5h174v262q0 29 28 29h78q27 0 27 -29v-262h846v262q0 29 26 29h78q29 0 29 -29v-262h176q27 0 27 -29v-37 q0 -26 -27 -26zM1182 780v271h-846v-271h846z" glyph-name="Hbar" horiz-adv-x="1517" unicode="Ħ"/><glyph d="M225 1270v182q0 29 27 29h74q27 0 26 -29v-182h275q29 0 28 -27v-39q0 -27 -28 -26h-275v-357q20 47 59.5 96.5t115 98.5t161.5 49q182 0 286.5 -117t104.5 -352v-567q0 -29 -26 -29h-74q-27 0 -27 29v530q0 190 -76.5 289.5t-209.5 99.5q-129 0 -221.5 -129t-92.5 -299 v-491q0 -29 -26 -29h-74q-27 0 -27 29v1149h-121q-29 0 -28 26v39q0 27 28 27h121z" glyph-name="hbar" horiz-adv-x="1224" unicode="ħ"/><glyph d="M227 29v1376q0 16 6.5 22.5t22.5 6.5h76q29 0 28 -29v-1376q0 -16 -6 -22.5t-22 -6.5h-76q-16 0 -22.5 6.5t-6.5 22.5zM446 1759q53 0 83 21.5t53 79.5q12 31 41 20l34 -14q25 -10 13 -43q-68 -160 -211 -160q-96 0 -176 72q-49 43 -77 58t-63 15q-51 0 -80.5 -22.5 t-54.5 -79.5q-12 -31 -41 -18l-33 14q-27 12 -12 43q66 158 211 158q88 0 180 -76q47 -41 72.5 -54.5t60.5 -13.5z" glyph-name="Itilde" horiz-adv-x="589" unicode="Ĩ"/><glyph d="M233 29v985q0 29 29 28h72q27 0 26 -28v-985q0 -29 -26 -29h-72q-29 0 -29 29zM451 1368q53 0 82.5 21.5t52.5 78.5q12 31 41 21l35 -14q25 -10 12 -43q-68 -160 -211 -160q-96 0 -176 71q-49 43 -77 58.5t-63 15.5q-51 0 -80.5 -22.5t-54.5 -79.5q-12 -31 -41 -19 l-32 15q-27 12 -13 43q66 158 211 157q88 0 180 -75q47 -41 73 -54.5t61 -13.5z" glyph-name="itilde" horiz-adv-x="598" unicode="ĩ"/><glyph d="M240 29v1376q0 16 6 22.5t22 6.5h76q29 0 29 -29v-1376q0 -16 -6.5 -22.5t-22.5 -6.5h-76q-16 0 -22 6.5t-6 22.5zM553 1753h-494q-29 0 -28 27v43q0 16 6 22t22 6h494q16 0 22.5 -6t6.5 -22v-43q0 -27 -29 -27z" glyph-name="Imacron" horiz-adv-x="612" unicode="Ī"/><glyph d="M233 29v985q0 29 29 28h72q27 0 26 -28v-985q0 -29 -26 -29h-72q-29 0 -29 29zM547 1362h-494q-29 0 -28 27v43q0 16 6 22t22 6h494q16 0 22 -6t6 -22v-43q1 -27 -28 -27z" glyph-name="imacron" horiz-adv-x="598" unicode="ī"/><glyph d="M221 29v1376q0 16 6 22.5t23 6.5h76q29 0 28 -29v-1376q0 -16 -6 -22.5t-22 -6.5h-76q-16 0 -22.5 6.5t-6.5 22.5zM287 1659q-205 0 -283 182q-14 31 6 39l45 25q18 8 31 -15q33 -78 77 -108.5t124 -30.5q78 0 124 30.5t78 108.5q8 23 29 15l45 -25q20 -8 6 -39 q-75 -182 -282 -182z" glyph-name="Ibreve" horiz-adv-x="575" unicode="Ĭ"/><glyph d="M217 29v985q0 29 29 28h71q27 0 27 -28v-985q0 -29 -27 -29h-71q-29 0 -29 29zM281 1268q-205 0 -283 182q-14 31 6 39l45 24q18 8 31 -14q33 -78 77 -108.5t123.5 -30.5t125 30.5t77.5 108.5q8 23 29 14l45 -24q20 -8 6 -39q-75 -182 -282 -182z" glyph-name="ibreve" horiz-adv-x="563" unicode="ĭ"/><glyph d="M240 47v1358q0 16 6 22.5t22 6.5h76q29 0 29 -29v-1376q0 -16 -6.5 -22.5t-22.5 -6.5h-4q-53 -6 -116.5 -54t-63.5 -124q0 -156 119 -156q23 0 92 4q29 0 28 -24v-23q0 -27 -28 -29q-49 -4 -105 -4q-80 0 -134 52.5t-54 162.5q0 156 188 220h-10q-16 -1 -16 22z" glyph-name="Iogonek" horiz-adv-x="612" unicode="Į"/><glyph d="M238 47v967q0 16 6 22t22 6h70q29 0 29 -28v-985q0 -29 -25 -29q-53 -6 -117.5 -54t-64.5 -124q0 -156 118 -156q23 0 93 4q29 0 28 -24v-23q0 -27 -28 -29q-47 -4 -103 -4q-82 0 -136 52.5t-54 162.5q0 86 56 139.5t132 80.5h-10q-16 -1 -16 22zM207 1389 q0 41 27.5 68.5t66.5 27.5t66.5 -29t27.5 -67.5t-27.5 -66.5t-66.5 -28t-66.5 28t-27.5 67z" glyph-name="iogonek" horiz-adv-x="587" unicode="į"/><glyph d="M250 29v1376q0 16 6 22.5t23 6.5h75q29 0 29 -29v-1376q0 -16 -6 -22.5t-23 -6.5h-75q-16 0 -22.5 6.5t-6.5 22.5zM221 1782q0 41 27.5 68.5t66.5 27.5t68 -28.5t29 -67.5t-29 -66.5t-68 -27.5t-66.5 27.5t-27.5 66.5z" glyph-name="Idotaccent" horiz-adv-x="630" unicode="İ"/><glyph d="M217 29v985q0 29 29 28h71q27 0 27 -28v-985q0 -29 -27 -29h-71q-29 0 -29 29z" glyph-name="dotlessi" horiz-adv-x="563" unicode="ı"/><glyph d="M221 29v1376q0 16 6 22.5t23 6.5h76q29 0 28 -29v-1376q0 -16 -6 -22.5t-22 -6.5h-76q-16 0 -22.5 6.5t-6.5 22.5zM852 1325q-16 0 -22.5 6t-6.5 23v51q0 16 6.5 22.5t22.5 6.5h446q27 0 27 -29v-848q0 -309 -153.5 -445.5t-473.5 -138.5q-20 0 -27 6.5t-12 22.5l-6 64 q-2 16 6.5 23t28.5 7q270 0 387 110.5t117 350.5v768h-340z" glyph-name="IJ" horiz-adv-x="1484" unicode="Ĳ"/><glyph d="M254 29v985q0 16 6 22t23 6h69q29 0 29 -28v-985q0 -16 -6 -22.5t-23 -6.5h-69q-16 0 -22.5 6.5t-6.5 22.5zM221 1389q0 41 27.5 68.5t66.5 27.5t68 -29t29 -67.5t-29 -66.5t-68 -28t-66.5 28t-27.5 67zM1036 1389q0 41 29 68.5t67.5 27.5t66.5 -29t28 -67.5t-28 -66.5 t-66.5 -28t-67.5 28t-29 67zM745 963v51q0 29 29 28h400q27 0 26 -28v-1041q0 -225 -85 -340.5t-279 -115.5q-121 0 -203 53q-18 10 -12 35l12 51q4 20 11 23.5t22 -7.5q66 -39 159 -39q133 0 191.5 80t58.5 271v893v57h-301q-29 0 -29 29z" glyph-name="ij" horiz-adv-x="1431" unicode="ĳ"/><glyph d="M283 1325q-16 0 -22.5 6t-6.5 23v51q0 16 6 22.5t23 6.5h446q27 0 27 -29v-848q0 -309 -153.5 -445.5t-473.5 -138.5q-20 0 -27.5 6.5t-11.5 22.5l-6 64q-2 16 6 23t29 7q270 0 387 110.5t117 350.5v768h-340zM485 1933h43q16 0 39 -28l219 -312q18 -29 -12 -28h-51 q-31 0 -47 28l-168 252l-170 -252q-16 -29 -47 -28h-51q-31 0 -13 28l219 312q19 28 39 28z" glyph-name="Jcircumflex" horiz-adv-x="954" unicode="Ĵ"/><glyph d="M106 963v51q0 29 29 28h400q27 0 26 -28v-1041q0 -225 -85 -340.5t-279 -115.5q-121 0 -203 53q-18 10 -12 35l12 51q4 20 11 23.5t24 -7.5q63 -39 157 -39q133 0 191.5 80t58.5 271v893v57h-301q-29 0 -29 29zM317 1542h43q16 0 39 -29l219 -311q18 -29 -12 -28h-51 q-31 0 -47 28l-168 252l-170 -252q-16 -29 -47 -28h-51q-31 0 -13 28l220 311q18 29 38 29z" glyph-name="jcircumflex" horiz-adv-x="829" unicode="ĵ"/><glyph d="M463 750l794 -721q12 -16 8.5 -22.5t-16.5 -6.5h-116q-20 0 -50 29l-727 661v-661q0 -18 -6 -23.5t-22 -5.5h-78q-16 0 -22.5 6t-6.5 23v1376q0 16 6 22.5t23 6.5h78q29 0 28 -29v-600l686 600q29 29 54 29h106q14 0 18.5 -7.5t-8.5 -21.5zM721 -455h-19q-45 2 -74.5 33 t-29.5 74q0 45 30.5 76.5t76.5 31.5q49 0 79.5 -35.5t30.5 -99.5q0 -268 -221 -393q-12 -8 -21 2l-24 37q-6 12 6 22q152 96 166 252z" glyph-name="Kcommaaccent" horiz-adv-x="1323" unicode="Ķ"/><glyph d="M475 553l551 -524q29 -29 -8 -29h-117q-20 0 -47 29l-520 485v-485q0 -29 -27 -29h-71q-29 0 -29 29v1423q0 29 29 29h71q27 0 27 -29v-870l491 432q27 29 47 28h117q14 0 16.5 -9t-8.5 -19zM608 -455h-16q-45 2 -76 33t-31 74q0 45 31 76.5t76 31.5q49 0 81 -35.5 t32 -99.5q0 -266 -222 -393q-14 -8 -22 2l-23 37q-8 12 6 22q150 96 164 252z" glyph-name="kcommaaccent" horiz-adv-x="1118" unicode="ķ"/><glyph d="M475 553l551 -524q29 -29 -8 -29h-117q-20 0 -47 29l-520 485v-485q0 -29 -27 -29h-71q-29 0 -29 29v985q0 29 29 28h71q27 0 27 -28v-432l491 432q27 29 47 28h117q14 0 16.5 -9t-8.5 -19z" glyph-name="kgreenlandic" horiz-adv-x="1118" unicode="ĸ"/><glyph d="M344 117h727q29 0 29 -27v-61q0 -29 -29 -29h-831q-16 0 -22.5 6t-6.5 23v1376q0 16 6 22.5t23 6.5h75q16 0 22.5 -6.5t6.5 -22.5v-1288zM584 1780l-199 -187q-18 -18 -47 -18h-68q-14 0 -16 7t10 22l256 268q18 20 35 -6l33 -51q10 -21 -4 -35z" glyph-name="Lacute" horiz-adv-x="1167" unicode="Ĺ"/><glyph d="M244 29v1454q0 16 6 22t22 6h70q29 0 29 -28v-1454q0 -16 -6.5 -22.5t-22.5 -6.5h-70q-16 0 -22 6.5t-6 22.5zM547 1780l-199 -187q-18 -18 -47 -18h-68q-14 0 -16 7t10 22l256 268q18 20 35 -6l33 -51q10 -21 -4 -35z" glyph-name="lacute" horiz-adv-x="581" unicode="ĺ"/><glyph d="M686 -455h-16q-45 2 -75 33t-30 74q0 45 31 76.5t76 31.5q47 0 78.5 -35.5t31.5 -99.5q0 -266 -221 -393q-16 -8 -20 2l-25 37q-6 12 6 22q150 96 164 252zM344 117h727q29 0 29 -27v-61q0 -29 -29 -29h-831q-16 0 -22.5 6t-6.5 23v1376q0 16 6 22.5t23 6.5h75 q16 0 22.5 -6.5t6.5 -22.5v-1288z" glyph-name="Lcommaaccent" horiz-adv-x="1167" unicode="Ļ"/><glyph d="M289 -455h-17q-45 2 -75.5 33t-30.5 74q0 45 30.5 76.5t75.5 31.5q49 0 81 -35.5t32 -99.5q0 -266 -221 -393q-14 -8 -23 2l-22 37q-8 12 6 22q150 96 164 252zM213 29v1454q0 16 6 22t23 6h69q29 0 29 -28v-1454q0 -16 -6 -22.5t-23 -6.5h-69q-16 0 -22.5 6.5t-6.5 22.5 z" glyph-name="lcommaaccent" horiz-adv-x="550" unicode="ļ"/><glyph d="M1028 1225h-18q-45 2 -75 31.5t-30 74.5t31 77t76 32q49 0 79.5 -36t30.5 -99q0 -268 -221 -394q-12 -8 -20 2l-25 37q-6 12 6 23q152 96 166 252zM344 117h727q29 0 29 -27v-61q0 -29 -29 -29h-831q-16 0 -22.5 6t-6.5 23v1376q0 16 6 22.5t23 6.5h75q16 0 22.5 -6.5 t6.5 -22.5v-1288z" glyph-name="Lcaron" horiz-adv-x="1196" unicode="Ľ"/><glyph d="M737 1296h-18q-45 2 -75 32t-30 75t31 76.5t76 31.5q49 0 79.5 -35.5t30.5 -99.5q0 -268 -221 -393q-12 -8 -20 2l-25 37q-6 12 6 22q152 96 166 252zM211 29v1454q0 16 6 22t23 6h69q29 0 29 -28v-1454q0 -16 -6 -22.5t-23 -6.5h-69q-16 0 -22.5 6.5t-6.5 22.5z" glyph-name="lcaron" horiz-adv-x="727" unicode="ľ"/><glyph d="M344 117h727q29 0 29 -27v-61q0 -29 -29 -29h-831q-16 0 -22.5 6t-6.5 23v1376q0 16 6 22.5t23 6.5h75q16 0 22.5 -6.5t6.5 -22.5v-1288zM911 709q0 41 28 68.5t66.5 27.5t67.5 -28.5t29 -67.5t-29 -67t-67.5 -28t-66.5 28t-28 67z" glyph-name="Ldot" horiz-adv-x="1175" unicode="Ŀ"/><glyph d="M221 29v1454q0 16 6 22t23 6h69q29 0 29 -28v-1454q0 -16 -6 -22.5t-23 -6.5h-69q-16 0 -22.5 6.5t-6.5 22.5zM641 735q0 41 27.5 68.5t66.5 27.5t67.5 -28.5t28.5 -67.5t-28.5 -66.5t-67.5 -27.5t-66.5 27.5t-27.5 66.5z" glyph-name="ldot" horiz-adv-x="892" unicode="ŀ"/><glyph d="M367 117h739q27 0 27 -27v-61q0 -29 -27 -29h-844q-16 0 -22.5 6t-6.5 23v514l-141 -51q-27 -8 -37 18l-10 33q-10 27 16 35l172 61v766q0 16 6.5 22.5t22.5 6.5h76q16 0 22.5 -6.5t6.5 -22.5v-719l426 156q25 8 34 -19l11 -32q10 -27 -17 -35l-454 -166v-473z" glyph-name="Lslash" horiz-adv-x="1202" unicode="Ł"/><glyph d="M289 29v567l-215 -78q-27 -8 -35 19l-12 32q-6 27 18 35l244 90v758q0 29 26 29h72q29 0 29 -29v-715l219 80q27 8 37 -18l10 -33q8 -27 -16 -35l-250 -90v-612q0 -29 -29 -29h-72q-26 0 -26 29z" glyph-name="lslash" horiz-adv-x="708" unicode="ł"/><glyph d="M350 1192v-1163q0 -29 -26 -29h-78q-29 0 -29 29v1415q0 16 19 16h10q12 0 24 -12l969 -1200v1157q0 16 6 22.5t23 6.5h75q16 0 22.5 -6.5t6.5 -22.5v-1415q0 -16 -16 -17h-8q-14 0 -29 17zM993 1780l-198 -187q-18 -18 -47 -18h-68q-14 0 -16 7t10 22l256 268 q18 20 35 -6l32 -51q10 -21 -4 -35z" glyph-name="Nacute" horiz-adv-x="1589" unicode="Ń"/><glyph d="M309 1014l13 -203q25 53 62.5 103.5t119.5 100.5t178 50q174 0 291 -115.5t117 -341.5v-579q0 -29 -27 -29h-74q-27 0 -26 29v540q0 182 -87.5 280.5t-224.5 98.5q-135 0 -224 -116.5t-89 -276.5v-526q0 -29 -27 -29h-73q-27 0 -27 29v514v471q0 29 27 28h43q20 1 28 -28 zM805 1389l-199 -187q-18 -18 -47 -18h-67q-14 0 -16.5 7t9.5 21l256 269q18 20 35 -6l33 -52q10 -20 -4 -34z" glyph-name="nacute" unicode="ń"/><glyph d="M825 -455h-16q-45 2 -74.5 33t-29.5 74q0 45 30.5 76.5t75.5 31.5q47 0 79 -35.5t32 -99.5q0 -266 -222 -393q-16 -8 -20 2l-25 37q-6 12 7 22q153 96 163 252zM350 1192v-1163q0 -29 -26 -29h-78q-29 0 -29 29v1415q0 16 19 16h10q12 0 24 -12l969 -1200v1157 q0 16 6 22.5t23 6.5h75q16 0 22.5 -6.5t6.5 -22.5v-1415q0 -16 -16 -17h-8q-14 0 -29 17z" glyph-name="Ncommaaccent" horiz-adv-x="1589" unicode="Ņ"/><glyph d="M682 -455h-18q-45 2 -75 33t-30 74q0 45 31 76.5t76 31.5q49 0 79.5 -35.5t30.5 -99.5q0 -268 -221 -393q-12 -8 -20 2l-25 37q-6 12 6 22q152 96 166 252zM309 1014l13 -203q25 53 62.5 103.5t119.5 100.5t178 50q174 0 291 -115.5t117 -341.5v-579q0 -29 -27 -29h-74 q-27 0 -26 29v540q0 182 -87.5 280.5t-224.5 98.5q-135 0 -224 -116.5t-89 -276.5v-526q0 -29 -27 -29h-73q-27 0 -27 29v514v471q0 29 27 28h43q20 1 28 -28z" glyph-name="ncommaaccent" unicode="ņ"/><glyph d="M350 1192v-1163q0 -29 -26 -29h-78q-29 0 -29 29v1415q0 16 19 16h10q12 0 24 -12l969 -1200v1157q0 16 6 22.5t23 6.5h75q16 0 22.5 -6.5t6.5 -22.5v-1415q0 -16 -16 -17h-8q-14 0 -29 17zM809 1565h-43q-20 0 -39 28l-219 312q-18 29 12 28h51q31 0 47 -28l170 -252 l168 252q16 29 48 28h51q31 0 12 -28l-219 -312q-21 -28 -39 -28z" glyph-name="Ncaron" horiz-adv-x="1589" unicode="Ň"/><glyph d="M322 811q25 53 62.5 103.5t119.5 100.5t178 50q174 0 291 -115.5t117 -341.5v-579q0 -29 -27 -29h-74q-27 0 -26 29v540q0 182 -87.5 280.5t-224.5 98.5q-135 0 -224 -116.5t-89 -276.5v-526q0 -29 -27 -29h-73q-27 0 -27 29v514v471q0 29 27 28h43q20 0 28 -28z M666 1174h-43q-20 0 -39 28l-219 311q-18 29 12 29h51q31 0 47 -29l170 -251l168 251q16 29 47 29h51q31 0 13 -29l-219 -311q-21 -28 -39 -28z" glyph-name="ncaron" unicode="ň"/><glyph d="M156 1524h-17q-45 0 -75.5 30.5t-30.5 75.5q0 43 30.5 75t75.5 32q49 0 81 -36t32 -99q0 -266 -221 -394q-14 -8 -23 2l-22 37q-8 12 6 23q150 96 164 254zM299 811q25 53 62.5 103.5t119.5 100.5t178 50q174 0 291 -115.5t117 -341.5v-579q0 -29 -27 -29h-73 q-27 0 -27 29v540q0 182 -87 280.5t-224 98.5q-135 0 -224.5 -116.5t-89.5 -276.5v-526q0 -29 -26 -29h-74q-27 0 -27 29v514v471q0 29 27 28h43q20 0 29 -28z" glyph-name="napostrophe" horiz-adv-x="1218" unicode="ŉ"/><glyph d="M1235 66l-885 1126v-1163q0 -29 -26 -29h-78q-29 0 -29 29v1415q0 16 19 16h10q12 0 24 -12l969 -1200v1157q0 16 6 22.5t23 6.5h75q16 0 22.5 -6.5t6.5 -22.5v-1407q-16 -258 -172 -378t-452 -120q-20 0 -27.5 6.5t-11.5 22.5l-7 63q-2 16 6.5 24.5t28.5 8.5 q260 0 372 99.5t126 341.5z" glyph-name="Eng" horiz-adv-x="1589" unicode="Ŋ"/><glyph d="M1090 608v-635q0 -225 -85 -340.5t-280 -115.5q-121 0 -203 53q-18 10 -12 35l12 51q4 20 10.5 22.5t22.5 -6.5q63 -39 158 -39q133 0 191.5 80t58.5 271v585q0 182 -87.5 280.5t-224.5 98.5q-135 0 -224 -116.5t-89 -276.5v-526q0 -29 -27 -29h-73q-27 0 -27 29v514v471 q0 29 27 28h43q20 0 28 -28l13 -203q25 53 62.5 103.5t119.5 100.5t178 50q174 0 291 -116t117 -341z" glyph-name="eng" unicode="ŋ"/><glyph d="M104 717q0 305 215.5 524t518.5 219t518 -219t215 -524t-215 -524.5t-518 -219.5t-518.5 219.5t-215.5 524.5zM240 717q0 -246 176 -435.5t421.5 -189.5t422 189.5t176.5 435.5q0 248 -176.5 436t-422 188t-421.5 -189t-176 -435zM1085 1753h-493q-29 0 -29 27v43 q0 16 6 22t23 6h493q16 0 22.5 -6t6.5 -22v-43q0 -27 -29 -27z" glyph-name="Omacron" horiz-adv-x="1675" unicode="Ō"/><glyph d="M102 520q0 225 157 385t380 160t381 -160t158 -385t-158 -384t-381 -159t-380 159t-157 384zM639 92q172 0 292 125t120 303t-120 303t-292 125q-170 0 -290 -125t-120 -303t120 -303t290 -125zM887 1362h-494q-29 0 -28 27v43q0 16 6 22t22 6h494q16 0 22 -6t6 -22v-43 q1 -27 -28 -27z" glyph-name="omacron" horiz-adv-x="1280" unicode="ō"/><glyph d="M104 717q0 305 215.5 524t518.5 219t518 -219t215 -524t-215 -524.5t-518 -219.5t-518.5 219.5t-215.5 524.5zM240 717q0 -246 176 -435.5t421.5 -189.5t422 189.5t176.5 435.5q0 248 -176.5 436t-422 188t-421.5 -189t-176 -435zM838 1659q-205 0 -283 182q-14 31 6 39 l45 25q18 8 31 -15q33 -78 77 -108.5t124 -30.5t125 30.5t77 108.5q8 23 29 15l45 -25q20 -8 6 -39q-75 -182 -282 -182z" glyph-name="Obreve" horiz-adv-x="1675" unicode="Ŏ"/><glyph d="M102 520q0 225 157 385t380 160t381 -160t158 -385t-158 -384t-381 -159t-380 159t-157 384zM639 92q172 0 292 125t120 303t-120 303t-292 125q-170 0 -290 -125t-120 -303t120 -303t290 -125zM639 1268q-205 0 -283 182q-14 31 6 39l46 24q18 8 30 -14 q33 -78 77 -108.5t124 -30.5q78 0 124 30.5t79 108.5q8 23 28 14l45 -24q20 -8 7 -39q-76 -182 -283 -182z" glyph-name="obreve" horiz-adv-x="1280" unicode="ŏ"/><glyph d="M104 717q0 305 215.5 524t518.5 219t518 -219t215 -524t-215 -524.5t-518 -219.5t-518.5 219.5t-215.5 524.5zM240 717q0 -246 176 -435.5t421.5 -189.5t422 189.5t176.5 435.5q0 248 -176.5 436t-422 188t-421.5 -189t-176 -435zM930 1800l-178 -211q-18 -25 -54 -24 h-59q-33 0 -4 30l250 291q20 23 37 -6l16 -25q17 -24 -8 -55zM1198 1800l-178 -211q-18 -25 -53 -24h-60q-31 0 -4 30l250 291q20 23 37 -6l16 -25q17 -24 -8 -55z" glyph-name="Ohungarumlaut" horiz-adv-x="1675" unicode="Ő"/><glyph d="M102 520q0 225 157 385t380 160t381 -160t158 -385t-158 -384t-381 -159t-380 159t-157 384zM639 92q172 0 292 125t120 303t-120 303t-292 125q-170 0 -290 -125t-120 -303t120 -303t290 -125zM729 1409l-178 -211q-18 -25 -53 -24h-60q-33 0 -4 30l250 291q20 23 37 -6 l16 -25q17 -24 -8 -55zM997 1409l-178 -211q-18 -25 -53 -24h-59q-31 0 -5 30l250 291q20 23 37 -6l17 -25q16 -24 -9 -55z" glyph-name="ohungarumlaut" horiz-adv-x="1280" unicode="ő"/><glyph d="M244 715q0 -248 170 -435.5t413 -187.5q246 0 415 188.5t169 436.5t-169 436t-415 188q-244 0 -413.5 -189t-169.5 -437zM2077 666h-531q-8 -178 -91 -320.5t-226 -228.5h895q29 0 28 -27v-61q0 -29 -28 -29h-936q-57 0 -181 -13.5t-180 -13.5q-301 0 -512 217.5 t-211 524.5t211 526t512 219q53 0 178 -13t183 -13h936q29 0 28 -29v-62q0 -29 -28 -28h-658h-237q135 -76 221 -219.5t96 -313.5h531q29 0 28 -26v-62q0 -16 -6 -22t-22 -6z" glyph-name="OE" horiz-adv-x="2279" unicode="Œ"/><glyph d="M1083 473v-221q39 -74 136.5 -118t191.5 -44q195 0 336 111q25 16 41 -2l33 -37q18 -25 0 -39q-72 -70 -184.5 -108t-231.5 -38q-229 0 -387 154q-158 -154 -379 -154q-223 0 -380 159t-157 384t157 385t380 160q219 0 379 -154q160 154 377 154q166 0 284.5 -86 t170 -210t51.5 -267q0 -29 -27 -29h-791zM1085 791v-226h684q-4 166 -109.5 278.5t-266.5 112.5q-94 0 -175.5 -46.5t-132.5 -118.5zM958 283v475q-47 88 -131 139t-188 51q-170 0 -290 -125t-120 -303q0 -180 119 -304t291 -124q104 0 188 51.5t131 139.5z" glyph-name="oe" horiz-adv-x="1990" unicode="œ"/><glyph d="M1219 1004q0 -342 -328 -429l393 -542q20 -33 -22 -33h-78q-29 0 -47 29l-385 530h-408v-530q0 -18 -6 -23.5t-23 -5.5h-75q-16 0 -22.5 5t-6.5 24v1376q0 29 29 29h485q94 0 177 -21.5t157 -69t117 -134t43 -205.5zM344 676h371q188 0 280 86t92 242q0 160 -99 236.5 t-273 76.5h-371v-641zM856 1780l-199 -187q-18 -18 -47 -18h-67q-14 0 -16.5 7t10.5 22l256 268q18 20 34 -6l33 -51q10 -21 -4 -35z" glyph-name="Racute" horiz-adv-x="1370" unicode="Ŕ"/><glyph d="M748 940q-195 0 -302.5 -117.5t-107.5 -277.5v-516q0 -29 -27 -29h-73q-27 0 -27 29v985q0 29 27 28h43q20 0 28 -28l19 -221q125 272 438 272q31 0 25 -25l-11 -73q-3 -27 -32 -27zM717 1389l-199 -187q-18 -18 -47 -18h-68q-14 0 -16 7t10 21l256 269q18 20 35 -6 l33 -52q10 -20 -4 -34z" glyph-name="racute" horiz-adv-x="843" unicode="ŕ"/><glyph d="M733 -455h-16q-45 2 -76 33t-31 74q0 45 31 76.5t76 31.5q49 0 80.5 -35.5t31.5 -99.5q0 -266 -221 -393q-14 -8 -22 2l-23 37q-10 12 6 22q150 96 164 252zM1219 1004q0 -342 -328 -429l393 -542q20 -33 -22 -33h-78q-29 0 -47 29l-385 530h-408v-530q0 -18 -6 -23.5 t-23 -5.5h-75q-16 0 -22.5 5t-6.5 24v1376q0 29 29 29h485q94 0 177 -21.5t157 -69t117 -134t43 -205.5zM344 676h371q188 0 280 86t92 242q0 160 -99 236.5t-273 76.5h-371v-641z" glyph-name="Rcommaaccent" horiz-adv-x="1370" unicode="Ŗ"/><glyph d="M276 -455h-16q-45 2 -74.5 33t-29.5 74q0 45 30.5 76.5t75.5 31.5q47 0 79 -35.5t32 -99.5q0 -266 -221 -393q-16 -8 -21 2l-25 37q-6 12 7 22q149 96 163 252zM715 940q-195 0 -302.5 -117.5t-107.5 -277.5v-516q0 -29 -26 -29h-74q-27 0 -27 29v985q0 29 27 28h43 q20 0 28 -28l19 -221q125 272 438 272q31 0 25 -25l-10 -73q-4 -27 -33 -27z" glyph-name="rcommaaccent" horiz-adv-x="808" unicode="ŗ"/><glyph d="M1219 1004q0 -342 -328 -429l393 -542q20 -33 -22 -33h-78q-29 0 -47 29l-385 530h-408v-530q0 -18 -6 -23.5t-23 -5.5h-75q-16 0 -22.5 5t-6.5 24v1376q0 29 29 29h485q94 0 177 -21.5t157 -69t117 -134t43 -205.5zM344 676h371q188 0 280 86t92 242q0 160 -99 236.5 t-273 76.5h-371v-641zM684 1565h-43q-20 0 -39 28l-219 312q-18 29 12 28h51q31 0 48 -28l170 -252l167 252q16 29 48 28h51q31 0 12 -28l-219 -312q-23 -28 -39 -28z" glyph-name="Rcaron" horiz-adv-x="1370" unicode="Ř"/><glyph d="M657 940q-195 0 -302 -117.5t-107 -277.5v-516q0 -29 -27 -29h-74q-27 0 -26 29v985q0 29 26 28h43q20 0 29 -28l19 -221q125 272 438 272q31 0 24 -25l-10 -73q-4 -27 -33 -27zM424 1174h-43q-20 0 -39 28l-219 311q-18 29 12 29h51q31 0 47 -29l170 -251l168 251 q16 29 47 29h52q31 0 12 -29l-219 -311q-21 -28 -39 -28z" glyph-name="rcaron" horiz-adv-x="749" unicode="ř"/><glyph d="M670 1337q-115 0 -200 -30.5t-126 -78.5t-58.5 -95.5t-17.5 -94.5q0 -66 34 -111.5t101.5 -73.5t134 -42t169.5 -29q109 -14 189.5 -38.5t152 -66.5t108.5 -112.5t37 -167.5q0 -176 -134 -298t-386 -122q-322 0 -551 158q-20 14 -8 41l32 53q16 25 41 9 q205 -141 465 -142q109 0 195 23.5t150.5 93.5t64.5 180q0 127 -105.5 186.5t-332.5 92.5q-98 14 -172 33.5t-153 58.5t-121 107.5t-42 162.5q0 49 14.5 102.5t52.5 112t93 103.5t147.5 74.5t204.5 29.5q147 0 261 -38t245 -118q20 -14 8 -40l-30 -52q-16 -29 -41 -12 q-211 141 -422 141zM866 1780l-198 -187q-18 -18 -47 -18h-68q-14 0 -16 7t10 22l256 268q18 20 35 -6l32 -51q10 -21 -4 -35z" glyph-name="Sacute" horiz-adv-x="1306" unicode="Ś"/><glyph d="M524 82q152 0 225.5 58.5t73.5 150.5q0 133 -305 178q-72 10 -119 19.5t-104 30t-91 48t-57.5 74.5t-23.5 109q0 145 104.5 230t282.5 85q205 0 389 -115q25 -14 10 -39l-22 -41q-12 -29 -39 -12q-94 57 -165 80t-167 23q-133 0 -202.5 -55.5t-69.5 -149.5 q0 -84 66.5 -116t236.5 -56q397 -57 397 -287q0 -141 -109.5 -230.5t-304.5 -89.5q-223 0 -421 132q-20 12 -7 38l25 43q16 27 41 11q166 -119 356 -119zM737 1389l-198 -187q-18 -18 -47 -18h-68q-14 0 -16 7t10 21l256 269q18 20 35 -6l32 -52q10 -20 -4 -34z" glyph-name="sacute" horiz-adv-x="1038" unicode="ś"/><glyph d="M670 1337q-115 0 -200 -30.5t-126 -78.5t-58.5 -95.5t-17.5 -94.5q0 -66 34 -111.5t101.5 -73.5t134 -42t169.5 -29q109 -14 189.5 -38.5t152 -66.5t108.5 -112.5t37 -167.5q0 -176 -134 -298t-386 -122q-322 0 -551 158q-20 14 -8 41l32 53q16 25 41 9 q205 -141 465 -142q109 0 195 23.5t150.5 93.5t64.5 180q0 127 -105.5 186.5t-332.5 92.5q-98 14 -172 33.5t-153 58.5t-121 107.5t-42 162.5q0 49 14.5 102.5t52.5 112t93 103.5t147.5 74.5t204.5 29.5q147 0 261 -38t245 -118q20 -14 8 -40l-30 -52q-16 -29 -41 -12 q-211 141 -422 141zM631 1933h43q18 0 39 -28l219 -312q18 -29 -12 -28h-52q-31 0 -47 28l-168 252l-170 -252q-16 -29 -47 -28h-51q-31 0 -12 28l219 312q19 28 39 28z" glyph-name="Scircumflex" horiz-adv-x="1306" unicode="Ŝ"/><glyph d="M524 82q152 0 225.5 58.5t73.5 150.5q0 133 -305 178q-72 10 -119 19.5t-104 30t-91 48t-57.5 74.5t-23.5 109q0 145 104.5 230t282.5 85q205 0 389 -115q25 -14 10 -39l-22 -41q-12 -29 -39 -12q-94 57 -165 80t-167 23q-133 0 -202.5 -55.5t-69.5 -149.5 q0 -84 66.5 -116t236.5 -56q397 -57 397 -287q0 -141 -109.5 -230.5t-304.5 -89.5q-223 0 -421 132q-20 12 -7 38l25 43q16 27 41 11q166 -119 356 -119zM500 1542h43q18 0 39 -29l219 -311q18 -29 -13 -28h-51q-31 0 -47 28l-168 252l-170 -252q-16 -29 -47 -28h-51 q-31 0 -12 28l219 311q19 29 39 29z" glyph-name="scircumflex" horiz-adv-x="1038" unicode="ŝ"/><glyph d="M662 1337q-115 0 -200 -30.5t-126 -78.5t-58.5 -95.5t-17.5 -94.5q0 -66 34 -111.5t101.5 -73.5t134 -42t168.5 -29q109 -14 190 -38.5t152.5 -66.5t108.5 -112.5t37 -167.5q0 -178 -135.5 -300t-399.5 -120l-18 -124q229 0 229 -185q0 -80 -52 -127t-140 -47 q-86 0 -191 74q-20 16 -4 29l21 26q8 12 26 4q70 -53 156 -53q102 0 102 94q0 55 -32.5 82t-108.5 27h-74q-18 0 -18 22l35 183q-254 16 -455 149q-29 18 -12 45l32 53q14 25 39 9q205 -141 459 -142q109 0 195 23.5t150.5 93.5t64.5 180q0 127 -104.5 186.5t-332.5 92.5 q-100 14 -173.5 33.5t-152.5 58.5t-121 107.5t-42 162.5q0 49 14.5 102.5t52 112t93 103.5t147.5 74.5t205 29.5q147 0 261 -38t241 -115q27 -16 12 -43l-31 -52q-16 -29 -41 -12q-210 141 -421 141z" glyph-name="Scedilla" horiz-adv-x="1298" unicode="Ş"/><glyph d="M428 -199l35 181q-209 31 -354 127q-20 12 -7 38l25 43q16 27 41 11q160 -119 356 -119q152 0 225.5 58.5t73.5 150.5q0 133 -305 178q-72 10 -119 19.5t-104 30t-91 48t-57.5 74.5t-23.5 109q0 145 104.5 230t282.5 85q213 0 397 -119q20 -12 11 -41l-23 -41 q-14 -27 -39 -12q-96 57 -170 83t-170 26q-133 0 -202.5 -55.5t-69.5 -149.5q0 -84 66.5 -116t236.5 -56q193 -29 295 -91.5t102 -195.5q0 -141 -107.5 -229t-304.5 -91l-18 -122q229 0 229 -185q0 -80 -52 -127t-140 -47q-86 0 -191 74q-20 14 -6 29l21 26q8 12 26 4 q84 -53 156 -53q104 0 105 94q0 57 -33 83t-111 26h-72q-18 -1 -18 22z" glyph-name="scedilla" horiz-adv-x="1038" unicode="ş"/><glyph d="M684 1337q-115 0 -200 -30.5t-126 -78.5t-58 -95.5t-17 -94.5q0 -66 33.5 -111.5t101 -73.5t134 -42t169.5 -29q109 -14 189.5 -38.5t152.5 -66.5t108.5 -112.5t36.5 -167.5q0 -176 -134 -298t-386 -122q-322 0 -551 158q-23 14 -8 41l33 53q16 25 41 9 q205 -141 465 -142q109 0 194.5 23.5t150 93.5t64.5 180q0 127 -105.5 186.5t-332.5 92.5q-98 14 -172 33.5t-152.5 58.5t-120.5 107.5t-42 162.5q0 49 14 102.5t52 112t93.5 103.5t147.5 74.5t205 29.5q147 0 260.5 -38t244.5 -118q20 -14 9 -40l-31 -52q-16 -29 -41 -12 q-211 141 -422 141zM690 1565h-43q-20 0 -39 28l-219 312q-18 29 12 28h52q31 0 47 -28l170 -252l168 252q16 29 47 28h51q31 0 12 -28l-219 -312q-21 -28 -39 -28z" glyph-name="Scaron" horiz-adv-x="1320" unicode="Š"/><glyph d="M524 82q152 0 225.5 58.5t73.5 150.5q0 133 -305 178q-72 10 -119 19.5t-104 30t-91 48t-57.5 74.5t-23.5 109q0 145 104.5 230t282.5 85q205 0 389 -115q25 -14 10 -39l-22 -41q-12 -29 -39 -12q-94 57 -165 80t-167 23q-133 0 -202.5 -55.5t-69.5 -149.5 q0 -84 66.5 -116t236.5 -56q397 -57 397 -287q0 -141 -109.5 -230.5t-304.5 -89.5q-223 0 -421 132q-20 12 -7 38l25 43q16 27 41 11q166 -119 356 -119zM537 1174h-43q-20 0 -39 28l-219 311q-18 29 12 29h51q31 0 47 -29l170 -251l168 251q16 29 47 29h51q31 0 13 -29 l-220 -311q-22 -28 -38 -28z" glyph-name="scaron" horiz-adv-x="1038" unicode="š"/><glyph d="M631 -455h-17q-45 2 -75.5 33t-30.5 74q0 45 30.5 76.5t75.5 31.5q49 0 81 -35.5t32 -99.5q0 -266 -221 -393q-14 -8 -23 2l-22 37q-10 12 6 22q150 96 164 252zM49 1434h1143q29 0 29 -29v-66q0 -29 -29 -28h-506v-1282q0 -29 -27 -29h-77q-29 0 -29 29v1282h-504 q-29 0 -29 28v66q0 16 6.5 22.5t22.5 6.5z" glyph-name="Tcommaaccent" unicode="Ţ"/><glyph d="M397 -455h-18q-45 2 -75 33t-30 74q0 45 31 76.5t76 31.5q47 0 79 -35.5t32 -99.5q0 -268 -222 -393q-14 -6 -20 2l-25 37q-6 12 6 22q152 96 166 252zM793 25q-82 -47 -195 -48q-195 0 -280 116t-85 341v502h-108q-16 0 -22.5 6t-6.5 23v49q0 29 29 28h108v215 q0 29 29 29h70q16 0 22 -6t6 -23v-215h388q29 0 28 -28v-49q0 -16 -6 -22.5t-22 -6.5h-388v-492q0 -190 58.5 -270t191.5 -80q86 0 148 31q16 10 23 7t12 -19l12 -54q4 -22 -12 -34z" glyph-name="tcommaaccent" horiz-adv-x="894" unicode="ţ"/><glyph d="M49 1434h1143q29 0 29 -29v-66q0 -29 -29 -28h-506v-1282q0 -29 -27 -29h-77q-29 0 -29 29v1282h-504q-29 0 -29 28v66q0 16 6.5 22.5t22.5 6.5zM641 1565h-43q-20 0 -39 28l-219 312q-18 29 12 28h51q31 0 48 -28l170 -252l167 252q16 29 48 28h51q31 0 12 -28 l-219 -312q-21 -28 -39 -28z" glyph-name="Tcaron" unicode="Ť"/><glyph d="M1090 1522h-17q-45 2 -75.5 31.5t-30.5 74.5t30.5 77t75.5 32q49 0 81 -36t32 -99q0 -266 -221 -394q-16 -8 -21 2l-24 37q-8 10 6 23q150 96 164 252zM795 25q-82 -47 -195 -48q-195 0 -279.5 116t-84.5 341v502h-109q-16 0 -22.5 6t-6.5 23v49q0 29 29 28h109v215 q0 29 28 29h70q16 0 22 -6t6 -23v-215h388q29 0 28 -28v-49q0 -16 -6 -22.5t-22 -6.5h-388v-492q0 -190 58.5 -270t191.5 -80q86 0 148 31q16 10 23.5 7t11.5 -19l12 -54q4 -22 -12 -34z" glyph-name="tcaron" horiz-adv-x="966" unicode="ť"/><glyph d="M1182 725h-484v-696q0 -29 -28 -29h-76q-29 0 -29 29v696h-483q-29 0 -29 29v57q0 27 29 27h483v473h-516q-29 0 -29 28v66q0 16 6.5 22.5t22.5 6.5h1165q29 0 29 -29v-66q0 -29 -29 -28h-516v-473h484q27 0 26 -27v-57q1 -29 -26 -29z" glyph-name="Tbar" horiz-adv-x="1263" unicode="Ŧ"/><glyph d="M805 551h-389q0 -41 4 -139q6 -174 62.5 -246t183.5 -72q25 0 78 12.5t77 24.5q16 8 23.5 6t11.5 -20l12 -51q6 -25 -12 -35q-82 -53 -203 -54q-182 0 -264 101.5t-94 304.5q-6 94 -6 168h-160q-16 0 -22.5 6t-6.5 23v49q0 29 29 28h160v279h-160q-16 0 -22.5 6t-6.5 23 v49q0 29 29 28h160v195q0 29 28 29h70q29 0 29 -29v-195h389q27 0 26 -28v-49q0 -29 -26 -29h-389v-279h389q27 0 26 -28v-49q1 -29 -26 -29z" glyph-name="tbar" horiz-adv-x="962" unicode="ŧ"/><glyph d="M731 -27q-258 0 -415.5 160t-157.5 457v815q0 29 28 29h78q27 0 27 -29v-805q0 -258 118.5 -383t321.5 -125t321.5 125t118.5 383v805q0 16 6.5 22.5t22.5 6.5h78q16 0 21.5 -6.5t5.5 -22.5v-815q0 -297 -158 -457t-416 -160zM883 1759q53 0 82.5 21.5t52.5 79.5 q12 31 41 20l35 -14q25 -10 12 -43q-68 -160 -211 -160q-96 0 -176 72q-49 43 -77 58t-62 15q-51 0 -81 -22.5t-55 -79.5q-12 -31 -41 -18l-32 14q-27 12 -13 43q66 158 211 158q88 0 181 -76q47 -41 72.5 -54.5t60.5 -13.5z" glyph-name="Utilde" horiz-adv-x="1464" unicode="Ũ"/><glyph d="M920 231q-41 -90 -131.5 -172t-229.5 -82q-174 0 -290.5 116t-116.5 341v580q0 29 26 28h74q27 0 27 -28v-543q0 -182 87 -279.5t224 -97.5q135 0 224 117t89 276v527q0 29 27 28h74q27 0 26 -28v-514v-471q0 -29 -26 -29h-43q-20 0 -29 29zM748 1368q53 0 82.5 21.5 t52.5 78.5q12 31 41 21l34 -14q25 -10 13 -43q-68 -160 -211 -160q-96 0 -176 71q-49 43 -77 58.5t-63 15.5q-51 0 -80.5 -22.5t-54.5 -79.5q-12 -31 -41 -19l-32 15q-27 12 -13 43q66 158 211 157q88 0 180 -75q47 -41 73 -54.5t61 -13.5z" glyph-name="utilde" unicode="ũ"/><glyph d="M731 -27q-258 0 -415.5 160t-157.5 457v815q0 29 28 29h78q27 0 27 -29v-805q0 -258 118.5 -383t321.5 -125t321.5 125t118.5 383v805q0 16 6.5 22.5t22.5 6.5h78q16 0 21.5 -6.5t5.5 -22.5v-815q0 -297 -158 -457t-416 -160zM979 1753h-494q-29 0 -28 27v43q0 16 6 22 t22 6h494q16 0 22.5 -6t6.5 -22v-43q0 -27 -29 -27z" glyph-name="Umacron" horiz-adv-x="1464" unicode="Ū"/><glyph d="M920 231q-41 -90 -131.5 -172t-229.5 -82q-174 0 -290.5 116t-116.5 341v580q0 29 26 28h74q27 0 27 -28v-543q0 -182 87 -279.5t224 -97.5q135 0 224 117t89 276v527q0 29 27 28h74q27 0 26 -28v-514v-471q0 -29 -26 -29h-43q-20 0 -29 29zM836 1362h-494q-29 0 -29 27 v43q0 16 6.5 22t22.5 6h494q16 0 22 -6t6 -22v-43q1 -27 -28 -27z" glyph-name="umacron" unicode="ū"/><glyph d="M731 -27q-258 0 -415.5 160t-157.5 457v815q0 29 28 29h78q27 0 27 -29v-805q0 -258 118.5 -383t321.5 -125t321.5 125t118.5 383v805q0 16 6.5 22.5t22.5 6.5h78q16 0 21.5 -6.5t5.5 -22.5v-815q0 -297 -158 -457t-416 -160zM731 1659q-205 0 -282 182q-14 31 6 39 l45 25q18 8 30 -15q33 -78 77 -108.5t124 -30.5t125 30.5t78 108.5q8 23 29 15l45 -25q20 -8 6 -39q-76 -182 -283 -182z" glyph-name="Ubreve" horiz-adv-x="1464" unicode="Ŭ"/><glyph d="M920 231q-41 -90 -131.5 -172t-229.5 -82q-174 0 -290.5 116t-116.5 341v580q0 29 26 28h74q27 0 27 -28v-543q0 -182 87 -279.5t224 -97.5q135 0 224 117t89 276v527q0 29 27 28h74q27 0 26 -28v-514v-471q0 -29 -26 -29h-43q-20 0 -29 29zM596 1268q-205 0 -283 182 q-14 31 6 39l46 24q18 8 30 -14q33 -78 77 -108.5t124 -30.5t125 30.5t78 108.5q8 23 28 14l45 -24q20 -8 7 -39q-76 -182 -283 -182z" glyph-name="ubreve" unicode="ŭ"/><glyph d="M731 -27q-258 0 -415.5 160t-157.5 457v815q0 29 28 29h78q27 0 27 -29v-805q0 -258 118.5 -383t321.5 -125t321.5 125t118.5 383v805q0 16 6.5 22.5t22.5 6.5h78q16 0 21.5 -6.5t5.5 -22.5v-815q0 -297 -158 -457t-416 -160zM731 1579q-94 0 -154.5 62.5t-60.5 158.5 t60.5 158.5t154.5 62.5t153.5 -62.5t59.5 -158.5t-59.5 -158.5t-153.5 -62.5zM731.5 1651q63.5 0 100 44t36.5 105.5t-35.5 104.5t-99 43t-102.5 -44t-39 -103.5t38 -104.5t101.5 -45z" glyph-name="Uring" horiz-adv-x="1464" unicode="Ů"/><glyph d="M920 231q-41 -90 -131.5 -172t-229.5 -82q-174 0 -290.5 116t-116.5 341v580q0 29 26 28h74q27 0 27 -28v-543q0 -182 87 -279.5t224 -97.5q135 0 224 117t89 276v527q0 29 27 28h74q27 0 26 -28v-514v-471q0 -29 -26 -29h-43q-20 0 -29 29zM598 1188q-94 0 -154.5 62.5 t-60.5 158.5t60.5 158.5t154.5 62.5t153.5 -62.5t59.5 -158.5t-59.5 -158.5t-153.5 -62.5zM598.5 1260q63.5 0 100 44t36.5 105t-35.5 104t-99 43t-102.5 -44t-39 -103t38 -104t101.5 -45z" glyph-name="uring" unicode="ů"/><glyph d="M731 -27q-258 0 -415.5 160t-157.5 457v815q0 29 28 29h78q27 0 27 -29v-805q0 -258 118.5 -383t321.5 -125t321.5 125t118.5 383v805q0 16 6.5 22.5t22.5 6.5h78q16 0 21.5 -6.5t5.5 -22.5v-815q0 -297 -158 -457t-416 -160zM795 1800l-179 -211q-18 -25 -53 -24h-59 q-33 0 -4 30l250 291q20 23 36 -6l17 -25q17 -24 -8 -55zM1063 1800l-178 -211q-18 -25 -54 -24h-59q-31 0 -4 30l250 291q20 23 37 -6l16 -25q17 -24 -8 -55z" glyph-name="Uhungarumlaut" horiz-adv-x="1464" unicode="Ű"/><glyph d="M920 231q-41 -90 -131.5 -172t-229.5 -82q-174 0 -290.5 116t-116.5 341v580q0 29 26 28h74q27 0 27 -28v-543q0 -182 87 -279.5t224 -97.5q135 0 224 117t89 276v527q0 29 27 28h74q27 0 26 -28v-514v-471q0 -29 -26 -29h-43q-20 0 -29 29zM668 1409l-179 -211 q-18 -25 -53 -24h-59q-33 0 -4 30l250 291q20 23 36 -6l17 -25q17 -24 -8 -55zM936 1409l-178 -211q-18 -25 -53 -24h-60q-31 0 -4 30l250 291q20 23 37 -6l16 -25q17 -24 -8 -55z" glyph-name="uhungarumlaut" unicode="ű"/><glyph d="M573 -213q0 109 111 188q-246 16 -386 178t-140 437v815q0 29 28 29h78q27 0 27 -29v-805q0 -258 119.5 -383t320.5 -125t320.5 125t119.5 383v805q0 16 6.5 22.5t22.5 6.5h78q16 0 21.5 -6.5t5.5 -22.5v-815q0 -276 -136.5 -434t-365.5 -179q-145 -70 -146 -174 q0 -156 119 -155q23 0 92 4q29 0 29 -25v-22q0 -27 -29 -29q-49 -4 -104 -4q-82 0 -136.5 52t-54.5 163z" glyph-name="Uogonek" horiz-adv-x="1464" unicode="Ų"/><glyph d="M938 31l-18 200q-41 -90 -131.5 -172t-229.5 -82q-174 0 -290.5 116t-116.5 341v580q0 29 26 28h74q25 0 27 -28v-543q0 -182 87 -279.5t224 -97.5q135 0 224 117t89 276v527q0 29 27 28h74q27 0 26 -28v-985q0 -29 -24 -29q-59 -10 -121 -53t-62 -125q0 -78 35 -117 t86 -39q18 0 45 2t47 2q27 0 27 -24v-23q0 -27 -27 -29q-49 -4 -104 -4q-82 0 -136.5 52.5t-54.5 162.5q0 90 65.5 149.5t127.5 74.5z" glyph-name="uogonek" horiz-adv-x="1273" unicode="ų"/><glyph d="M600 248l352 1184q8 29 27 28h16q18 0 27 -28l352 -1184l410 1157q10 29 37 29h100q23 0 12 -29l-528 -1417q-8 -25 -21 -25h-10q-10 0 -20 25l-367 1222l-366 -1222q-10 -25 -21 -25h-12q-10 0 -19 25l-528 1417q-12 29 12 29h101q27 0 36 -29zM965 1933h43q18 0 39 -28 l219 -312q18 -29 -13 -28h-51q-31 0 -47 28l-168 252l-170 -252q-16 -29 -47 -28h-51q-31 0 -12 28l219 312q19 28 39 28z" glyph-name="Wcircumflex" horiz-adv-x="1966" unicode="Ŵ"/><glyph d="M406 244l309 805q16 25 24 24h15q10 0 26 -24l312 -805l233 770q8 29 37 28h90q27 0 12 -28l-315 -1010q-8 -27 -25 -27h-12q-16 0 -29 27l-335 860l-336 -860q-12 -27 -29 -27h-12q-12 0 -25 27l-315 1010q-12 29 14 28h88q29 0 37 -24zM731 1542h43q18 0 39 -29 l219 -311q18 -29 -12 -28h-51q-31 0 -47 28l-168 252l-170 -252q-16 -29 -47 -28h-52q-31 0 -12 28l219 311q19 29 39 29z" glyph-name="wcircumflex" horiz-adv-x="1495" unicode="ŵ"/><glyph d="M29 1405q-16 29 12 29h92q25 0 41 -29l461 -709l461 709q18 29 39 29h92q29 0 12 -29l-541 -836v-540q0 -29 -26 -29h-74q-16 0 -22.5 6t-6.5 23v540zM618 1933h44q18 0 38 -28l220 -312q18 -29 -13 -28h-51q-31 0 -47 28l-168 252l-170 -252q-16 -29 -47 -28h-51 q-31 0 -13 28l220 312q18 28 38 28z" glyph-name="Ycircumflex" horiz-adv-x="1259" unicode="Ŷ"/><glyph d="M524 184l361 830q16 29 39 28h84q27 0 14 -28l-621 -1403q-14 -29 -39 -29h-83q-27 0 -15 29l189 428l-435 975q-12 29 15 28h86q25 0 37 -28l366 -830h2zM508 1542h43q18 0 39 -29l219 -311q18 -29 -12 -28h-52q-31 0 -47 28l-168 252l-170 -252q-16 -29 -47 -28h-51 q-31 0 -12 28l219 311q19 29 39 29z" glyph-name="ycircumflex" horiz-adv-x="1044" unicode="ŷ"/><glyph d="M29 1405q-16 29 12 29h92q25 0 41 -29l461 -709l461 709q18 29 39 29h92q29 0 12 -29l-541 -836v-540q0 -29 -26 -29h-74q-16 0 -22.5 6t-6.5 23v540zM330 1782q0 35 24.5 59.5t59.5 24.5t59.5 -24.5t24.5 -59.5t-24.5 -60.5t-59.5 -25.5t-59.5 25.5t-24.5 60.5z M719 1782q0 35 24.5 59.5t59.5 24.5t59.5 -24.5t24.5 -59.5t-24.5 -60.5t-59.5 -25.5t-59.5 25.5t-24.5 60.5z" glyph-name="Ydieresis" horiz-adv-x="1259" unicode="Ÿ"/><glyph d="M1157 0h-1069q-18 0 -18 16v11q0 10 12 28l926 1260h-846q-29 0 -29 28v62q0 29 29 29h1034q16 0 16 -17v-12q0 -10 -10 -29l-926 -1259h881q29 0 29 -27v-61q0 -16 -6.5 -22.5t-22.5 -6.5zM866 1780l-198 -187q-18 -18 -47 -18h-68q-14 0 -16 7t10 22l256 268 q18 20 35 -6l32 -51q10 -21 -4 -35z" glyph-name="Zacute" horiz-adv-x="1275" unicode="Ź"/><glyph d="M899 0h-813q-16 0 -16 16v11q0 12 10 28l641 873h-567q-16 0 -22.5 6t-6.5 22v58q0 16 6 22t23 6h745q18 0 19 -16v-10q0 -8 -13 -31l-639 -870h633q29 0 29 -29v-57q0 -16 -6.5 -22.5t-22.5 -6.5zM731 1389l-199 -187q-18 -18 -47 -18h-67q-14 0 -16.5 7t10.5 21 l256 269q18 20 34 -6l33 -52q10 -20 -4 -34z" glyph-name="zacute" horiz-adv-x="997" unicode="ź"/><glyph d="M1157 0h-1069q-18 0 -18 16v11q0 10 12 28l926 1260h-846q-29 0 -29 28v62q0 29 29 29h1034q16 0 16 -17v-12q0 -10 -10 -29l-926 -1259h881q29 0 29 -27v-61q0 -16 -6.5 -22.5t-22.5 -6.5zM569 1780q0 41 28 68.5t66.5 27.5t67.5 -28.5t29 -67.5t-29 -66.5t-67.5 -27.5 t-66.5 27.5t-28 66.5z" glyph-name="Zdotaccent" horiz-adv-x="1275" unicode="Ż"/><glyph d="M899 0h-813q-16 0 -16 16v11q0 12 10 28l641 873h-567q-16 0 -22.5 6t-6.5 22v58q0 16 6 22t23 6h745q18 0 19 -16v-10q0 -8 -13 -31l-639 -870h633q29 0 29 -29v-57q0 -16 -6.5 -22.5t-22.5 -6.5zM434 1389q0 41 27.5 68.5t66.5 27.5t68 -29t29 -67.5t-29 -66.5t-68 -28 t-66.5 28t-27.5 67z" glyph-name="zdotaccent" horiz-adv-x="997" unicode="ż"/><glyph d="M1157 0h-1069q-18 0 -18 16v11q0 10 12 28l926 1260h-846q-29 0 -29 28v62q0 29 29 29h1034q16 0 16 -17v-12q0 -10 -10 -29l-926 -1259h881q29 0 29 -27v-61q0 -16 -6.5 -22.5t-22.5 -6.5zM680 1565h-43q-20 0 -39 28l-219 312q-18 29 12 28h51q31 0 47 -28l170 -252 l168 252q16 29 47 28h52q31 0 12 -28l-219 -312q-23 -28 -39 -28z" glyph-name="Zcaron" horiz-adv-x="1275" unicode="Ž"/><glyph d="M899 0h-813q-16 0 -16 16v11q0 12 10 28l641 873h-567q-16 0 -22.5 6t-6.5 22v58q0 16 6 22t23 6h745q18 0 19 -16v-10q0 -8 -13 -31l-639 -870h633q29 0 29 -29v-57q0 -16 -6.5 -22.5t-22.5 -6.5zM547 1174h-43q-20 0 -39 28l-219 311q-18 29 12 29h51q31 0 47 -29 l170 -251l168 251q16 29 47 29h52q31 0 12 -29l-219 -311q-21 -28 -39 -28z" glyph-name="zcaron" horiz-adv-x="997" unicode="ž"/><glyph d="M256 1038v64q0 225 84 341t278 116q100 0 175 -37q16 -12 12 -37l-12 -51q-4 -16 -11.5 -19.5t-23.5 4.5q-59 23 -127 23q-133 0 -191.5 -80t-58.5 -270v-1063q0 -29 -27 -29h-71q-27 0 -27 29v903h-162q-16 0 -22 5t-6 24v49q0 29 28 28h162z" glyph-name="longs" horiz-adv-x="843" unicode="ſ"/><glyph d="M489 932v-959q0 -240 -69.5 -348t-220.5 -108q-121 0 -203 53q-18 10 -12 35l12 51q4 20 10 22.5t23 -6.5q63 -39 157 -39q176 0 176 351v948h-184q-16 0 -22 5t-6 24v49q0 29 28 28h184v64q0 225 85 341t280 116q121 0 203 -54q18 -10 12 -35l-12 -51q-4 -18 -11.5 -21 t-23.5 7q-63 37 -158 37q-133 0 -190.5 -80t-57.5 -270v-54h388q29 0 28 -28v-49q0 -18 -6 -23.5t-22 -5.5h-388z" glyph-name="florin" horiz-adv-x="980" unicode="ƒ"/><glyph d="M727 1235h-2l-324 -719h648zM750 1446l661 -1417q14 -29 -18 -29h-95q-20 0 -36 29l-168 370h-738l-168 -370q-12 -29 -36 -29h-97q-27 0 -16 29l661 1417q10 25 23 24h6q11 1 21 -24zM721 1579q-94 0 -154.5 62.5t-60.5 158.5t60.5 158.5t154.5 62.5t153.5 -62.5 t59.5 -158.5t-59.5 -158.5t-153.5 -62.5zM720.5 1651q63.5 0 100.5 44t37 105.5t-36 104.5t-99.5 43t-102 -44t-38.5 -103.5t37.5 -104.5t101 -45zM938 2329l-199 -187q-18 -18 -47 -18h-67q-14 0 -16.5 7t9.5 21l256 269q18 20 35 -6l33 -52q10 -20 -4 -34z" glyph-name="Aringacute" horiz-adv-x="1443" unicode="Ǻ"/><glyph d="M240 918q-18 -4 -24.5 1t-10.5 25l-12 47q-8 29 22 37q147 37 350 37q240 0 335 -113.5t95 -376.5v-546q0 -29 -26 -29h-49q-18 0 -27 29l-6 153q-51 -76 -161 -140.5t-259 -64.5q-156 0 -261.5 91.5t-105.5 246.5q0 166 113 250t313 84q162 0 342 -78q0 209 -69.5 295 t-237.5 86q-151 1 -321 -34zM551 551q-324 0 -324 -236q0 -106 74 -170.5t203 -64.5q109 0 210 62.5t154 144.5v184q-184 80 -317 80zM573.5 1188q-94.5 0 -155 62.5t-60.5 158.5t60.5 158.5t155 62.5t153.5 -62.5t59 -158.5t-59 -158.5t-153.5 -62.5zM573.5 1260 q63.5 0 100.5 44t37 105t-36 104t-99.5 43t-102.5 -44t-39 -103t38 -104t101.5 -45zM791 1952l-199 -187q-18 -18 -47 -18h-68q-14 0 -16 7t10 22l256 268q18 20 35 -6l33 -51q10 -21 -4 -35z" glyph-name="aringacute" horiz-adv-x="1146" unicode="ǻ"/><glyph d="M911 0q-16 0 -22 6t-6 23v370h-477l-218 -370q-12 -29 -36 -29h-97q-27 0 -16 29l776 1349q31 55 49 56h965q27 0 26 -29v-62q0 -29 -26 -28h-805v-533h760q27 0 26 -26v-62q0 -29 -26 -28h-760v-549h805q27 0 26 -27v-61q0 -29 -26 -29h-918zM883 1255l-418 -739h418 v739zM1346 1780l-199 -187q-18 -18 -47 -18h-68q-14 0 -16 7t10 22l256 268q18 20 35 -6l33 -51q10 -21 -4 -35z" glyph-name="AEacute" horiz-adv-x="1984" unicode="Ǽ"/><glyph d="M877 571v199q-27 102 -104 142t-208 40q-152 0 -321 -34q-27 -4 -37 24l-10 49q-8 29 20 37q35 8 145.5 22.5t208.5 14.5q283 0 369 -166q168 166 395 166q244 0 372 -167t128 -390v-8q0 -27 -27 -27h-802v-154q39 -92 133 -160.5t202 -68.5q205 0 340 111q25 16 41 -2 l33 -37q18 -23 2 -39q-68 -68 -184.5 -107t-237.5 -39q-133 0 -241.5 73t-153.5 161q-70 -88 -197 -161t-276 -73q-158 0 -261.5 89.5t-103.5 246.5q0 168 111 252t309 84q173 0 355 -78zM877 287v184q-184 80 -330 80q-328 0 -328 -242q0 -102 73 -165.5t202 -63.5 q113 0 222.5 62.5t160.5 144.5zM1010 772v-207h694q-4 164 -98.5 277.5t-272.5 113.5q-202 0 -323 -184zM1145 1389l-199 -187q-18 -18 -47 -18h-68q-14 0 -16 7t10 21l256 269q18 20 35 -6l33 -52q10 -20 -4 -34z" glyph-name="aeacute" horiz-adv-x="1927" unicode="ǽ"/><glyph d="M104 719q0 305 215.5 523t518.5 218q147 0 286 -59l54 98q10 23 34 23h50q39 0 22 -33l-74 -133q360 -240 361 -639q0 -305 -215 -524.5t-518 -219.5q-162 0 -310 72l-59 -111q-10 -23 -35 -22h-49q-37 0 -23 29l80 149q-154 104 -246 269t-92 360zM1436 717 q0 102 -31 193t-81 157t-90 103.5t-83 68.5l-565 -1085q117 -61 252 -62q246 0 422 189.5t176 435.5zM240 717q2 -301 268 -510l561 1081q-113 53 -231 53q-244 0 -423 -190t-175 -434zM1059 1780l-199 -187q-18 -18 -47 -18h-68q-14 0 -16 7t10 22l256 268q18 20 35 -6 l33 -51q10 -21 -4 -35z" glyph-name="Oslashacute" horiz-adv-x="1675" unicode="Ǿ"/><glyph d="M98 520q0 225 158 385t381 160q115 0 194 -39l50 82q12 27 41 27h45q41 0 22 -29l-69 -125q115 -74 184.5 -193.5t69.5 -267.5q0 -225 -157 -384t-380 -159q-100 0 -217 46l-39 -86q-14 -29 -41 -29h-45q-39 0 -23 29l64 133q-109 72 -173.5 192.5t-64.5 257.5zM637 92 q170 0 290 125t120 303q0 213 -185 350l-389 -741q82 -37 164 -37zM225 520q0 -70 17.5 -128t52.5 -103t50 -62.5t48 -46.5l385 740q-72 29 -141 28q-172 0 -292 -125t-120 -303zM844 1389l-199 -187q-18 -18 -47 -18h-68q-14 0 -16 7t10 21l256 269q18 20 35 -6l33 -52 q10 -20 -4 -34z" glyph-name="oslashacute" horiz-adv-x="1280" unicode="ǿ"/><glyph d="M698 -455h-16q-45 2 -74.5 33t-29.5 74q0 45 30.5 76.5t75.5 31.5q47 0 79 -35.5t32 -99.5q0 -266 -222 -393q-16 -8 -20 2l-25 37q-8 10 7 22q149 96 163 252zM670 1337q-115 0 -200 -30.5t-126 -78.5t-58.5 -95.5t-17.5 -94.5q0 -66 34 -111.5t101.5 -73.5t134 -42 t169.5 -29q109 -14 189.5 -38.5t152 -66.5t108.5 -112.5t37 -167.5q0 -176 -134 -298t-386 -122q-322 0 -551 158q-20 14 -8 41l32 53q16 25 41 9q205 -141 465 -142q109 0 195 23.5t150.5 93.5t64.5 180q0 127 -105.5 186.5t-332.5 92.5q-98 14 -172 33.5t-153 58.5 t-121 107.5t-42 162.5q0 49 14.5 102.5t52.5 112t93 103.5t147.5 74.5t204.5 29.5q147 0 261 -38t245 -118q20 -14 8 -40l-30 -52q-16 -29 -41 -12q-211 141 -422 141z" glyph-name="Scommaaccent" horiz-adv-x="1306" unicode="Ș"/><glyph d="M559 -455h-16q-45 2 -76 33t-31 74q0 45 31 76.5t76 31.5q49 0 80.5 -35.5t31.5 -99.5q0 -266 -221 -393q-14 -8 -22 2l-23 37q-8 10 6 22q150 96 164 252zM524 82q152 0 225.5 58.5t73.5 150.5q0 133 -305 178q-72 10 -119 19.5t-104 30t-91 48t-57.5 74.5t-23.5 109 q0 145 104.5 230t282.5 85q205 0 389 -115q25 -14 10 -39l-22 -41q-12 -29 -39 -12q-94 57 -165 80t-167 23q-133 0 -202.5 -55.5t-69.5 -149.5q0 -84 66.5 -116t236.5 -56q397 -57 397 -287q0 -141 -109.5 -230.5t-304.5 -89.5q-223 0 -421 132q-20 12 -7 38l25 43 q16 27 41 11q166 -119 356 -119z" glyph-name="scommaaccent" horiz-adv-x="1038" unicode="ș"/><glyph d="M631 -455h-17q-45 2 -75.5 33t-30.5 74q0 45 30.5 76.5t75.5 31.5q49 0 81 -35.5t32 -99.5q0 -266 -221 -393q-14 -8 -23 2l-22 37q-10 12 6 22q150 96 164 252zM49 1434h1143q29 0 29 -29v-66q0 -29 -29 -28h-506v-1282q0 -29 -27 -29h-77q-29 0 -29 29v1282h-504 q-29 0 -29 28v66q0 16 6.5 22.5t22.5 6.5z" glyph-name="uni021A" unicode="Ț"/><glyph d="M385 -455h-16q-45 2 -75 33t-30 74q0 45 31 76.5t76 31.5q47 0 78.5 -35.5t31.5 -99.5q0 -266 -221 -393q-16 -8 -20 2l-25 37q-6 12 6 22q150 96 164 252zM793 25q-82 -47 -195 -48q-195 0 -280 116t-85 341v502h-108q-16 0 -22.5 6t-6.5 23v49q0 29 29 28h108v215 q0 29 29 29h70q16 0 22 -6t6 -23v-215h388q29 0 28 -28v-49q0 -16 -6 -22.5t-22 -6.5h-388v-492q0 -190 58.5 -270t191.5 -80q86 0 148 31q16 10 23 7t12 -19l12 -54q4 -22 -12 -34z" glyph-name="uni021B" horiz-adv-x="894" unicode="ț"/><glyph d="M360 1542h43q18 0 39 -29l220 -311q18 -29 -13 -28h-51q-31 0 -47 28l-168 252l-170 -252q-16 -29 -47 -28h-51q-31 0 -13 28l220 311q18 29 38 29z" glyph-name="circumflex" horiz-adv-x="763" unicode="ˆ"/><glyph d="M403 1174h-43q-20 0 -38 28l-220 311q-18 29 13 29h51q31 0 47 -29l170 -251l168 251q16 29 47 29h51q31 0 13 -29l-220 -311q-21 -28 -39 -28z" glyph-name="caron" horiz-adv-x="763" unicode="ˇ"/><glyph d="M651 1362h-495q-27 0 -27 27v43q0 29 27 28h495q29 0 29 -28v-43q0 -27 -29 -27z" glyph-name="uni02C9" horiz-adv-x="806" unicode="ˉ"/><glyph d="M354 1268q-205 0 -282 182q-14 31 6 39l45 24q18 8 31 -14q33 -78 76.5 -108.5t123.5 -30.5t125 30.5t78 108.5q8 23 29 14l45 -24q20 -8 6 -39q-76 -182 -283 -182z" glyph-name="breve" horiz-adv-x="710" unicode="˘"/><glyph d="M68 1389q0 41 27.5 68.5t66.5 27.5t67.5 -29t28.5 -67.5t-28.5 -66.5t-67.5 -28t-66.5 28t-27.5 67z" glyph-name="dotaccent" horiz-adv-x="323" unicode="˙"/><glyph d="M295 1188q-94 0 -154.5 62.5t-60.5 158.5t60.5 158.5t154.5 62.5t153.5 -62.5t59.5 -158.5t-59.5 -158.5t-153.5 -62.5zM294.5 1260q63.5 0 100.5 44t37 105t-36 104t-99.5 43t-102 -44t-38.5 -103t37.5 -104t101 -45z" glyph-name="ring" horiz-adv-x="589" unicode="˚"/><glyph d="M258 31l82 -31q-57 -6 -125 -53t-68 -125q0 -156 121 -156q23 0 92 4q27 0 27 -24v-23q0 -27 -27 -29q-49 -4 -104 -4q-82 0 -136 52.5t-54 162.5q-1 158 192 226z" glyph-name="ogonek" horiz-adv-x="452" unicode="˛"/><glyph d="M602 1368q53 0 83 21.5t52 78.5q12 31 41 21l35 -14q25 -10 12 -43q-68 -160 -211 -160q-96 0 -176 71q-49 43 -76.5 58.5t-62.5 15.5q-51 0 -81 -22.5t-54 -79.5q-12 -31 -41 -19l-33 15q-27 12 -12 43q66 158 211 157q88 0 180 -75q47 -41 72.5 -54.5t60.5 -13.5z" glyph-name="tilde" horiz-adv-x="894" unicode="˜"/><glyph d="M373 1409l-178 -211q-18 -25 -54 -24h-59q-31 0 -4 30l250 291q20 23 37 -6l16 -25q17 -24 -8 -55zM641 1409l-178 -211q-18 -25 -53 -24h-60q-33 0 -4 30l250 291q20 23 37 -6l16 -25q17 -24 -8 -55z" glyph-name="hungarumlaut" horiz-adv-x="716" unicode="˝"/><glyph d="M1522 0h-1448q-29 0 -35 11.5t8 43.5l703 1350q4 8 10 19.5t9 15.5t7 10t8 8t11 2h6q6 0 10 -2t8 -8t7 -10t9.5 -15.5t10.5 -19.5l702 -1350q14 -33 8.5 -44t-34.5 -11zM1372 117l-573 1122l-574 -1122h1147z" glyph-name="Delta" horiz-adv-x="1589" unicode="Δ"/><glyph d="M1468 717q0 246 -176 435t-422 189q-244 0 -423 -190t-175 -434q2 -129 62.5 -251t128 -193.5t145.5 -129.5q43 -51 43 -77v-37q0 -16 -6 -22.5t-22 -6.5h-478q-16 0 -22 6t-6 23v61q0 27 28 27h336q-147 100 -245.5 261t-98.5 339q0 305 215 524t518.5 219t518.5 -219 t215 -524q0 -174 -113 -334t-270 -266h387q29 0 28 -27v-61q0 -29 -28 -29h-529q-16 0 -22 6t-6 23v37q0 27 43 77q374 275 374 574z" glyph-name="Omega" horiz-adv-x="1744" unicode="Ω"/><glyph d="M965 29l-13 209q-6 -8 -34.5 -51.5t-43 -62t-47 -53t-61.5 -50t-73 -30t-93 -14.5q-82 0 -153.5 38t-108.5 112v-516q0 -29 -27 -29h-73q-27 0 -27 29v1403q0 29 27 28h73q27 0 27 -28v-539q0 -74 13.5 -138.5t44 -120.5t90 -89t139.5 -33q133 0 222 128t89 300v492 q0 29 27 28h73q27 0 27 -28v-985q0 -29 -27 -29h-41q-22 0 -30 29z" glyph-name="mu" horiz-adv-x="1273" unicode="μ"/><glyph d="M63 1042h1315q27 0 27 -28v-62q0 -29 -27 -28h-389v-480q0 -190 57.5 -270t190.5 -80q92 0 149 31q16 10 23.5 7t11.5 -19l13 -54q4 -23 -15 -34q-74 -47 -192 -48q-195 0 -280 116t-85 341v490h-383v-895q0 -29 -28 -29h-70q-29 0 -29 29v895h-289q-29 0 -28 28v62 q0 16 6 22t22 6z" glyph-name="pi" horiz-adv-x="1521" unicode="π"/><glyph d="M600 248l352 1184q8 29 27 28h16q18 0 27 -28l352 -1184l410 1157q10 29 37 29h100q23 0 12 -29l-528 -1417q-8 -25 -21 -25h-10q-10 0 -20 25l-367 1222l-366 -1222q-10 -25 -21 -25h-12q-10 0 -19 25l-528 1417q-12 29 12 29h101q27 0 36 -29zM911 1593l-196 187 q-18 14 -6 35l32 51q18 29 37 6l254 -268q29 -29 -6 -29h-68q-24 0 -47 18z" glyph-name="Wgrave" horiz-adv-x="1966" unicode="Ẁ"/><glyph d="M406 244l309 805q16 25 24 24h15q10 0 26 -24l312 -805l233 770q8 29 37 28h90q27 0 12 -28l-315 -1010q-8 -27 -25 -27h-12q-16 0 -29 27l-335 860l-336 -860q-12 -27 -29 -27h-12q-12 0 -25 27l-315 1010q-12 29 14 28h88q29 0 37 -24zM674 1202l-197 187q-18 14 -6 34 l33 52q18 29 37 6l254 -269q29 -29 -7 -28h-67q-24 0 -47 18z" glyph-name="wgrave" horiz-adv-x="1495" unicode="ẁ"/><glyph d="M190 1405l410 -1157l352 1184q8 29 27 28h16q18 0 27 -28l352 -1184l410 1157q10 29 37 29h100q23 0 12 -29l-528 -1417q-8 -25 -21 -25h-10q-10 0 -20 25l-367 1222l-366 -1222q-10 -25 -21 -25h-12q-10 0 -19 25l-528 1417q-12 29 12 29h101q26 0 36 -29zM1217 1780 l-199 -187q-18 -18 -47 -18h-68q-14 0 -16 7t10 22l256 268q18 20 35 -6l33 -51q10 -21 -4 -35z" glyph-name="Wacute" horiz-adv-x="1966" unicode="Ẃ"/><glyph d="M170 1018l236 -774l309 805q16 25 24 24h15q10 0 26 -24l312 -805l233 770q8 29 37 28h90q27 0 12 -28l-315 -1010q-8 -27 -25 -27h-12q-16 0 -29 27l-335 860l-336 -860q-12 -27 -29 -27h-12q-12 0 -25 27l-315 1010q-12 29 14 28h88q29 1 37 -24zM969 1389l-199 -187 q-18 -18 -47 -18h-68q-14 0 -16 7t10 21l256 269q18 20 35 -6l33 -52q10 -20 -4 -34z" glyph-name="wacute" horiz-adv-x="1495" unicode="ẃ"/><glyph d="M600 248l352 1184q8 29 27 28h16q18 0 27 -28l352 -1184l410 1157q10 29 37 29h100q23 0 12 -29l-528 -1417q-8 -25 -21 -25h-10q-10 0 -20 25l-367 1222l-366 -1222q-10 -25 -21 -25h-12q-10 0 -19 25l-528 1417q-12 29 12 29h101q27 0 36 -29zM709 1782q0 35 24.5 59.5 t59 24.5t59.5 -24.5t25 -59.5t-25 -60.5t-59.5 -25.5t-59 25.5t-24.5 60.5zM1098 1782q0 35 24.5 59.5t59.5 24.5t59.5 -24.5t24.5 -59.5t-24.5 -60.5t-59.5 -25.5t-59.5 25.5t-24.5 60.5z" glyph-name="Wdieresis" horiz-adv-x="1966" unicode="Ẅ"/><glyph d="M406 244l309 805q16 25 24 24h15q10 0 26 -24l312 -805l233 770q8 29 37 28h90q27 0 12 -28l-315 -1010q-8 -27 -25 -27h-12q-16 0 -29 27l-335 860l-336 -860q-12 -27 -29 -27h-12q-12 0 -25 27l-315 1010q-12 29 14 28h88q29 0 37 -24zM469 1390.5q0 34.5 24.5 59.5 t59.5 25t59.5 -25t24.5 -59.5t-24.5 -60t-59.5 -25.5t-59.5 25.5t-24.5 60zM858 1390.5q0 34.5 24.5 59.5t59.5 25t59.5 -25t24.5 -59.5t-24.5 -60t-59.5 -25.5t-59.5 25.5t-24.5 60z" glyph-name="wdieresis" horiz-adv-x="1495" unicode="ẅ"/><glyph d="M29 1405q-16 29 12 29h92q25 0 41 -29l461 -709l461 709q18 29 39 29h92q29 0 12 -29l-541 -836v-540q0 -29 -26 -29h-74q-16 0 -22.5 6t-6.5 23v540zM627 1593l-197 187q-18 14 -6 35l33 51q18 29 37 6l254 -268q29 -29 -7 -29h-67q-27 0 -47 18z" glyph-name="Ygrave" horiz-adv-x="1259" unicode="Ỳ"/><glyph d="M524 184l361 830q16 29 39 28h84q27 0 14 -28l-621 -1403q-14 -29 -39 -29h-83q-27 0 -15 29l189 428l-435 975q-12 29 15 28h86q25 0 37 -28l366 -830h2zM526 1202l-196 187q-18 14 -6 34l32 52q18 29 37 6l254 -269q29 -29 -6 -28h-68q-24 0 -47 18z" glyph-name="ygrave" horiz-adv-x="1044" unicode="ỳ"/><glyph d="M696 528h-579q-16 0 -22.5 6.5t-6.5 22.5v47q0 18 6 24.5t23 6.5h579q27 0 27 -29v-51q0 -27 -27 -27z" glyph-name="endash" horiz-adv-x="811" unicode="–"/><glyph d="M1042 528h-925q-16 0 -22.5 6.5t-6.5 22.5v47q0 18 6 24.5t23 6.5h925q27 0 27 -29v-51q0 -27 -27 -27z" glyph-name="emdash" horiz-adv-x="1157" unicode="—"/><glyph d="M256 1141h18q45 -2 75 -32t30 -75t-31 -76.5t-76 -31.5q-49 0 -79.5 35.5t-30.5 99.5q0 268 221 393q12 8 20 -2l25 -37q6 -12 -6 -22q-152 -96 -166 -252z" glyph-name="quoteleft" horiz-adv-x="540" unicode="‘"/><glyph d="M283 1245h-17q-45 2 -74.5 32t-29.5 75t30.5 76.5t75.5 31.5q47 0 79 -35.5t32 -99.5q0 -266 -221 -393q-16 -8 -21 2l-24 37q-6 12 6 22q150 96 164 252z" glyph-name="quoteright" horiz-adv-x="540" unicode="’"/><glyph d="M283 -23h-17q-45 0 -74.5 31t-29.5 76q0 43 30.5 76t75.5 33q47 0 79 -37t32 -101q0 -268 -221 -391q-14 -10 -21 2l-24 37q-6 12 6 21q150 95 164 253z" glyph-name="quotesinglbase" horiz-adv-x="540" unicode="‚"/><glyph d="M643 1141h19q45 0 74.5 -31t29.5 -76q0 -43 -30.5 -74.5t-76.5 -31.5q-49 0 -79.5 35.5t-30.5 99.5q0 268 221 393q12 8 21 -2l24 -37q6 -14 -6 -22q-152 -96 -166 -254zM256 1141h18q45 0 75 -31t30 -76q0 -43 -31 -74.5t-76 -31.5q-49 0 -79.5 35.5t-30.5 99.5 q0 268 221 393q12 8 20 -2l25 -37q6 -14 -6 -22q-152 -96 -166 -254z" glyph-name="quotedblleft" horiz-adv-x="927" unicode="“"/><glyph d="M283 1245h-17q-45 2 -74.5 32t-29.5 75t30.5 76.5t75.5 31.5q47 0 79 -35.5t32 -99.5q0 -266 -221 -393q-16 -8 -21 2l-24 37q-6 12 6 22q150 96 164 252zM670 1245h-17q-45 2 -74.5 32t-29.5 75t30.5 76.5t75.5 31.5q47 0 79 -35.5t32 -99.5q0 -266 -221 -393 q-16 -8 -21 2l-24 37q-6 12 6 22q150 96 164 252z" glyph-name="quotedblright" horiz-adv-x="927" unicode="”"/><glyph d="M283 -23h-17q-45 0 -74.5 31t-29.5 76q0 43 30.5 76t75.5 33q47 0 79 -37t32 -101q0 -268 -221 -391q-14 -10 -21 2l-24 37q-6 12 6 21q150 95 164 253zM670 -23h-17q-45 0 -74.5 31t-29.5 76q0 43 30.5 76t75.5 33q47 0 79 -37t32 -101q0 -268 -221 -391q-14 -10 -21 2 l-24 37q-6 12 6 21q150 95 164 253z" glyph-name="quotedblbase" horiz-adv-x="927" unicode="„"/><glyph d="M713 864h-240l-8 -1038q0 -16 -6 -22.5t-23 -6.5h-35q-16 0 -22 6.5t-6 22.5l-8 1038h-240q-27 0 -27 29v49q0 27 27 27h240v436q0 29 26 29h55q29 0 29 -29v-436h238q29 0 28 -27v-49q0 -18 -6 -23.5t-22 -5.5z" glyph-name="dagger" horiz-adv-x="839" unicode="†"/><glyph d="M727 279h-238v-453q0 -16 -6 -22.5t-22 -6.5h-55q-27 0 -27 29v453h-240q-27 0 -26 28v49q0 27 26 27h240v541h-240q-27 0 -26 28v49q0 27 26 27h240v377q0 29 27 29h55q29 0 28 -29v-377h238q29 0 29 -27v-49q0 -18 -6.5 -23t-22.5 -5h-238v-541h238q29 0 29 -27v-49 q0 -28 -29 -28z" glyph-name="daggerdbl" horiz-adv-x="868" unicode="‡"/><glyph d="M92 702q0 53 37 91t92 38q53 0 92 -37.5t39 -91.5q0 -55 -39 -93t-92 -38q-55 0 -92 38t-37 93z" glyph-name="bullet" horiz-adv-x="442" unicode="•"/><glyph d="M162 84q0 45 30.5 77t75.5 32t76 -32t31 -77t-31 -76t-76 -31t-75.5 31t-30.5 76zM653 84q0 45 31 77t76 32t76.5 -32t31.5 -77t-31.5 -76t-76.5 -31t-76 31t-31 76zM1147 84q0 45 30.5 77t75.5 32t77 -32t32 -77t-32 -76t-77 -31t-75.5 31t-30.5 76z" glyph-name="ellipsis" horiz-adv-x="1521" unicode="…"/><glyph d="M419.5 727q-153.5 0 -246.5 95.5t-93 271.5t93 271t246.5 95t248 -96t94.5 -270t-94.5 -270.5t-248 -96.5zM420 813q115 0 178.5 76t63.5 205t-63.5 203.5t-178.5 74.5t-177.5 -74.5t-62.5 -203.5t62.5 -205t177.5 -76zM1427 1405l-970 -1382q-16 -23 -37 -23h-60 q-39 0 -18 29l969 1382q16 23 37 23h61q36 0 18 -29zM1346 -4q-154 0 -247 95t-93 271.5t93 271.5t247 95q156 0 249 -95t93 -271.5t-93 -271.5t-249 -95zM1345.5 82q114.5 0 178 75.5t63.5 205t-63.5 204t-178 74.5t-177 -74.5t-62.5 -204t62.5 -205t177 -75.5zM2159 -4 q-154 0 -247 95t-93 271.5t93 271.5t247 95q156 0 249 -95t93 -271.5t-93 -271.5t-249 -95zM2158.5 82q114.5 0 178 75.5t63.5 205t-63.5 204t-178 74.5t-177 -74.5t-62.5 -204t62.5 -205t177 -75.5z" glyph-name="perthousand" horiz-adv-x="2580" unicode="‰"/><glyph d="M115 584l346 381q18 18 37 6l51 -29q18 -14 4 -35l-336 -387l336 -387q14 -20 -4 -35l-51 -28q-20 -12 -37 6l-346 381q-31 33 -31 57v12q0 21 31 58z" glyph-name="guilsinglleft" horiz-adv-x="667" unicode="‹"/><glyph d="M207 965l346 -381q31 -37 31 -58v-12q0 -25 -31 -57l-346 -381q-16 -18 -35 -6l-53 28q-18 14 -4 35l336 387l-336 387q-14 20 4 35l53 29q17 12 35 -6z" glyph-name="guilsinglright" horiz-adv-x="667" unicode="›"/><glyph d="M856 1405l-676 -1380q-10 -25 -37 -25h-45q-37 0 -22 29l678 1380q10 25 37 25h45q34 0 20 -29z" glyph-name="fraction" horiz-adv-x="917" unicode="⁄"/><glyph glyph-name="uni2070" horiz-adv-x="0" unicode="⁰"/><glyph glyph-name="uni2080" horiz-adv-x="634" unicode="₀"/><glyph d="M41 543l143 80q20 12 37 12h39q18 0 19 -19v-598q0 -18 -19 -18h-51q-18 0 -19 18v508l-143 -61q-16 -4 -16 12v47q0 13 10 19z" glyph-name="uni2081" horiz-adv-x="368" unicode="₁"/><glyph glyph-name="uni2083" horiz-adv-x="0" unicode="₃"/><glyph glyph-name="uni2086" horiz-adv-x="0" unicode="₆"/><glyph glyph-name="uni2088" horiz-adv-x="0" unicode="₈"/><glyph glyph-name="peseta" horiz-adv-x="3162" unicode="₧"/><glyph d="M977 510h-625q20 -70 61.5 -138.5t103 -134t154.5 -105.5t199 -40q51 0 125 14.5t113 32.5q25 10 35 -14l24 -62q10 -27 -10 -34q-117 -55 -287 -56q-240 0 -423 153t-234 384h-162q-29 0 -28 29v18q0 29 28 29h146q-12 78 -13 139l4 88h-137q-29 0 -28 29v16q0 31 28 31 h150q49 248 233 409.5t436 161.5q152 0 287 -55q20 -6 12 -35l-24 -63q-8 -25 -33 -13q-102 47 -242 47q-111 0 -205 -39.5t-157.5 -107.5t-105.5 -143.5t-64 -161.5h639q16 0 22.5 -6t6.5 -23v-20q0 -27 -29 -27h-651l-7 -88q0 -29 13 -139h645q16 0 22.5 -6.5t6.5 -22.5 v-20q0 -27 -29 -27z" glyph-name="Euro" horiz-adv-x="1267" unicode="€"/><glyph d="M233 475l-122 -35q-31 -10 -33 17l-6 24q-2 25 16 33q135 39 145 43v449q0 102 13.5 174.5t48.5 139t105.5 101.5t177.5 35q197 0 263 -178t-32 -401q-111 -227 -494 -373v-43q0 -197 86 -301.5t248 -104.5q29 0 84 12.5t78 28.5q25 16 33 -10l10 -23q6 -23 -12 -32 q-80 -53 -203 -54q-197 0 -301.5 124t-104.5 327v47zM737 911q47 106 49 214t-52 181.5t-156 73.5q-137 0 -200 -87t-63 -287v-420q145 53 262 141t160 184z" glyph-name="afii61289" horiz-adv-x="970" unicode="ℓ"/><glyph d="M35 1434h635q12 0 12 -15v-55q0 -16 -12 -16h-273v-691q0 -12 -16 -12h-59q-16 0 -17 12v691h-270q-14 0 -15 16v55q1 15 15 15zM1589 1241l-309 -594q-10 -16 -23 -16h-6q-12 0 -18 16l-309 594l-66 -579q-2 -16 -18 -17h-56q-14 0 -12 17l92 778q2 10 10 10h7 q8 0 14 -10l360 -680l361 680q6 10 14 10h6q8 0 11 -10l92 -778q2 -16 -15 -17h-55q-14 0 -14 17z" glyph-name="trademark" horiz-adv-x="1810" unicode="™"/><glyph d="M1468 717q0 246 -176 435t-422 189q-244 0 -423 -190t-175 -434q2 -129 62.5 -251t128 -193.5t145.5 -129.5q43 -51 43 -77v-37q0 -16 -6 -22.5t-22 -6.5h-478q-16 0 -22 6t-6 23v61q0 27 28 27h336q-147 100 -245.5 261t-98.5 339q0 305 215 524t518.5 219t518.5 -219 t215 -524q0 -174 -113 -334t-270 -266h387q29 0 28 -27v-61q0 -29 -28 -29h-529q-16 0 -22 6t-6 23v37q0 27 43 77q374 275 374 574z" glyph-name="uni2126" horiz-adv-x="1744" unicode="Ω"/><glyph d="M309 1067v-309h1039v317q-197 293 -517 293q-176 0 -314 -93t-208 -208zM1536 668h-1227v-301q78 -123 212 -213.5t310 -90.5q129 0 249 57.5t196 139.5q23 18 39 0l31 -33q23 -23 -3 -45q-229 -209 -512 -209q-303 0 -518 218.5t-215 525.5q0 305 215 524t518.5 219 t518.5 -219t215 -524v-21q0 -18 -6.5 -23t-22.5 -5z" glyph-name="estimated" horiz-adv-x="1654" unicode="℮"/><glyph d="M983 1405l-707 -1380q-10 -25 -36 -25h-45q-35 0 -23 29l707 1380q10 25 36 25h46q36 0 22 -29zM90 1341l143 80q20 12 37 13h39q18 0 19 -19v-598q0 -18 -19 -18h-51q-20 0 -20 18v508l-142 -63q-16 -4 -16 12v49q0 12 10 18zM977 -27q-119 0 -177.5 52.5t-58.5 134.5 q0 51 32 91t58.5 54t51.5 21q-23 8 -45.5 19t-51 49t-28.5 87q0 78 59.5 129.5t159.5 51.5q102 0 161.5 -51.5t59.5 -129.5q0 -49 -28.5 -87t-51 -49t-45.5 -19q16 -4 34.5 -13.5t45.5 -29t44 -52t17 -71.5q0 -82 -59 -134.5t-178 -52.5zM977 293q-68 -4 -113 -39t-45 -92 q0 -117 158 -117q160 0 160 117q0 57 -46 92t-114 39zM976.5 590q-67.5 0 -105 -31t-37.5 -82q0 -53 38.5 -84t104.5 -35q66 4 104.5 35t38.5 84q0 51 -38 82t-105.5 31z" glyph-name="oneeighth" horiz-adv-x="1294" unicode="⅛"/><glyph d="M1100 1405l-705 -1380q-10 -25 -37 -25h-45q-37 0 -22 29l706 1380q10 25 37 25h45q35 0 21 -29zM1095.5 -27q-118.5 0 -178 52.5t-59.5 134.5q0 39 17.5 71.5t44 52t45 29t34.5 13.5q-23 8 -45 19t-51 49t-29 87q0 78 60.5 129.5t161 51.5t160 -51.5t59.5 -129.5 q0 -111 -123 -155q16 -4 33.5 -13.5t44 -29t44 -52t17.5 -71.5q0 -82 -58.5 -134.5t-177 -52.5zM1096 293q-68 -4 -114 -39t-46 -92q0 -117 160 -117q158 0 157 117q0 57 -44.5 92t-112.5 39zM1095.5 590q-67.5 0 -105.5 -31t-38 -82q0 -53 39 -84t105 -35q141 10 141 119 q0 51 -37 82t-104.5 31zM301 780q-123 0 -213 90q-12 10 -2 25l35 35q12 16 29 0q23 -23 37 -34t43.5 -21.5t70.5 -10.5q156 0 156 115q0 43 -44 72.5t-112 29.5h-59q-20 0 -21 21v37q0 20 21 20h59q68 0 112 30t44 73q0 117 -156 116q-41 0 -71.5 -11t-43 -21.5 t-36.5 -34.5q-14 -14 -29 0l-35 35q-10 14 2 24q90 90 213 90q94 0 165 -48t71 -144q0 -55 -34 -93t-81 -55v-2q47 -12 81 -51t34 -98q0 -94 -71 -141.5t-165 -47.5z" glyph-name="threeeighths" horiz-adv-x="1411" unicode="⅜"/><glyph d="M1083 1405l-706 -1380q-10 -25 -37 -25h-45q-35 0 -23 29l707 1380q10 25 37 25h45q36 0 22 -29zM1077 -27q-119 0 -177 52.5t-58 134.5q0 51 31.5 91t58 54t51.5 21q-23 8 -45.5 19t-51 49t-28.5 87q0 78 59.5 129.5t159.5 51.5q102 0 161.5 -51.5t59.5 -129.5 q0 -49 -28.5 -87t-51 -49t-44.5 -19q16 -4 34.5 -13.5t45 -29t44 -52t17.5 -71.5q0 -82 -59.5 -134.5t-178.5 -52.5zM1077 293q-68 -4 -112.5 -39t-44.5 -92q0 -117 157 -117q160 0 160 117q0 57 -46 92t-114 39zM1077.5 590q-67.5 0 -105.5 -31t-38 -82q0 -53 39 -84 t104 -35q66 4 105 35t39 84q0 51 -38 82t-105.5 31zM174 1434h311q12 0 13 -13v-45q0 -14 -13 -14h-260l-24 -186h106q104 0 168 -47.5t64 -147.5q0 -106 -64.5 -157.5t-173.5 -51.5q-127 0 -217 96q-6 6 0 15l35 37q10 10 16 0q29 -27 42 -38.5t48 -24.5t76 -13 q160 0 160 135q0 125 -154 125h-174q-14 0 -12 12l41 305q0 13 12 13z" glyph-name="fiveeighths" horiz-adv-x="1394" unicode="⅝"/><glyph d="M926 1405l-705 -1380q-10 -25 -37 -25h-45q-37 0 -22 29l706 1380q10 25 37 25h45q35 0 21 -29zM921.5 -27q-118.5 0 -178 52.5t-59.5 134.5q0 39 17.5 71.5t44 52t45 29t34.5 13.5q-23 8 -45 19t-51 49t-29 87q0 78 60.5 129.5t161 51.5t160 -51.5t59.5 -129.5 q0 -111 -123 -155q16 -4 33.5 -13.5t44 -29t44 -52t17.5 -71.5q0 -82 -58.5 -134.5t-177 -52.5zM922 293q-68 -4 -114 -39t-46 -92q0 -117 160 -117q158 0 157 117q0 57 -44.5 92t-112.5 39zM921.5 590q-67.5 0 -105.5 -31t-38 -82q0 -53 39 -84t105 -35q141 10 141 119 q0 51 -37 82t-104.5 31zM516 1423v-24q0 -10 -6 -21l-334 -567q-4 -12 -16 -12h-64q-14 0 -8 12l318 545h-314q-12 4 -12 12v53q0 12 12 13h414q10 -1 10 -11z" glyph-name="seveneighths" horiz-adv-x="1236" unicode="⅞"/><glyph d="M565 936q158 0 271.5 -76t167.5 -201q0 309 -99.5 495.5t-314.5 186.5q-109 0 -196 -33.5t-179 -113.5q-23 -23 -43 2l-45 47q-20 23 -2 41q205 176 457 176q553 0 553 -842q0 -102 -11.5 -186t-47.5 -172t-94 -148.5t-158.5 -99.5t-233.5 -39q-227 0 -359.5 147.5 t-132.5 366.5q0 213 136 331t331 118zM596 90q96 0 170 30t115 71.5t66.5 95t33.5 95.5t8 77q0 143 -122 254.5t-271 111.5q-154 0 -259.5 -94t-105.5 -250q0 -166 94.5 -278.5t270.5 -112.5z" glyph-name="partialdiff" horiz-adv-x="1245" unicode="∂"/><glyph d="M1516 0h-1448q-29 0 -35 11.5t8 43.5l702 1350q4 8 10.5 19.5t9.5 15.5t7 10t8 8t10 2h7q6 0 10 -2t8 -8t7 -10t9.5 -15.5t10.5 -19.5l702 -1350q14 -33 8.5 -44t-34.5 -11zM1364 117l-571 1122l-574 -1122h1145z" glyph-name="uni2206" horiz-adv-x="1583" unicode="∆"/><glyph d="M350 1315v-1286q0 -29 -26 -29h-78q-29 0 -29 29v1376q0 29 29 29h858q29 0 29 -29v-1376q0 -16 -6.5 -22.5t-22.5 -6.5h-76q-16 0 -22.5 6t-6.5 23v1286h-649z" glyph-name="product" horiz-adv-x="1349" unicode="∏"/><glyph d="M731 692l-364 -575h725q29 0 28 -27v-61q0 -29 -28 -29h-910q-27 0 -26 29l442 684l-442 692q0 29 26 29h910q29 0 28 -29v-62q0 -29 -28 -28h-725l364 -576q18 -24 0 -47z" glyph-name="summation" horiz-adv-x="1239" unicode="∑"/><glyph d="M1036 539h-905q-29 0 -29 26v43q0 29 29 29h905q27 0 27 -29v-43q0 -26 -27 -26z" glyph-name="minus" horiz-adv-x="1165" unicode="−"/><glyph d="M879 1405l-678 -1380q-10 -25 -37 -25h-45q-35 0 -21 29l676 1380q10 25 37 25h45q37 0 23 -29z" glyph-name="uni2215" horiz-adv-x="966" unicode="∕"/><glyph d="M100 702q0 45 33 78t80 33q45 0 78 -31.5t33 -79t-32 -80t-79 -32.5t-80 32.5t-33 79.5z" glyph-name="uni2219" horiz-adv-x="425" unicode="∙"/><glyph d="M1395 1311h-230l-604 -1321q-14 -25 -22 -25h-7q-8 0 -22 25l-467 1024q-14 29 12 28h86q27 0 39 -28l355 -803l540 1194q14 29 39 29h281q29 0 28 -29v-68q1 -26 -28 -26z" glyph-name="radical" horiz-adv-x="1423" unicode="√"/><glyph d="M1341 760q0 -217 -95 -326.5t-247 -109.5q-74 0 -133 31.5t-94 80.5t-52.5 85t-25.5 65h-2q-8 -27 -23.5 -56.5t-48 -74.5t-88 -73t-124.5 -28q-145 0 -239.5 110.5t-94.5 295.5q0 186 94 295.5t240 109.5q70 0 125 -27.5t87.5 -71.5t47 -71.5t24.5 -54.5h4 q6 27 23.5 61.5t52.5 83t94.5 80t132.5 31.5q154 0 248 -107.5t94 -328.5zM737 760q8 -131 77 -227.5t179 -96.5q106 0 178 81t72 243q0 166 -70.5 245.5t-179.5 79.5q-111 0 -179.5 -97t-76.5 -228zM174 760q0 -131 67.5 -212t170.5 -81q104 0 167.5 85t69.5 208 q-6 125 -69.5 210t-167.5 85q-102 0 -170 -81t-68 -214z" glyph-name="infinity" horiz-adv-x="1417" unicode="∞"/><glyph d="M416 -16v1020q0 225 86 340.5t280 115.5q111 0 203 -53q18 -10 10 -35l-10 -51q-6 -20 -12 -22.5t-23 6.5q-82 39 -157 38q-133 0 -191.5 -79.5t-58.5 -270.5v-1020q0 -225 -85 -340.5t-280 -115.5q-111 0 -203 53q-18 10 -12 35l12 51q2 18 9.5 21.5t23.5 -5.5 q82 -39 158 -39q133 0 191.5 80.5t58.5 270.5z" glyph-name="integral" horiz-adv-x="1013" unicode="∫"/><glyph d="M492 772q-86 80 -148 80q-55 0 -91 -27.5t-71 -91.5q-18 -27 -43 -10l-35 33q-20 18 -2 45q31 47 55.5 74.5t73 53t105.5 25.5q90 0 192 -90q49 -45 77 -60.5t67 -15.5q55 0 91 28t71 91q18 29 43 11l34 -33q23 -16 0 -45q-31 -45 -54 -73t-71.5 -53.5t-107.5 -25.5 q-96 0 -186 84zM498 397q-86 80 -148 80q-53 0 -90 -27.5t-72 -93.5q-20 -25 -43 -8l-34 31q-23 18 -2 45q31 47 55 74.5t72.5 53.5t105.5 26q96 0 190 -91q49 -45 77 -60t67 -15q55 0 92 27.5t70 92.5q12 16 20 17.5t23 -8.5l34 -31q25 -16 3 -45q-31 -47 -55.5 -75 t-73 -53.5t-105.5 -25.5q-96 0 -186 86z" glyph-name="approxequal" horiz-adv-x="1019" unicode="≈"/><glyph d="M246 29l186 477h-301q-29 0 -29 26v50q0 16 6.5 22t22.5 6h342l117 299h-459q-16 0 -22.5 6.5t-6.5 22.5v47q0 16 6.5 22.5t22.5 6.5h500l155 395q10 25 37 25h41q14 0 20.5 -5.5t4.5 -15.5q-16 -41 -156 -399h277q27 0 26 -27v-51q0 -27 -26 -27h-318l-117 -299h435 q27 0 26 -28v-50q0 -27 -26 -26h-475l-189 -481q-10 -25 -37 -25h-43q-32 0 -20 29z" glyph-name="notequal" horiz-adv-x="1138" unicode="≠"/><glyph d="M160 1018l758 375q27 12 26 -13v-82q0 -25 -26 -36l-625 -308l625 -307q27 -12 26 -39v-80q0 -25 -26 -14l-758 377q-23 10 -23 33v61q0 19 23 33zM956 193h-815q-29 0 -28 28v51q0 31 28 31h815q29 0 29 -29v-55q0 -26 -29 -26z" glyph-name="lessequal" horiz-adv-x="1101" unicode="≤"/><glyph d="M184 1393l760 -375q20 -14 21 -33v-61q0 -20 -21 -33l-760 -377q-27 -10 -26 14v80q0 27 26 39l625 307l-625 308q-27 12 -26 36v82q-1 25 26 13zM961 193h-816q-29 0 -28 26v55q0 29 28 29h816q29 0 28 -31v-51q0 -16 -6 -22t-22 -6z" glyph-name="greaterequal" horiz-adv-x="1101" unicode="≥"/><glyph d="M203 717l493 -582l494 582l-494 581zM1284 633l-516 -604q-37 -43 -68 -43h-8q-31 0 -67 43l-516 604q-84 84 0 168l516 604q37 43 67 43h8q31 0 68 -43l516 -604q84 -84 0 -168z" glyph-name="lozenge" horiz-adv-x="1382" unicode="◊"/><glyph d="M453 1171l-211 -288h260q20 0 20 -19v-49q0 -16 -20 -16h-404q-6 0 -6 6v6q0 10 8 20l271 359q57 88 29.5 138t-97.5 50q-94 0 -153 -61q-14 -14 -29 -2l-33 35q-10 14 2 26q94 84 213 84q135 0 179.5 -97.5t-29.5 -191.5z" glyph-name="two.numr" horiz-adv-x="602"/><glyph d="M86 1341l143 80q20 12 37 13h39q18 0 19 -19v-598q0 -18 -19 -18h-51q-18 0 -18 18v508l-144 -61q-16 -4 -16 12v47q0 12 10 18z" glyph-name="one.numr" horiz-adv-x="479"/><glyph d="M293 780q-125 0 -215 90q-14 10 0 25l28 31q14 14 29 0q68 -68 158 -68q156 0 156 121q0 45 -44.5 75.5t-113.5 30.5h-60q-18 0 -18 19v33q0 18 18 18h60q70 0 114 31t44 76q0 55 -38 88.5t-118 33.5q-88 0 -158 -69q-14 -14 -29 0l-28 31q-14 14 0 24q90 90 215 90 q94 0 164.5 -48t70.5 -144q0 -55 -33.5 -93t-82.5 -55v-2q47 -12 81.5 -51t34.5 -98q0 -94 -71.5 -141.5t-163.5 -47.5z" glyph-name="three.numr" horiz-adv-x="604"/><glyph d="M266 1536h1155q33 0 44.5 -11.5t11.5 -43.5v-1563q0 -33 -11.5 -44t-44.5 -11h-1155q-33 0 -44 11t-11 44v1563q0 33 11 44t44 11zM846 614l266 -266q23 -25 43 0l43 41q20 20 0 43l-266 268l266 267q23 20 0 43l-43 41q-20 23 -43 0l-266 -267l-266 267q-23 23 -43 0 l-43 -41q-23 -23 0 -43l266 -267l-266 -268q-23 -23 0 -43l43 -41q20 -23 43 0z" glyph-name="glyph405" horiz-adv-x="1687"/><glyph d="M336 1434h61q18 0 19 -19v-368h100q16 0 16 -21v-35q0 -20 -16 -20h-100v-154q0 -18 -19 -18h-43q-18 0 -18 18v154h-279q-20 0 -20 20v29q0 16 16 39l256 360q11 15 27 15zM336 1331l-205 -284h205v284z" glyph-name="four.numr" horiz-adv-x="573"/><glyph d="M137 1434h314q12 0 12 -13v-45q0 -14 -12 -14h-263l-22 -186h106q104 0 168 -47.5t64 -147.5q0 -106 -65.5 -157.5t-174.5 -51.5q-125 0 -217 96q-4 8 2 15l35 37q6 12 14 0q27 -27 42.5 -38.5t49 -24.5t74.5 -13q162 0 162 135q0 63 -43 94t-113 31h-174q-12 0 -12 12 l41 305q2 13 12 13z" glyph-name="five.numr" horiz-adv-x="536"/><glyph d="M309 1219q88 0 151.5 -55.5t63.5 -153.5q0 -104 -60.5 -171t-166.5 -67q-254 0 -254 297q0 391 256 391q121 0 213 -82q6 -10 -2 -18l-33 -35q-10 -10 -18 0q-70 61 -162 61q-90 0 -132 -79.5t-42 -186.5q59 99 186 99zM295 844q72 0 110.5 47t38.5 115q0 63 -41 103 t-108 40q-72 0 -121 -43t-49 -111q0 -49 39 -100t131 -51z" glyph-name="six.numr" horiz-adv-x="557"/><glyph d="M483 1423v-22q0 -12 -4 -23l-336 -567q-6 -12 -18 -12h-62q-14 0 -8 12l318 545h-314q-12 4 -12 12v53q0 12 12 13h414q10 -1 10 -11z" glyph-name="seven.numr" horiz-adv-x="509"/><glyph d="M295 772q-119 0 -178.5 52.5t-59.5 133.5q0 39 17.5 72t44 52.5t45 28.5t35.5 13q-125 45 -125 156q0 78 60.5 129t160.5 51t159.5 -51t59.5 -129q0 -111 -123 -156q16 -4 33.5 -13t44.5 -28.5t44 -52.5t17 -72q0 -82 -58 -134t-177 -52zM295 1092q-68 -4 -114 -39 t-46 -92q0 -117 160 -117t160 117q0 57 -46 92t-114 39zM294.5 1389q-67.5 0 -105 -31t-37.5 -82q0 -53 38.5 -84t104.5 -35q66 4 104.5 35t38.5 84q0 51 -38 82t-105.5 31z" glyph-name="eight.numr" horiz-adv-x="589"/><glyph d="M266 1014q-88 0 -151.5 55t-63.5 154q0 104 60.5 170.5t167.5 66.5q252 0 251 -299q0 -389 -256 -389q-119 0 -211 82q-8 8 0 16l33 37q12 8 21 0q70 -61 162 -61q90 0 132 79t42 185q-60 -96 -187 -96zM281 1389q-72 0 -111 -48.5t-39 -115.5q0 -61 41 -101.5t109 -40.5 q70 0 119 43t49 109q0 51 -38 102.5t-130 51.5z" glyph-name="nine.numr" horiz-adv-x="579"/><glyph d="M51 1116.5q0 151.5 66.5 247.5t200 96t200 -96t66.5 -247.5t-66.5 -248t-200 -96.5t-200 96.5t-66.5 248zM137 1116q0 -117 45 -189.5t135.5 -72.5t135.5 71.5t45 190.5t-45 190.5t-135.5 71.5t-135.5 -72.5t-45 -189.5z" glyph-name="zero.numr" horiz-adv-x="634"/><glyph d="M420 373l-213 -289h262q18 0 18 -18v-50q0 -16 -18 -16h-403q-8 0 -9 6v6q0 6 9 21l272 358q57 88 28.5 138.5t-98.5 50.5q-92 0 -151 -62q-14 -14 -29 -2l-33 35q-14 14 0 27q94 84 213 84q137 0 181.5 -97.5t-29.5 -191.5z" glyph-name="two.dnom" horiz-adv-x="534"/><glyph d="M270 -23q-127 0 -215 89q-12 12 0 26l31 31q12 12 29 0q23 -23 37 -35t45.5 -23.5t72.5 -11.5q156 0 156 123q0 45 -44 76t-114 31h-59q-18 0 -19 18v31q0 20 19 20h59q70 0 114 31t44 76q0 121 -156 121q-41 0 -72.5 -11.5t-46 -24t-36.5 -34.5q-16 -12 -29 0l-31 33 q-12 12 0 24q90 90 215 90q94 0 165 -48t71 -144q0 -57 -34 -95t-81 -53v-2q47 -14 81 -53t34 -96q0 -94 -71 -141.5t-165 -47.5z" glyph-name="three.dnom" horiz-adv-x="548"/><glyph d="M266 215q-88 0 -151.5 55.5t-63.5 153.5q0 104 60.5 171t167.5 67q252 0 251 -300q0 -389 -256 -389q-119 0 -211 82q-6 8 0 19l33 35q12 8 21 0q70 -61 162 -62q90 0 132 80t42 186q-60 -98 -187 -98zM281 590q-72 0 -111 -47t-39 -115q0 -63 41 -103t109 -40 q70 0 119 43t49 110q0 49 -39 100.5t-129 51.5z" glyph-name="nine.dnom" horiz-adv-x="581"/><glyph d="M336 635h61q18 0 19 -19v-368h100q16 0 16 -21v-34q0 -20 -16 -21h-100v-154q0 -18 -19 -18h-43q-18 0 -18 18v154h-279q-20 0 -20 21v28q0 16 16 39l256 361q11 14 27 14zM336 532l-205 -284h205v284z" glyph-name="four.dnom" horiz-adv-x="573"/><glyph d="M287 -27q-117 0 -176.5 52.5t-59.5 134.5q0 51 32 91t58.5 54t51.5 21q-23 8 -45.5 19t-51 49t-28.5 87q0 78 59 129.5t160 51.5q102 0 161.5 -51.5t59.5 -129.5q0 -111 -123 -155q25 -8 49.5 -20.5t57 -53.5t32.5 -92q0 -82 -59 -134.5t-178 -52.5zM287 293 q-68 -4 -113 -39t-45 -92q0 -117 158 -117q160 0 159 117q0 57 -45.5 92t-113.5 39zM287 590q-66 0 -104 -31t-38 -82q0 -53 38 -84t104 -35q66 4 104.5 35t38.5 84q0 51 -37.5 82t-105.5 31z" glyph-name="eight.dnom" horiz-adv-x="575"/><glyph d="M483 625v-25q0 -10 -6 -20l-334 -568q-4 -12 -16 -12h-64q-14 0 -8 12l318 545h-314q-12 4 -12 12v54q0 12 12 12h414q10 0 10 -10z" glyph-name="seven.dnom" horiz-adv-x="507"/><glyph d="M315 420q88 0 151.5 -55.5t63.5 -153.5q0 -104 -59 -171t-166 -67q-254 0 -254 299q0 389 256 390q119 0 211 -82q8 -8 0 -17l-33 -37q-12 -8 -20 0q-68 61 -162 62q-90 0 -131 -80t-41 -186q55 98 184 98zM301 45q72 0 112 47t40 115q0 63 -42 103t-110 40 q-70 0 -119 -43t-49 -108q0 -51 38 -102.5t130 -51.5z" glyph-name="six.dnom" horiz-adv-x="579"/><glyph d="M137 635h314q12 0 12 -12v-45q0 -14 -12 -15h-263l-22 -186h106q104 0 168 -47t64 -148q0 -106 -65.5 -157.5t-174.5 -51.5q-125 0 -217 97q-4 8 2 14l35 37q6 12 14 0q27 -27 42.5 -38t49 -24.5t74.5 -13.5q162 0 162 135q0 63 -43 94t-113 31h-174q-12 0 -12 12l41 306 q2 12 12 12z" glyph-name="five.dnom" horiz-adv-x="536"/><glyph d="M236 717q0 -121 22.5 -228.5t70.5 -198.5t135 -144.5t201.5 -53.5t201.5 53.5t134.5 145.5t70 197.5t22.5 228.5q0 121 -22.5 227.5t-70 198.5t-134.5 145t-201.5 53t-201.5 -53t-135 -145t-70.5 -198.5t-22.5 -227.5zM102 717q0 211 58.5 374.5t187.5 266t317.5 102.5 t317.5 -102.5t187.5 -266t58.5 -374.5t-58.5 -375t-187.5 -266.5t-317.5 -102.5t-317.5 102.5t-187.5 266.5t-58.5 375z" glyph-name="zero.tnum" horiz-adv-x="1331"/><glyph d="M78 1241l295 170q41 23 57 23h49q29 0 29 -29v-1376q0 -16 -6 -22.5t-23 -6.5h-76q-16 0 -22 6t-6 23v1241l-285 -129q-27 -6 -27 20v51q1 19 15 29z" glyph-name="one.tnum" horiz-adv-x="747"/><glyph d="M928 829l-623 -712h727q29 0 29 -27v-61q0 -16 -6 -22.5t-23 -6.5h-919q-16 0 -17 16v19q0 16 17 39l721 827q57 66 71.5 143.5t-13.5 143t-110 109.5t-200 44q-231 0 -394 -176q-20 -20 -41 0l-45 49q-20 20 0 37q209 209 480 209q154 0 266.5 -59.5t159.5 -150.5 t28.5 -205t-108.5 -216z" glyph-name="two.tnum" horiz-adv-x="1148"/><glyph d="M612 674h-219q-16 0 -22 6t-6 22v58q0 27 28 26h225q160 0 232 78t72 160q0 150 -99.5 233.5t-259.5 83.5q-201 0 -362 -174q-20 -23 -39 0l-45 47q-16 20 0 37q104 104 205.5 156.5t240.5 52.5q197 0 343.5 -108.5t146.5 -317.5q0 -111 -72 -194.5t-160 -108.5v-2 q102 -27 189.5 -109.5t87.5 -220.5q0 -215 -144.5 -320.5t-390.5 -105.5q-266 0 -475 209q-18 18 2 37l43 47q20 20 41 0q166 -174 389 -174q401 0 402 316q0 115 -99.5 190.5t-253.5 75.5z" glyph-name="three.tnum" horiz-adv-x="1196"/><glyph d="M842 1434h100q27 0 27 -29v-963h243q27 0 27 -26v-54q0 -29 -27 -28h-243v-305q0 -29 -27 -29h-72q-29 0 -28 29v305h-719q-29 0 -29 28v58q0 27 21 55l694 942q13 17 33 17zM842 1270l-609 -828h609v828z" glyph-name="four.tnum" horiz-adv-x="1325"/><glyph d="M274 1434h691q29 0 28 -29v-62q0 -29 -28 -28h-609l-67 -469h282q233 0 372.5 -96.5t139.5 -313.5q0 -233 -144 -348t-384 -115q-266 0 -477 211q-16 16 2 33l45 49q18 18 37 2q176 -176 393 -176q190 0 292.5 77t102.5 263q0 295 -383 295h-381q-35 0 -28 29l90 649 q2 16 7 22.5t19 6.5z" glyph-name="five.tnum" horiz-adv-x="1185"/><glyph d="M680 936q195 0 330 -118t135 -331q0 -219 -131 -366.5t-359 -147.5q-547 0 -546 645q0 842 553 842q137 0 237 -38t203 -128q20 -16 -2 -39l-43 -49q-25 -25 -45 0q-88 80 -166 107.5t-193 27.5q-215 0 -313 -185t-98 -497q51 125 164.5 201t273.5 76zM649 90 q176 0 270.5 112.5t94.5 278.5q0 156 -105.5 250t-259.5 94q-150 0 -271.5 -111.5t-121.5 -254.5q0 -35 8 -77t34 -95.5t67 -95t114.5 -71.5t169.5 -30z" glyph-name="six.tnum" horiz-adv-x="1245"/><glyph d="M1108 1411v-10q0 -16 -18 -47l-807 -1329q-16 -25 -39 -25h-94q-35 0 -21 27l780 1282h-817q-29 2 -29 28v68q0 29 29 29h991q25 0 25 -23z" glyph-name="seven.tnum" horiz-adv-x="1148"/><glyph d="M614 -27q-254 0 -383 113t-129 291q0 86 38 155.5t94.5 110.5t98.5 61.5t75 28.5v4q-33 10 -67 27.5t-86 55.5t-85 102.5t-33 146.5q0 170 130 280.5t349 110.5q217 0 345.5 -109.5t128.5 -281.5q0 -233 -267 -334v-4q31 -8 72 -28.5t97.5 -60.5t94 -109.5t37.5 -155.5 q0 -180 -127 -292t-383 -112zM616 682q-154 -10 -268.5 -90t-114.5 -209q0 -125 95.5 -209t285.5 -84q197 0 289 83t92 210q0 129 -113.5 209t-265.5 90zM616 1343q-156 0 -252 -79.5t-96 -200.5t100.5 -194.5t247.5 -82.5q145 8 245 82t100 195t-95.5 200.5t-249.5 79.5z " glyph-name="eight.tnum" horiz-adv-x="1228"/><glyph d="M565 498q-195 0 -330 117.5t-135 330.5q0 219 131 366.5t359 147.5q547 0 547 -645q0 -842 -553 -842q-252 0 -457 177q-20 18 2 40l43 48q25 25 45 2q90 -80 177 -114t198 -34q215 0 314.5 186.5t99.5 495.5q-53 -125 -168 -200.5t-273 -75.5zM596 1343 q-174 0 -269.5 -113.5t-95.5 -277.5q0 -156 105.5 -250t259.5 -94q150 0 272.5 111.5t122.5 255.5q0 35 -8 76t-33.5 95t-67.5 96t-116 71.5t-170 29.5z" glyph-name="nine.tnum" horiz-adv-x="1243"/><glyph d="M76 702.5q0 292.5 140 512t382 348.5q29 14 41 -13l33 -55q18 -29 -15 -45q-205 -96 -329.5 -297t-124.5 -450.5t126 -451.5t328 -296q33 -16 15 -45l-33 -55q-12 -27 -41 -13q-240 123 -381 345.5t-141 515z" glyph-name="parenleft.aalt" horiz-adv-x="786"/><glyph d="M770 702.5q0 -292.5 -141.5 -515t-380.5 -345.5q-29 -14 -41 13l-33 55q-18 29 14 45q203 94 328 296t125 451.5t-125 450.5t-328 297q-33 16 -14 45l33 55q12 27 41 13q242 -129 382 -348.5t140 -512z" glyph-name="parenright.aalt" horiz-adv-x="786"/><glyph d="M721 676h-565q-27 0 -27 29v47q0 29 27 28h565q29 0 29 -26v-52q0 -26 -29 -26z" glyph-name="hyphen.aalt" horiz-adv-x="878"/><glyph d="M643 -131v-55q0 -16 -6 -22.5t-23 -6.5h-378q-16 0 -22.5 6t-6.5 23v1779q0 16 6 22.5t23 6.5h378q16 0 22.5 -6t6.5 -23v-55q0 -29 -29 -29h-286v-1613h286q29 0 29 -27z" glyph-name="bracketleft.aalt" horiz-adv-x="784"/><glyph d="M135 -186v55q0 27 29 27h287v1613h-287q-29 0 -29 29v55q0 16 6 22.5t23 6.5h379q16 0 22 -6t6 -23v-1779q0 -16 -6 -22.5t-22 -6.5h-379q-16 0 -22.5 6.5t-6.5 22.5z" glyph-name="bracketright.aalt" horiz-adv-x="776"/><glyph d="M76 698v66q0 18 28 31q70 20 125.5 80.5t55.5 130.5v161q0 131 37.5 229.5t91 150.5t127 84t130 41t115.5 9q16 0 22.5 -6t6.5 -22v-64q0 -27 -29 -26q-41 0 -84 -7.5t-97 -33t-94 -66.5t-68.5 -115.5t-28.5 -173.5v-161q0 -106 -57.5 -179t-129.5 -94v-4 q72 -23 129.5 -93.5t57.5 -178.5v-162q0 -98 28.5 -173t68.5 -116t94 -66.5t97 -32.5t84 -7q29 0 29 -27v-63q0 -29 -29 -29q-59 0 -115.5 9t-130 41t-127 84t-91 150.5t-37.5 229.5v162q0 72 -55.5 131t-125.5 80q-28 7 -28 30z" glyph-name="braceleft.aalt" horiz-adv-x="923"/><glyph d="M203 -154v1782q0 29 28 29h56q29 0 28 -29v-1782q0 -29 -28 -28h-56q-28 -1 -28 28z" glyph-name="bar.aalt" horiz-adv-x="518"/><glyph d="M848 764v-66q0 -23 -29 -30q-70 -20 -125 -80t-55 -131v-162q0 -131 -38 -229.5t-91 -150.5t-127 -84t-130 -41t-116 -9q-29 0 -28 29v63q0 27 28 27q41 0 84 7t96.5 32.5t94.5 66.5t68.5 116t27.5 173v162q0 109 58.5 179.5t129.5 92.5v4q-72 23 -130 94.5t-58 178.5 v161q0 98 -27.5 173t-68.5 116t-94.5 66.5t-96.5 33t-84 7.5q-29 0 -28 26v64q0 16 6 22t22 6q59 0 115.5 -9t130.5 -41t127 -84t91 -150.5t38 -229.5v-161q0 -70 55.5 -130.5t124.5 -80.5q29 -13 29 -31z" glyph-name="braceright.aalt" horiz-adv-x="923"/><glyph d="M217 -158v762q0 29 29 29h41q29 0 28 -29v-762q0 -16 -6 -22t-22 -6h-41q-29 -1 -29 28zM217 895v657q0 29 29 29h41q29 0 28 -29v-657q0 -16 -6 -22.5t-22 -6.5h-41q-29 0 -29 29z" glyph-name="brokenbar.aalt" horiz-adv-x="532"/><glyph d="M106 823l347 381q20 18 36 6l54 -28q20 -14 2 -35l-334 -387l334 -387q18 -20 -2 -35l-54 -29q-18 -12 -36 6l-347 381q-29 35 -28 58v12q-1 22 28 57zM539 823l348 381q18 18 35 6l53 -28q20 -14 2 -35l-334 -387l334 -387q18 -20 -2 -35l-53 -29q-18 -12 -35 6 l-348 381q-29 35 -29 58v12q0 22 29 57z" glyph-name="guillemotleft.aalt" horiz-adv-x="1081"/><glyph d="M627 1204l346 -381q31 -37 31 -57v-12q0 -25 -31 -58l-346 -381q-16 -18 -35 -6l-53 29q-18 14 -4 35l335 387l-335 387q-14 20 4 35l53 28q17 12 35 -6zM195 1204l346 -381q31 -37 30 -57v-12q0 -25 -30 -58l-346 -381q-16 -18 -37 -6l-52 29q-18 14 -4 35l336 387 l-336 387q-14 20 4 35l52 28q19 12 37 -6z" glyph-name="periodcentered.aalt" horiz-adv-x="1081"/><glyph d="M696 676h-579q-16 0 -22.5 6t-6.5 23v47q0 16 6 22t23 6h579q27 0 27 -26v-52q0 -26 -27 -26z" glyph-name="guillemotright.aalt" horiz-adv-x="811"/><glyph d="M1042 676h-925q-16 0 -22.5 6t-6.5 23v47q0 16 6 22t23 6h925q27 0 27 -26v-52q0 -26 -27 -26z" glyph-name="endash.aalt" horiz-adv-x="1157"/><glyph d="M92 731q0 53 37 91t92 38q53 0 92 -38t39 -91q0 -55 -39 -93t-92 -38q-55 0 -92 38t-37 93z" glyph-name="emdash.aalt" horiz-adv-x="442"/><glyph d="M115 823l346 381q18 18 37 6l51 -28q18 -14 4 -35l-336 -387l336 -387q14 -20 -4 -35l-51 -29q-20 -12 -37 6l-346 381q-31 33 -31 58v12q0 20 31 57z" glyph-name="bullet.aalt" horiz-adv-x="667"/><glyph d="M207 1204l346 -381q31 -37 31 -57v-12q0 -25 -31 -58l-346 -381q-16 -18 -35 -6l-53 29q-18 14 -4 35l336 387l-336 387q-14 20 4 35l53 28q17 12 35 -6z" glyph-name="guilsinglleft.aalt" horiz-adv-x="667"/><glyph d="M109 731q0 49 34.5 84t83.5 35t84 -35t35 -84q0 -51 -35 -85t-84 -34t-83.5 34t-34.5 85z" glyph-name="guilsinglright.aalt" horiz-adv-x="456"/><glyph d="M453 1339l-211 -288h260q20 0 20 -19v-49q0 -16 -20 -16h-404q-6 0 -6 6v6q0 10 8 20l271 359q57 88 29.5 138t-97.5 50q-94 0 -153 -61q-14 -14 -29 -2l-33 35q-10 14 2 26q94 84 213 84q135 0 179.5 -97.5t-29.5 -191.5z" glyph-name="two.superior" horiz-adv-x="602"/><glyph d="M86 1509l143 80q20 12 37 13h39q18 0 19 -19v-598q0 -18 -19 -18h-49q-18 0 -18 18v510l-146 -61q-16 -4 -16 12v45q0 12 10 18z" glyph-name="one.superior" horiz-adv-x="479"/><glyph d="M78 1284.5q0 151.5 66.5 247.5t199.5 96t199.5 -96t66.5 -247.5t-66.5 -248t-199.5 -96.5t-199.5 96.5t-66.5 248zM160 1284q0 -119 45 -192.5t139 -73.5q92 0 137 73.5t45 192.5q0 121 -44 193.5t-138 72.5t-139 -72.5t-45 -193.5z" glyph-name="zero.superior" horiz-adv-x="686"/><glyph d="M336 1602h61q18 0 19 -19v-369h100q16 0 16 -20v-35q0 -20 -16 -20h-100v-154q0 -18 -19 -18h-43q-18 0 -18 18v154h-279q-20 0 -20 20v29q0 16 16 39l256 360q11 15 27 15zM336 1499l-205 -285h205v285z" glyph-name="four.superior" horiz-adv-x="573"/><glyph d="M137 1602h314q12 0 12 -13v-45q0 -14 -12 -14h-263l-22 -187h106q104 0 168 -47t64 -147q0 -106 -65.5 -157.5t-174.5 -51.5q-125 0 -217 96q-4 8 2 15l35 36q6 12 14 0q27 -27 42.5 -38t49 -24t74.5 -13q162 0 162 135q0 63 -43 94t-113 31h-174q-12 0 -12 12l41 305 q2 13 12 13z" glyph-name="five.superior" horiz-adv-x="536"/><glyph d="M309 1386q88 0 151.5 -55t63.5 -153q0 -104 -60.5 -171t-166.5 -67q-254 0 -254 297q0 391 256 391q121 0 213 -82q6 -10 -2 -18l-33 -35q-10 -10 -18 0q-70 61 -162 61q-90 0 -132 -79.5t-42 -186.5q59 98 186 98zM295 1012q72 0 110.5 47t38.5 115q0 63 -41 103 t-108 40q-72 0 -121 -43t-49 -111q0 -49 39 -100t131 -51z" glyph-name="six.superior" horiz-adv-x="557"/><glyph d="M483 1591v-24q0 -10 -6 -21l-334 -567q-4 -12 -16 -12h-64q-14 0 -8 12l318 545h-314q-12 4 -12 12v53q0 12 12 13h414q10 -1 10 -11z" glyph-name="seven.superior" horiz-adv-x="509"/><glyph d="M295 940q-119 0 -178.5 52t-59.5 134q0 39 17.5 72t44 52.5t45 28.5t35.5 13q-125 45 -125 156q0 78 60.5 129t160.5 51t159.5 -51t59.5 -129q0 -111 -123 -156q16 -4 33.5 -13t44.5 -28.5t44 -52.5t17 -72q0 -82 -58 -134t-177 -52zM295 1260q-68 -4 -114 -39t-46 -93 q0 -117 160 -116.5t160 116.5q0 57 -46 92.5t-114 39.5zM294.5 1556q-67.5 0 -105 -30.5t-37.5 -81.5q0 -53 38.5 -84t104.5 -35q66 4 104.5 35t38.5 84q0 51 -38 81.5t-105.5 30.5z" glyph-name="eight.superior" horiz-adv-x="589"/><glyph d="M266 1182q-88 0 -151.5 55t-63.5 154q0 104 60.5 170.5t167.5 66.5q252 0 251 -299q0 -389 -256 -389q-119 0 -211 82q-8 8 0 16l33 37q12 8 21 0q70 -61 162 -61q90 0 132 78.5t42 185.5q-60 -96 -187 -96zM281 1556q-72 0 -111 -48t-39 -115q0 -61 41 -101.5t109 -40.5 q70 0 119 43t49 109q0 51 -38 102t-130 51z" glyph-name="nine.superior" horiz-adv-x="579"/><glyph d="M51 10.5q0 151.5 66.5 247.5t200 96t200 -96t66.5 -247.5t-66.5 -248t-200 -96.5t-200 96.5t-66.5 248zM135 10q0 -119 46 -192.5t136 -73.5q92 0 138.5 73.5t46.5 192.5t-46 192.5t-139 73.5q-90 0 -136 -73.5t-46 -192.5z" glyph-name="zero.sinf" horiz-adv-x="634"/><glyph d="M420 66l-213 -289h262q18 0 18 -19v-49q0 -16 -18 -16h-403q-8 0 -9 6v6q0 6 9 21l272 358q57 88 28.5 138t-98.5 50q-92 0 -151 -61q-14 -14 -29 -2l-33 35q-14 14 0 26q94 84 213 84q137 0 181.5 -97t-29.5 -191z" glyph-name="two.sinf" horiz-adv-x="534"/><glyph d="M270 -326q-125 0 -215 90q-12 10 0 25l31 31q12 16 29 0q68 -68 155 -68q156 0 156 121q0 45 -44 76t-114 31h-59q-18 0 -19 18v33q0 18 19 18h59q70 0 114 31t44 76q0 123 -156 123q-41 0 -72.5 -11.5t-46 -24t-36.5 -34.5q-16 -16 -29 0l-31 31q-12 14 0 24 q90 90 215 90q94 0 165 -48t71 -144q0 -55 -34 -93t-81 -55v-2q47 -12 81 -51t34 -98q0 -94 -71 -141.5t-165 -47.5z" glyph-name="three.sinf" horiz-adv-x="548"/><glyph d="M266 -92q-88 0 -151.5 55t-63.5 154q0 104 60.5 170.5t167.5 66.5q252 0 251 -299q0 -389 -256 -389q-119 0 -211 82q-8 8 0 16l33 37q12 8 21 0q70 -61 162 -61q90 0 132 79t42 185q-60 -96 -187 -96zM281 283q-72 0 -111 -48.5t-39 -115.5q0 -61 41 -101.5t109 -40.5 q70 0 119 43t49 109q0 51 -38 102.5t-130 51.5z" glyph-name="nine.sinf" horiz-adv-x="581"/><glyph d="M336 328h61q18 0 19 -19v-368h100q16 0 16 -21v-35q0 -20 -16 -20h-100v-154q0 -18 -19 -18h-43q-18 0 -18 18v154h-279q-20 0 -20 20v29q0 16 16 39l256 360q11 15 27 15zM336 225l-205 -284h205v284z" glyph-name="four.sinf" horiz-adv-x="573"/><glyph d="M287 -334q-117 0 -176.5 52.5t-59.5 134.5q0 51 32 91t58.5 54t51.5 20q-23 8 -45.5 19.5t-51 49.5t-28.5 87q0 78 59 129t160 51q102 0 161.5 -51t59.5 -129q0 -111 -123 -156q25 -8 49.5 -20t57 -53t32.5 -92q0 -82 -59 -134.5t-178 -52.5zM287 -14q-68 -4 -113 -39 t-45 -92q0 -117 158 -117q160 0 159 117q0 57 -45.5 92t-113.5 39zM287 283q-66 0 -104 -31t-38 -82q0 -53 38 -84t104 -35q66 4 104.5 35t38.5 84q0 51 -37.5 82t-105.5 31z" glyph-name="eight.sinf" horiz-adv-x="575"/><glyph d="M483 317v-24q0 -10 -6 -21l-334 -567q-6 -12 -18 -12h-62q-14 0 -8 12l318 545h-314q-12 4 -12 12v53q0 12 12 13h414q10 -1 10 -11z" glyph-name="seven.sinf" horiz-adv-x="507"/><glyph d="M315 113q88 0 151.5 -55.5t63.5 -153.5q0 -104 -59 -171t-166 -67q-254 0 -254 297q0 391 256 391q119 0 211 -82q6 -8 0 -18l-33 -35q-12 -8 -20 0q-68 61 -162 62q-90 0 -131 -80t-41 -187q55 99 184 99zM301 -262q72 0 112 47t40 115q0 63 -42 103t-110 40 q-70 0 -119 -43t-49 -111q0 -49 39 -100t129 -51z" glyph-name="six.sinf" horiz-adv-x="579"/><glyph d="M137 328h314q12 0 12 -13v-45q0 -14 -12 -14h-263l-22 -186h106q104 0 168 -47.5t64 -147.5q0 -106 -65.5 -157.5t-174.5 -51.5q-125 0 -217 96q-4 8 2 15l35 37q6 12 14 0q27 -27 42.5 -38.5t49 -24.5t74.5 -13q162 0 162 137q0 61 -43 92t-113 31h-174q-12 0 -12 12 l41 305q2 13 12 13z" glyph-name="five.sinf" horiz-adv-x="536"/><glyph d="M41 236l143 79q20 12 37 13h39q18 0 19 -19v-598q0 -18 -19 -18h-49q-18 0 -18 18v510l-146 -61q-16 -4 -16 12v45q0 13 10 19z" glyph-name="one.sinf" horiz-adv-x="368"/><glyph d="M51 317.5q0 151.5 66.5 248t200 96.5t200 -96.5t66.5 -248t-66.5 -248t-200 -96.5t-200 96.5t-66.5 248zM137 317.5q0 -116.5 45 -189.5t135.5 -73t135.5 72t45 190.5t-45 190.5t-135.5 72t-135.5 -73t-45 -189.5z" glyph-name="zero.dnom" horiz-adv-x="634"/><glyph d="M293 948q-125 0 -215 90q-14 10 0 25l28 31q14 14 29 0q68 -68 158 -68q156 0 156 121q0 45 -44.5 75.5t-113.5 30.5h-60q-18 0 -18 19v33q0 18 18 18h60q70 0 114 30.5t44 76.5q0 55 -38 88.5t-118 33.5q-88 0 -158 -69q-14 -14 -29 0l-28 30q-14 14 0 25q90 90 215 90 q94 0 164.5 -48t70.5 -144q0 -55 -33.5 -93t-82.5 -55v-2q47 -12 81.5 -51t34.5 -98q0 -94 -71.5 -141.5t-163.5 -47.5z" glyph-name="three.superior" horiz-adv-x="604"/></font>
</defs>
</svg>
