<?xml version="1.0" standalone="no"?>
<!DOCTYPE svg PUBLIC "-//W3C//DTD SVG 1.1//EN" "http://www.w3.org/Graphics/SVG/1.1/DTD/svg11.dtd">
<svg xmlns="http://www.w3.org/2000/svg"><metadata>This SVG WebFont was generated by YouWorkForThem.
Copyright (c) 2016 by Ufuk Aracâºoâ¬lu. All rights reserved.</metadata><defs><font horiz-adv-x="1226" id="ywftsvg"><font-face ascent="1638" bbox="-100 -865.846 2515 2490.75" cap-height="1434" descent="-410" font-family="" font-stretch="normal" font-weight="900" panose-1="2 0 5 5 0 0 0 2 0 4" underline-position="0" underline-thickness="0" unicode-range="U+000D-FB03" units-per-em="2048" x-height="1042"/><missing-glyph horiz-adv-x="518"/><glyph d="M498 1036h387v66q0 217 109.5 337t310.5 120q119 0 202 -54q25 -14 30 -27.5t-1 -41.5l-25 -144q-6 -41 -18 -46t-51 14q-43 20 -103 20q-143 0 -143 -188v-56h260q33 0 44 -11t11 -44v-135q0 -33 -11 -44t-44 -11h-260v-736q0 -33 -11 -44t-44 -11h-201q-33 0 -44 11.5 t-11 43.5v736h-387v-736q0 -33 -11.5 -44t-44.5 -11h-200q-33 0 -44.5 11.5t-11.5 43.5v736h-100q-33 0 -44 11t-11 44v135q0 33 11 44t44 11h100v66q0 217 110 337t310 120q119 0 203 -54q25 -14 30 -27.5t-1 -41.5l-25 -144q-6 -41 -18.5 -46t-51.5 14q-43 20 -102 20 q-143 0 -143 -188v-56z" glyph-name="uniFB00" horiz-adv-x="1560" unicode="ff"/><glyph d="M948 793h-450v-738q0 -33 -11.5 -44t-44.5 -11h-200q-33 0 -44.5 11.5t-11.5 43.5v738h-100q-33 0 -44 11t-11 44v139q0 33 11 44t44 11h100v60q0 217 110 337t310 120q119 0 203 -54q25 -14 30 -27.5t-1 -41.5l-25 -144q-6 -41 -18.5 -46t-51.5 14q-43 20 -102 20 q-143 0 -143 -188v-50h708q33 0 44.5 -11t11.5 -44v-932q0 -33 -11.5 -44t-44.5 -11h-202q-33 0 -44.5 11.5t-11.5 43.5v738zM924 1354q0 76 51 129t127 53t129 -53t53 -129t-53 -127t-129 -51t-127 51t-51 127z" glyph-name="uniFB01" horiz-adv-x="1437" unicode="fi"/><glyph d="M1647 793h-451v-738q0 -33 -11 -44t-44 -11h-201q-33 0 -44 11.5t-11 43.5v738h-387v-738q0 -33 -11.5 -44t-44.5 -11h-200q-33 0 -44.5 11.5t-11.5 43.5v738h-100q-33 0 -44 11t-11 44v139q0 33 11 44t44 11h100v60q0 217 110 337t310 120q119 0 203 -54 q25 -14 30 -27.5t-1 -41.5l-25 -144q-6 -41 -18.5 -46t-51.5 14q-43 20 -102 20q-143 0 -143 -188v-50h387v60q0 217 109.5 337t310.5 120q119 0 202 -54q25 -14 30 -27.5t-1 -41.5l-25 -144q-6 -41 -18 -46t-51 14q-43 20 -103 20q-143 0 -143 -188v-50h709q33 0 44 -11 t11 -44v-932q0 -33 -11.5 -44t-43.5 -11h-203q-33 0 -44 11.5t-11 43.5v738zM1622 1354q0 76 51 129t127 53t129 -53t53 -129t-53 -127t-129 -51t-127 51t-51 127z" glyph-name="uniFB03" horiz-adv-x="2136" unicode="ffi"/><glyph d="M498 1038l757 4q33 0 44.5 -11t11.5 -44v-1014q0 -217 -109.5 -336.5t-310.5 -119.5q-119 0 -203 53q-25 14 -30 27.5t1 42.5l25 143q6 41 18.5 46t51.5 -13q43 -20 102 -21q143 0 143 189v809h-501v-738q0 -33 -11.5 -44t-44.5 -11h-200q-33 0 -44.5 11.5t-11.5 43.5 v738h-100q-33 0 -44 11t-11 44v135q0 33 11 44t44 11h100v64q0 217 110 337t310 120q119 0 203 -54q25 -14 30 -27.5t-1 -41.5l-25 -144q-6 -41 -18.5 -46t-51.5 14q-43 20 -102 20q-143 0 -143 -188v-54zM975 1354q0 76 51 129t127 53t129 -53t53 -129t-53 -127t-129 -51 t-127 51t-51 127z" glyph-name="f_j.liga" horiz-adv-x="1488" unicode="fj"/><glyph d="M1196 1038l758 4q33 0 44 -11t11 -44v-1014q0 -217 -109.5 -336.5t-310.5 -119.5q-119 0 -203 53q-25 14 -29.5 27.5t1.5 42.5l24 143q6 41 18.5 46t51.5 -13q43 -20 102 -21q143 0 144 189v809h-502v-738q0 -33 -11 -44t-44 -11h-201q-33 0 -44 11.5t-11 43.5v738h-387 v-738q0 -33 -11.5 -44t-44.5 -11h-200q-33 0 -44.5 11.5t-11.5 43.5v738h-100q-33 0 -44 11t-11 44v135q0 33 11 44t44 11h100v64q0 217 110 337t310 120q119 0 203 -54q25 -14 30 -27.5t-1 -41.5l-25 -144q-6 -41 -18.5 -46t-51.5 14q-43 20 -102 20q-143 0 -143 -188v-54 h387v64q0 217 109.5 337t310.5 120q119 0 202 -54q25 -14 30 -27.5t-1 -41.5l-25 -144q-6 -41 -18 -46t-51 14q-43 20 -103 20q-143 0 -143 -188v-54zM1673 1354q0 76 51.5 129t127 53t129 -53t53.5 -129t-53.5 -127t-129 -51t-127 51t-51.5 127z" glyph-name="f_f_j.liga" horiz-adv-x="2187" unicode="ffj"/><glyph glyph-name=".notdef" horiz-adv-x="518"/><glyph glyph-name="glyph1" horiz-adv-x="0"/><glyph glyph-name="glyph2" horiz-adv-x="681"/><glyph glyph-name="glyph3" horiz-adv-x="0"/><glyph glyph-name="glyph3" horiz-adv-x="0"/><glyph glyph-name="space" horiz-adv-x="518" unicode=" "/><glyph d="M199 565l-45 813q0 33 11 44.5t44 11.5h278q33 0 44.5 -11.5t11.5 -44.5l-45 -813q0 -33 -11.5 -44t-44.5 -11h-188q-33 0 -44 11t-11 44zM154 170q0 82 55 139.5t137 57.5t139.5 -57.5t57.5 -139.5t-57.5 -137.5t-139.5 -55.5t-137 55.5t-55 137.5z" glyph-name="exclam" horiz-adv-x="696" unicode="!"/><glyph d="M102 963v415q0 33 11.5 44.5t44.5 11.5h182q72 0 51 -70l-110 -424q-10 -33 -50 -33h-73q-33 0 -44.5 11.5t-11.5 44.5zM471 963v415q0 33 11.5 44.5t43.5 11.5h183q72 0 51 -70l-111 -424q-10 -33 -49 -33h-74q-33 0 -44 11.5t-11 44.5z" glyph-name="quotedbl" horiz-adv-x="837" unicode="&quot;"/><glyph d="M258 1100h326l73 289q14 45 70 45h104q74 0 54 -56l-72 -278h315l74 289q14 45 70 45h104q74 0 54 -56l-72 -278h268q33 0 44 -11.5t11 -44.5v-114q0 -33 -11 -44.5t-44 -11.5h-326l-81 -315h282q33 0 44 -11t11 -44v-115q0 -33 -11 -44t-44 -11h-340l-74 -289 q-10 -29 -23 -37t-46 -8h-111q-66 0 -47 55l72 279h-316l-73 -289q-10 -29 -23.5 -37t-46.5 -8h-111q-66 0 -47 55l72 279h-254q-33 0 -44 11t-11 44v115q0 33 11 44t44 11h311l80 315h-266q-33 0 -44 11.5t-11 44.5v114q0 33 11 44.5t44 11.5zM756 874l-82 -315h315l80 315 h-313z" glyph-name="numbersign" horiz-adv-x="1742" unicode="#"/><glyph d="M524 -137v121q-236 20 -430 147q-27 16 -27.5 33.5t15.5 44.5l84 139q16 29 30.5 35t43.5 -8q129 -84 284 -105v308q-457 59 -456 409q0 72 25.5 144.5t76.5 141t143.5 118t210.5 61.5v113q0 33 11.5 44t44.5 11h61q33 0 44 -11.5t11 -43.5v-113q197 -16 414 -149 q27 -16 28 -34t-16 -44l-84 -140q-16 -31 -30.5 -37t-42.5 11q-141 92 -269 104v-313q78 -10 139.5 -24.5t128 -46t109.5 -77t72 -118t29 -164.5q0 -172 -127 -298t-351 -142v-117q0 -33 -11 -44.5t-44 -11.5h-61q-33 0 -44.5 11.5t-11.5 44.5zM850 403q0 61 -39 95t-115 53 v-281q154 20 154 133zM391 999q0 -51 32 -79.5t101 -45.5v283q-133 -27 -133 -158z" glyph-name="dollar" horiz-adv-x="1259" unicode="$"/><glyph d="M420 727q-160 0 -257 95.5t-97 271.5t97 271t257 95t257 -95t97 -271t-97 -271.5t-257 -95.5zM419.5 907q57.5 0 94.5 51.5t37 135.5t-37 135t-94.5 51t-94 -51t-36.5 -135t36.5 -135.5t94 -51.5zM1487 1378l-952 -1339q-29 -39 -70 -39h-148q-78 0 -36 55l952 1340 q29 39 70 39h147q78 -1 37 -56zM1347.5 -4q-159.5 0 -257 95t-97.5 271.5t97.5 271.5t257 95t257 -95t97.5 -271.5t-97.5 -271.5t-257 -95zM1347.5 176q57.5 0 94.5 51.5t37 135t-37 135t-94.5 51.5t-94 -51.5t-36.5 -135t36.5 -135t94 -51.5z" glyph-name="percent" horiz-adv-x="1767" unicode="%"/><glyph d="M823 377l-207 213q-205 -78 -204 -187q0 -152 192 -151q127 0 219 125zM657 897l17 -14q57 29 98 78t41 102q0 61 -36 97t-97 36q-59 0 -92 -35t-33 -98q0 -70 102 -166zM1493 598q-25 -16 -71 -47t-73.5 -49.5t-66.5 -51t-76 -71.5l336 -324q25 -25 18.5 -40t-38.5 -15 h-305q-8 0 -16.5 1t-15.5 4t-12.5 5t-12.5 9.5t-10 10.5t-12.5 12t-13.5 13l-125 131q-197 -213 -434 -213q-236 0 -367.5 119t-131.5 303q0 154 93 240t255 143v2q-176 158 -178 336q-2 131 111.5 237.5t332.5 106.5q221 0 337 -106.5t116 -237.5q0 -250 -269 -401 l154 -148q74 88 297 242q25 18 39 16t37 -24l110 -129q41 -43 -8 -74z" glyph-name="ampersand" horiz-adv-x="1601" unicode="&amp;"/><glyph d="M78 963v415q0 33 11 44.5t44 11.5h182q72 0 52 -70l-111 -424q-10 -33 -49 -33h-74q-33 0 -44 11.5t-11 44.5z" glyph-name="quotesingle" horiz-adv-x="452" unicode="'"/><glyph d="M66 590q0 293 141 510t391 350q51 29 82 -25l88 -153q37 -61 -41 -98q-344 -168 -344 -584t344 -584q78 -37 41 -98l-88 -154q-31 -53 -82 -24q-250 133 -391 350t-141 510z" glyph-name="parenleft" horiz-adv-x="845" unicode="("/><glyph d="M780 590q0 -293 -141 -510t-391 -350q-51 -29 -82 24l-88 154q-37 61 41 98q344 168 344 584t-344 584q-78 37 -41 98l88 153q31 53 82 25q250 -133 391 -350t141 -510z" glyph-name="parenright" horiz-adv-x="845" unicode=")"/><glyph d="M102 985l164 62l-164 65q-31 12 -35 28.5t13 45.5l45 86q29 53 74 24l168 -116l-23 202q-2 31 10.5 43.5t44.5 12.5h99q33 0 45 -12.5t10 -43.5l-25 -200l168 114q45 29 74 -24l45 -86q16 -29 12 -45.5t-34 -28.5l-166 -65l166 -62q51 -23 22 -76l-45 -86 q-29 -53 -74 -24l-168 112l25 -198q2 -31 -10.5 -43.5t-44.5 -12.5h-99q-33 0 -45 12.5t-10 43.5l23 200l-168 -114q-45 -29 -74 24l-45 86q-29 53 22 76z" glyph-name="asterisk" horiz-adv-x="894" unicode="*"/><glyph d="M653 995v-243h244q33 0 44 -11.5t11 -44.5v-141q0 -33 -11 -44t-44 -11h-244v-244q0 -33 -11 -44t-44 -11h-141q-33 0 -44.5 11t-11.5 44v244h-243q-33 0 -44.5 11t-11.5 44v141q0 33 11.5 44.5t44.5 11.5h243v243q0 33 11.5 44.5t44.5 11.5h141q33 0 44 -11.5t11 -44.5z " glyph-name="plus" horiz-adv-x="1054" unicode="+"/><glyph d="M295 -23h-4q-80 2 -134.5 57.5t-54.5 135.5q0 82 55.5 139.5t137.5 57.5q94 0 151.5 -71t57.5 -192q0 -145 -97.5 -271t-228.5 -185q-23 -10 -33 6l-55 86q-10 18 10 33q160 100 195 204z" glyph-name="comma" horiz-adv-x="606" unicode=","/><glyph d="M723 459h-565q-33 0 -44.5 11t-11.5 44v131q0 33 11.5 44t44.5 11h565q33 0 44 -11t11 -44v-131q0 -33 -11 -44t-44 -11z" glyph-name="hyphen" horiz-adv-x="880" unicode="-"/><glyph d="M102 170q0 82 55.5 139.5t137.5 57.5t139.5 -57.5t57.5 -139.5t-57.5 -137.5t-139.5 -55.5t-137.5 55.5t-55.5 137.5z" glyph-name="period" horiz-adv-x="593" unicode="."/><glyph d="M856 1378l-461 -1333q-10 -29 -23.5 -37t-45.5 -8h-181q-66 0 -47 55l461 1334q14 45 70 45h174q73 -1 53 -56z" glyph-name="slash" horiz-adv-x="944" unicode="/"/><glyph d="M430 716.5q0 -454.5 254 -454.5t254 454.5t-254 454.5t-254 -454.5zM92 716.5q0 323.5 151.5 533.5t440.5 210t440.5 -210t151.5 -533.5t-151.5 -533.5t-440.5 -210t-440.5 210t-151.5 533.5z" glyph-name="zero" horiz-adv-x="1368" unicode="0"/><glyph d="M100 1231l238 147q84 55 119 56h135q33 0 44 -11.5t11 -44.5v-1323q0 -33 -11 -44t-44 -11h-223q-33 0 -44.5 11.5t-11.5 43.5v961h-186q-33 0 -44 11t-11 44v100q-1 40 28 60z" glyph-name="one" horiz-adv-x="800" unicode="1"/><glyph d="M965 784l-371 -501h422q33 0 44 -11.5t11 -44.5v-172q0 -33 -11 -44t-44 -11h-948q-18 0 -19 18v29q0 12 19 39l618 813q76 109 30 190.5t-151 81.5q-166 0 -301 -135q-27 -23 -41 -20.5t-37 26.5l-118 129q-23 27 -25 40.5t18 37.5q215 211 504 211q158 0 275.5 -65.5 t171 -165t44.5 -220.5t-91 -225z" glyph-name="two" horiz-adv-x="1142" unicode="2"/><glyph d="M592 590h-199q-33 0 -44 11t-11 44v156q0 33 11 44t44 11h170q100 0 150.5 42t50.5 106q0 168 -201 167q-88 0 -137 -28.5t-117 -102.5q-37 -39 -78 7l-112 124q-23 27 -25 40.5t19 37.5q109 106 210 158.5t240 52.5q92 0 182.5 -25.5t170 -73.5t129 -133t49.5 -194 q0 -197 -174 -309v-2q96 -49 152 -120t56 -191q0 -215 -158.5 -327t-406.5 -112q-262 0 -477 211q-20 25 -18 38.5t24 39.5l113 123q41 43 78 6q72 -68 132 -98.5t148 -30.5q131 0 183.5 47t52.5 133q0 61 -53.5 104.5t-153.5 43.5z" glyph-name="three" horiz-adv-x="1200" unicode="3"/><glyph d="M743 1434h265q33 0 44 -11.5t11 -44.5v-805h143q33 0 44.5 -11t11.5 -44v-143q0 -33 -11.5 -44.5t-44.5 -11.5h-143v-264q0 -33 -11.5 -44t-43.5 -11h-203q-33 0 -44 11.5t-11 43.5v264h-617q-33 0 -44 11.5t-11 44.5v153q0 47 31 88l602 801q12 17 32 17zM750 1020 l-340 -447h340v447z" glyph-name="four" horiz-adv-x="1323" unicode="4"/><glyph d="M258 1434h707q33 0 44 -11.5t11 -44.5v-172q0 -33 -11.5 -44t-43.5 -11h-504l-31 -231h154q115 0 205 -20.5t167.5 -69t120.5 -142.5t43 -229q0 -238 -158.5 -362t-406.5 -124q-262 0 -477 211q-20 25 -18.5 38.5t24.5 39.5l113 123q41 43 77 6q72 -68 132.5 -98.5 t148.5 -30.5q129 0 182.5 48t53.5 136.5t-53.5 136.5t-182.5 48h-385q-33 0 -46 12t-9 43l88 692q4 35 14 45.5t41 10.5z" glyph-name="five" horiz-adv-x="1185" unicode="5"/><glyph d="M758 936q193 0 317.5 -117t124.5 -332t-147.5 -364.5t-378.5 -149.5q-168 0 -286 55.5t-180.5 158t-89 226.5t-26.5 283q0 127 20.5 237.5t65.5 209t114.5 168t174 109.5t235.5 40q258 0 459 -196q20 -25 18.5 -38.5t-24.5 -39.5l-119 -129q-23 -25 -37 -27t-41 21 q-121 121 -282 120q-113 0 -183.5 -100t-70.5 -266q96 131 336 131zM655 252q96 0 155.5 59.5t59.5 153.5q0 88 -62.5 149.5t-152.5 61.5q-98 0 -156.5 -59.5t-58.5 -151.5q0 -94 58.5 -153.5t156.5 -59.5z" glyph-name="six" horiz-adv-x="1282" unicode="6"/><glyph d="M1167 1395v-11q0 -20 -20 -57l-682 -1272q-33 -55 -90 -55h-230q-78 0 -55 55l572 1073h-545q-33 4 -44.5 14.5t-11.5 41.5v194q0 33 11.5 44.5t44.5 11.5h1007q43 0 43 -39z" glyph-name="seven" horiz-adv-x="1167" unicode="7"/><glyph d="M618 -27q-258 0 -402 119t-144 303q0 125 71.5 217.5t139.5 116.5v12q-53 33 -115 113t-62 184q0 190 125 306t390 116q260 0 384.5 -115.5t124.5 -306.5q0 -104 -61 -185t-115 -112v-12q68 -25 139.5 -117t71.5 -217q0 -184 -143.5 -303t-403.5 -119zM618 612 q-223 -59 -223 -196q0 -74 60.5 -119t162.5 -45q100 0 162 45t62 119q-1 137 -224 196zM618.5 1182q-92.5 0 -140.5 -45t-48 -119q0 -117 188 -162q188 45 189 162q0 74 -48 119t-140.5 45z" glyph-name="eight" horiz-adv-x="1236" unicode="8"/><glyph d="M528 498q-193 0 -317.5 116.5t-124.5 331.5t147.5 364.5t378.5 149.5q168 0 286 -55t180.5 -157.5t89 -226.5t26.5 -284q0 -127 -20.5 -237.5t-65.5 -208.5t-114.5 -168t-174 -110t-235.5 -40q-258 0 -459 197q-20 25 -18 38t24 40l119 129q23 25 37 27t41 -21 q121 -121 282 -121q113 0 183.5 100.5t70.5 266.5q-96 -131 -336 -131zM631 1182q-96 0 -155.5 -59.5t-59.5 -153.5q0 -88 62.5 -149.5t152.5 -61.5q98 0 156.5 59.5t58.5 151.5q0 94 -58.5 153.5t-156.5 59.5z" glyph-name="nine" horiz-adv-x="1275" unicode="9"/><glyph d="M102 170q0 82 55.5 139.5t137.5 57.5t139.5 -57.5t57.5 -139.5t-57.5 -137.5t-139.5 -55.5t-137.5 55.5t-55.5 137.5zM102 868q0 82 55.5 139.5t137.5 57.5t139.5 -57.5t57.5 -139.5t-57.5 -137t-139.5 -55t-137.5 55t-55.5 137z" glyph-name="colon" horiz-adv-x="593" unicode=":"/><glyph d="M102 868q0 82 55.5 139.5t137.5 57.5t139.5 -57.5t57.5 -139.5t-57.5 -137t-139.5 -55t-137.5 55t-55.5 137zM295 -23h-4q-80 2 -134.5 57.5t-54.5 135.5q0 82 55.5 139.5t137.5 57.5q94 0 151.5 -71t57.5 -192q0 -145 -97.5 -271t-228.5 -185q-23 -10 -33 6l-55 86 q-10 18 10 33q160 100 195 204z" glyph-name="semicolon" horiz-adv-x="606" unicode=";"/><glyph d="M20 719v4q2 43 56 68l940 481q31 14 43 9t12 -32v-186q0 -51 -55 -76l-553 -268l553 -268q55 -25 55 -76v-187q0 -27 -12 -31.5t-43 9.5l-940 485q-54 25 -56 68z" glyph-name="less" horiz-adv-x="1173" unicode="&lt;"/><glyph d="M829 700h-671q-33 0 -44.5 11.5t-11.5 44.5v131q0 33 11.5 44t44.5 11h671q33 0 44.5 -11t11.5 -44v-131q0 -33 -11.5 -44.5t-44.5 -11.5zM829 299h-671q-33 0 -44.5 11.5t-11.5 43.5v131q0 33 11.5 44.5t44.5 11.5h671q33 0 44.5 -11.5t11.5 -44.5v-131q0 -33 -11.5 -44 t-44.5 -11z" glyph-name="equal" horiz-adv-x="987" unicode="="/><glyph d="M1153 723v-4q-2 -43 -55 -68l-940 -485q-31 -14 -43.5 -9t-12.5 31v187q0 51 56 76l553 268l-553 268q-55 25 -56 76v186q0 27 12.5 32t43.5 -9l940 -481q53 -25 55 -68z" glyph-name="greater" horiz-adv-x="1173" unicode=">"/><glyph d="M393 809q201 33 284 74t83 121q0 164 -238 163q-156 0 -327 -120q-29 -16 -43.5 -10.5t-30.5 36.5l-84 139q-16 27 -15 44.5t27 33.5q137 86 241.5 126t252.5 40q272 0 406 -131t134 -303q0 -178 -105.5 -259t-328.5 -130v-68q0 -33 -11 -44t-44 -11h-178q-33 0 -44.5 11 t-11.5 44v207q0 31 33 37zM307 170q0 82 55.5 139.5t137.5 57.5t139 -57.5t57 -139.5t-57 -137.5t-139 -55.5t-137.5 55.5t-55.5 137.5z" glyph-name="question" horiz-adv-x="1103" unicode="?"/><glyph d="M1913 545q0 358 -215 527t-570 171q-365 0 -566.5 -193.5t-201.5 -529.5q0 -332 194 -526.5t519 -194.5q115 0 215 45q25 10 38 13.5t22.5 -4t13.5 -27.5l31 -137q10 -35 4 -52.5t-37 -35.5q-139 -57 -287 -58q-442 0 -714.5 279.5t-272.5 697.5q0 422 281.5 700.5 t760.5 278.5q303 0 539 -105.5t378 -324.5t142 -524q0 -143 -21.5 -263t-66.5 -221.5t-128 -158t-197 -56.5q-213 0 -330 209l-41 74q-147 -152 -363 -152q-199 0 -329.5 161t-130.5 382q0 227 130 386t330 159q102 0 185.5 -47t130.5 -98l45 79q25 43 55 43h139 q33 0 44.5 -11t11.5 -44v-690q0 -207 102 -207q90 0 125 114t35 341zM1114 250q96 0 165 76.5t69 193.5q0 115 -69 190.5t-165 75.5t-164.5 -75.5t-68.5 -190.5q0 -117 67.5 -193.5t165.5 -76.5z" glyph-name="at" horiz-adv-x="2273" unicode="@"/><glyph d="M774 901h-4l-174 -352h352zM819 1405l717 -1350q10 -20 -1 -37.5t-34 -17.5h-262q-27 0 -40 11.5t-32 43.5l-108 211h-576l-108 -211q-18 -33 -31.5 -44t-40.5 -11h-262q-23 0 -34 17.5t-1 37.5l717 1350q4 8 10 19.5t9 15.5l7.5 10t8.5 8t10 2h6q6 0 10 -2t8.5 -8 l7.5 -10t9 -15.5t10 -19.5z" glyph-name="A" horiz-adv-x="1542" unicode="A"/><glyph d="M780 0h-571q-33 0 -44 11.5t-11 43.5v1323q0 33 11 44.5t44 11.5h520q94 0 181 -20.5t166 -64.5t127 -125t48 -190q0 -184 -174 -297v-2q225 -106 226 -336q0 -209 -148 -304t-375 -95zM487 276h281q106 0 154.5 37t48.5 117q0 70 -52.5 115t-150.5 45h-281v-314z M487 856h232q100 0 150.5 42t50.5 106q0 80 -47.5 116.5t-153.5 36.5h-232v-301z" glyph-name="B" horiz-adv-x="1374" unicode="B"/><glyph d="M823 262q190 0 326 146q25 23 40 20.5t38 -27.5l127 -139q23 -27 24.5 -40t-18.5 -38q-98 -96 -242.5 -153.5t-294.5 -57.5q-303 0 -520 219.5t-217 524.5t217 524t520 219q150 0 294.5 -57t242.5 -154q20 -25 18 -38t-24 -40l-127 -139q-23 -25 -38 -26.5t-40 20.5 q-135 145 -326 145q-182 0 -290.5 -136t-108.5 -318q0 -180 109.5 -317.5t289.5 -137.5z" glyph-name="C" horiz-adv-x="1445" unicode="C"/><glyph d="M209 1434h524q305 0 520 -207t215 -510t-215 -510t-520 -207h-524q-33 0 -44 11.5t-11 43.5v1323q0 33 11 44.5t44 11.5zM731 1157h-244v-881h244q186 0 292.5 130.5t106.5 310.5q0 182 -106.5 311t-292.5 129z" glyph-name="D" horiz-adv-x="1554" unicode="D"/><glyph d="M1139 0h-930q-33 0 -44 11.5t-11 43.5v1323q0 33 11 44.5t44 11.5h930q33 0 44 -11.5t11 -44.5v-172q0 -33 -11.5 -44t-43.5 -11h-652v-289h625q33 0 44 -11t11 -44v-172q0 -33 -11 -44t-44 -11h-625v-297h652q33 0 44 -11.5t11 -44.5v-172q0 -33 -11 -44t-44 -11z" glyph-name="E" horiz-adv-x="1310" unicode="E"/><glyph d="M487 580v-525q0 -33 -11 -44t-44 -11h-223q-33 0 -44 11.5t-11 43.5v1323q0 33 11 44.5t44 11.5h930q33 0 44 -11.5t11 -44.5v-172q0 -33 -11.5 -44t-43.5 -11h-652v-289h631q33 0 44.5 -11t11.5 -44v-172q0 -33 -11.5 -44t-44.5 -11h-631z" glyph-name="F" horiz-adv-x="1275" unicode="F"/><glyph d="M823 1171q-182 0 -290.5 -136t-108.5 -318q0 -180 109.5 -317.5t289.5 -137.5q145 0 250 72v178h-196q-33 0 -44.5 11.5t-11.5 43.5v172q0 33 11.5 44.5t44.5 11.5h475q33 0 44 -11.5t11 -44.5v-477q0 -41 -33 -74q-100 -98 -249.5 -156.5t-301.5 -58.5 q-303 0 -520 219.5t-217 524.5t217 524t520 219q150 0 294.5 -57t242.5 -154q20 -25 18 -38t-24 -40l-127 -139q-23 -25 -38 -26.5t-40 20.5q-136 145 -326 145z" glyph-name="G" horiz-adv-x="1519" unicode="G"/><glyph d="M1065 854v524q0 33 11 44.5t44 11.5h223q33 0 44.5 -11.5t11.5 -44.5v-1323q0 -33 -11.5 -44t-44.5 -11h-223q-33 0 -44 11.5t-11 43.5v510h-578v-510q0 -33 -11 -44t-44 -11h-223q-33 0 -44 11.5t-11 43.5v1323q0 33 11 44.5t44 11.5h223q33 0 44 -11.5t11 -44.5v-524 h578z" glyph-name="H" horiz-adv-x="1552" unicode="H"/><glyph d="M154 55v1323q0 33 11 44.5t44 11.5h223q33 0 44 -11.5t11 -44.5v-1323q0 -33 -11 -44t-44 -11h-223q-33 0 -44 11t-11 44z" glyph-name="I" horiz-adv-x="641" unicode="I"/><glyph d="M510 1182h-240q-33 0 -44 11t-11 44v141q0 33 11.5 44.5t43.5 11.5h518q33 0 44.5 -11.5t11.5 -44.5v-821q0 -313 -179.5 -446.5t-508.5 -137.5q-41 0 -52.5 10.5t-15.5 45.5l-20 180q-6 53 61 53q215 0 298 64.5t83 230.5v625z" glyph-name="J" horiz-adv-x="966" unicode="J"/><glyph d="M805 750l557 -695q47 -55 -25 -55h-276q-27 0 -40 10t-40 45l-494 625v-625q0 -33 -11 -44t-44 -11h-223q-33 0 -44 11.5t-11 43.5v1323q0 33 11 44.5t44 11.5h223q33 0 44 -11.5t11 -44.5v-571l478 571q29 35 42 45.5t37 10.5h279q70 0 25 -56z" glyph-name="K" horiz-adv-x="1402" unicode="K"/><glyph d="M487 283h566q33 0 44 -11.5t11 -44.5v-172q0 -33 -11.5 -44t-43.5 -11h-844q-33 0 -44 11.5t-11 43.5v1323q0 33 11 44.5t44 11.5h223q33 0 44 -11.5t11 -44.5v-1095z" glyph-name="L" horiz-adv-x="1169" unicode="L"/><glyph d="M1497 655l-434 -626q-35 -55 -55 -56h-27q-20 0 -55 56l-424 618l-74 -592q-4 -35 -14.5 -45t-40.5 -10h-223q-63 0 -56 55l176 1387q2 18 19 18h16q12 0 25 -18l665 -973l666 973q12 18 25 18h16q16 0 18 -18l174 -1387q6 -55 -55 -55h-223q-33 0 -42 10t-13 45z" glyph-name="M" horiz-adv-x="1988" unicode="M"/><glyph d="M487 786v-731q0 -33 -11 -44t-44 -11h-223q-33 0 -44 11.5t-11 43.5v1387q0 18 18 18h21q18 0 38 -18l869 -785v721q0 33 11 44.5t44 11.5h223q33 0 44.5 -11.5t11.5 -44.5v-1386q0 -18 -19 -19h-20q-18 0 -39 19z" glyph-name="N" horiz-adv-x="1587" unicode="N"/><glyph d="M86 717q0 305 217 524t520 219t520.5 -219t217.5 -524t-217.5 -524.5t-520.5 -219.5t-520 219.5t-217 524.5zM424 717q0 -180 109.5 -317.5t289.5 -137.5q186 0 293 136.5t107 318.5q0 184 -106.5 319t-293.5 135q-182 0 -290.5 -136t-108.5 -318z" glyph-name="O" horiz-adv-x="1646" unicode="O"/><glyph d="M487 850h222q109 0 159 37t50 116.5t-50.5 116.5t-158.5 37h-222v-307zM719 573h-232v-518q0 -33 -11 -44t-44 -11h-223q-33 0 -44 11.5t-11 43.5v1323q0 33 11 44.5t44 11.5h510q94 0 181 -21.5t167 -69t127 -134.5t47 -205.5t-47 -205.5t-127 -134.5t-167 -69 t-181 -21.5z" glyph-name="P" horiz-adv-x="1271" unicode="P"/><glyph d="M86 717q0 305 217 524t520 219t520.5 -219t217.5 -524q0 -168 -72 -317.5t-197 -254.5l174 -225q33 -45 -14 -78l-178 -127q-27 -16 -41 -13t-33 30l-180 268q-102 -27 -197 -27q-303 0 -520 219.5t-217 524.5zM424 717q0 -180 109.5 -317.5t289.5 -137.5 q186 0 293 136.5t107 318.5q0 184 -106.5 319t-293.5 135q-182 0 -290.5 -136t-108.5 -318z" glyph-name="Q" horiz-adv-x="1646" unicode="Q"/><glyph d="M1241 1004q0 -305 -301 -400l346 -532q18 -39 4 -55.5t-51 -16.5h-207q-57 0 -94 55l-336 518h-115v-518q0 -33 -11 -44t-44 -11h-223q-33 0 -44 11.5t-11 43.5v1323q0 33 11 44.5t44 11.5h510q94 0 181 -21.5t167 -69t127 -134t47 -205.5zM487 850h222q109 0 159 37 t50 116.5t-50.5 116.5t-158.5 37h-222v-307z" glyph-name="R" horiz-adv-x="1349" unicode="R"/><glyph d="M676 1167q-139 0 -188.5 -44t-49.5 -124q0 -74 63.5 -101.5t227.5 -45.5q100 -12 178 -33.5t154 -67.5t118 -130t42 -201q0 -184 -144.5 -313.5t-396.5 -129.5q-338 0 -559 154q-27 16 -28 33.5t16 44.5l84 139q16 29 30.5 35t42.5 -8q174 -109 393 -109q238 0 238 137 q0 88 -71.5 120t-239.5 52q-471 55 -471 412q0 78 29.5 157t90 150.5t170 116.5t250.5 45q147 0 259 -37t243 -116q27 -16 28 -34t-16 -44l-84 -140q-16 -31 -30.5 -37t-42.5 11q-94 63 -167 85.5t-169 22.5z" glyph-name="S" horiz-adv-x="1312" unicode="S"/><glyph d="M76 1434h1141q33 0 44 -11.5t11 -44.5v-186q0 -33 -11.5 -44t-43.5 -11h-404v-1082q0 -33 -11 -44t-44 -11h-223q-33 0 -44.5 11.5t-11.5 43.5v1082h-403q-33 0 -44.5 11t-11.5 44v186q0 33 11.5 44.5t44.5 11.5z" glyph-name="T" horiz-adv-x="1292" unicode="T"/><glyph d="M743.5 -27q-264.5 0 -442.5 162t-178 455v788q0 33 11 44.5t44 11.5h223q33 0 44.5 -11.5t11.5 -44.5v-778q0 -338 286.5 -338t286.5 338v778q0 33 11.5 44.5t43.5 11.5h224q33 0 44 -11.5t11 -44.5v-788q0 -293 -178 -455t-442.5 -162z" glyph-name="U" horiz-adv-x="1486" unicode="U"/><glyph d="M723 29l-717 1349q-10 20 1 38t34 18h262q27 0 40 -11.5t32 -44.5l397 -770v-2l395 772q18 33 31.5 44.5t40.5 11.5h262q27 0 36 -20.5t-1 -35.5l-717 -1349q-4 -8 -10 -19.5t-9 -15.5t-7.5 -10.5t-8.5 -8.5t-10 -2h-6q-6 0 -10 2t-8.5 8.5t-7.5 10.5t-9 15.5t-10 19.5z " glyph-name="V" horiz-adv-x="1542" unicode="V"/><glyph d="M381 1378l250 -708l297 735q27 51 39 55h41q12 0 19 -11t20 -44l296 -735l250 708q10 33 25.5 44.5t46.5 11.5h272q29 0 35 -11.5t-8 -44.5l-547 -1349q-25 -55 -39 -56h-24q-14 0 -39 56l-328 790l-328 -790q-25 -55 -38 -56h-25q-14 0 -39 56l-547 1349q-14 33 -8 44.5 t35 11.5h272q31 0 46.5 -11.5t25.5 -44.5z" glyph-name="W" horiz-adv-x="1974" unicode="W"/><glyph d="M696 444l-272 -389q-25 -35 -39 -45t-41 -10h-262q-66 0 -29 55l471 652l-477 671q-37 55 27 56h262q27 0 42 -11.5t38 -44.5l280 -409l281 409q25 35 39 45.5t41 10.5h262q66 0 27 -56l-476 -671l471 -652q37 -55 -26 -55h-262q-27 0 -41.5 10t-40.5 45z" glyph-name="X" horiz-adv-x="1386" unicode="X"/><glyph d="M526 520l-512 858q-16 33 -10 44.5t37 11.5h256q27 0 39 -10.5t33 -45.5l319 -573l326 573q20 35 32.5 45.5t38.5 10.5h250q31 0 37 -11.5t-10 -44.5l-512 -858v-465q0 -33 -11.5 -44t-43.5 -11h-213q-33 0 -44.5 11.5t-11.5 43.5v465z" glyph-name="Y" horiz-adv-x="1376" unicode="Y"/><glyph d="M1137 0h-1098q-18 0 -19 18v29q0 8 19 39l678 1065h-588q-33 0 -44 11.5t-11 43.5v172q0 33 11 44.5t44 11.5h1075q18 0 19 -19v-29q0 -8 -19 -38l-678 -1065h611q33 0 44 -11.5t11 -44.5v-172q0 -33 -11 -44t-44 -11z" glyph-name="Z" horiz-adv-x="1243" unicode="Z"/><glyph d="M680 -172v-152q0 -33 -11.5 -44t-43.5 -11h-416q-33 0 -44 11.5t-11 43.5v1727q0 33 11 44t44 11h416q33 0 44 -11t11 -44v-152q0 -33 -11.5 -44t-43.5 -11h-183v-1313h183q33 0 44 -11t11 -44z" glyph-name="bracketleft" horiz-adv-x="792" unicode="["/><glyph d="M526 45l-460 1333q-20 55 53 56h174q55 0 69 -45l461 -1334q18 -55 -47 -55h-180q-33 0 -46.5 8t-23.5 37z" glyph-name="backslash" horiz-adv-x="888" unicode="\"/><glyph d="M113 -324v152q0 33 11 44t44 11h182v1313h-182q-33 0 -44 11.5t-11 43.5v152q0 33 11 44t44 11h416q33 0 44 -11t11 -44v-1727q0 -33 -11.5 -44t-43.5 -11h-416q-33 0 -44 11t-11 44z" glyph-name="bracketright" horiz-adv-x="792" unicode="]"/><glyph d="M334 1542h135q39 -2 78 -55l178 -258q33 -55 -23 -55h-122q-51 0 -82 55l-97 160l-96 -160q-31 -55 -82 -55h-123q-55 0 -22 55l178 258q39 53 78 55z" glyph-name="asciicircum" horiz-adv-x="802" unicode="^"/><glyph d="M973 -281h-815q-33 0 -44.5 11.5t-11.5 44.5v145q0 33 11.5 44t44.5 11h815q33 0 44 -11t11 -44v-145q0 -33 -11 -44.5t-44 -11.5z" glyph-name="underscore" horiz-adv-x="1130" unicode="_"/><glyph d="M227 1206l-131 97q-27 23 -30 38t12 39l76 123q41 63 77 19l256 -283q59 -66 -2 -65h-172q-47 -1 -86 32z" glyph-name="grave" horiz-adv-x="573" unicode="`"/><glyph d="M287 772q-29 -4 -40 7.5t-20 43.5l-34 138q-8 31 -2 44t32 21q35 8 153 23.5t210 15.5q160 0 260 -33t148 -105.5t62.5 -152.5t14.5 -211v-508q0 -33 -11 -44t-44 -11h-117q-23 0 -35 11.5t-26 43.5l-21 51q-47 -39 -75.5 -59t-105.5 -45t-171 -25q-143 0 -249.5 89.5 t-106.5 255.5q0 158 110.5 243.5t265.5 85.5q152 0 273 -39q0 104 -36 145.5t-151 41.5q-132 0 -284 -27zM565 434q-78 0 -111.5 -33.5t-33.5 -78.5q0 -37 33.5 -74t111.5 -37q90 0 193 102v88q-132 33 -193 33z" glyph-name="a" horiz-adv-x="1189" unicode="a"/><glyph d="M457 1456v-530q29 47 114.5 93t190.5 46q201 0 336 -158.5t135 -386.5q0 -221 -136 -382t-335 -161q-217 0 -363 152l-41 -74q-18 -33 -30.5 -44t-34.5 -11h-94q-33 0 -44.5 11.5t-11.5 43.5v1401q0 33 11.5 44t44.5 11h202q33 0 44.5 -11t11.5 -44zM688 250q96 0 165 78 t69 192.5t-69 190t-165 75.5t-164.5 -75.5t-68.5 -190t68.5 -192.5t164.5 -78z" glyph-name="b" horiz-adv-x="1310" unicode="b"/><glyph d="M621 256q121 0 188 63q25 20 39 17.5t39 -29.5l102 -112q20 -25 23.5 -35t-13.5 -29q-156 -154 -379 -154t-382.5 159t-159.5 384t159.5 385t383 160t378.5 -154q16 -18 13.5 -28.5t-23.5 -34.5l-102 -113q-25 -27 -39 -30t-39 18q-68 63 -188 63q-96 0 -165 -75.5 t-69 -190t69 -189.5t165 -75z" glyph-name="c" horiz-adv-x="1075" unicode="c"/><glyph d="M854 926v530q0 33 11.5 44t43.5 11h203q33 0 44 -11t11 -44v-1401q0 -33 -11 -44t-44 -11h-94q-23 0 -35 11.5t-31 43.5l-41 74q-145 -152 -362 -152q-199 0 -335 161t-136 382q0 227 135 386t336 159q104 0 190 -46t115 -93zM622.5 250q96.5 0 165 78t68.5 192.5 t-68.5 190t-165 75.5t-165 -75.5t-68.5 -190t68.5 -192.5t165 -78z" glyph-name="d" horiz-adv-x="1310" unicode="d"/><glyph d="M956 293l80 -100q20 -25 22.5 -38.5t-11.5 -31.5q-68 -68 -182.5 -107t-233.5 -39q-231 0 -392 159t-161 384t159.5 385t383.5 160q248 0 380 -169t132 -415q0 -35 -10.5 -47t-41.5 -12h-680q27 -80 91.5 -129t144.5 -49q121 0 240 53q6 2 14 6t11 6t9.5 4t9.5 2t8 -1 t9 -4t8 -7zM410 621h403q-45 190 -199 190q-163 0 -204 -190z" glyph-name="e" horiz-adv-x="1198" unicode="e"/><glyph d="M186 1038v64q0 217 110 337t310 120q119 0 203 -54q25 -14 30 -27.5t-1 -41.5l-25 -144q-6 -41 -18.5 -46t-51.5 14q-43 20 -102 20q-143 0 -143 -188v-54h260q33 0 44 -11t11 -44v-135q0 -33 -11 -44t-44 -11h-260v-738q0 -33 -11.5 -44t-44.5 -11h-200 q-33 0 -44.5 11.5t-11.5 43.5v738h-100q-33 0 -44 11t-11 44v135q0 33 11 44t44 11h100z" glyph-name="f" horiz-adv-x="862" unicode="f"/><glyph d="M854 57v60q-29 -47 -115 -93.5t-190 -46.5q-201 0 -336 159t-135 386q0 221 136 382t335 161q217 0 362 -152l41 74q18 33 30.5 44t35.5 11h94q33 0 44 -11t11 -44v-889q0 -604 -520 -604q-250 0 -422 78q-27 12 -32 23.5t2 42.5l41 167q8 35 17 41.5t38 -6.5 q174 -74 303 -73q117 0 188.5 61t71.5 229zM622.5 793q-96.5 0 -165 -78t-68.5 -192.5t68.5 -190.5t165 -76t165 76t68.5 190.5t-68.5 192.5t-165 78z" glyph-name="g" horiz-adv-x="1310" unicode="g"/><glyph d="M467 1456v-489q109 98 246 98q190 0 290.5 -108.5t100.5 -374.5v-527q0 -33 -11.5 -44t-43.5 -11h-203q-33 0 -44 11.5t-11 43.5v465q0 143 -34 204.5t-124 61.5q-92 0 -129 -61t-37 -205v-465q0 -33 -11.5 -44t-43.5 -11h-203q-33 0 -44 11.5t-11 43.5v465v936 q0 33 11 44t44 11h203q33 0 44 -11t11 -44z" glyph-name="h" unicode="h"/><glyph d="M178 55v932q0 33 11.5 44t43.5 11h203q33 0 44.5 -11t11.5 -44v-932q0 -33 -11.5 -44t-44.5 -11h-203q-33 0 -44 11t-11 44zM154 1354q0 76 51 129t127 53t129 -53t53 -129t-53 -127t-129 -51t-127 51t-51 127z" glyph-name="i" horiz-adv-x="667" unicode="i"/><glyph d="M270 1354q0 76 51.5 129t127 53t129 -53t53.5 -129t-53.5 -127t-129 -51t-127 51t-51.5 127zM59 848v139q0 55 56 55h436q33 0 44 -11t11 -44v-1014q0 -217 -109.5 -336.5t-310.5 -119.5q-119 0 -202 53q-25 14 -30 27.5t1 42.5l25 143q6 41 18 46t51 -13q43 -20 103 -21 q143 0 143 189v809h-180q-56 0 -56 55z" glyph-name="j" horiz-adv-x="784" unicode="j"/><glyph d="M770 553l377 -498q25 -37 16.5 -46t-41.5 -9h-276q-27 0 -40 10t-40 45l-309 424v-424q0 -33 -11.5 -44t-44.5 -11h-202q-33 0 -44.5 11.5t-11.5 43.5v1401q0 33 11.5 44t44.5 11h202q33 0 44.5 -11t11.5 -44v-850l284 381q25 35 39.5 45t40.5 10h279q29 0 36 -17 t-12 -38z" glyph-name="k" horiz-adv-x="1198" unicode="k"/><glyph d="M154 55v1401q0 33 11 44t44 11h203q33 0 44 -11t11 -44v-1401q0 -33 -11.5 -44t-43.5 -11h-203q-33 0 -44 11t-11 44z" glyph-name="l" horiz-adv-x="620" unicode="l"/><glyph d="M1032 913q123 152 307 152q201 0 301.5 -107.5t100.5 -375.5v-527q0 -33 -11.5 -44t-43.5 -11h-203q-33 0 -44.5 11.5t-11.5 43.5v465q0 143 -35.5 204.5t-127.5 61.5q-88 0 -126 -58t-38 -185v-488q0 -33 -11.5 -44t-44.5 -11h-202q-33 0 -44.5 11.5t-11.5 43.5v465 q0 143 -35.5 204.5t-128 61.5t-129 -61t-36.5 -205v-465q0 -33 -11.5 -44t-44.5 -11h-202q-33 0 -44.5 11.5t-11.5 43.5v932q0 33 11.5 44t44.5 11h98q23 0 35 -11t30 -44l41 -74q72 78 134.5 115t160.5 37q230 0 334 -152z" glyph-name="m" horiz-adv-x="1863" unicode="m"/><glyph d="M373 987l41 -74q72 78 135 115t164 37q190 0 290.5 -108.5t100.5 -374.5v-527q0 -33 -11.5 -44t-43.5 -11h-203q-33 0 -44 11.5t-11 43.5v465q0 143 -34 204.5t-124 61.5q-92 0 -129 -61t-37 -205v-465q0 -33 -11.5 -44t-43.5 -11h-203q-33 0 -44 11.5t-11 43.5v465v467 q0 33 11 44t44 11h98q23 0 35.5 -11t30.5 -44z" glyph-name="n" unicode="n"/><glyph d="M78 520q0 225 159.5 385t385 160t385 -160t159.5 -385q0 -223 -159.5 -383t-385 -160t-385 160t-159.5 383zM622.5 250q96.5 0 165 78t68.5 192.5t-68.5 190t-165 75.5t-165 -75.5t-68.5 -190t68.5 -192.5t165 -78z" glyph-name="o" horiz-adv-x="1245" unicode="o"/><glyph d="M457 117v-479q0 -33 -11.5 -44.5t-44.5 -11.5h-202q-33 0 -44.5 11.5t-11.5 44.5v1349q0 33 11.5 44t44.5 11h94q23 0 35 -11t30 -44l41 -74q145 152 363 152q199 0 335 -161t136 -382q0 -227 -135 -386t-336 -159q-104 0 -190 46.5t-115 93.5zM688 793q-96 0 -164.5 -78 t-68.5 -192.5t68.5 -190.5t164.5 -76t165 76t69 190.5t-69 192.5t-165 78z" glyph-name="p" horiz-adv-x="1310" unicode="p"/><glyph d="M854 -362v479q-29 -47 -115 -93.5t-190 -46.5q-201 0 -336 159t-135 386q0 221 136 382t335 161q217 0 362 -152l41 74q18 33 30.5 44t35.5 11h94q33 0 44 -11t11 -44v-1349q0 -33 -11 -44.5t-44 -11.5h-203q-33 0 -44 11.5t-11 44.5zM622.5 793q-96.5 0 -165 -78 t-68.5 -192.5t68.5 -190.5t165 -76t165 76t68.5 190.5t-68.5 192.5t-165 78z" glyph-name="q" horiz-adv-x="1310" unicode="q"/><glyph d="M756 756q-145 0 -217 -75t-72 -192v-434q0 -33 -11.5 -44t-43.5 -11h-203q-33 0 -44 11.5t-11 43.5v932q0 33 11 44t44 11h98q23 0 35 -11t31 -44l61 -113q59 98 136 144.5t227 46.5q37 0 45 -11.5t4 -39.5l-31 -207q-6 -33 -17 -42t-42 -9z" glyph-name="r" horiz-adv-x="870" unicode="r"/><glyph d="M512 217q172 0 172 88q0 33 -48 49.5t-155 30.5q-401 51 -401 334q0 158 119.5 252t312.5 94q197 0 401 -117q27 -16 28 -33.5t-15 -44.5l-60 -102q-16 -31 -29.5 -37t-43.5 10q-125 84 -261 84q-158 0 -157 -88q0 -57 203 -84q193 -25 297 -96.5t104 -232.5 q0 -158 -124 -252.5t-323 -94.5q-229 0 -426 134q-27 16 -27.5 33.5t15.5 43.5l60 103q18 33 29.5 39t43.5 -13q138 -100 285 -100z" glyph-name="s" horiz-adv-x="1050" unicode="s"/><glyph d="M809 31q-84 -53 -203 -54q-201 0 -310.5 119t-109.5 332v369h-49q-33 0 -44 11t-11 44v135q0 33 11 44t44 11h49v189q0 33 11.5 44t44.5 11h200q33 0 44.5 -11t11.5 -44v-189h260q33 0 44 -11t11 -44v-135q0 -33 -11 -44t-44 -11h-260v-353q0 -188 143 -188q59 0 102 20 q39 18 51.5 13.5t18.5 -45.5l25 -144q6 -29 1 -42t-30 -27z" glyph-name="t" horiz-adv-x="913" unicode="t"/><glyph d="M854 55l-41 74q-72 -78 -135.5 -115t-163.5 -37q-190 0 -290.5 109t-100.5 375v526q0 33 11 44t44 11h203q33 0 44 -11t11 -44v-465q0 -143 34 -204.5t124 -61.5q92 0 129 61.5t37 204.5v465q0 33 11 44t44 11h203q33 0 44 -11t11 -44v-465v-467q0 -33 -11 -44t-44 -11 h-98q-23 0 -35.5 11t-30.5 44z" glyph-name="u" unicode="u"/><glyph d="M512 29l-506 958q-10 20 1 37.5t34 17.5h221q27 0 40 -11t32 -44l227 -416v-2l225 418q18 33 31.5 44t40.5 11h221q27 0 36 -19t-1 -36l-506 -958q-4 -8 -10 -19.5t-9 -15.5t-7 -10.5t-8.5 -8.5t-10.5 -2h-6q-6 0 -10 2t-8 8.5t-7.5 10.5t-9.5 15.5t-10 19.5z" glyph-name="v" horiz-adv-x="1120" unicode="v"/><glyph d="M356 997l123 -387l230 404l7 14t8 13t7 10.5t8 10.5t10.5 5t12.5 2h14q6 0 12.5 -2t11.5 -9t8 -11.5t9 -15.5t10 -17l230 -404l119 377q8 33 24.5 44t46.5 11h242q29 0 35 -11t-8 -44l-328 -952q-18 -55 -43 -55h-17q-18 0 -49 55l-311 579l-311 -579q-31 -55 -49 -55 h-17q-23 0 -43 55l-328 952q-14 33 -8 44t35 11h242q51 0 67 -45z" glyph-name="w" horiz-adv-x="1536" unicode="w"/><glyph d="M532 322l-147 -267q-18 -35 -34.5 -45t-45.5 -10h-252q-63 0 -26 55l303 465l-303 467q-37 55 26 55h252q29 0 45.5 -11t34.5 -44l147 -272l148 272q20 35 35.5 45t44.5 10h252q63 0 26 -55l-303 -467l303 -465q37 -55 -26 -55h-252q-29 0 -44.5 10t-35.5 45z" glyph-name="x" horiz-adv-x="1064" unicode="x"/><glyph d="M569 485l224 502q18 33 31.5 44t39.5 11h230q29 0 35 -11t-9 -44l-616 -1349q-18 -33 -31.5 -44.5t-40.5 -11.5h-229q-29 0 -35 11.5t8 44.5l227 497l-391 852q-14 33 -8 44t35 11h229q27 0 40.5 -11t31.5 -44l227 -504z" glyph-name="y" horiz-adv-x="1132" unicode="y"/><glyph d="M897 0h-838q-18 0 -18 18v25q0 14 18 43l441 684h-363q-33 0 -44 11.5t-11 43.5v162q0 33 11 44t44 11h817q18 0 19 -18v-25q0 -14 -19 -43l-428 -684h371q33 0 44 -11t11 -44v-162q0 -33 -11 -44t-44 -11z" glyph-name="z" horiz-adv-x="1013" unicode="z"/><glyph d="M66 422v176q0 47 47 64q4 2 24.5 8t30.5 9t29.5 11t30 16.5t22.5 19.5t18 26.5t6 31.5v162q0 514 523 514q33 0 44 -11t11 -44v-178q0 -33 -11.5 -44.5t-43.5 -11.5q-199 0 -199 -225v-162q0 -102 -52 -173.5t-122 -92.5v-16q70 -20 122 -92t52 -174v-162 q0 -225 199 -226q33 0 44 -11t11 -44v-178q0 -33 -11.5 -44t-43.5 -11q-522 0 -523 514v162q0 16 -6 31.5t-18 26.5t-22.5 19.5t-30 16.5t-29.5 11t-30.5 9t-24.5 8q-47 17 -47 64z" glyph-name="braceleft" horiz-adv-x="917" unicode="{"/><glyph d="M154 -147v1728q0 33 11 44t44 11h149q33 0 44.5 -11t11.5 -44v-1728q0 -33 -11.5 -44.5t-44.5 -11.5h-149q-33 0 -44 11.5t-11 44.5z" glyph-name="bar" horiz-adv-x="567" unicode="|"/><glyph d="M852 598v-176q0 -47 -47 -64q-4 -2 -24.5 -8t-31 -9t-30 -11t-29.5 -16.5t-22.5 -19.5t-18.5 -26.5t-6 -31.5v-162q0 -514 -522 -514q-33 0 -44 11t-11 44v178q0 33 11 44t44 11q199 0 198 226v162q0 102 52.5 173.5t122.5 92.5v16q-70 20 -122.5 92t-52.5 174v162 q0 225 -198 225q-33 0 -44 11.5t-11 44.5v178q0 33 11 44t44 11q522 0 522 -514v-162q0 -16 6 -31.5t18.5 -26.5t22.5 -19.5t29.5 -16.5t30 -11t31 -9t24.5 -8q47 -17 47 -64z" glyph-name="braceright" horiz-adv-x="917" unicode="}"/><glyph d="M592 713q-6 4 -30.5 21.5t-33 22.5t-27 14t-32.5 12t-31 3q-12 0 -25.5 -6t-32 -22.5t-29.5 -27.5l-35.5 -35.5l-32.5 -32.5q-23 -20 -39.5 -19.5t-38.5 25.5l-82 92q-37 43 4 78q86 86 156.5 131t154.5 45q86 0 211 -94q6 -4 31 -21.5t33 -23t26.5 -14.5t32.5 -12t31 -3 q12 0 25.5 6t32 22.5t29.5 27.5t35.5 36t32.5 33q23 20 39.5 19t38.5 -25l82 -93q37 -43 -4 -77q-86 -86 -156.5 -131.5t-154.5 -45.5q-86 1 -211 95z" glyph-name="asciitilde" horiz-adv-x="1241" unicode="~"/><glyph d="M154 -610l45 813q0 33 11 44t44 11h188q33 0 44.5 -11t11.5 -44l45 -813q0 -33 -11.5 -44.5t-44.5 -11.5h-278q-33 0 -44 11.5t-11 44.5zM154 598q0 82 55 137.5t137 55.5t139.5 -55.5t57.5 -137.5t-57.5 -139.5t-139.5 -57.5t-137 57.5t-55 139.5z" glyph-name="exclamdown" horiz-adv-x="696" unicode="¡"/><glyph d="M451 -268l34 262q-176 45 -291.5 192.5t-115.5 333.5q0 225 159.5 385t383.5 160h6l26 188q2 33 15.5 43.5t46.5 6.5l43 -7q33 -4 42 -16t7 -45l-27 -195q125 -39 219 -129q16 -18 13.5 -28.5t-23.5 -34.5l-102 -113q-25 -27 -39 -30t-39 18q-33 29 -66 41l-67 -506 q80 12 133 61q25 20 39 17.5t39 -29.5l102 -112q20 -25 23.5 -35t-13.5 -29q-150 -147 -360 -154l-35 -266q-6 -33 -18.5 -42t-44.5 -5l-43 4q-33 4 -42 17.5t-5 46.5zM387 520q0 -84 37 -147.5t98 -93.5l68 505q-86 -12 -144.5 -86t-58.5 -178z" glyph-name="cent" horiz-adv-x="1054" unicode="¢"/><glyph d="M137 750h96q-2 2 -20 33.5t-22.5 39.5t-18.5 37t-19.5 45.5t-12.5 46t-10 59t-3 62.5q0 152 112.5 269.5t317.5 117.5q184 0 436 -153q27 -16 28 -34t-15 -44l-84 -139q-31 -57 -74 -27q-152 109 -270 108q-74 0 -105 -45t-31 -102q0 -39 17.5 -83t55.5 -108.5t46 -82.5 h303q33 0 44.5 -11.5t11.5 -44.5v-28q0 -33 -11.5 -44.5t-44.5 -11.5h-266q12 -166 -51 -327h426q33 0 44 -11.5t11 -44.5v-172q0 -33 -11 -44t-44 -11h-768q-33 0 -44 11.5t-11 43.5q0 27 44 121t78.5 213t16.5 221h-152q-33 0 -44 11.5t-11 44.5v28q0 33 11 44.5t44 11.5z " glyph-name="sterling" horiz-adv-x="1130" unicode="£"/><glyph d="M203 700q0 88 39 166l-142 144q-39 39 0 77l68 70q41 41 78 0l143 -143q80 43 168 43t168 -43l143 143q37 41 78 0l68 -70q39 -39 0 -77l-144 -144q43 -80 43 -166q0 -88 -43 -168l142 -141q39 -39 0 -78l-68 -69q-41 -41 -78 0l-143 141q-78 -39 -166 -39q-90 0 -166 41 l-143 -143q-37 -41 -78 0l-68 69q-39 39 0 78l142 141q-41 78 -41 168zM420 700.5q0 -57.5 41 -102.5t96 -45t96 45t41 102.5t-41 102.5t-96 45t-96 -45t-41 -102.5z" glyph-name="currency" horiz-adv-x="1114" unicode="¤"/><glyph d="M698 805l326 573q20 35 32.5 45.5t39.5 10.5h250q31 0 37 -11.5t-11 -44.5l-342 -573h154q33 0 44 -11.5t11 -43.5v-88q0 -33 -11 -44.5t-44 -11.5h-240h-33l-51 -86v-59h324q33 0 44 -11.5t11 -43.5v-89q0 -33 -11 -44t-44 -11h-324v-207q0 -33 -11 -44t-44 -11h-213 q-33 0 -44 11.5t-11 43.5v207h-324q-33 0 -44 11.5t-11 43.5v89q0 33 11 44t44 11h324v59l-52 86h-272q-33 0 -44 11.5t-11 44.5v88q0 33 11 44t44 11h154l-342 573q-16 33 -10.5 44.5t36.5 11.5h256q27 0 39 -10.5t33 -45.5z" glyph-name="yen" horiz-adv-x="1396" unicode="¥"/><glyph d="M154 -92v696q0 33 11 44t44 11h102q33 0 44.5 -11t11.5 -44v-696q0 -33 -11.5 -44t-44.5 -11h-102q-33 0 -44 11t-11 44zM154 895v631q0 33 11 44t44 11h102q33 0 44.5 -11t11.5 -44v-631q0 -33 -11.5 -44t-44.5 -11h-102q-33 0 -44 11t-11 44z" glyph-name="brokenbar" horiz-adv-x="520" unicode="¦"/><glyph d="M1200 420q0 -154 -100 -270q100 -104 100 -279q0 -184 -144.5 -313t-396.5 -129q-303 0 -538 153q-27 16 -28 33.5t16 44.5l84 139q16 29 30.5 35t42.5 -8q174 -109 373 -109q238 0 238 138q0 88 -72 119.5t-240 52.5q-471 55 -471 411q0 160 101 283q-100 100 -101 266 q0 78 30 157t90 150.5t170 116.5t251 45q147 0 259 -37t243 -116q27 -16 27.5 -34t-15.5 -44l-84 -140q-16 -31 -30.5 -37t-43.5 11q-94 63 -166.5 85.5t-169.5 22.5q-139 0 -188 -44t-49 -124q0 -74 63.5 -101.5t227.5 -45.5q100 -12 178 -33.5t153.5 -67.5t117.5 -130 t42 -201zM565 575q-41 4 -78 13q-70 -39 -69 -137q0 -74 63.5 -101.5t227.5 -46.5q61 -8 92 -14q76 33 76 114q0 88 -72 120t-240 52z" glyph-name="section" horiz-adv-x="1292" unicode="§"/><glyph d="M102 1355.5q0 61.5 41 104.5t102.5 43t104.5 -43t43 -104.5t-43 -102.5t-104.5 -41t-102.5 41t-41 102.5zM539 1355.5q0 61.5 41 104.5t102 43t104 -43t43 -104.5t-43 -102.5t-104 -41t-102 41t-41 102.5z" glyph-name="dieresis" horiz-adv-x="931" unicode="¨"/><glyph d="M78 717q0 307 217 525t526 218q231 0 400.5 -110.5t245 -275.5t75.5 -357.5t-75.5 -357t-244.5 -275.5t-401 -111q-309 0 -526 217.5t-217 526.5zM168 717q0 -272 190.5 -463t462.5 -191q154 0 278 56.5t199.5 148.5t117.5 209t42 240t-42 239.5t-117.5 208.5 t-199.5 148.5t-278 56.5q-272 0 -462.5 -191.5t-190.5 -461.5zM819 487q100 0 164 74q18 16 41 -4l63 -70q16 -23 3 -38q-106 -106 -271 -107q-152 0 -261 110.5t-109 264t109.5 264.5t260.5 111q164 0 271 -107q16 -18 -3 -39l-63 -72q-23 -18 -41 -2q-63 74 -164 74 q-90 0 -145.5 -68.5t-55.5 -160.5q0 -90 55.5 -160t145.5 -70z" glyph-name="copyright" horiz-adv-x="1642" unicode="©"/><glyph d="M201 1278q-16 -2 -23.5 4t-11.5 29l-21 86q-10 31 17 41q180 23 225 22q100 0 162.5 -19.5t92.5 -65.5t39 -95t9 -133v-313q0 -20 -7 -27.5t-28 -7.5h-71q-25 0 -39 35l-10 30q-33 -27 -48.5 -37t-64.5 -26.5t-109 -16.5q-90 0 -155.5 54.5t-65.5 158.5q0 98 67.5 152.5 t166.5 54.5q86 0 172 -22q0 63 -23.5 88.5t-95.5 25.5q-76 0 -178 -18zM375 1067q-49 0 -69.5 -21.5t-20.5 -48.5q0 -25 21.5 -47t68.5 -22q53 0 123 65v56q-84 18 -123 18z" glyph-name="ordfeminine" horiz-adv-x="813" unicode="ª"/><glyph d="M104 625l328 372q25 25 38 27t40 -14l121 -70q47 -29 12 -78l-256 -342l256 -342q33 -47 -12 -78l-121 -69q-27 -16 -40 -14.5t-38 26.5l-328 373q-39 43 -38 96v16q-1 54 38 97zM604 625l328 372q25 25 38 27t40 -14l120 -70q47 -29 13 -78l-256 -342l256 -342 q33 -47 -13 -78l-120 -69q-27 -16 -40.5 -14.5t-37.5 26.5l-328 373q-39 43 -39 96v16q0 54 39 97z" glyph-name="guillemotleft" horiz-adv-x="1232" unicode="«"/><glyph d="M750 180v279h-592q-33 0 -44.5 11t-11.5 44v131q0 33 11.5 44t44.5 11h778q33 0 44 -11t11 -44v-465q0 -33 -11 -44t-44 -11h-131q-33 0 -44 11t-11 44z" glyph-name="logicalnot" horiz-adv-x="1093" unicode="¬"/><glyph d="M723 459h-565q-33 0 -44.5 11t-11.5 44v131q0 33 11.5 44t44.5 11h565q33 0 44 -11t11 -44v-131q0 -33 -11 -44t-44 -11z" glyph-name="uni00AD" horiz-adv-x="880" unicode="­"/><glyph d="M1110 866q0 -158 -158 -209l183 -278q18 -37 -27 -37h-107q-31 0 -49 27l-176 274h-59v-274q0 -27 -31 -27h-115q-33 0 -32 27v696q0 27 32 27h265q113 0 193.5 -52.5t80.5 -173.5zM717 786h117q106 0 106 80q0 82 -106 82h-117v-162zM78 717q0 307 217 525t526 218 q307 0 525.5 -218t218.5 -525q0 -309 -218.5 -526.5t-525.5 -217.5q-309 0 -526 217.5t-217 526.5zM168 717q0 -272 190.5 -463t462.5 -191q270 0 462 190.5t192 463.5q0 270 -191.5 461.5t-462.5 191.5q-272 0 -462.5 -191.5t-190.5 -461.5z" glyph-name="registered" horiz-adv-x="1642" unicode="®"/><glyph d="M655 1241h-497q-33 0 -44.5 11.5t-11.5 43.5v109q0 33 11.5 44t44.5 11h497q33 0 44.5 -11t11.5 -44v-109q0 -33 -11.5 -44t-44.5 -11z" glyph-name="macron" horiz-adv-x="813" unicode="¯"/><glyph d="M78 1147q0 131 91 222t222 91q129 0 222.5 -92t93.5 -221q0 -131 -93.5 -223.5t-222.5 -92.5q-131 0 -222 92.5t-91 223.5zM283 1147q0 -45 31.5 -76t74.5 -31t73 31t30 76q0 41 -30 71.5t-73 30.5t-74.5 -30.5t-31.5 -71.5z" glyph-name="degree" horiz-adv-x="784" unicode="°"/><glyph d="M733 1331v-244h244q33 0 44 -11t11 -44v-141q0 -33 -11 -44t-44 -11h-244v-213q0 -33 -11 -44.5t-44 -11.5h-141q-33 0 -44.5 11.5t-11.5 44.5v213h-243q-33 0 -44.5 11t-11.5 44v141q0 33 11.5 44t44.5 11h243v244q0 33 11.5 44t44.5 11h141q33 0 44 -11t11 -44z M1014 117h-815q-33 0 -44.5 11t-11.5 44v145q0 33 11.5 44.5t44.5 11.5h815q33 0 44 -11.5t11 -44.5v-145q0 -33 -11 -44t-44 -11z" glyph-name="plusminus" horiz-adv-x="1212" unicode="±"/><glyph d="M494 1303l-132 -97q-39 -33 -86 -32h-172q-61 0 -2 65l256 283q37 45 78 -19l76 -123q14 -25 11.5 -39.5t-29.5 -37.5z" glyph-name="acute" horiz-adv-x="583" unicode="´"/><glyph d="M885 55l-41 74q-72 -78 -135.5 -115t-163.5 -37q-29 0 -78 5v-344q0 -33 -11.5 -44.5t-43.5 -11.5h-203q-33 0 -44 11.5t-11 44.5v1349q0 33 11 44t44 11h203q33 0 44 -11t11 -44v-465q0 -143 34 -204.5t124 -61.5q92 0 129 61.5t37 204.5v465q0 33 11 44t44 11h203 q33 0 44 -11t11 -44v-932q0 -33 -11.5 -44t-43.5 -11h-99q-23 0 -35 11t-30 44z" glyph-name="uni00B5" horiz-adv-x="1257" unicode="µ"/><glyph d="M592 -430v827q-225 0 -385 160t-160 383q0 219 157.5 356.5t387.5 137.5h962q33 0 44.5 -11.5t11.5 -44.5v-178q0 -33 -11.5 -44t-44.5 -11h-170v-1577q0 -33 -11 -44t-44 -11h-160q-33 0 -44 11t-11 44v1577h-252v-1575q0 -33 -11 -44t-44 -11h-160q-33 0 -44 11t-11 44 z" glyph-name="paragraph" horiz-adv-x="1705" unicode="¶"/><glyph d="M102 700q0 90 60.5 151.5t148.5 61.5q90 0 151.5 -61t61.5 -152q0 -88 -61.5 -148t-151.5 -60q-88 0 -148.5 60t-60.5 148z" glyph-name="periodcentered" horiz-adv-x="626" unicode="·"/><glyph d="M211 -16l131 -11l-4 -55q109 0 168 -55.5t59 -153.5q0 -100 -63.5 -159.5t-186.5 -59.5q-86 0 -192 86q-33 27 -6 57l33 43q14 16 25 17.5t32 -10.5q72 -35 131 -35q63 0 63 61q0 66 -73 66h-113q-43 0 -43 51z" glyph-name="cedilla" horiz-adv-x="667" unicode="¸"/><glyph d="M66 1116.5q0 149.5 70.5 246.5t203.5 97t202.5 -97t69.5 -246.5t-69.5 -247t-202.5 -97.5t-203.5 97.5t-70.5 247zM264 1116q0 -162 76 -162t76 162t-76 162t-76 -162z" glyph-name="ordmasculine" horiz-adv-x="677" unicode="º"/><glyph d="M801 997l327 -372q39 -43 39 -97v-16q0 -53 -39 -96l-327 -373q-25 -25 -38 -27t-40 15l-121 69q-45 31 -12 78l256 342l-256 342q-35 49 12 78l121 70q27 16 40 14t38 -27zM301 997l328 -372q39 -43 39 -97v-16q0 -53 -39 -96l-328 -373q-25 -25 -38 -27t-40 15l-121 69 q-45 31 -12 78l256 342l-256 342q-35 49 12 78l121 70q27 16 40 14t38 -27z" glyph-name="guillemotright" horiz-adv-x="1232" unicode="»"/><glyph d="M1130 1378l-690 -1333q-23 -45 -69 -45h-99q-76 0 -49 55l690 1334q23 45 70 45h98q78 -1 49 -56zM135 1343l127 66q43 25 57 25h93q25 0 24 -25v-586q0 -25 -24 -24h-138q-25 0 -24 24v375h-103q-25 0 -24 25v94q0 18 12 26zM1040 635h138q23 0 22 -25v-331h76 q23 0 22 -25v-88q0 -25 -22 -25h-76v-116q0 -25 -22 -25h-111q-14 0 -18.5 5t-4.5 20v116h-260q-25 0 -24 25v57q0 18 14 39l252 365q4 8 14 8zM1044 422l-102 -143h102v143z" glyph-name="onequarter" horiz-adv-x="1421" unicode="¼"/><glyph d="M1171 1378l-690 -1333q-23 -45 -69 -45h-99q-76 0 -49 55l690 1334q23 45 70 45h98q78 -1 49 -56zM135 1343l127 66q43 25 57 25h93q25 0 24 -25v-586q0 -25 -24 -24h-138q-25 0 -24 24v375h-103q-25 0 -24 25v94q0 18 12 26zM1198 170h145q14 0 19.5 -4t5.5 -19v-122 q0 -25 -25 -25h-430q-8 0 -8 8v12q0 4 8 19l232 303q29 37 40 74t-1.5 60.5t-44.5 23.5q-66 0 -117 -51q-18 -14 -37 4l-72 77q-18 20 -2 35q96 96 228 97q94 0 152.5 -52.5t59.5 -124t-42 -147.5z" glyph-name="onehalf" horiz-adv-x="1490" unicode="½"/><glyph d="M1219 1378l-691 -1333q-23 -45 -69 -45h-99q-78 0 -49 55l690 1334q23 45 70 45h98q77 -1 50 -56zM360 782q-131 0 -227 97q-16 14 2 34l68 72q18 18 37 4q61 -61 120 -61q47 0 68 23.5t21 52.5q0 57 -89 57h-59q-25 0 -25 24v74q0 27 25 27h59q88 0 89 57 q0 29 -20.5 52.5t-68.5 23.5q-57 0 -120 -64q-18 -14 -37 5l-68 73q-18 20 -2 35q96 96 227 96q94 0 170 -51t76 -147q0 -90 -80 -142v-2q80 -51 80 -141q0 -96 -76 -147.5t-170 -51.5zM1122 635h138q23 0 22 -25v-331h76q23 0 22 -25v-88q0 -25 -22 -25h-76v-116 q0 -25 -22 -25h-111q-14 0 -18.5 5t-4.5 20v116h-260q-25 0 -24 25v57q0 18 14 39l252 365q4 8 14 8zM1126 422l-102 -143h102v143z" glyph-name="threequarters" horiz-adv-x="1523" unicode="¾"/><glyph d="M711 -41q-201 -33 -284 -74t-83 -121q0 -164 238 -163q156 0 327 120q29 16 43.5 10.5t30.5 -36.5l84 -139q16 -27 15 -44.5t-27 -33.5q-137 -86 -241.5 -126t-252.5 -40q-272 0 -406.5 131t-134.5 303q0 178 105.5 259t329.5 130v68q0 33 11 44t44 11h178q33 0 44 -11 t11 -44v-207q1 -31 -32 -37zM797 598q0 -82 -55.5 -139.5t-137.5 -57.5t-139 57.5t-57 139.5t57 137.5t139 55.5t137.5 -55.5t55.5 -137.5z" glyph-name="questiondown" horiz-adv-x="1103" unicode="¿"/><glyph d="M774 901h-4l-174 -352h352zM819 1405l717 -1350q10 -20 -1 -37.5t-34 -17.5h-262q-27 0 -40 11.5t-32 43.5l-108 211h-576l-108 -211q-18 -33 -31.5 -44t-40.5 -11h-262q-23 0 -34 17.5t-1 37.5l717 1350q4 8 10 19.5t9 15.5l7.5 10t8.5 8t10 2h6q6 0 10 -2t8.5 -8 l7.5 -10t9 -15.5t10 -19.5zM596 1597l-131 97q-27 23 -30 38t11 40l76 122q41 63 78 19l256 -283q59 -66 -2 -65h-172q-47 -1 -86 32z" glyph-name="Agrave" horiz-adv-x="1542" unicode="À"/><glyph d="M774 901h-4l-174 -352h352zM819 1405l717 -1350q10 -20 -1 -37.5t-34 -17.5h-262q-27 0 -40 11.5t-32 43.5l-108 211h-576l-108 -211q-18 -33 -31.5 -44t-40.5 -11h-262q-23 0 -34 17.5t-1 37.5l717 1350q4 8 10 19.5t9 15.5l7.5 10t8.5 8t10 2h6q6 0 10 -2t8.5 -8 l7.5 -10t9 -15.5t10 -19.5zM1057 1694l-131 -97q-39 -33 -86 -32h-172q-61 0 -2 65l256 283q37 45 77 -19l76 -122q14 -25 11.5 -40t-29.5 -38z" glyph-name="Aacute" horiz-adv-x="1542" unicode="Á"/><glyph d="M774 901h-4l-174 -352h352zM819 1405l717 -1350q10 -20 -1 -37.5t-34 -17.5h-262q-27 0 -40 11.5t-32 43.5l-108 211h-576l-108 -211q-18 -33 -31.5 -44t-40.5 -11h-262q-23 0 -34 17.5t-1 37.5l717 1350q4 8 10 19.5t9 15.5l7.5 10t8.5 8t10 2h6q6 0 10 -2t8.5 -8 l7.5 -10t9 -15.5t10 -19.5zM705 1933h135q39 -2 78 -55l178 -258q35 -55 -23 -55h-123q-51 0 -82 55l-96 160l-96 -160q-31 -55 -82 -55h-123q-55 0 -22 55l178 258q39 53 78 55z" glyph-name="Acircumflex" horiz-adv-x="1542" unicode="Â"/><glyph d="M774 901h-4l-174 -352h352zM819 1405l717 -1350q10 -20 -1 -37.5t-34 -17.5h-262q-27 0 -40 11.5t-32 43.5l-108 211h-576l-108 -211q-18 -33 -31.5 -44t-40.5 -11h-262q-23 0 -34 17.5t-1 37.5l717 1350q4 8 10 19.5t9 15.5l7.5 10t8.5 8t10 2h6q6 0 10 -2t8.5 -8 l7.5 -10t9 -15.5t10 -19.5zM911 1833q18 0 39 20.5t31 44.5q10 29 24.5 34t45.5 -5l77 -35q33 -12 39.5 -26.5t-6.5 -44.5q-74 -195 -235 -195q-88 0 -174 49q-16 8 -39 20.5t-33 17.5t-23.5 9t-27.5 4q-18 0 -39 -20t-31 -45q-12 -29 -25.5 -34t-44.5 5l-77 35 q-33 12 -39 26.5t6 45.5q74 195 235 194q88 0 174 -49q16 -8 39 -20.5t33 -17.5t23.5 -9t27.5 -4z" glyph-name="Atilde" horiz-adv-x="1542" unicode="Ã"/><glyph d="M774 901h-4l-174 -352h352zM819 1405l717 -1350q10 -20 -1 -37.5t-34 -17.5h-262q-27 0 -40 11.5t-32 43.5l-108 211h-576l-108 -211q-18 -33 -31.5 -44t-40.5 -11h-262q-23 0 -34 17.5t-1 37.5l717 1350q4 8 10 19.5t9 15.5l7.5 10t8.5 8t10 2h6q6 0 10 -2t8.5 -8 l7.5 -10t9 -15.5t10 -19.5zM410 1747q0 61 41 104t102 43t104 -43t43 -104t-43 -102t-104 -41t-102 41t-41 102zM846 1747q0 61 41 104t102.5 43t104.5 -43t43 -104t-43 -102t-104.5 -41t-102.5 41t-41 102z" glyph-name="Adieresis" horiz-adv-x="1542" unicode="Ä"/><glyph d="M774 901h-4l-174 -352h352zM819 1405l717 -1350q10 -20 -1 -37.5t-34 -17.5h-262q-27 0 -40 11.5t-32 43.5l-108 211h-576l-108 -211q-18 -33 -31.5 -44t-40.5 -11h-262q-23 0 -34 17.5t-1 37.5l717 1350q4 8 10 19.5t9 15.5l7.5 10t8.5 8t10 2h6q6 0 10 -2t8.5 -8 l7.5 -10t9 -15.5t10 -19.5zM770 1565q-98 0 -166.5 68.5t-68.5 166.5t68.5 167t166.5 69q96 0 166 -69t70 -167t-70 -166.5t-166 -68.5zM770 1710q37 0 57.5 27.5t20.5 62.5t-20.5 61.5t-57.5 26.5t-58.5 -27.5t-21.5 -60.5q0 -35 21.5 -62.5t58.5 -27.5z" glyph-name="Aring" horiz-adv-x="1542" unicode="Å"/><glyph d="M913 0q-33 0 -44 11.5t-11 43.5v211h-369l-114 -211q-14 -33 -28.5 -44t-43.5 -11h-262q-23 0 -34 17.5t-1 37.5l764 1323q37 51 49 56h1055q33 0 44 -11.5t11 -44.5v-172q0 -33 -11 -44t-44 -11h-651v-289h598q33 0 44 -11t11 -44v-172q0 -33 -11.5 -44t-43.5 -11h-598 v-297h651q33 0 44 -11.5t11 -44.5v-172q0 -33 -11 -44t-44 -11h-961zM858 948l-217 -399h217v399z" glyph-name="AE" horiz-adv-x="2045" unicode="Æ"/><glyph d="M664 -174l38 158q-264 45 -440 252.5t-176 480.5q0 305 217 524t520 219q150 0 294.5 -57t242.5 -154q20 -25 18 -38t-24 -40l-127 -139q-23 -25 -38 -26.5t-40 20.5q-135 145 -326 145q-182 0 -290.5 -136t-108.5 -318q0 -180 109.5 -317.5t289.5 -137.5q190 0 326 146 q25 23 40 20.5t38 -27.5l127 -139q23 -27 24.5 -40t-18.5 -38q-96 -94 -237.5 -150.5t-288.5 -60.5l-5 -55q109 0 168.5 -55.5t59.5 -153.5q0 -100 -63.5 -159.5t-186.5 -59.5q-86 0 -193 86q-33 27 -6 57l33 43q14 16 25.5 17.5t31.5 -10.5q72 -35 131 -35q63 0 64 61 q0 66 -74 66h-112q-43 0 -43 51z" glyph-name="Ccedilla" horiz-adv-x="1445" unicode="Ç"/><glyph d="M1139 0h-930q-33 0 -44 11.5t-11 43.5v1323q0 33 11 44.5t44 11.5h930q33 0 44 -11.5t11 -44.5v-172q0 -33 -11.5 -44t-43.5 -11h-652v-289h625q33 0 44 -11t11 -44v-172q0 -33 -11 -44t-44 -11h-625v-297h652q33 0 44 -11.5t11 -44.5v-172q0 -33 -11 -44t-44 -11z M580 1597l-131 97q-27 23 -30 38t11 40l76 122q41 63 78 19l256 -283q59 -66 -2 -65h-172q-47 -1 -86 32z" glyph-name="Egrave" horiz-adv-x="1310" unicode="È"/><glyph d="M1139 0h-930q-33 0 -44 11.5t-11 43.5v1323q0 33 11 44.5t44 11.5h930q33 0 44 -11.5t11 -44.5v-172q0 -33 -11.5 -44t-43.5 -11h-652v-289h625q33 0 44 -11t11 -44v-172q0 -33 -11 -44t-44 -11h-625v-297h652q33 0 44 -11.5t11 -44.5v-172q0 -33 -11 -44t-44 -11z M905 1694l-131 -97q-39 -33 -86 -32h-172q-61 0 -2 65l256 283q37 45 78 -19l76 -122q14 -25 11 -40t-30 -38z" glyph-name="Eacute" horiz-adv-x="1310" unicode="É"/><glyph d="M590 1933h135q39 -2 78 -55l178 -258q33 -55 -23 -55h-122q-51 0 -82 55l-97 160l-96 -160q-31 -55 -82 -55h-123q-55 0 -22 55l178 258q39 53 78 55zM1124 0h-929q-33 0 -44.5 11.5t-11.5 43.5v1323q0 33 11.5 44.5t44.5 11.5h929q33 0 44.5 -11.5t11.5 -44.5v-172 q0 -33 -11.5 -44t-44.5 -11h-651v-289h625q33 0 44 -11t11 -44v-172q0 -33 -11.5 -44t-43.5 -11h-625v-297h651q33 0 44.5 -11.5t11.5 -44.5v-172q0 -33 -11.5 -44t-44.5 -11z" glyph-name="Ecircumflex" horiz-adv-x="1265" unicode="Ê"/><glyph d="M1139 0h-930q-33 0 -44 11.5t-11 43.5v1323q0 33 11 44.5t44 11.5h930q33 0 44 -11.5t11 -44.5v-172q0 -33 -11.5 -44t-43.5 -11h-652v-289h625q33 0 44 -11t11 -44v-172q0 -33 -11 -44t-44 -11h-625v-297h652q33 0 44 -11.5t11 -44.5v-172q0 -33 -11 -44t-44 -11z M311 1747q0 61 41 104t102.5 43t104.5 -43t43 -104t-43 -102t-104.5 -41t-102.5 41t-41 102zM748 1747q0 61 40.5 104t102 43t104.5 -43t43 -104t-43 -102t-104.5 -41t-102 41t-40.5 102z" glyph-name="Edieresis" horiz-adv-x="1310" unicode="Ë"/><glyph d="M154 55v1323q0 33 11 44.5t44 11.5h223q33 0 44 -11.5t11 -44.5v-1323q0 -33 -11 -44t-44 -11h-223q-33 0 -44 11t-11 44zM193 1597l-132 97q-27 23 -29.5 38t11.5 40l76 122q41 63 78 19l256 -283q59 -66 -2 -65h-172q-47 -1 -86 32z" glyph-name="Igrave" horiz-adv-x="641" unicode="Ì"/><glyph d="M139 55v1323q0 33 11.5 44.5t44.5 11.5h223q33 0 44 -11.5t11 -44.5v-1323q0 -33 -11 -44t-44 -11h-223q-33 0 -44.5 11t-11.5 44zM567 1694l-131 -97q-39 -33 -86 -32h-172q-61 0 -2 65l256 283q37 45 78 -19l76 -122q14 -25 11 -40t-30 -38z" glyph-name="Iacute" horiz-adv-x="612" unicode="Í"/><glyph d="M139 55v1323q0 33 11.5 44.5t44.5 11.5h223q33 0 44 -11.5t11 -44.5v-1323q0 -33 -11 -44t-44 -11h-223q-33 0 -44.5 11t-11.5 44zM240 1933h135q39 -2 78 -55l178 -258q33 -55 -23 -55h-123q-51 0 -82 55l-96 160l-96 -160q-31 -55 -82 -55h-123q-55 0 -22 55l178 258 q39 53 78 55z" glyph-name="Icircumflex" horiz-adv-x="612" unicode="Î"/><glyph d="M139 55v1323q0 33 11.5 44.5t44.5 11.5h223q33 0 44 -11.5t11 -44.5v-1323q0 -33 -11 -44t-44 -11h-223q-33 0 -44.5 11t-11.5 44zM-51 1747q0 61 41 104t102.5 43t104.5 -43t43 -104t-43 -102t-104.5 -41t-102.5 41t-41 102zM385 1747q0 61 41 104t102.5 43t104.5 -43 t43 -104t-43 -102t-104.5 -41t-102.5 41t-41 102z" glyph-name="Idieresis" horiz-adv-x="612" unicode="Ï"/><glyph d="M86 858h172v520q0 33 11.5 44.5t43.5 11.5h525q305 0 520 -207t215 -510t-215 -510t-520 -207h-525q-33 0 -44 11.5t-11 43.5v537h-172q-33 0 -44 11t-11 44v156q0 33 11 44t44 11zM836 1157h-244v-299h219q33 0 44 -11t11 -44v-156q0 -33 -11 -44t-44 -11h-219v-316h244 q186 0 292.5 130.5t106.5 310.5q0 182 -106.5 311t-292.5 129z" glyph-name="Eth" horiz-adv-x="1658" unicode="Ð"/><glyph d="M487 786v-731q0 -33 -11 -44t-44 -11h-223q-33 0 -44 11.5t-11 43.5v1387q0 18 18 18h21q18 0 38 -18l869 -785v721q0 33 11 44.5t44 11.5h223q33 0 44.5 -11.5t11.5 -44.5v-1386q0 -18 -19 -19h-20q-18 0 -39 19zM915 1833q18 0 39 20.5t31 44.5q10 29 24.5 34t45.5 -5 l78 -35q33 -12 39 -26.5t-7 -44.5q-74 -195 -235 -195q-88 0 -174 49q-16 8 -39 20.5t-33 17.5t-23.5 9t-27.5 4q-18 0 -39 -20t-31 -45q-12 -29 -25.5 -34t-43.5 5l-78 35q-33 12 -39 26.5t6 45.5q74 195 235 194q88 0 175 -49q16 -8 38.5 -20.5t32.5 -17.5t23.5 -9 t27.5 -4z" glyph-name="Ntilde" horiz-adv-x="1587" unicode="Ñ"/><glyph d="M86 717q0 305 217 524t520 219t520.5 -219t217.5 -524t-217.5 -524.5t-520.5 -219.5t-520 219.5t-217 524.5zM424 717q0 -180 109.5 -317.5t289.5 -137.5q186 0 293 136.5t107 318.5q0 184 -106.5 319t-293.5 135q-182 0 -290.5 -136t-108.5 -318zM700 1597l-131 97 q-27 23 -29.5 38t11.5 40l76 122q41 63 78 19l256 -283q59 -66 -3 -65h-172q-47 -1 -86 32z" glyph-name="Ograve" horiz-adv-x="1646" unicode="Ò"/><glyph d="M86 717q0 305 217 524t520 219t520.5 -219t217.5 -524t-217.5 -524.5t-520.5 -219.5t-520 219.5t-217 524.5zM424 717q0 -180 109.5 -317.5t289.5 -137.5q186 0 293 136.5t107 318.5q0 184 -106.5 319t-293.5 135q-182 0 -290.5 -136t-108.5 -318zM1090 1694l-132 -97 q-39 -33 -86 -32h-172q-61 0 -2 65l256 283q37 45 78 -19l76 -122q14 -25 11.5 -40t-29.5 -38z" glyph-name="Oacute" horiz-adv-x="1646" unicode="Ó"/><glyph d="M86 717q0 305 217 524t520 219t520.5 -219t217.5 -524t-217.5 -524.5t-520.5 -219.5t-520 219.5t-217 524.5zM424 717q0 -180 109.5 -317.5t289.5 -137.5q186 0 293 136.5t107 318.5q0 184 -106.5 319t-293.5 135q-182 0 -290.5 -136t-108.5 -318zM756 1933h135 q39 -2 78 -55l178 -258q33 -55 -23 -55h-123q-51 0 -81 55l-97 160l-96 -160q-31 -55 -82 -55h-123q-55 0 -22 55l178 258q39 53 78 55z" glyph-name="Ocircumflex" horiz-adv-x="1646" unicode="Ô"/><glyph d="M86 717q0 305 217 524t520 219t520.5 -219t217.5 -524t-217.5 -524.5t-520.5 -219.5t-520 219.5t-217 524.5zM424 717q0 -180 109.5 -317.5t289.5 -137.5q186 0 293 136.5t107 318.5q0 184 -106.5 319t-293.5 135q-182 0 -290.5 -136t-108.5 -318zM954 1833q18 0 39 20.5 t31 44.5q10 29 24.5 34t45.5 -5l77 -35q33 -12 39.5 -26.5t-6.5 -44.5q-74 -195 -235 -195q-88 0 -174 49q-16 8 -39 20.5t-33 17.5t-23.5 9t-27.5 4q-18 0 -39 -20t-31 -45q-12 -29 -25.5 -34t-44.5 5l-77 35q-33 12 -39 26.5t6 45.5q74 195 235 194q88 0 174 -49 q16 -8 39 -20.5t33 -17.5t23.5 -9t27.5 -4z" glyph-name="Otilde" horiz-adv-x="1646" unicode="Õ"/><glyph d="M86 717q0 305 217 524t520 219t520.5 -219t217.5 -524t-217.5 -524.5t-520.5 -219.5t-520 219.5t-217 524.5zM424 717q0 -180 109.5 -317.5t289.5 -137.5q186 0 293 136.5t107 318.5q0 184 -106.5 319t-293.5 135q-182 0 -290.5 -136t-108.5 -318zM465 1747q0 61 41 104 t102.5 43t104.5 -43t43 -104t-43 -102t-104.5 -41t-102.5 41t-41 102zM901 1747q0 61 41 104t102.5 43t104.5 -43t43 -104t-43 -102t-104.5 -41t-102.5 41t-41 102z" glyph-name="Odieresis" horiz-adv-x="1646" unicode="Ö"/><glyph d="M649 270l-172 172l-172 -172q-23 -23 -39 -22.5t-39 22.5l-100 101q-41 37 0 78l172 172l-172 172q-23 23 -23 39t23 38l100 101q23 23 39.5 22.5t38.5 -22.5l172 -172l172 172q41 41 78 0l100 -101q23 -23 23 -39t-23 -38l-172 -172l172 -172q41 -41 0 -78l-100 -101 q-37 -41 -78 0z" glyph-name="multiply" horiz-adv-x="954" unicode="×"/><glyph d="M86 717q0 305 217 524t520 219q121 0 246 -43l31 60q23 45 69 45h99q76 0 49 -56l-74 -141q145 -104 231.5 -264t86.5 -344q0 -305 -217.5 -524.5t-520.5 -219.5q-133 0 -256 47l-32 -63q-23 -45 -70 -45h-98q-76 0 -50 55l76 148q-143 102 -225 261t-82 341zM1223 717 q0 203 -121 334l-400 -770q55 -18 121 -19q186 0 293 136.5t107 318.5zM424 717q0 -193 115 -324l395 764q-61 14 -111 14q-182 0 -290.5 -136t-108.5 -318z" glyph-name="Oslash" horiz-adv-x="1646" unicode="Ø"/><glyph d="M743.5 -27q-264.5 0 -442.5 162t-178 455v788q0 33 11 44.5t44 11.5h223q33 0 44.5 -11.5t11.5 -44.5v-778q0 -338 286.5 -338t286.5 338v778q0 33 11.5 44.5t43.5 11.5h224q33 0 44 -11.5t11 -44.5v-788q0 -293 -178 -455t-442.5 -162zM614 1597l-131 97 q-27 23 -29.5 38t11.5 40l76 122q41 63 77 19l256 -283q59 -66 -2 -65h-172q-47 -1 -86 32z" glyph-name="Ugrave" horiz-adv-x="1486" unicode="Ù"/><glyph d="M743.5 -27q-264.5 0 -442.5 162t-178 455v788q0 33 11 44.5t44 11.5h223q33 0 44.5 -11.5t11.5 -44.5v-778q0 -338 286.5 -338t286.5 338v778q0 33 11.5 44.5t43.5 11.5h224q33 0 44 -11.5t11 -44.5v-788q0 -293 -178 -455t-442.5 -162zM948 1694l-131 -97 q-39 -33 -86 -32h-172q-61 0 -2 65l256 283q37 45 78 -19l76 -122q14 -25 11 -40t-30 -38z" glyph-name="Uacute" horiz-adv-x="1486" unicode="Ú"/><glyph d="M743.5 -27q-264.5 0 -442.5 162t-178 455v788q0 33 11 44.5t44 11.5h223q33 0 44.5 -11.5t11.5 -44.5v-778q0 -338 286.5 -338t286.5 338v778q0 33 11.5 44.5t43.5 11.5h224q33 0 44 -11.5t11 -44.5v-788q0 -293 -178 -455t-442.5 -162zM676 1933h135q39 -2 78 -55 l178 -258q35 -55 -23 -55h-122q-51 0 -82 55l-97 160l-96 -160q-31 -55 -82 -55h-123q-57 0 -22 55l178 258q39 53 78 55z" glyph-name="Ucircumflex" horiz-adv-x="1486" unicode="Û"/><glyph d="M743.5 -27q-264.5 0 -442.5 162t-178 455v788q0 33 11 44.5t44 11.5h223q33 0 44.5 -11.5t11.5 -44.5v-778q0 -338 286.5 -338t286.5 338v778q0 33 11.5 44.5t43.5 11.5h224q33 0 44 -11.5t11 -44.5v-788q0 -293 -178 -455t-442.5 -162zM385 1747q0 61 41 104t102.5 43 t104.5 -43t43 -104t-43 -102t-104.5 -41t-102.5 41t-41 102zM821 1747q0 61 41 104t102.5 43t104.5 -43t43 -104t-43 -102t-104.5 -41t-102.5 41t-41 102z" glyph-name="Udieresis" horiz-adv-x="1486" unicode="Ü"/><glyph d="M537 520l-512 858q-16 33 -10.5 44.5t36.5 11.5h256q27 0 39 -10.5t33 -45.5l319 -573l326 573q20 35 32.5 45.5t39.5 10.5h250q31 0 37 -11.5t-11 -44.5l-512 -858v-465q0 -33 -11 -44t-44 -11h-213q-33 0 -44 11.5t-11 43.5v465zM915 1694l-131 -97q-39 -33 -86 -32 h-172q-61 0 -2 65l256 283q37 45 78 -19l76 -122q14 -25 11 -40t-30 -38z" glyph-name="Yacute" horiz-adv-x="1386" unicode="Ý"/><glyph d="M737 0h-305v-362q0 -33 -11 -44.5t-44 -11.5h-203q-33 0 -44 11.5t-11 44.5v1767q0 33 11 44t44 11h203q33 0 44 -11t11 -44v-363h305q201 0 336 -150.5t135 -369.5q0 -225 -134 -373.5t-337 -148.5zM432 279h232q98 0 165.5 65.5t67.5 178t-67.5 180t-165.5 67.5h-232 v-491z" glyph-name="Thorn" horiz-adv-x="1273" unicode="Þ"/><glyph d="M672 856h12q100 0 150.5 42t50.5 106q0 80 -47 116.5t-154 36.5q-113 0 -162 -37t-49 -116v-414v-535q0 -33 -11 -44t-44 -11h-219q-33 0 -44.5 11.5t-11.5 43.5v979q0 109 48.5 190t127 125t165.5 64.5t182 20.5h28q94 0 181.5 -20.5t166 -64.5t127 -125t48.5 -190 q0 -184 -175 -297v-2q225 -106 226 -336q0 -109 -48.5 -189.5t-127 -124.5t-165.5 -64.5t-182 -20.5h-137q-33 0 -44 11.5t-11 43.5v166q0 33 11 44t44 11h125q106 0 154.5 37t48.5 117q0 70 -52.5 115t-150.5 45h-61q-33 0 -44.5 11t-11.5 44v156q0 33 11.5 44t44.5 11z " glyph-name="germandbls" horiz-adv-x="1339" unicode="ß"/><glyph d="M256 772q-29 -4 -40 7.5t-19 43.5l-35 138q-8 31 -2 44t33 21q35 8 152.5 23.5t209.5 15.5q160 0 260 -33t148.5 -105.5t62.5 -152.5t14 -211v-508q0 -33 -11 -44t-44 -11h-117q-23 0 -35 11.5t-26 43.5l-21 51q-47 -39 -75.5 -59t-105.5 -45t-171 -25 q-143 0 -249.5 89.5t-106.5 255.5q0 158 110.5 243.5t266.5 85.5q152 0 272 -39q0 104 -36 145.5t-150 41.5q-133 0 -285 -27zM535 434q-78 0 -112 -33.5t-34 -78.5q0 -37 34 -74t112 -37q90 0 192 102v88q-131 33 -192 33zM506 1206l-131 97q-27 23 -30 38t11 39l76 123 q41 63 78 19l256 -283q59 -66 -2 -65h-172q-47 -1 -86 32z" glyph-name="agrave" horiz-adv-x="1159" unicode="à"/><glyph d="M256 772q-29 -4 -40 7.5t-19 43.5l-35 138q-8 31 -2 44t33 21q35 8 152.5 23.5t209.5 15.5q160 0 260 -33t148.5 -105.5t62.5 -152.5t14 -211v-508q0 -33 -11 -44t-44 -11h-117q-23 0 -35 11.5t-26 43.5l-21 51q-47 -39 -75.5 -59t-105.5 -45t-171 -25 q-143 0 -249.5 89.5t-106.5 255.5q0 158 110.5 243.5t266.5 85.5q152 0 272 -39q0 104 -36 145.5t-150 41.5q-133 0 -285 -27zM535 434q-78 0 -112 -33.5t-34 -78.5q0 -37 34 -74t112 -37q90 0 192 102v88q-131 33 -192 33zM819 1303l-131 -97q-39 -33 -86 -32h-172 q-61 0 -2 65l256 283q37 45 78 -19l76 -123q14 -25 11 -39.5t-30 -37.5z" glyph-name="aacute" horiz-adv-x="1159" unicode="á"/><glyph d="M256 772q-29 -4 -40 7.5t-19 43.5l-35 138q-8 31 -2 44t33 21q35 8 152.5 23.5t209.5 15.5q160 0 260 -33t148.5 -105.5t62.5 -152.5t14 -211v-508q0 -33 -11 -44t-44 -11h-117q-23 0 -35 11.5t-26 43.5l-21 51q-47 -39 -75.5 -59t-105.5 -45t-171 -25 q-143 0 -249.5 89.5t-106.5 255.5q0 158 110.5 243.5t266.5 85.5q152 0 272 -39q0 104 -36 145.5t-150 41.5q-133 0 -285 -27zM535 434q-78 0 -112 -33.5t-34 -78.5q0 -37 34 -74t112 -37q90 0 192 102v88q-131 33 -192 33zM506 1542h135q39 -2 78 -55l178 -258 q35 -55 -23 -55h-122q-51 0 -82 55l-97 160l-96 -160q-31 -55 -82 -55h-123q-57 0 -22 55l178 258q39 53 78 55z" glyph-name="acircumflex" horiz-adv-x="1159" unicode="â"/><glyph d="M256 772q-29 -4 -40 7.5t-19 43.5l-35 138q-8 31 -2 44t33 21q35 8 152.5 23.5t209.5 15.5q160 0 260 -33t148.5 -105.5t62.5 -152.5t14 -211v-508q0 -33 -11 -44t-44 -11h-117q-23 0 -35 11.5t-26 43.5l-21 51q-47 -39 -75.5 -59t-105.5 -45t-171 -25 q-143 0 -249.5 89.5t-106.5 255.5q0 158 110.5 243.5t266.5 85.5q152 0 272 -39q0 104 -36 145.5t-150 41.5q-133 0 -285 -27zM535 434q-78 0 -112 -33.5t-34 -78.5q0 -37 34 -74t112 -37q90 0 192 102v88q-131 33 -192 33zM715 1442q18 0 38.5 20.5t30.5 44.5 q10 29 24.5 34t45.5 -5l78 -35q33 -12 39 -26.5t-6 -44.5q-74 -195 -236 -195q-88 0 -174 49q-16 8 -38.5 20.5t-33 17.5t-24 9t-27.5 4q-18 0 -38.5 -20.5t-31.5 -44.5q-12 -29 -25 -34t-44 5l-78 35q-33 12 -39 26.5t6 45.5q74 195 236 194q88 0 174 -49q16 -8 38.5 -20.5 t33 -17.5t24 -9t27.5 -4z" glyph-name="atilde" horiz-adv-x="1159" unicode="ã"/><glyph d="M256 772q-29 -4 -40 7.5t-19 43.5l-35 138q-8 31 -2 44t33 21q35 8 152.5 23.5t209.5 15.5q160 0 260 -33t148.5 -105.5t62.5 -152.5t14 -211v-508q0 -33 -11 -44t-44 -11h-117q-23 0 -35 11.5t-26 43.5l-21 51q-47 -39 -75.5 -59t-105.5 -45t-171 -25 q-143 0 -249.5 89.5t-106.5 255.5q0 158 110.5 243.5t266.5 85.5q152 0 272 -39q0 104 -36 145.5t-150 41.5q-133 0 -285 -27zM535 434q-78 0 -112 -33.5t-34 -78.5q0 -37 34 -74t112 -37q90 0 192 102v88q-131 33 -192 33zM215 1355.5q0 61.5 41 104.5t102.5 43t104.5 -43 t43 -104.5t-43 -102.5t-104.5 -41t-102.5 41t-41 102.5zM651 1355.5q0 61.5 41 104.5t102.5 43t104.5 -43t43 -104.5t-43 -102.5t-104.5 -41t-102.5 41t-41 102.5z" glyph-name="adieresis" horiz-adv-x="1159" unicode="ä"/><glyph d="M256 772q-29 -4 -40 7.5t-19 43.5l-35 138q-8 31 -2 44t33 21q35 8 152.5 23.5t209.5 15.5q160 0 260 -33t148.5 -105.5t62.5 -152.5t14 -211v-508q0 -33 -11 -44t-44 -11h-117q-23 0 -35 11.5t-26 43.5l-21 51q-47 -39 -75.5 -59t-105.5 -45t-171 -25 q-143 0 -249.5 89.5t-106.5 255.5q0 158 110.5 243.5t266.5 85.5q152 0 272 -39q0 104 -36 145.5t-150 41.5q-133 0 -285 -27zM535 434q-78 0 -112 -33.5t-34 -78.5q0 -37 34 -74t112 -37q90 0 192 102v88q-131 33 -192 33zM578 1174q-98 0 -167 68.5t-69 166.5t68.5 167 t167.5 69q96 0 165.5 -69t69.5 -167t-69.5 -166.5t-165.5 -68.5zM577.5 1319q36.5 0 57 27.5t20.5 62.5t-20.5 61.5t-57 26.5t-58 -27.5t-21.5 -60.5q0 -35 21.5 -62.5t58 -27.5z" glyph-name="aring" horiz-adv-x="1159" unicode="å"/><glyph d="M750 612q0 102 -41 144.5t-160 42.5q-133 0 -285 -27q-47 -6 -59 49l-35 140q-8 31 -2 44t33 21q33 8 156.5 23.5t215.5 15.5q113 0 185.5 -27.5t148.5 -109.5q168 137 383 137q125 0 226.5 -53.5t162 -139.5t92 -187t31.5 -204v-8q0 -29 -10 -40t-41 -11h-680 q27 -80 91.5 -129t146.5 -49q119 0 237 53q57 27 80 -4l80 -100q20 -25 22.5 -38.5t-12.5 -31.5q-70 -70 -185.5 -108t-240.5 -38q-238 0 -383 201q-74 -72 -204 -136.5t-267 -64.5q-145 0 -251.5 85t-106.5 251q0 162 102.5 250t257.5 88q57 0 159 -11.5t153 -27.5z M750 313v88q-131 33 -232 33q-80 0 -119 -34.5t-39 -77.5q0 -23 8.5 -45.5t41 -44t86 -21.5t132.5 29.5t122 72.5zM1079 621h404q-45 190 -199 190q-164 0 -205 -190z" glyph-name="ae" horiz-adv-x="1867" unicode="æ"/><glyph d="M477 -170l39 158q-188 35 -313 185.5t-125 346.5q0 225 159.5 385t383 160t378.5 -154q16 -18 13.5 -28.5t-23.5 -34.5l-102 -113q-25 -27 -39 -30t-39 18q-68 63 -188 63q-96 0 -165 -75.5t-69 -190t68.5 -189.5t165.5 -75q121 0 188 63q25 20 39 17.5t39 -29.5 l102 -112q20 -25 23.5 -35t-13.5 -29q-147 -143 -352 -154l-4 -55q109 0 168 -55t59 -154q0 -100 -63.5 -159.5t-185.5 -59.5q-86 0 -193 86q-33 27 -6 58l33 43q14 16 25.5 17t31.5 -11q72 -35 131 -35q63 0 64 61q0 66 -74 66h-113q-43 0 -43 51z" glyph-name="ccedilla" horiz-adv-x="1075" unicode="ç"/><glyph d="M1036 193q20 -25 22.5 -38.5t-11.5 -31.5q-68 -68 -182.5 -107t-233.5 -39q-231 0 -392 159t-161 384t159.5 385t383.5 160q248 0 380 -169t132 -415q0 -35 -10.5 -47t-41.5 -12h-680q27 -80 91.5 -129t144.5 -49q121 0 240 53q6 2 16 7t13 6t10.5 3t10.5 1t8 -3t10 -6 t11 -12zM813 621q-45 190 -199 190q-164 0 -204 -190h403zM502 1206l-131 97q-27 23 -30 38t11 39l76 123q41 63 78 19l256 -283q59 -66 -2 -65h-172q-47 -1 -86 32z" glyph-name="egrave" horiz-adv-x="1198" unicode="è"/><glyph d="M956 293l80 -100q20 -25 22.5 -38.5t-11.5 -31.5q-68 -68 -182.5 -107t-233.5 -39q-231 0 -392 159t-161 384t159.5 385t383.5 160q248 0 380 -169t132 -415q0 -35 -10.5 -47t-41.5 -12h-680q27 -80 91.5 -129t144.5 -49q121 0 240 53q6 2 14 6t11 6t9.5 4t9.5 2t8 -1 t9 -4t8 -7zM410 621h403q-45 190 -199 190q-163 0 -204 -190zM874 1303l-131 -97q-39 -33 -86 -32h-172q-61 0 -2 65l256 283q37 45 78 -19l76 -123q14 -25 11 -39.5t-30 -37.5z" glyph-name="eacute" horiz-adv-x="1198" unicode="é"/><glyph d="M1036 193q20 -25 22.5 -38.5t-11.5 -31.5q-68 -68 -182.5 -107t-233.5 -39q-231 0 -392 159t-161 384t159.5 385t383.5 160q248 0 380 -169t132 -415q0 -35 -10.5 -47t-41.5 -12h-680q27 -80 91.5 -129t144.5 -49q121 0 240 53q6 2 16 7t13 6t10.5 3t10.5 1t8 -3t10 -6 t11 -12zM813 621q-45 190 -199 190q-164 0 -204 -190h403zM561 1542h135q39 -2 78 -55l178 -258q33 -55 -22 -55h-123q-51 0 -82 55l-96 160l-97 -160q-31 -55 -81 -55h-123q-57 0 -23 55l178 258q39 53 78 55z" glyph-name="ecircumflex" horiz-adv-x="1198" unicode="ê"/><glyph d="M1036 193q20 -25 22.5 -38.5t-11.5 -31.5q-68 -68 -182.5 -107t-233.5 -39q-231 0 -392 159t-161 384t159.5 385t383.5 160q248 0 380 -169t132 -415q0 -35 -10.5 -47t-41.5 -12h-680q27 -80 91.5 -129t144.5 -49q121 0 240 53q6 2 16 7t13 6t10.5 3t10.5 1t8 -3t10 -6 t11 -12zM813 621q-45 190 -199 190q-164 0 -204 -190h403zM262 1355.5q0 61.5 41 104.5t102.5 43t104.5 -43t43 -104.5t-43 -102.5t-104.5 -41t-102.5 41t-41 102.5zM698 1355.5q0 61.5 41 104.5t102.5 43t104.5 -43t43 -104.5t-43 -102.5t-104.5 -41t-102.5 41t-41 102.5z " glyph-name="edieresis" horiz-adv-x="1198" unicode="ë"/><glyph d="M152 55v932q0 33 11 44t44 11h203q33 0 44 -11t11 -44v-932q0 -33 -11.5 -44t-43.5 -11h-203q-33 0 -44 11t-11 44zM162 1206l-131 97q-27 23 -30 38t11 39l76 123q41 63 78 19l256 -283q59 -66 -2 -65h-172q-47 -1 -86 32z" glyph-name="igrave" horiz-adv-x="608" unicode="ì"/><glyph d="M143 55v932q0 33 11.5 44t44.5 11h202q33 0 44.5 -11t11.5 -44v-932q0 -33 -11.5 -44t-44.5 -11h-202q-33 0 -44.5 11t-11.5 44zM584 1303l-131 -97q-39 -33 -86 -32h-172q-61 0 -2 65l256 283q37 45 77 -19l76 -123q14 -25 11.5 -39.5t-29.5 -37.5z" glyph-name="iacute" horiz-adv-x="614" unicode="í"/><glyph d="M143 55v932q0 33 11.5 44t44.5 11h202q33 0 44.5 -11t11.5 -44v-932q0 -33 -11.5 -44t-44.5 -11h-202q-33 0 -44.5 11t-11.5 44zM231 1542h136q39 -2 77 -55l179 -258q35 -55 -23 -55h-123q-51 0 -82 55l-96 160l-96 -160q-31 -55 -82 -55h-123q-55 0 -23 55l179 258 q38 53 77 55z" glyph-name="icircumflex" horiz-adv-x="598" unicode="î"/><glyph d="M143 55v932q0 33 11.5 44t44.5 11h202q33 0 44.5 -11t11.5 -44v-932q0 -33 -11.5 -44t-44.5 -11h-202q-33 0 -44.5 11t-11.5 44zM-57 1355.5q0 61.5 41 104.5t102 43t104 -43t43 -104.5t-43 -102.5t-104 -41t-102 41t-41 102.5zM379 1355.5q0 61.5 41 104.5t102.5 43 t104.5 -43t43 -104.5t-43 -102.5t-104.5 -41t-102.5 41t-41 102.5z" glyph-name="idieresis" horiz-adv-x="598" unicode="ï"/><glyph d="M918 1468l-50 -82q305 -172 306 -690q0 -160 -27 -283.5t-89.5 -226t-180 -158t-285.5 -55.5q-231 0 -378.5 149.5t-147.5 364.5t124.5 332t317.5 117q240 0 336 -131q0 229 -127 323l-72 -118q-16 -29 -30.5 -33t-43.5 12l-22 12q-49 27 -19 76l56 94q-47 0 -94 -10 q-31 -8 -43.5 6.5t-12.5 49.5v174q0 33 12.5 48t43.5 17q45 4 71 4q94 0 178 -22l60 100q14 29 30.5 33t42.5 -12l23 -15q29 -16 33 -31.5t-12 -44.5zM610 252q98 0 156.5 59.5t58.5 153.5q0 92 -58 151.5t-157 59.5q-90 0 -152.5 -61.5t-62.5 -149.5q0 -94 59.5 -153.5 t155.5 -59.5z" glyph-name="eth" horiz-adv-x="1265" unicode="ð"/><glyph d="M414 913q72 78 135 115t164 37q190 0 290.5 -108.5t100.5 -374.5v-527q0 -33 -11.5 -44t-43.5 -11h-203q-33 0 -44 11.5t-11 43.5v465q0 143 -34 204.5t-124 61.5q-92 0 -129 -61t-37 -205v-465q0 -33 -11.5 -44t-43.5 -11h-203q-33 0 -44 11.5t-11 43.5v465v467 q0 33 11 44t44 11h98q23 0 35 -11t31 -44zM764 1442q18 0 38.5 20.5t31.5 44.5q10 29 24 34t45 -5l78 -35q33 -12 39 -26.5t-6 -44.5q-74 -195 -236 -195q-88 0 -174 49q-16 8 -38.5 20.5t-33 17.5t-23.5 9t-28 4q-18 0 -38.5 -20.5t-30.5 -44.5q-12 -29 -25.5 -34t-44.5 5 l-78 35q-33 12 -39 26.5t6 45.5q74 195 236 194q88 0 174 -49q16 -8 38.5 -20.5t33 -17.5t24 -9t27.5 -4z" glyph-name="ntilde" unicode="ñ"/><glyph d="M78 520q0 225 159.5 385t385 160t385 -160t159.5 -385q0 -223 -159.5 -383t-385 -160t-385 160t-159.5 383zM622.5 250q96.5 0 165 78t68.5 192.5t-68.5 190t-165 75.5t-165 -75.5t-68.5 -190t68.5 -192.5t165 -78zM512 1206l-131 97q-27 23 -30 38t11 39l76 123 q41 63 78 19l256 -283q59 -66 -2 -65h-172q-47 -1 -86 32z" glyph-name="ograve" horiz-adv-x="1245" unicode="ò"/><glyph d="M78 520q0 225 159.5 385t385 160t385 -160t159.5 -385q0 -223 -159.5 -383t-385 -160t-385 160t-159.5 383zM622.5 250q96.5 0 165 78t68.5 192.5t-68.5 190t-165 75.5t-165 -75.5t-68.5 -190t68.5 -192.5t165 -78zM868 1303l-131 -97q-39 -33 -86 -32h-172q-61 0 -2 65 l256 283q37 45 78 -19l76 -123q14 -25 11 -39.5t-30 -37.5z" glyph-name="oacute" horiz-adv-x="1245" unicode="ó"/><glyph d="M78 520q0 225 159.5 385t385 160t385 -160t159.5 -385q0 -223 -159.5 -383t-385 -160t-385 160t-159.5 383zM622.5 250q96.5 0 165 78t68.5 192.5t-68.5 190t-165 75.5t-165 -75.5t-68.5 -190t68.5 -192.5t165 -78zM555 1542h135q39 -2 78 -55l178 -258q33 -55 -22 -55 h-123q-51 0 -82 55l-96 160l-97 -160q-31 -55 -82 -55h-122q-55 0 -23 55l178 258q39 53 78 55z" glyph-name="ocircumflex" horiz-adv-x="1245" unicode="ô"/><glyph d="M78 520q0 225 159.5 385t385 160t385 -160t159.5 -385q0 -223 -159.5 -383t-385 -160t-385 160t-159.5 383zM622.5 250q96.5 0 165 78t68.5 192.5t-68.5 190t-165 75.5t-165 -75.5t-68.5 -190t68.5 -192.5t165 -78zM764 1442q18 0 38.5 20.5t31.5 44.5q10 29 24 34t45 -5 l78 -35q33 -12 39 -26.5t-6 -44.5q-74 -195 -236 -195q-88 0 -174 49q-16 8 -38.5 20.5t-33 17.5t-23.5 9t-28 4q-18 0 -38.5 -20.5t-30.5 -44.5q-12 -29 -25.5 -34t-44.5 5l-78 35q-33 12 -39 26.5t6 45.5q74 195 236 194q88 0 174 -49q16 -8 38.5 -20.5t33 -17.5t24 -9 t27.5 -4z" glyph-name="otilde" horiz-adv-x="1245" unicode="õ"/><glyph d="M78 520q0 225 159.5 385t385 160t385 -160t159.5 -385q0 -223 -159.5 -383t-385 -160t-385 160t-159.5 383zM622.5 250q96.5 0 165 78t68.5 192.5t-68.5 190t-165 75.5t-165 -75.5t-68.5 -190t68.5 -192.5t165 -78zM266 1355.5q0 61.5 41 104.5t102.5 43t104.5 -43 t43 -104.5t-43 -102.5t-104.5 -41t-102.5 41t-41 102.5zM702 1355.5q0 61.5 41 104.5t102.5 43t104.5 -43t43 -104.5t-43 -102.5t-104.5 -41t-102.5 41t-41 102.5z" glyph-name="odieresis" horiz-adv-x="1245" unicode="ö"/><glyph d="M1040 514h-903q-33 0 -44 11.5t-11 43.5v111q0 33 11 44t44 11h903q33 0 44.5 -11t11.5 -44v-111q0 -33 -11.5 -44t-44.5 -11zM434 233.5q0 65.5 44 110.5t108 45q66 0 110.5 -45t44.5 -111q0 -63 -45 -107t-110.5 -44t-108.5 43t-43 108.5zM434 1014q0 66 44 110.5 t108 44.5q66 0 110.5 -46t44.5 -109.5t-45 -107.5t-110.5 -44t-108.5 44.5t-43 107.5z" glyph-name="divide" horiz-adv-x="1177" unicode="÷"/><glyph d="M66 520q0 225 159.5 385t384.5 160q82 0 158 -25l25 50q23 45 69 45h99q76 0 49 -56l-68 -129q98 -78 155.5 -189.5t57.5 -240.5q0 -223 -159.5 -383t-385.5 -160q-80 0 -159 23l-25 -47q-23 -45 -70 -45h-98q-78 0 -49 55l65 129q-96 76 -152 187.5t-56 240.5zM610 250 q96 0 165 78t69 192q0 86 -43 156l-219 -424q8 -2 28 -2zM377 520q0 -90 41 -155l217 419q-4 0 -12.5 1t-12.5 1q-96 0 -164.5 -75.5t-68.5 -190.5z" glyph-name="oslash" horiz-adv-x="1232" unicode="ø"/><glyph d="M813 129q-72 -78 -135.5 -115t-163.5 -37q-190 0 -290.5 109t-100.5 375v526q0 33 11 44t44 11h203q33 0 44 -11t11 -44v-465q0 -143 34 -204.5t124 -61.5q92 0 129 61.5t37 204.5v465q0 33 11 44t44 11h203q33 0 44 -11t11 -44v-465v-467q0 -33 -11 -44t-44 -11h-98 q-23 0 -35.5 11.5t-30.5 43.5zM471 1206l-131 97q-27 23 -30 38t12 39l75 123q41 63 78 19l256 -283q59 -66 -2 -65h-172q-47 -1 -86 32z" glyph-name="ugrave" unicode="ù"/><glyph d="M854 55l-41 74q-72 -78 -135.5 -115t-163.5 -37q-190 0 -290.5 109t-100.5 375v526q0 33 11 44t44 11h203q33 0 44 -11t11 -44v-465q0 -143 34 -204.5t124 -61.5q92 0 129 61.5t37 204.5v465q0 33 11 44t44 11h203q33 0 44 -11t11 -44v-465v-467q0 -33 -11 -44t-44 -11 h-98q-23 0 -35.5 11t-30.5 44zM842 1303l-131 -97q-39 -33 -86 -32h-172q-61 0 -2 65l256 283q37 45 77 -19l76 -123q14 -25 11.5 -39.5t-29.5 -37.5z" glyph-name="uacute" unicode="ú"/><glyph d="M813 129q-72 -78 -135.5 -115t-163.5 -37q-190 0 -290.5 109t-100.5 375v526q0 33 11 44t44 11h203q33 0 44 -11t11 -44v-465q0 -143 34 -204.5t124 -61.5q92 0 129 61.5t37 204.5v465q0 33 11 44t44 11h203q33 0 44 -11t11 -44v-465v-467q0 -33 -11 -44t-44 -11h-98 q-23 0 -35.5 11.5t-30.5 43.5zM537 1542h135q39 -2 78 -55l178 -258q35 -55 -23 -55h-123q-51 0 -82 55l-96 160l-96 -160q-31 -55 -82 -55h-123q-55 0 -22 55l178 258q39 53 78 55z" glyph-name="ucircumflex" unicode="û"/><glyph d="M813 129q-72 -78 -135.5 -115t-163.5 -37q-190 0 -290.5 109t-100.5 375v526q0 33 11 44t44 11h203q33 0 44 -11t11 -44v-465q0 -143 34 -204.5t124 -61.5q92 0 129 61.5t37 204.5v465q0 33 11 44t44 11h203q33 0 44 -11t11 -44v-465v-467q0 -33 -11 -44t-44 -11h-98 q-23 0 -35.5 11.5t-30.5 43.5zM244 1355.5q0 61.5 41 104.5t102.5 43t104.5 -43t43 -104.5t-43 -102.5t-104.5 -41t-102.5 41t-41 102.5zM680 1355.5q0 61.5 41 104.5t102.5 43t104.5 -43t43 -104.5t-43 -102.5t-104.5 -41t-102.5 41t-41 102.5z" glyph-name="udieresis" unicode="ü"/><glyph d="M569 485l224 502q18 33 31.5 44t39.5 11h230q29 0 35 -11t-9 -44l-616 -1349q-18 -33 -31.5 -44.5t-40.5 -11.5h-229q-29 0 -35 11.5t8 44.5l227 497l-391 852q-14 33 -8 44t35 11h229q27 0 40.5 -11t31.5 -44l227 -504zM797 1303l-131 -97q-39 -33 -86 -32h-172 q-61 0 -2 65l256 283q37 45 77 -19l76 -123q14 -25 11.5 -39.5t-29.5 -37.5z" glyph-name="yacute" horiz-adv-x="1132" unicode="ý"/><glyph d="M762 0h-305v-362q0 -33 -11.5 -44.5t-44.5 -11.5h-202q-33 0 -44.5 11.5t-11.5 44.5v1767q0 33 11.5 44t44.5 11h202q33 0 44.5 -11t11.5 -44v-363h305q201 0 336 -150.5t135 -369.5q0 -225 -134 -373.5t-337 -148.5zM457 279h231q98 0 166 65.5t68 178t-68 180 t-166 67.5h-231v-491z" glyph-name="thorn" horiz-adv-x="1310" unicode="þ"/><glyph d="M569 485l224 502q18 33 31.5 44t39.5 11h230q29 0 35 -11t-9 -44l-616 -1349q-18 -33 -31.5 -44.5t-40.5 -11.5h-229q-29 0 -35 11.5t8 44.5l227 497l-391 852q-14 33 -8 44t35 11h229q27 0 40.5 -11t31.5 -44l227 -504zM211 1355.5q0 61.5 41 104.5t102.5 43t104.5 -43 t43 -104.5t-43 -102.5t-104.5 -41t-102.5 41t-41 102.5zM647 1355.5q0 61.5 41 104.5t102.5 43t104.5 -43t43 -104.5t-43 -102.5t-104.5 -41t-102.5 41t-41 102.5z" glyph-name="ydieresis" horiz-adv-x="1132" unicode="ÿ"/><glyph d="M774 901h-4l-174 -352h352zM819 1405l717 -1350q10 -20 -1 -37.5t-34 -17.5h-262q-27 0 -40 11.5t-32 43.5l-108 211h-576l-108 -211q-18 -33 -31.5 -44t-40.5 -11h-262q-23 0 -34 17.5t-1 37.5l717 1350q4 8 10 19.5t9 15.5l7.5 10t8.5 8t10 2h6q6 0 10 -2t8.5 -8 l7.5 -10t9 -15.5t10 -19.5zM1022 1632h-498q-33 0 -44 11.5t-11 44.5v108q0 33 11.5 44t43.5 11h498q33 0 44 -11t11 -44v-108q0 -33 -11 -44.5t-44 -11.5z" glyph-name="Amacron" horiz-adv-x="1542" unicode="Ā"/><glyph d="M256 772q-29 -4 -40 7.5t-19 43.5l-35 138q-8 31 -2 44t33 21q35 8 152.5 23.5t209.5 15.5q160 0 260 -33t148.5 -105.5t62.5 -152.5t14 -211v-508q0 -33 -11 -44t-44 -11h-117q-23 0 -35 11.5t-26 43.5l-21 51q-47 -39 -75.5 -59t-105.5 -45t-171 -25 q-143 0 -249.5 89.5t-106.5 255.5q0 158 110.5 243.5t266.5 85.5q152 0 272 -39q0 104 -36 145.5t-150 41.5q-133 0 -285 -27zM535 434q-78 0 -112 -33.5t-34 -78.5q0 -37 34 -74t112 -37q90 0 192 102v88q-131 33 -192 33zM827 1241h-497q-33 0 -44.5 11.5t-11.5 43.5v109 q0 33 11.5 44t44.5 11h497q33 0 44.5 -11t11.5 -44v-109q0 -33 -11.5 -44t-44.5 -11z" glyph-name="amacron" horiz-adv-x="1159" unicode="ā"/><glyph d="M774 901h-4l-174 -352h352zM819 1405l717 -1350q10 -20 -1 -37.5t-34 -17.5h-262q-27 0 -40 11.5t-32 43.5l-108 211h-576l-108 -211q-18 -33 -31.5 -44t-40.5 -11h-262q-23 0 -34 17.5t-1 37.5l717 1350q4 8 10 19.5t9 15.5l7.5 10t8.5 8t10 2h6q6 0 10 -2t8.5 -8 l7.5 -10t9 -15.5t10 -19.5zM772 1595q-94 0 -185 41t-138 146q-31 72 10 92l92 49q45 25 65.5 -20t33 -63.5t43 -34t79.5 -15.5q51 0 82 15.5t42 32.5t34 65q20 45 65 20l92 -49q41 -20 11 -92q-47 -104 -139.5 -145.5t-186.5 -41.5z" glyph-name="Abreve" horiz-adv-x="1542" unicode="Ă"/><glyph d="M256 772q-29 -4 -40 7.5t-19 43.5l-35 138q-8 31 -2 44t33 21q35 8 152.5 23.5t209.5 15.5q160 0 260 -33t148.5 -105.5t62.5 -152.5t14 -211v-508q0 -33 -11 -44t-44 -11h-117q-23 0 -35 11.5t-26 43.5l-21 51q-47 -39 -75.5 -59t-105.5 -45t-171 -25 q-143 0 -249.5 89.5t-106.5 255.5q0 158 110.5 243.5t266.5 85.5q152 0 272 -39q0 104 -36 145.5t-150 41.5q-133 0 -285 -27zM535 434q-78 0 -112 -33.5t-34 -78.5q0 -37 34 -74t112 -37q90 0 192 102v88q-131 33 -192 33zM581.5 1204q-94.5 0 -185.5 41t-138 146 q-31 72 10 92l92 49q45 25 65.5 -20.5t33 -63.5t43 -33.5t80.5 -15.5q51 0 81.5 15.5t42 32.5t33.5 64q20 45 66 21l92 -49q41 -20 10 -92q-47 -104 -139 -145.5t-186.5 -41.5z" glyph-name="abreve" horiz-adv-x="1159" unicode="ă"/><glyph d="M1188 20l-129 246h-576l-108 -211q-18 -33 -31.5 -44t-40.5 -11h-262q-23 0 -34 17.5t-1 37.5l717 1350q4 8 10 19.5t9 15.5l7.5 10t8.5 8t10 2h6q6 0 10 -2t8.5 -8l7.5 -10t9 -15.5t10 -19.5l717 -1350q10 -20 -1 -37.5t-34 -17.5h-164q-43 -25 -87 -75t-44 -103 q0 -147 111 -148q23 0 92 4q35 0 45 -8t10 -39v-41q0 -31 -10 -41t-45 -14q-57 -6 -113 -6q-115 0 -185.5 59.5t-70.5 178.5q1 144 148 253zM772 905l-178 -356h352l-172 354z" glyph-name="Aogonek" horiz-adv-x="1542" unicode="Ą"/><glyph d="M1063 -465q-57 -6 -113 -6q-115 0 -185.5 59.5t-70.5 178.5q0 145 137 245q-14 14 -24 43l-21 51q-47 -39 -75.5 -59t-105.5 -45t-171 -25q-143 0 -249.5 89.5t-106.5 255.5q0 158 110.5 243.5t266.5 85.5q152 0 272 -39q0 104 -36 145.5t-150 41.5q-133 0 -285 -27 q-29 -4 -40 7.5t-19 43.5l-35 138q-8 31 -2 44t33 21q35 8 152.5 23.5t209.5 15.5q160 0 260 -33t148.5 -105.5t62.5 -152.5t14 -211v-508q0 -31 -11 -43t-38 -12q-43 -25 -87 -75t-44 -103q0 -147 111 -148q23 0 92 4q35 0 45 -8t10 -39v-41q0 -31 -10 -41t-45 -14z M535 434q-78 0 -112 -33.5t-34 -78.5q0 -37 34 -74t112 -37q90 0 192 102v88q-131 33 -192 33z" glyph-name="aogonek" horiz-adv-x="1144" unicode="ą"/><glyph d="M803 262q190 0 325 146q25 23 40.5 20.5t37.5 -27.5l127 -139q23 -27 25 -40t-19 -38q-98 -96 -242.5 -153.5t-293.5 -57.5q-303 0 -520 219.5t-217 524.5t217 524t520 219q150 0 294 -57t242 -154q20 -25 18.5 -38t-24.5 -40l-127 -139q-23 -25 -38 -26.5t-40 20.5 q-135 145 -325 145q-182 0 -291 -136t-109 -318q0 -180 110 -317.5t290 -137.5zM991 1694l-131 -97q-39 -33 -86 -32h-172q-61 0 -2 65l256 283q37 45 78 -19l76 -122q14 -25 11 -40t-30 -38z" glyph-name="Cacute" horiz-adv-x="1482" unicode="Ć"/><glyph d="M608 256q121 0 189 63q25 20 39 17.5t38 -29.5l103 -112q20 -25 23.5 -35t-13.5 -29q-156 -154 -379 -154t-382.5 159t-159.5 384t159.5 385t382.5 160t379 -154q16 -18 13 -28.5t-23 -34.5l-103 -113q-25 -27 -39 -30t-38 18q-68 63 -189 63q-96 0 -164.5 -75.5 t-68.5 -190t68.5 -189.5t164.5 -75zM852 1303l-131 -97q-39 -33 -86 -32h-172q-61 0 -2 65l256 283q37 45 78 -19l75 -123q14 -25 11.5 -39.5t-29.5 -37.5z" glyph-name="cacute" horiz-adv-x="1026" unicode="ć"/><glyph d="M803 262q190 0 325 146q25 23 40.5 20.5t37.5 -27.5l127 -139q23 -27 25 -40t-19 -38q-98 -96 -242.5 -153.5t-293.5 -57.5q-303 0 -520 219.5t-217 524.5t217 524t520 219q150 0 294 -57t242 -154q20 -25 18.5 -38t-24.5 -40l-127 -139q-23 -25 -38 -26.5t-40 20.5 q-135 145 -325 145q-182 0 -291 -136t-109 -318q0 -180 110 -317.5t290 -137.5zM731 1933h135q39 -2 78 -55l178 -258q33 -55 -22 -55h-123q-51 0 -82 55l-96 160l-97 -160q-31 -55 -81 -55h-123q-55 0 -23 55l178 258q39 53 78 55z" glyph-name="Ccircumflex" horiz-adv-x="1482" unicode="Ĉ"/><glyph d="M608 256q121 0 189 63q25 20 39 17.5t38 -29.5l103 -112q20 -25 23.5 -35t-13.5 -29q-156 -154 -379 -154t-382.5 159t-159.5 384t159.5 385t382.5 160t379 -154q16 -18 13 -28.5t-23 -34.5l-103 -113q-25 -27 -39 -30t-38 18q-68 63 -189 63q-96 0 -164.5 -75.5 t-68.5 -190t68.5 -189.5t164.5 -75zM522 1542h135q39 -2 78 -55l178 -258q33 -55 -22 -55h-123q-51 0 -82 55l-96 160l-96 -160q-31 -55 -82 -55h-123q-57 0 -23 55l178 258q39 53 78 55z" glyph-name="ccircumflex" horiz-adv-x="1026" unicode="ĉ"/><glyph d="M803 262q190 0 325 146q25 23 40.5 20.5t37.5 -27.5l127 -139q23 -27 25 -40t-19 -38q-98 -96 -242.5 -153.5t-293.5 -57.5q-303 0 -520 219.5t-217 524.5t217 524t520 219q150 0 294 -57t242 -154q20 -25 18.5 -38t-24.5 -40l-127 -139q-23 -25 -38 -26.5t-40 20.5 q-135 145 -325 145q-182 0 -291 -136t-109 -318q0 -180 110 -317.5t290 -137.5zM618 1745q0 76 51.5 129t127 53t129 -53t53.5 -129t-53.5 -127t-129 -51t-127 51t-51.5 127z" glyph-name="Cdotaccent" horiz-adv-x="1482" unicode="Ċ"/><glyph d="M608 256q121 0 189 63q25 20 39 17.5t38 -29.5l103 -112q20 -25 23.5 -35t-13.5 -29q-156 -154 -379 -154t-382.5 159t-159.5 384t159.5 385t382.5 160t379 -154q16 -18 13 -28.5t-23 -34.5l-103 -113q-25 -27 -39 -30t-38 18q-68 63 -189 63q-96 0 -164.5 -75.5 t-68.5 -190t68.5 -189.5t164.5 -75zM422 1354q0 76 51 129t127 53t129 -53t53 -129t-53 -127t-129 -51t-127 51t-51 127z" glyph-name="cdotaccent" horiz-adv-x="1026" unicode="ċ"/><glyph d="M803 262q190 0 325 146q25 23 40.5 20.5t37.5 -27.5l127 -139q23 -27 25 -40t-19 -38q-98 -96 -242.5 -153.5t-293.5 -57.5q-303 0 -520 219.5t-217 524.5t217 524t520 219q150 0 294 -57t242 -154q20 -25 18.5 -38t-24.5 -40l-127 -139q-23 -25 -38 -26.5t-40 20.5 q-135 145 -325 145q-182 0 -291 -136t-109 -318q0 -180 110 -317.5t290 -137.5zM852 1565h-135q-39 2 -78 55l-178 258q-33 55 22 55h123q51 0 82 -55l96 -160l97 160q31 55 82 55h122q57 0 23 -55l-178 -258q-39 -53 -78 -55z" glyph-name="Ccaron" horiz-adv-x="1482" unicode="Č"/><glyph d="M608 256q121 0 189 63q25 20 39 17.5t38 -29.5l103 -112q20 -25 23.5 -35t-13.5 -29q-156 -154 -379 -154t-382.5 159t-159.5 384t159.5 385t382.5 160t379 -154q16 -18 13 -28.5t-23 -34.5l-103 -113q-25 -27 -39 -30t-38 18q-68 63 -189 63q-96 0 -164.5 -75.5 t-68.5 -190t68.5 -189.5t164.5 -75zM655 1174h-135q-39 2 -78 55l-178 258q-33 55 23 55h123q51 0 82 -55l96 -160l96 160q31 55 82 55h123q57 0 22 -55l-178 -258q-39 -53 -78 -55z" glyph-name="ccaron" horiz-adv-x="1026" unicode="č"/><glyph d="M195 1434h524q305 0 520 -207t215 -510t-215 -510t-520 -207h-524q-33 0 -44.5 11.5t-11.5 43.5v1323q0 33 11.5 44.5t44.5 11.5zM717 1157h-244v-881h244q186 0 292.5 130.5t106.5 310.5q0 182 -106.5 311t-292.5 129zM768 1565h-135q-39 2 -78 55l-178 258 q-33 55 22 55h123q51 0 82 -55l96 -160l97 160q31 55 82 55h122q55 0 23 -55l-178 -258q-39 -53 -78 -55z" glyph-name="Dcaron" horiz-adv-x="1531" unicode="Ď"/><glyph d="M854 926v530q0 33 11.5 44t43.5 11h203q33 0 44 -11t11 -44v-1401q0 -33 -11 -44t-44 -11h-94q-23 0 -35 11.5t-31 43.5l-41 74q-145 -152 -362 -152q-199 0 -335 161t-136 382q0 227 135 386t336 159q104 0 190 -46t115 -93zM622.5 250q96.5 0 165 78t68.5 192.5 t-68.5 190t-165 75.5t-165 -75.5t-68.5 -190t68.5 -192.5t165 -78zM1593 1122h-4q-80 2 -134 57.5t-54 135.5q0 82 55 139t137 57q94 0 151.5 -70.5t57.5 -191.5q0 -145 -97 -271t-228 -185q-23 -10 -33 6l-55 86q-10 18 10 33q159 100 194 204z" glyph-name="dcaron" horiz-adv-x="1689" unicode="ď"/><glyph d="M86 858h172v520q0 33 11.5 44.5t43.5 11.5h525q305 0 520 -207t215 -510t-215 -510t-520 -207h-525q-33 0 -44 11.5t-11 43.5v537h-172q-33 0 -44 11t-11 44v156q0 33 11 44t44 11zM836 1157h-244v-299h219q33 0 44 -11t11 -44v-156q0 -33 -11 -44t-44 -11h-219v-316h244 q186 0 292.5 130.5t106.5 310.5q0 182 -106.5 311t-292.5 129z" glyph-name="Dcroat" horiz-adv-x="1658" unicode="Đ"/><glyph d="M1221 1120h-54v-1065q0 -33 -11 -44t-44 -11h-94q-23 0 -35 11.5t-31 43.5l-41 74q-145 -152 -362 -152q-199 0 -335 161t-136 382q0 227 135 386t336 159q104 0 190 -46t115 -93v194h-111q-33 0 -44 11.5t-11 44.5v90q0 33 11.5 44t43.5 11h111v104q0 33 11.5 44.5 t43.5 11.5h203q33 0 44 -11.5t11 -44.5v-104h54q33 0 44 -11.5t11 -43.5v-90q0 -33 -11 -44.5t-44 -11.5zM622.5 250q96.5 0 165 78t68.5 192.5t-68.5 190t-165 75.5t-165 -75.5t-68.5 -190t68.5 -192.5t165 -78z" glyph-name="dcroat" horiz-adv-x="1347" unicode="đ"/><glyph d="M1139 0h-930q-33 0 -44 11.5t-11 43.5v1323q0 33 11 44.5t44 11.5h930q33 0 44 -11.5t11 -44.5v-172q0 -33 -11.5 -44t-43.5 -11h-652v-289h625q33 0 44 -11t11 -44v-172q0 -33 -11 -44t-44 -11h-625v-297h652q33 0 44 -11.5t11 -44.5v-172q0 -33 -11 -44t-44 -11z M920 1640h-498q-33 0 -44 11.5t-11 44.5v108q0 33 11 44.5t44 11.5h498q33 0 44 -11.5t11 -44.5v-108q0 -33 -11 -44.5t-44 -11.5z" glyph-name="Emacron" horiz-adv-x="1310" unicode="Ē"/><glyph d="M1036 193q20 -25 22.5 -38.5t-11.5 -31.5q-68 -68 -182.5 -107t-233.5 -39q-231 0 -392 159t-161 384t159.5 385t383.5 160q248 0 380 -169t132 -415q0 -35 -10.5 -47t-41.5 -12h-680q27 -80 91.5 -129t144.5 -49q121 0 240 53q6 2 16 7t13 6t10.5 3t10.5 1t8 -3t10 -6 t11 -12zM813 621q-45 190 -199 190q-164 0 -204 -190h403zM870 1241h-497q-33 0 -44.5 11.5t-11.5 43.5v109q0 33 11.5 44t44.5 11h497q33 0 44.5 -11t11.5 -44v-109q0 -33 -11.5 -44t-44.5 -11z" glyph-name="emacron" horiz-adv-x="1198" unicode="ē"/><glyph d="M1139 0h-930q-33 0 -44 11.5t-11 43.5v1323q0 33 11 44.5t44 11.5h930q33 0 44 -11.5t11 -44.5v-172q0 -33 -11.5 -44t-43.5 -11h-652v-289h625q33 0 44 -11t11 -44v-172q0 -33 -11 -44t-44 -11h-625v-297h652q33 0 44 -11.5t11 -44.5v-172q0 -33 -11 -44t-44 -11z M667.5 1595q-94.5 0 -185.5 41t-138 146q-31 72 10 92l92 49q45 25 65.5 -20t33 -63.5t43 -34t80.5 -15.5q51 0 81.5 15.5t42 32.5t33.5 65q20 45 66 20l92 -49q41 -20 10 -92q-47 -104 -139 -145.5t-186.5 -41.5z" glyph-name="Ebreve" horiz-adv-x="1310" unicode="Ĕ"/><glyph d="M1036 193q20 -25 22.5 -38.5t-11.5 -31.5q-68 -68 -182.5 -107t-233.5 -39q-231 0 -392 159t-161 384t159.5 385t383.5 160q248 0 380 -169t132 -415q0 -35 -10.5 -47t-41.5 -12h-680q27 -80 91.5 -129t144.5 -49q121 0 240 53q6 2 16 7t13 6t10.5 3t10.5 1t8 -3t10 -6 t11 -12zM813 621q-45 190 -199 190q-164 0 -204 -190h403zM616.5 1204q-94.5 0 -185.5 41t-138 146q-31 72 10 92l92 49q45 25 65.5 -20.5t33 -63.5t43 -33.5t79.5 -15.5q51 0 82 15.5t42.5 32.5t33.5 64q20 45 66 21l92 -49q41 -20 10 -92q-47 -104 -139 -145.5 t-186.5 -41.5z" glyph-name="ebreve" horiz-adv-x="1198" unicode="ĕ"/><glyph d="M1139 0h-930q-33 0 -44 11.5t-11 43.5v1323q0 33 11 44.5t44 11.5h930q33 0 44 -11.5t11 -44.5v-172q0 -33 -11.5 -44t-43.5 -11h-652v-289h625q33 0 44 -11t11 -44v-172q0 -33 -11 -44t-44 -11h-625v-297h652q33 0 44 -11.5t11 -44.5v-172q0 -33 -11 -44t-44 -11z M506 1745q0 76 51 129t127 53t129 -53t53 -129t-53 -127t-129 -51t-127 51t-51 127z" glyph-name="Edotaccent" horiz-adv-x="1310" unicode="Ė"/><glyph d="M1036 193q20 -25 22.5 -38.5t-11.5 -31.5q-68 -68 -182.5 -107t-233.5 -39q-231 0 -392 159t-161 384t159.5 385t383.5 160q248 0 380 -169t132 -415q0 -35 -10.5 -47t-41.5 -12h-680q27 -80 91.5 -129t144.5 -49q121 0 240 53q6 2 16 7t13 6t10.5 3t10.5 1t8 -3t10 -6 t11 -12zM813 621q-45 190 -199 190q-164 0 -204 -190h403zM438 1354q0 76 51.5 129t127 53t129 -53t53.5 -129t-53.5 -127t-129 -51t-127 51t-51.5 127z" glyph-name="edotaccent" horiz-adv-x="1198" unicode="ė"/><glyph d="M1178 0q-43 -25 -87 -75t-44 -103q0 -147 110 -148q23 0 92 4q35 0 45.5 -8t10.5 -39v-41q0 -31 -10.5 -41t-45.5 -14q-57 -6 -112 -6q-115 0 -185.5 59.5t-70.5 178.5q0 135 120 233h-792q-33 0 -44 11.5t-11 43.5v1323q0 33 11 44.5t44 11.5h930q33 0 44 -11.5 t11 -44.5v-172q0 -33 -11.5 -44t-43.5 -11h-652v-289h598q33 0 44.5 -11t11.5 -44v-172q0 -33 -11.5 -44t-44.5 -11h-598v-297h652q33 0 44 -11.5t11 -44.5v-172q0 -45 -16 -55z" glyph-name="Eogonek" horiz-adv-x="1325" unicode="Ę"/><glyph d="M700 -18q-102 -78 -102 -160q0 -147 111 -148q23 0 92 4q35 0 45 -8t10 -39v-41q0 -31 -10 -41t-45 -14q-57 -6 -113 -6q-115 0 -185.5 59.5t-70.5 178.5q0 125 103 219q-197 33 -327 183t-130 351q0 225 159.5 385t383.5 160q246 0 379 -163t133 -382v-39 q0 -35 -10.5 -47t-41.5 -12h-680q27 -80 91.5 -129t144.5 -49q121 0 240 53q6 2 14 6t11 6t9.5 4t9.5 2t8 -1t9 -4t8 -7l10 -10l80 -100q20 -25 22.5 -38.5t-11.5 -31.5q-122 -121 -347 -141zM410 621h403q-45 190 -199 190q-163 0 -204 -190z" glyph-name="eogonek" horiz-adv-x="1198" unicode="ę"/><glyph d="M1139 0h-930q-33 0 -44 11.5t-11 43.5v1323q0 33 11 44.5t44 11.5h930q33 0 44 -11.5t11 -44.5v-172q0 -33 -11.5 -44t-43.5 -11h-652v-289h625q33 0 44 -11t11 -44v-172q0 -33 -11 -44t-44 -11h-625v-297h652q33 0 44 -11.5t11 -44.5v-172q0 -33 -11 -44t-44 -11z M729 1565h-135q-39 2 -78 55l-178 258q-35 55 22 55h123q51 0 82 -55l97 -160l96 160q31 55 82 55h123q57 0 22 -55l-178 -258q-39 -53 -78 -55z" glyph-name="Ecaron" horiz-adv-x="1331" unicode="Ě"/><glyph d="M1036 193q20 -25 22.5 -38.5t-11.5 -31.5q-68 -68 -182.5 -107t-233.5 -39q-231 0 -392 159t-161 384t159.5 385t383.5 160q248 0 380 -169t132 -415q0 -35 -10.5 -47t-41.5 -12h-680q27 -80 91.5 -129t144.5 -49q121 0 240 53q6 2 16 7t13 6t10.5 3t10.5 1t8 -3t10 -6 t11 -12zM813 621q-45 190 -199 190q-164 0 -204 -190h403zM670 1174h-135q-39 2 -78 55l-178 258q-33 55 22 55h123q51 0 82 -55l96 -160l96 160q31 55 82 55h123q55 0 23 -55l-178 -258q-39 -53 -78 -55z" glyph-name="ecaron" horiz-adv-x="1198" unicode="ě"/><glyph d="M823 1171q-182 0 -290.5 -136t-108.5 -318q0 -180 109.5 -317.5t289.5 -137.5q145 0 250 72v178h-196q-33 0 -44.5 11.5t-11.5 43.5v172q0 33 11.5 44.5t44.5 11.5h475q33 0 44 -11.5t11 -44.5v-477q0 -41 -33 -74q-100 -98 -249.5 -156.5t-301.5 -58.5 q-303 0 -520 219.5t-217 524.5t217 524t520 219q150 0 294.5 -57t242.5 -154q20 -25 18 -38t-24 -40l-127 -139q-23 -25 -38 -26.5t-40 20.5q-136 145 -326 145zM721 1933h135q39 -2 78 -55l178 -258q35 -55 -22 -55h-123q-51 0 -82 55l-97 160l-96 -160q-31 -55 -82 -55 h-123q-57 0 -22 55l178 258q39 53 78 55z" glyph-name="Gcircumflex" horiz-adv-x="1519" unicode="Ĝ"/><glyph d="M854 117q-29 -47 -115 -93.5t-190 -46.5q-201 0 -336 159t-135 386q0 221 136 382t335 161q217 0 362 -152l41 74q18 33 30.5 44t35.5 11h94q33 0 44 -11t11 -44v-889q0 -604 -520 -604q-250 0 -422 78q-27 12 -32 23.5t2 42.5l41 167q8 35 17 41.5t38 -6.5 q174 -74 303 -73q117 0 188.5 61t71.5 229v60zM622.5 793q-96.5 0 -165 -78t-68.5 -192.5t68.5 -190.5t165 -76t165 76t68.5 190.5t-68.5 192.5t-165 78zM594 1542h135q39 -2 78 -55l178 -258q33 -55 -22 -55h-123q-51 0 -82 55l-96 160l-97 -160q-31 -55 -82 -55h-123 q-57 0 -22 55l178 258q39 53 78 55z" glyph-name="gcircumflex" horiz-adv-x="1310" unicode="ĝ"/><glyph d="M823 1171q-182 0 -290.5 -136t-108.5 -318q0 -180 109.5 -317.5t289.5 -137.5q145 0 250 72v178h-196q-33 0 -44.5 11.5t-11.5 43.5v172q0 33 11.5 44.5t44.5 11.5h475q33 0 44 -11.5t11 -44.5v-477q0 -41 -33 -74q-100 -98 -249.5 -156.5t-301.5 -58.5 q-303 0 -520 219.5t-217 524.5t217 524t520 219q150 0 294.5 -57t242.5 -154q20 -25 18 -38t-24 -40l-127 -139q-23 -25 -38 -26.5t-40 20.5q-136 145 -326 145zM784.5 1595q-94.5 0 -185.5 41t-138 146q-31 72 10 92l92 49q45 25 65.5 -20t33 -63.5t43 -34t79.5 -15.5 q51 0 82 15.5t42.5 32.5t33.5 65q20 45 66 20l92 -49q41 -20 10 -92q-47 -104 -139 -145.5t-186.5 -41.5z" glyph-name="Gbreve" horiz-adv-x="1519" unicode="Ğ"/><glyph d="M649 1204q-94 0 -185 41t-138 146q-31 72 10 92l92 49q45 25 65.5 -20.5t33 -63.5t43 -33.5t79.5 -15.5q51 0 82 15.5t42 32.5t34 64q20 45 65 21l93 -49q41 -20 10 -92q-47 -104 -139.5 -145.5t-186.5 -41.5zM854 117q-29 -47 -115 -93.5t-190 -46.5q-201 0 -336 159 t-135 386q0 221 136 382t335 161q217 0 362 -152l41 74q18 33 30.5 44t35.5 11h94q33 0 44 -11t11 -44v-889q0 -604 -520 -604q-250 0 -422 78q-27 12 -32 23.5t2 42.5l41 167q8 35 17 41.5t38 -6.5q174 -74 303 -73q117 0 188.5 61t71.5 229v60zM622.5 793 q-96.5 0 -165 -78t-68.5 -192.5t68.5 -190.5t165 -76t165 76t68.5 190.5t-68.5 192.5t-165 78z" glyph-name="gbreve" horiz-adv-x="1310" unicode="ğ"/><glyph d="M823 1171q-182 0 -290.5 -136t-108.5 -318q0 -180 109.5 -317.5t289.5 -137.5q145 0 250 72v178h-196q-33 0 -44.5 11.5t-11.5 43.5v172q0 33 11.5 44.5t44.5 11.5h475q33 0 44 -11.5t11 -44.5v-477q0 -41 -33 -74q-100 -98 -249.5 -156.5t-301.5 -58.5 q-303 0 -520 219.5t-217 524.5t217 524t520 219q150 0 294.5 -57t242.5 -154q20 -25 18 -38t-24 -40l-127 -139q-23 -25 -38 -26.5t-40 20.5q-136 145 -326 145zM614 1745q0 76 51.5 129t127 53t129 -53t53.5 -129t-53.5 -127t-129 -51t-127 51t-51.5 127z" glyph-name="Gdotaccent" horiz-adv-x="1519" unicode="Ġ"/><glyph d="M854 117q-29 -47 -115 -93.5t-190 -46.5q-201 0 -336 159t-135 386q0 221 136 382t335 161q217 0 362 -152l41 74q18 33 30.5 44t35.5 11h94q33 0 44 -11t11 -44v-889q0 -604 -520 -604q-250 0 -422 78q-27 12 -32 23.5t2 42.5l41 167q8 35 17 41.5t38 -6.5 q174 -74 303 -73q117 0 188.5 61t71.5 229v60zM622.5 793q-96.5 0 -165 -78t-68.5 -192.5t68.5 -190.5t165 -76t165 76t68.5 190.5t-68.5 192.5t-165 78zM457 1354q0 76 51 129t127 53t129 -53t53 -129t-53 -127t-129 -51t-127 51t-51 127z" glyph-name="gdotaccent" horiz-adv-x="1310" unicode="ġ"/><glyph d="M817 -532h-4q-80 2 -134 57t-54 135q0 82 55 139.5t137 57.5q94 0 151.5 -71t57.5 -192q0 -145 -97.5 -271t-228.5 -185q-20 -10 -32 6l-56 86q-10 18 11 33q159 101 194 205zM823 1171q-182 0 -290.5 -136t-108.5 -318q0 -180 109.5 -317.5t289.5 -137.5q145 0 250 72 v178h-196q-33 0 -44.5 11.5t-11.5 43.5v172q0 33 11.5 44.5t44.5 11.5h475q33 0 44 -11.5t11 -44.5v-477q0 -41 -33 -74q-100 -98 -249.5 -156.5t-301.5 -58.5q-303 0 -520 219.5t-217 524.5t217 524t520 219q150 0 294.5 -57t242.5 -154q20 -25 18 -38t-24 -40l-127 -139 q-23 -25 -38 -26.5t-40 20.5q-136 145 -326 145z" glyph-name="Gcommaaccent" horiz-adv-x="1519" unicode="Ģ"/><glyph d="M653 1563h4q80 -2 134.5 -57.5t54.5 -135.5q0 -82 -55.5 -139t-137.5 -57q-94 0 -151.5 70.5t-57.5 191.5q0 145 97.5 271t228.5 185q20 10 33 -6l55 -86q10 -18 -10 -33q-160 -100 -195 -204zM854 117q-29 -47 -115 -93.5t-190 -46.5q-201 0 -336 159t-135 386 q0 221 136 382t335 161q217 0 362 -152l41 74q18 33 30.5 44t35.5 11h94q33 0 44 -11t11 -44v-889q0 -604 -520 -604q-250 0 -422 78q-27 12 -32 23.5t2 42.5l41 167q8 35 17 41.5t38 -6.5q174 -74 303 -73q117 0 188.5 61t71.5 229v60zM622.5 793q-96.5 0 -165 -78 t-68.5 -192.5t68.5 -190.5t165 -76t165 76t68.5 190.5t-68.5 192.5t-165 78z" glyph-name="gcommaaccent" horiz-adv-x="1310" unicode="ģ"/><glyph d="M1065 854v524q0 33 11 44.5t44 11.5h223q33 0 44.5 -11.5t11.5 -44.5v-1323q0 -33 -11.5 -44t-44.5 -11h-223q-33 0 -44 11.5t-11 43.5v510h-578v-510q0 -33 -11 -44t-44 -11h-223q-33 0 -44 11.5t-11 43.5v1323q0 33 11 44.5t44 11.5h223q33 0 44 -11.5t11 -44.5v-524 h578zM705 1933h135q39 -2 78 -55l178 -258q35 -55 -23 -55h-123q-51 0 -82 55l-96 160l-96 -160q-31 -55 -82 -55h-123q-55 0 -22 55l178 258q39 53 78 55z" glyph-name="Hcircumflex" horiz-adv-x="1554" unicode="Ĥ"/><glyph d="M467 967q109 98 246 98q190 0 290.5 -108.5t100.5 -374.5v-527q0 -33 -11.5 -44t-43.5 -11h-203q-33 0 -44 11.5t-11 43.5v465q0 143 -34 204.5t-124 61.5q-92 0 -129 -61t-37 -205v-465q0 -33 -11.5 -44t-43.5 -11h-203q-33 0 -44 11.5t-11 43.5v465v936q0 33 11 44 t44 11h203q33 0 44 -11t11 -44v-489zM244 1933h135q39 -2 78 -55l178 -258q33 -55 -23 -55h-123q-51 0 -81 55l-97 160l-96 -160q-31 -55 -82 -55h-123q-55 0 -22 55l178 258q39 53 78 55z" glyph-name="hcircumflex" unicode="ĥ"/><glyph d="M1493 995h-109v-940q0 -33 -11 -44t-44 -11h-223q-33 0 -44 11.5t-11 43.5v510h-578v-510q0 -33 -11 -44t-44 -11h-223q-33 0 -44.5 11.5t-11.5 43.5v940h-108q-33 0 -44.5 11.5t-11.5 44.5v90q0 33 11.5 44t44.5 11h108v182q0 33 11.5 44.5t44.5 11.5h223q33 0 44 -11.5 t11 -44.5v-182h578v182q0 33 11 44.5t44 11.5h223q33 0 44 -11.5t11 -44.5v-182h109q33 0 44 -11t11 -44v-90q0 -33 -11 -44.5t-44 -11.5zM1051 854v141h-578v-141h578z" glyph-name="Hbar" horiz-adv-x="1523" unicode="Ħ"/><glyph d="M231 1321v104q0 33 11.5 44.5t44.5 11.5h202q33 0 44.5 -11.5t11.5 -44.5v-104h137q33 0 44 -11.5t11 -43.5v-90q0 -33 -11 -44.5t-44 -11.5h-137v-153q109 98 246 98q190 0 290.5 -108.5t100.5 -374.5v-527q0 -33 -11.5 -44t-44.5 -11h-202q-33 0 -44.5 11.5t-11.5 43.5 v465q0 143 -33.5 204.5t-123.5 61.5q-92 0 -129 -61t-37 -205v-465q0 -33 -11.5 -44t-44.5 -11h-202q-33 0 -44.5 11.5t-11.5 43.5v1065h-67q-33 0 -44 11.5t-11 44.5v90q0 33 11 44t44 11h67z" glyph-name="hbar" horiz-adv-x="1288" unicode="ħ"/><glyph d="M139 55v1323q0 33 11.5 44.5t44.5 11.5h223q33 0 44 -11.5t11 -44.5v-1323q0 -33 -11 -44t-44 -11h-223q-33 0 -44.5 11t-11.5 44zM449 1833q18 0 38.5 20.5t30.5 44.5q10 29 24.5 34t45.5 -5l78 -35q33 -12 39 -26.5t-7 -44.5q-74 -195 -235 -195q-88 0 -174 49 q-16 8 -39 20.5t-33 17.5t-23.5 9t-27.5 4q-18 0 -39 -20t-31 -45q-12 -29 -25.5 -34t-43.5 5l-78 35q-33 12 -39 26.5t6 45.5q74 195 236 194q88 0 174 -49q16 -8 38.5 -20.5t33 -17.5t24 -9t27.5 -4z" glyph-name="Itilde" horiz-adv-x="612" unicode="Ĩ"/><glyph d="M143 55v932q0 33 11.5 44t44.5 11h202q33 0 44.5 -11t11.5 -44v-932q0 -33 -11.5 -44t-44.5 -11h-202q-33 0 -44.5 11t-11.5 44zM440 1442q18 0 39 20.5t31 44.5q10 29 24.5 34t45.5 -5l77 -35q33 -12 39 -26.5t-6 -44.5q-74 -195 -235 -195q-88 0 -174 49 q-16 8 -39 20.5t-33 17.5t-23.5 9t-27.5 4q-18 0 -39 -20.5t-31 -44.5q-12 -29 -25.5 -34t-44.5 5l-77 35q-33 12 -39 26.5t6 45.5q74 195 235 194q88 0 174 -49q16 -8 39 -20.5t33 -17.5t23.5 -9t27.5 -4z" glyph-name="itilde" horiz-adv-x="598" unicode="ĩ"/><glyph d="M139 55v1323q0 33 11.5 44.5t44.5 11.5h223q33 0 44 -11.5t11 -44.5v-1323q0 -33 -11 -44t-44 -11h-223q-33 0 -44.5 11t-11.5 44zM555 1632h-498q-33 0 -44 11.5t-11 44.5v108q0 33 11.5 44t43.5 11h498q33 0 44 -11t11 -44v-108q0 -33 -11 -44.5t-44 -11.5z" glyph-name="Imacron" horiz-adv-x="612" unicode="Ī"/><glyph d="M143 55v932q0 33 11.5 44t44.5 11h202q33 0 44.5 -11t11.5 -44v-932q0 -33 -11.5 -44t-44.5 -11h-202q-33 0 -44.5 11t-11.5 44zM549 1241h-498q-33 0 -44 11.5t-11 43.5v109q0 33 11 44t44 11h498q33 0 44 -11t11 -44v-109q0 -33 -11 -44t-44 -11z" glyph-name="imacron" horiz-adv-x="598" unicode="ī"/><glyph d="M154 55v1323q0 33 11 44.5t44 11.5h223q33 0 44 -11.5t11 -44.5v-1323q0 -33 -11 -44t-44 -11h-223q-33 0 -44 11t-11 44zM319.5 1595q-94.5 0 -185.5 41t-138 146q-31 72 10 92l92 49q45 25 65.5 -20t33 -63.5t43 -34t79.5 -15.5q51 0 82 15.5t42.5 32.5t33.5 65 q20 45 66 20l92 -49q41 -20 10 -92q-47 -104 -139 -145.5t-186.5 -41.5z" glyph-name="Ibreve" horiz-adv-x="641" unicode="Ĭ"/><glyph d="M154 55v932q0 33 11 44t44 11h203q33 0 44 -11t11 -44v-932q0 -33 -11.5 -44t-43.5 -11h-203q-33 0 -44 11t-11 44zM309 1204q-94 0 -185 41t-138 146q-31 72 10 92l92 49q45 25 65.5 -20.5t33 -63.5t43 -33.5t79.5 -15.5q51 0 82 15.5t42 32.5t34 64q20 45 65 21l93 -49 q41 -20 10 -92q-47 -104 -139.5 -145.5t-186.5 -41.5z" glyph-name="ibreve" horiz-adv-x="620" unicode="ĭ"/><glyph d="M139 55v1323q0 33 11.5 44.5t44.5 11.5h223q33 0 44 -11.5t11 -44.5v-1323q0 -33 -11 -44t-44 -11h-12q-43 -25 -87.5 -75t-44.5 -103q0 -147 111 -148q23 0 92 4q35 0 45 -8t10 -39v-41q0 -31 -10 -41t-45 -14q-57 -6 -112 -6q-115 0 -185.5 59.5t-70.5 178.5 q0 137 120 233h-34q-33 0 -44.5 11t-11.5 44z" glyph-name="Iogonek" horiz-adv-x="612" unicode="Į"/><glyph d="M143 55v932q0 33 11.5 44t44.5 11h202q33 0 44.5 -11t11.5 -44v-932q0 -31 -10.5 -42t-36.5 -13q-43 -25 -87 -75t-44 -103q0 -147 110 -148q23 0 92 4q35 0 45.5 -8t10.5 -39v-41q0 -31 -10.5 -41t-45.5 -14q-57 -6 -112 -6q-115 0 -185.5 59.5t-70.5 178.5 q0 137 120 233h-34q-33 0 -44.5 11t-11.5 44zM123 1354q0 76 51 129t127 53t129 -53t53 -129t-53 -127t-129 -51t-127 51t-51 127z" glyph-name="iogonek" horiz-adv-x="598" unicode="į"/><glyph d="M164 55v1323q0 33 11 44.5t44 11.5h223q33 0 44.5 -11.5t11.5 -44.5v-1323q0 -33 -11.5 -44t-44.5 -11h-223q-33 0 -44 11t-11 44zM154 1747q0 76 51 129t127 53t129 -53t53 -129t-53 -127t-129 -51t-127 51t-51 127z" glyph-name="Idotaccent" horiz-adv-x="667" unicode="İ"/><glyph d="M154 55v932q0 33 11 44t44 11h203q33 0 44 -11t11 -44v-932q0 -33 -11.5 -44t-43.5 -11h-203q-33 0 -44 11t-11 44z" glyph-name="dotlessi" horiz-adv-x="620" unicode="ı"/><glyph d="M154 55v1323q0 33 11 44.5t44 11.5h223q33 0 44 -11.5t11 -44.5v-1323q0 -33 -11 -44t-44 -11h-223q-33 0 -44 11t-11 44zM852 1182q-33 0 -44 11t-11 44v141q0 33 11 44.5t44 11.5h518q33 0 44 -11.5t11 -44.5v-821q0 -313 -179 -446.5t-509 -137.5q-41 0 -52 10.5 t-15 45.5l-21 180q-6 53 62 53q215 0 298 64.5t83 230.5v625h-240z" glyph-name="IJ" horiz-adv-x="1548" unicode="Ĳ"/><glyph d="M178 55v932q0 33 11.5 44t43.5 11h203q33 0 44.5 -11t11.5 -44v-932q0 -33 -11.5 -44t-44.5 -11h-203q-33 0 -44 11t-11 44zM154 1354q0 76 51 129t127 53t129 -53t53 -129t-53 -127t-129 -51t-127 51t-51 127zM948 1354q0 76 51.5 129t127 53t129 -53t53.5 -129 t-53.5 -127t-129 -51t-127 51t-51.5 127zM737 848v139q0 55 56 55h436q33 0 44 -11t11 -44v-1014q0 -217 -109.5 -336.5t-310.5 -119.5q-119 0 -202 53q-25 14 -30 27.5t1 42.5l24 143q6 41 18.5 46t51.5 -13q43 -20 102 -21q143 0 144 189v809h-180q-56 0 -56 55z" glyph-name="ij" horiz-adv-x="1441" unicode="ĳ"/><glyph d="M270 1182q-33 0 -44 11t-11 44v141q0 33 11.5 44.5t43.5 11.5h518q33 0 44.5 -11.5t11.5 -44.5v-821q0 -313 -179.5 -446.5t-508.5 -137.5q-41 0 -52.5 10.5t-15.5 45.5l-20 180q-6 53 61 53q215 0 298 64.5t83 230.5v625h-240zM469 1933h135q39 -2 78 -55l178 -258 q33 -55 -22 -55h-123q-51 0 -82 55l-96 160l-97 -160q-31 -55 -82 -55h-122q-55 0 -23 55l178 258q39 53 78 55z" glyph-name="Jcircumflex" horiz-adv-x="995" unicode="Ĵ"/><glyph d="M109 848v139q0 55 55 55h436q33 0 44 -11t11 -44v-1014q0 -217 -109.5 -336.5t-309.5 -119.5q-119 0 -203 53q-25 14 -30 27.5t1 42.5l25 143q6 41 18 46t51 -13q43 -20 103 -21q143 0 143 189v809h-180q-55 0 -55 55zM315 1542h136q39 -2 77 -55l179 -258 q33 -55 -23 -55h-123q-51 0 -82 55l-96 160l-96 -160q-31 -55 -82 -55h-123q-57 0 -23 55l179 258q38 53 77 55z" glyph-name="jcircumflex" horiz-adv-x="872" unicode="ĵ"/><glyph d="M805 750l557 -695q47 -55 -25 -55h-276q-27 0 -40 10t-40 45l-494 625v-625q0 -33 -11 -44t-44 -11h-223q-33 0 -44 11.5t-11 43.5v1323q0 33 11 44.5t44 11.5h223q33 0 44 -11.5t11 -44.5v-571l478 571q29 35 42 45.5t37 10.5h279q70 0 25 -56zM719 -532h-4 q-80 2 -134.5 57t-54.5 135q0 82 55.5 139.5t137.5 57.5q94 0 151.5 -71t57.5 -192q0 -145 -97.5 -271t-228.5 -185q-20 -10 -33 6l-55 86q-10 18 10 33q160 101 195 205z" glyph-name="Kcommaaccent" horiz-adv-x="1402" unicode="Ķ"/><glyph d="M770 553l377 -498q25 -37 16.5 -46t-41.5 -9h-276q-27 0 -40 10t-40 45l-309 424v-424q0 -33 -11.5 -44t-44.5 -11h-202q-33 0 -44.5 11.5t-11.5 43.5v1370q0 33 11.5 44.5t44.5 11.5h202q33 0 44.5 -11.5t11.5 -44.5v-819l284 381q25 35 39.5 45t40.5 10h279 q29 0 36 -17t-12 -38zM627 -532h-4q-80 2 -134.5 57t-54.5 135q0 82 55.5 139.5t137.5 57.5q94 0 151.5 -71t57.5 -192q0 -145 -97.5 -271t-228.5 -185q-23 -10 -33 6l-55 86q-10 18 10 33q160 101 195 205z" glyph-name="kcommaaccent" horiz-adv-x="1198" unicode="ķ"/><glyph d="M770 553l377 -498q25 -37 16.5 -46t-41.5 -9h-276q-27 0 -40 10t-40 45l-309 424v-424q0 -33 -11.5 -44t-44.5 -11h-202q-33 0 -44.5 11.5t-11.5 43.5v932q0 33 11.5 44t44.5 11h202q33 0 44.5 -11t11.5 -44v-381l284 381q25 35 39.5 45t40.5 10h279q29 0 36 -17t-12 -38 z" glyph-name="kgreenlandic" horiz-adv-x="1198" unicode="ĸ"/><glyph d="M487 283h566q33 0 44 -11.5t11 -44.5v-172q0 -33 -11.5 -44t-43.5 -11h-844q-33 0 -44 11.5t-11 43.5v1323q0 33 11 44.5t44 11.5h223q33 0 44 -11.5t11 -44.5v-1095zM649 1694l-131 -97q-39 -33 -86 -32h-172q-61 0 -2 65l256 283q37 45 78 -19l76 -122q14 -25 11 -40 t-30 -38z" glyph-name="Lacute" horiz-adv-x="1169" unicode="Ĺ"/><glyph d="M119 55v1401q0 33 11 44t44 11h203q33 0 44 -11t11 -44v-1401q0 -33 -11 -44t-44 -11h-203q-33 0 -44 11t-11 44zM559 1694l-131 -97q-39 -33 -86 -32h-172q-61 0 -2 65l256 283q37 45 78 -19l76 -122q14 -25 11 -40t-30 -38z" glyph-name="lacute" horiz-adv-x="550" unicode="ĺ"/><glyph d="M641 -532h-4q-80 2 -134 57t-54 135q0 82 55 139.5t137 57.5q94 0 151.5 -71t57.5 -192q0 -145 -97.5 -271t-228.5 -185q-20 -10 -32 6l-56 86q-10 18 10 33q160 101 195 205zM487 283h566q33 0 44 -11.5t11 -44.5v-172q0 -33 -11.5 -44t-43.5 -11h-844q-33 0 -44 11.5 t-11 43.5v1323q0 33 11 44.5t44 11.5h223q33 0 44 -11.5t11 -44.5v-1095z" glyph-name="Lcommaaccent" horiz-adv-x="1169" unicode="Ļ"/><glyph d="M279 -532h-5q-80 2 -134 57t-54 135q0 82 55.5 139.5t137.5 57.5q94 0 151 -71t57 -192q0 -145 -97 -271t-228 -185q-23 -10 -33 6l-55 86q-10 18 10 33q160 101 195 205zM119 55v1401q0 33 11 44t44 11h203q33 0 44 -11t11 -44v-1401q0 -33 -11 -44t-44 -11h-203 q-33 0 -44 11t-11 44z" glyph-name="lcommaaccent" horiz-adv-x="550" unicode="ļ"/><glyph d="M926 1051h-4q-80 2 -134.5 57t-54.5 135q0 82 55.5 139.5t137.5 57.5q94 0 151.5 -71t57.5 -191q0 -145 -97.5 -271.5t-228.5 -185.5q-23 -10 -33 6l-55 86q-10 18 10 33q160 101 195 205zM487 283h566q33 0 44 -11.5t11 -44.5v-172q0 -33 -11.5 -44t-43.5 -11h-844 q-33 0 -44 11.5t-11 43.5v1323q0 33 11 44.5t44 11.5h223q33 0 44 -11.5t11 -44.5v-1095z" glyph-name="Lcaron" horiz-adv-x="1185" unicode="Ľ"/><glyph d="M721 1122h-4q-80 2 -134.5 57.5t-54.5 135.5q0 82 55.5 139t137.5 57q94 0 151.5 -70.5t57.5 -191.5q0 -145 -97.5 -271t-228.5 -185q-23 -10 -33 6l-55 86q-10 18 10 33q160 100 195 204zM119 55v1401q0 33 11 44t44 11h203q33 0 44 -11t11 -44v-1401q0 -33 -11 -44 t-44 -11h-203q-33 0 -44 11t-11 44z" glyph-name="lcaron" horiz-adv-x="817" unicode="ľ"/><glyph d="M487 283h566q33 0 44 -11.5t11 -44.5v-172q0 -33 -11.5 -44t-43.5 -11h-844q-33 0 -44 11.5t-11 43.5v1323q0 33 11 44.5t44 11.5h223q33 0 44 -11.5t11 -44.5v-1095zM752 700.5q0 75.5 51 129t127 53.5t129 -53.5t53 -129t-53 -127t-129 -51.5t-127 51.5t-51 127z" glyph-name="Ldot" horiz-adv-x="1163" unicode="Ŀ"/><glyph d="M154 55v1401q0 33 11 44t44 11h203q33 0 44 -11t11 -44v-1401q0 -33 -11.5 -44t-43.5 -11h-203q-33 0 -44 11t-11 44zM600 700.5q0 75.5 51 129t127 53.5t129.5 -53.5t53.5 -129t-53.5 -127t-129.5 -51.5t-127 51.5t-51 127z" glyph-name="ldot" horiz-adv-x="970" unicode="ŀ"/><glyph d="M557 283h565q33 0 44.5 -11.5t11.5 -44.5v-172q0 -33 -11.5 -44t-44.5 -11h-843q-33 0 -44.5 11.5t-11.5 43.5v418l-76 -27q-33 -10 -46 -3.5t-25 36.5l-29 80q-8 31 -1 45t36 25l141 49v700q0 33 11.5 44.5t44.5 11.5h223q33 0 44 -11.5t11 -44.5v-581l248 88 q31 10 45 3t27 -38l26 -78q10 -33 3 -47t-36 -25l-313 -110v-307z" glyph-name="Lslash" horiz-adv-x="1239" unicode="Ł"/><glyph d="M229 55v451l-92 -33q-33 -10 -46 -4t-25 37l-29 80q-8 31 -1 46t36 23l157 56v714q0 33 11.5 44.5t44.5 11.5h202q33 0 44.5 -11.5t11.5 -44.5v-604l102 35q31 10 45.5 3t26.5 -38l26 -78q10 -33 3 -47t-35 -24l-168 -58v-559q0 -33 -11.5 -44t-44.5 -11h-202 q-33 0 -44.5 11t-11.5 44z" glyph-name="lslash" horiz-adv-x="782" unicode="ł"/><glyph d="M487 786v-731q0 -33 -11 -44t-44 -11h-223q-33 0 -44 11.5t-11 43.5v1387q0 18 18 18h21q18 0 38 -18l869 -785v721q0 33 11 44.5t44 11.5h223q33 0 44.5 -11.5t11.5 -44.5v-1386q0 -18 -19 -19h-20q-18 0 -39 19zM997 1694l-131 -97q-39 -33 -86 -32h-172q-61 0 -2 65 l256 283q37 45 78 -19l76 -122q14 -25 11 -40t-30 -38z" glyph-name="Nacute" horiz-adv-x="1587" unicode="Ń"/><glyph d="M373 987l41 -74q72 78 135 115t164 37q190 0 290.5 -108.5t100.5 -374.5v-527q0 -33 -11.5 -44t-43.5 -11h-203q-33 0 -44 11.5t-11 43.5v465q0 143 -34 204.5t-124 61.5q-92 0 -129 -61t-37 -205v-465q0 -33 -11.5 -44t-43.5 -11h-203q-33 0 -44 11.5t-11 43.5v465v467 q0 33 11 44t44 11h98q23 0 35.5 -11t30.5 -44zM827 1303l-131 -97q-39 -33 -86 -32h-172q-61 0 -2 65l256 283q37 45 78 -19l76 -123q14 -25 11 -39.5t-30 -37.5z" glyph-name="nacute" unicode="ń"/><glyph d="M805 -532h-4q-80 2 -134.5 57t-54.5 135q0 82 55.5 139.5t137.5 57.5q94 0 151.5 -71t57.5 -192q0 -145 -97.5 -271t-228.5 -185q-20 -10 -33 6l-55 86q-10 18 10 33q160 101 195 205zM487 786v-731q0 -33 -11 -44t-44 -11h-223q-33 0 -44 11.5t-11 43.5v1387q0 18 18 18 h21q18 0 38 -18l869 -785v721q0 33 11 44.5t44 11.5h223q33 0 44.5 -11.5t11.5 -44.5v-1386q0 -18 -19 -19h-20q-18 0 -39 19z" glyph-name="Ncommaaccent" horiz-adv-x="1587" unicode="Ņ"/><glyph d="M637 -532h-4q-80 2 -134.5 57t-54.5 135q0 82 55.5 139.5t137.5 57.5q94 0 151.5 -71t57.5 -192q0 -145 -97.5 -271t-228.5 -185q-20 -10 -33 6l-55 86q-10 18 10 33q160 101 195 205zM373 987l41 -74q72 78 135 115t164 37q190 0 290.5 -108.5t100.5 -374.5v-527 q0 -33 -11.5 -44t-43.5 -11h-203q-33 0 -44 11.5t-11 43.5v465q0 143 -34 204.5t-124 61.5q-92 0 -129 -61t-37 -205v-465q0 -33 -11.5 -44t-43.5 -11h-203q-33 0 -44 11.5t-11 43.5v465v467q0 33 11 44t44 11h98q23 0 35.5 -11t30.5 -44z" glyph-name="ncommaaccent" unicode="ņ"/><glyph d="M487 786v-731q0 -33 -11 -44t-44 -11h-223q-33 0 -44 11.5t-11 43.5v1387q0 18 18 18h21q18 0 38 -18l869 -785v721q0 33 11 44.5t44 11.5h223q33 0 44.5 -11.5t11.5 -44.5v-1386q0 -18 -19 -19h-20q-18 0 -39 19zM842 1565h-135q-39 2 -78 55l-178 258q-33 55 22 55h123 q51 0 82 -55l96 -160l96 160q31 55 82 55h123q55 0 23 -55l-178 -258q-39 -53 -78 -55z" glyph-name="Ncaron" horiz-adv-x="1587" unicode="Ň"/><glyph d="M414 913q72 78 135 115t164 37q190 0 290.5 -108.5t100.5 -374.5v-527q0 -33 -11.5 -44t-43.5 -11h-203q-33 0 -44 11.5t-11 43.5v465q0 143 -34 204.5t-124 61.5q-92 0 -129 -61t-37 -205v-465q0 -33 -11.5 -44t-43.5 -11h-203q-33 0 -44 11.5t-11 43.5v465v467 q0 33 11 44t44 11h98q23 0 35 -11t31 -44zM690 1174h-135q-39 2 -78 55l-178 258q-35 55 23 55h122q51 0 82 -55l97 -160l96 160q31 55 82 55h123q55 0 22 -55l-178 -258q-39 -53 -78 -55z" glyph-name="ncaron" unicode="ň"/><glyph d="M170 1350h-4q-80 2 -134.5 57t-54.5 135q0 82 55.5 139.5t137.5 57.5q94 0 151.5 -71t57.5 -191q0 -145 -97.5 -271.5t-228.5 -185.5q-20 -10 -33 6l-55 86q-10 18 10 33q160 101 195 205zM489 913q72 78 135.5 115t163.5 37q190 0 291 -108.5t101 -374.5v-527 q0 -33 -11.5 -44t-44.5 -11h-202q-33 0 -44.5 11.5t-11.5 43.5v465q0 143 -33.5 204.5t-123.5 61.5q-92 0 -129 -61t-37 -205v-465q0 -33 -11.5 -44t-44.5 -11h-202q-33 0 -44.5 11.5t-11.5 43.5v465v467q0 33 11.5 44t44.5 11h98q23 0 35 -11t31 -44z" glyph-name="napostrophe" horiz-adv-x="1302" unicode="ŉ"/><glyph d="M1100 225l-613 561v-731q0 -33 -11 -44t-44 -11h-223q-33 0 -44 11.5t-11 43.5v1387q0 18 18 18h21q18 0 38 -18l869 -785v721q0 33 11 44.5t44 11.5h223q33 0 44.5 -11.5t11.5 -44.5v-1358q0 -283 -182.5 -421t-506.5 -138q-39 0 -51 11.5t-16 44.5l-21 180q-6 55 62 55 q233 0 307 92t74 381z" glyph-name="Eng" horiz-adv-x="1587" unicode="Ŋ"/><glyph d="M1104 582v-609q0 -217 -109.5 -336.5t-310.5 -119.5q-119 0 -203 53q-25 14 -30 27.5t2 42.5l24 143q6 41 18.5 46t51.5 -13q43 -20 102 -21q141 0 142 189v536q0 143 -34 204.5t-124 61.5q-92 0 -129 -61t-37 -205v-465q0 -33 -11.5 -44t-43.5 -11h-203q-33 0 -44 11.5 t-11 43.5v465v467q0 33 11 44t44 11h98q23 0 35 -11t31 -44l41 -74q72 78 135 115t164 37q190 0 290.5 -108.5t100.5 -374.5z" glyph-name="eng" unicode="ŋ"/><glyph d="M86 717q0 305 217 524t520 219t520.5 -219t217.5 -524t-217.5 -524.5t-520.5 -219.5t-520 219.5t-217 524.5zM424 717q0 -180 109.5 -317.5t289.5 -137.5q186 0 293 136.5t107 318.5q0 184 -106.5 319t-293.5 135q-182 0 -290.5 -136t-108.5 -318zM1073 1632h-498 q-33 0 -44 11.5t-11 44.5v108q0 33 11.5 44t43.5 11h498q33 0 44 -11t11 -44v-108q0 -33 -11 -44.5t-44 -11.5z" glyph-name="Omacron" horiz-adv-x="1646" unicode="Ō"/><glyph d="M78 520q0 225 159.5 385t385 160t385 -160t159.5 -385q0 -223 -159.5 -383t-385 -160t-385 160t-159.5 383zM622.5 250q96.5 0 165 78t68.5 192.5t-68.5 190t-165 75.5t-165 -75.5t-68.5 -190t68.5 -192.5t165 -78zM872 1241h-497q-33 0 -44.5 11.5t-11.5 43.5v109 q0 33 11.5 44t44.5 11h497q33 0 44.5 -11t11.5 -44v-109q0 -33 -11.5 -44t-44.5 -11z" glyph-name="omacron" horiz-adv-x="1245" unicode="ō"/><glyph d="M86 717q0 305 217 524t520 219t520.5 -219t217.5 -524t-217.5 -524.5t-520.5 -219.5t-520 219.5t-217 524.5zM424 717q0 -180 109.5 -317.5t289.5 -137.5q186 0 293 136.5t107 318.5q0 184 -106.5 319t-293.5 135q-182 0 -290.5 -136t-108.5 -318zM823.5 1595 q-94.5 0 -185.5 41t-138 146q-31 72 10 92l92 49q45 25 65.5 -20t33 -63.5t43 -34t79.5 -15.5q51 0 82 15.5t42 32.5t34 65q20 45 66 20l92 -49q41 -20 10 -92q-47 -104 -139 -145.5t-186.5 -41.5z" glyph-name="Obreve" horiz-adv-x="1646" unicode="Ŏ"/><glyph d="M78 520q0 225 159.5 385t385 160t385 -160t159.5 -385q0 -223 -159.5 -383t-385 -160t-385 160t-159.5 383zM622.5 250q96.5 0 165 78t68.5 192.5t-68.5 190t-165 75.5t-165 -75.5t-68.5 -190t68.5 -192.5t165 -78zM622.5 1204q-94.5 0 -185.5 41t-138 146q-31 72 10 92 l92 49q45 25 65.5 -20.5t33 -63.5t43 -33.5t80.5 -15.5q51 0 81.5 15.5t42 32.5t33.5 64q20 45 66 21l92 -49q41 -20 10 -92q-47 -104 -139 -145.5t-186.5 -41.5z" glyph-name="obreve" horiz-adv-x="1245" unicode="ŏ"/><glyph d="M86 717q0 305 217 524t520 219t520.5 -219t217.5 -524t-217.5 -524.5t-520.5 -219.5t-520 219.5t-217 524.5zM424 717q0 -180 109.5 -317.5t289.5 -137.5q186 0 293 136.5t107 318.5q0 184 -106.5 319t-293.5 135q-182 0 -290.5 -136t-108.5 -318zM889 1751l-125 -154 q-20 -33 -86 -32h-143q-61 0 -3 65l256 283q37 45 78 -19l31 -49q27 -47 -8 -94zM1219 1751l-125 -154q-20 -33 -86 -32h-144q-61 0 -2 65l256 283q37 45 78 -19l31 -49q27 -47 -8 -94z" glyph-name="Ohungarumlaut" horiz-adv-x="1646" unicode="Ő"/><glyph d="M78 520q0 225 159.5 385t385 160t385 -160t159.5 -385q0 -223 -159.5 -383t-385 -160t-385 160t-159.5 383zM622.5 250q96.5 0 165 78t68.5 192.5t-68.5 190t-165 75.5t-165 -75.5t-68.5 -190t68.5 -192.5t165 -78zM684 1360l-125 -154q-20 -33 -86 -32h-143q-61 0 -2 65 l256 283q37 45 78 -19l30 -49q27 -47 -8 -94zM1014 1360l-125 -154q-20 -33 -86 -32h-144q-61 0 -2 65l256 283q37 45 78 -19l31 -49q27 -47 -8 -94z" glyph-name="ohungarumlaut" horiz-adv-x="1245" unicode="ő"/><glyph d="M424 717q0 -180 109.5 -317.5t289.5 -137.5q186 0 293 136.5t107 318.5q0 184 -106.5 319t-293.5 135q-182 0 -290.5 -136t-108.5 -318zM2060 580h-512q-31 -143 -129 -299l695 2q33 0 44 -11.5t11 -44.5v-172q0 -33 -11.5 -44t-43.5 -11h-930q-57 0 -181 -13.5 t-180 -13.5q-303 0 -520 219.5t-217 524.5t217 524t520 219q53 0 178 -13t183 -13h930q33 0 44 -11.5t11 -44.5v-172q0 -33 -11.5 -44t-43.5 -11h-652h-43q106 -156 125 -289h516q33 0 44.5 -11t11.5 -44v-172q0 -33 -11.5 -44t-44.5 -11z" glyph-name="OE" horiz-adv-x="2285" unicode="Œ"/><glyph d="M1159 422q16 -86 83 -132t153 -46q121 0 239 53q6 2 14.5 6t11.5 6t9 4t9 2t8.5 -1t9.5 -4t8 -7l10 -10l80 -100q20 -25 22.5 -38.5t-12.5 -31.5q-72 -72 -184.5 -109t-230.5 -37q-229 0 -388 154q-158 -154 -378 -154q-225 0 -385 160t-160 383q0 225 159.5 385 t385.5 160q219 0 378 -154q160 154 377 154q166 0 287 -92t173 -221t52 -271q0 -35 -10 -47t-41 -12h-680zM1167 621h404q-45 190 -199 190q-164 0 -205 -190zM856 520q0 117 -64.5 191.5t-168.5 74.5q-96 0 -165 -75.5t-69 -190t68.5 -192.5t165.5 -78q104 0 168.5 75.5 t64.5 194.5z" glyph-name="oe" horiz-adv-x="1955" unicode="œ"/><glyph d="M1241 1004q0 -305 -301 -400l346 -532q18 -39 4 -55.5t-51 -16.5h-207q-57 0 -94 55l-336 518h-115v-518q0 -33 -11 -44t-44 -11h-223q-33 0 -44 11.5t-11 43.5v1323q0 33 11 44.5t44 11.5h510q94 0 181 -21.5t167 -69t127 -134t47 -205.5zM487 850h222q109 0 159 37 t50 116.5t-50.5 116.5t-158.5 37h-222v-307zM881 1694l-131 -97q-39 -33 -86 -32h-172q-61 0 -3 65l256 283q37 45 78 -19l76 -122q14 -25 11.5 -40t-29.5 -38z" glyph-name="Racute" horiz-adv-x="1349" unicode="Ŕ"/><glyph d="M756 756q-145 0 -217 -75t-72 -192v-434q0 -33 -11.5 -44t-43.5 -11h-203q-33 0 -44 11.5t-11 43.5v932q0 33 11 44t44 11h98q23 0 35 -11t31 -44l61 -113q59 98 136 144.5t227 46.5q37 0 45 -11.5t4 -39.5l-31 -207q-6 -33 -17 -42t-42 -9zM772 1303l-131 -97 q-39 -33 -86 -32h-172q-61 0 -2 65l256 283q37 45 78 -19l76 -123q14 -25 11 -39.5t-30 -37.5z" glyph-name="racute" horiz-adv-x="870" unicode="ŕ"/><glyph d="M705 -532h-5q-80 2 -134 57t-54 135q0 82 55.5 139.5t137.5 57.5q94 0 151 -71t57 -192q0 -145 -97 -271t-228 -185q-23 -10 -33 6l-55 86q-10 18 10 33q160 101 195 205zM1241 1004q0 -305 -301 -400l346 -532q18 -39 4 -55.5t-51 -16.5h-207q-57 0 -94 55l-336 518 h-115v-518q0 -33 -11 -44t-44 -11h-223q-33 0 -44 11.5t-11 43.5v1323q0 33 11 44.5t44 11.5h510q94 0 181 -21.5t167 -69t127 -134t47 -205.5zM487 850h222q109 0 159 37t50 116.5t-50.5 116.5t-158.5 37h-222v-307z" glyph-name="Rcommaaccent" horiz-adv-x="1349" unicode="Ŗ"/><glyph d="M289 -532h-4q-80 2 -134.5 57t-54.5 135q0 82 55.5 139.5t137.5 57.5q94 0 151.5 -71t57.5 -192q0 -145 -97.5 -271t-228.5 -185q-20 -10 -33 6l-55 86q-10 18 10 33q160 101 195 205zM721 756q-145 0 -217 -75t-72 -192v-434q0 -33 -11 -44t-44 -11h-203q-33 0 -44 11.5 t-11 43.5v932q0 33 11 44t44 11h98q23 0 35 -11t31 -44l61 -113q59 98 136 144.5t227 46.5q37 0 45 -11.5t4 -39.5l-31 -207q-6 -33 -17 -42t-42 -9z" glyph-name="rcommaaccent" horiz-adv-x="835" unicode="ŗ"/><glyph d="M1241 1004q0 -305 -301 -400l346 -532q18 -39 4 -55.5t-51 -16.5h-207q-57 0 -94 55l-336 518h-115v-518q0 -33 -11 -44t-44 -11h-223q-33 0 -44 11.5t-11 43.5v1323q0 33 11 44.5t44 11.5h510q94 0 181 -21.5t167 -69t127 -134t47 -205.5zM487 850h222q109 0 159 37 t50 116.5t-50.5 116.5t-158.5 37h-222v-307zM725 1565h-135q-39 2 -78 55l-178 258q-33 55 22 55h123q51 0 82 -55l96 -160l97 160q31 55 82 55h122q57 0 23 -55l-178 -258q-39 -53 -78 -55z" glyph-name="Rcaron" horiz-adv-x="1349" unicode="Ř"/><glyph d="M721 756q-145 0 -217 -75t-72 -192v-434q0 -33 -11 -44t-44 -11h-203q-33 0 -44 11.5t-11 43.5v932q0 33 11 44t44 11h98q23 0 35 -11t31 -44l61 -113q59 98 136 144.5t227 46.5q37 0 45 -11.5t4 -39.5l-31 -207q-6 -33 -17 -42t-42 -9zM524 1174h-135q-39 2 -78 55 l-178 258q-33 55 23 55h123q51 0 81 -55l97 -160l96 160q31 55 82 55h123q57 0 22 -55l-178 -258q-39 -53 -78 -55z" glyph-name="rcaron" horiz-adv-x="825" unicode="ř"/><glyph d="M676 1167q-139 0 -188.5 -44t-49.5 -124q0 -74 63.5 -101.5t227.5 -45.5q100 -12 178 -33.5t154 -67.5t118 -130t42 -201q0 -184 -144.5 -313.5t-396.5 -129.5q-338 0 -559 154q-27 16 -28 33.5t16 44.5l84 139q16 29 30.5 35t42.5 -8q174 -109 393 -109q238 0 238 137 q0 88 -71.5 120t-239.5 52q-471 55 -471 412q0 78 29.5 157t90 150.5t170 116.5t250.5 45q147 0 259 -37t243 -116q27 -16 28 -34t-16 -44l-84 -140q-16 -31 -30.5 -37t-42.5 11q-94 63 -167 85.5t-169 22.5zM889 1694l-131 -97q-39 -33 -86 -32h-172q-61 0 -2 65l256 283 q37 45 77 -19l76 -122q14 -25 11.5 -40t-29.5 -38z" glyph-name="Sacute" horiz-adv-x="1312" unicode="Ś"/><glyph d="M512 217q172 0 172 88q0 33 -48 49.5t-155 30.5q-401 51 -401 334q0 158 119.5 252t312.5 94q197 0 401 -117q27 -16 28 -33.5t-15 -44.5l-60 -102q-16 -31 -29.5 -37t-43.5 10q-125 84 -261 84q-158 0 -157 -88q0 -57 203 -84q193 -25 297 -96.5t104 -232.5 q0 -158 -124 -252.5t-323 -94.5q-229 0 -426 134q-27 16 -27.5 33.5t15.5 43.5l60 103q18 33 29.5 39t43.5 -13q138 -100 285 -100zM762 1303l-131 -97q-39 -33 -86 -32h-172q-61 0 -2 65l256 283q37 45 78 -19l75 -123q14 -25 11.5 -39.5t-29.5 -37.5z" glyph-name="sacute" horiz-adv-x="1050" unicode="ś"/><glyph d="M676 1167q-139 0 -188.5 -44t-49.5 -124q0 -74 63.5 -101.5t227.5 -45.5q100 -12 178 -33.5t154 -67.5t118 -130t42 -201q0 -184 -144.5 -313.5t-396.5 -129.5q-338 0 -559 154q-27 16 -28 33.5t16 44.5l84 139q16 29 30.5 35t42.5 -8q174 -109 393 -109q238 0 238 137 q0 88 -71.5 120t-239.5 52q-471 55 -471 412q0 78 29.5 157t90 150.5t170 116.5t250.5 45q147 0 259 -37t243 -116q27 -16 28 -34t-16 -44l-84 -140q-16 -31 -30.5 -37t-42.5 11q-94 63 -167 85.5t-169 22.5zM588 1931h135q39 -2 78 -55l178 -258q35 -55 -23 -55h-122 q-51 0 -82 55l-97 160l-96 -160q-31 -55 -82 -55h-123q-55 0 -22 55l178 258q39 53 78 55z" glyph-name="Scircumflex" horiz-adv-x="1312" unicode="Ŝ"/><glyph d="M512 217q172 0 172 88q0 33 -48 49.5t-155 30.5q-401 51 -401 334q0 158 119.5 252t312.5 94q197 0 401 -117q27 -16 28 -33.5t-15 -44.5l-60 -102q-16 -31 -29.5 -37t-43.5 10q-125 84 -261 84q-158 0 -157 -88q0 -57 203 -84q193 -25 297 -96.5t104 -232.5 q0 -158 -124 -252.5t-323 -94.5q-229 0 -426 134q-27 16 -27.5 33.5t15.5 43.5l60 103q18 33 29.5 39t43.5 -13q138 -100 285 -100zM455 1542h135q39 -2 78 -55l178 -258q33 -55 -23 -55h-123q-51 0 -82 55l-96 160l-96 -160q-31 -55 -82 -55h-123q-57 0 -22 55l178 258 q39 53 78 55z" glyph-name="scircumflex" horiz-adv-x="1050" unicode="ŝ"/><glyph d="M655 1167q-139 0 -188 -44t-49 -124q0 -74 63.5 -101.5t227.5 -45.5q100 -12 178 -33.5t153.5 -67.5t117.5 -130t42 -201q0 -180 -140 -309t-384 -134l-4 -55q109 0 168 -55t59 -154q0 -100 -63.5 -159.5t-186.5 -59.5q-86 0 -192 86q-33 27 -6 58l32 43q14 16 25.5 17 t32.5 -11q72 -35 131 -35q63 0 63 61q0 66 -73 66h-113q-43 0 -43 51l39 154q-231 20 -424 147q-27 16 -28 33.5t16 44.5l84 139q16 29 30.5 35t42.5 -8q174 -109 373 -109q238 0 238 137q0 88 -72 120t-240 52q-471 55 -471 412q0 78 30 157t90 150.5t170 116.5t251 45 q147 0 259 -37t243 -116q27 -16 27.5 -34t-15.5 -44l-84 -140q-16 -31 -30.5 -37t-43.5 11q-94 63 -167 85.5t-169 22.5z" glyph-name="Scedilla" horiz-adv-x="1292" unicode="Ş"/><glyph d="M393 -168l39 154q-182 27 -326 125q-27 16 -27.5 33.5t15.5 43.5l60 103q18 33 29.5 39t43.5 -13q137 -100 285 -100q172 0 172 88q0 33 -48 49.5t-155 30.5q-401 51 -401 334q0 158 119.5 252t312.5 94q229 0 426 -133q27 -16 28 -33.5t-16 -44.5l-59 -102 q-16 -31 -29.5 -37t-44.5 10q-147 100 -285 100q-158 0 -157 -88q0 -57 203 -84q193 -25 297 -96.5t104 -232.5q0 -152 -113.5 -244t-302.5 -100l-4 -56q109 0 168 -55t59 -154q0 -100 -63.5 -159.5t-185.5 -59.5q-86 0 -193 86q-33 27 -6 58l33 43q14 16 25.5 17t31.5 -11 q72 -35 131 -35q63 0 64 61q0 66 -74 66h-113q-43 0 -43 51z" glyph-name="scedilla" horiz-adv-x="1050" unicode="ş"/><glyph d="M676 1167q-139 0 -188.5 -44t-49.5 -124q0 -74 63.5 -101.5t227.5 -45.5q100 -12 178 -33.5t154 -67.5t118 -130t42 -201q0 -184 -144.5 -313.5t-396.5 -129.5q-338 0 -559 154q-27 16 -28 33.5t16 44.5l84 139q16 29 30.5 35t42.5 -8q174 -109 393 -109q238 0 238 137 q0 88 -71.5 120t-239.5 52q-471 55 -471 412q0 78 29.5 157t90 150.5t170 116.5t250.5 45q147 0 259 -37t243 -116q27 -16 28 -34t-16 -44l-84 -140q-16 -31 -30.5 -37t-42.5 11q-94 63 -167 85.5t-169 22.5zM709 1565h-136q-39 2 -77 55l-179 258q-35 55 23 55h123 q51 0 82 -55l96 -160l96 160q31 55 82 55h123q57 0 23 -55l-179 -258q-38 -53 -77 -55z" glyph-name="Scaron" horiz-adv-x="1312" unicode="Š"/><glyph d="M512 217q172 0 172 88q0 33 -48 49.5t-155 30.5q-401 51 -401 334q0 158 119.5 252t312.5 94q197 0 401 -117q27 -16 28 -33.5t-15 -44.5l-60 -102q-16 -31 -29.5 -37t-43.5 10q-125 84 -261 84q-158 0 -157 -88q0 -57 203 -84q193 -25 297 -96.5t104 -232.5 q0 -158 -124 -252.5t-323 -94.5q-229 0 -426 134q-27 16 -27.5 33.5t15.5 43.5l60 103q18 33 29.5 39t43.5 -13q138 -100 285 -100zM580 1174h-136q-39 2 -77 55l-179 258q-33 55 23 55h123q51 0 82 -55l96 -160l96 160q31 55 82 55h123q55 0 23 -55l-179 -258 q-38 -53 -77 -55z" glyph-name="scaron" horiz-adv-x="1050" unicode="š"/><glyph d="M635 -532h-4q-80 2 -134.5 57t-54.5 135q0 82 55.5 139.5t137.5 57.5q94 0 151.5 -71t57.5 -192q0 -145 -97.5 -271t-228.5 -185q-23 -10 -33 6l-55 86q-10 18 10 33q160 101 195 205zM76 1434h1141q33 0 44 -11.5t11 -44.5v-186q0 -33 -11.5 -44t-43.5 -11h-404v-1082 q0 -33 -11 -44t-44 -11h-223q-33 0 -44.5 11.5t-11.5 43.5v1082h-403q-33 0 -44.5 11t-11.5 44v186q0 33 11.5 44.5t44.5 11.5z" glyph-name="Tcommaaccent" horiz-adv-x="1292" unicode="Ţ"/><glyph d="M399 -532h-4q-80 2 -134 57t-54 135q0 82 55 139.5t137 57.5q94 0 151.5 -71t57.5 -192q0 -145 -97 -271t-228 -185q-20 -10 -33 6l-55 86q-10 18 10 33q159 101 194 205zM809 31q-84 -53 -203 -54q-201 0 -310.5 119t-109.5 332v369h-49q-33 0 -44 11t-11 44v135 q0 33 11 44t44 11h49v189q0 33 11.5 44t44.5 11h200q33 0 44.5 -11t11.5 -44v-189h260q33 0 44 -11t11 -44v-135q0 -33 -11 -44t-44 -11h-260v-353q0 -188 143 -188q59 0 102 20q39 18 51.5 13.5t18.5 -45.5l25 -144q6 -29 1 -42t-30 -27z" glyph-name="tcommaaccent" horiz-adv-x="913" unicode="ţ"/><glyph d="M76 1434h1141q33 0 44 -11.5t11 -44.5v-186q0 -33 -11.5 -44t-43.5 -11h-404v-1082q0 -33 -11 -44t-44 -11h-223q-33 0 -44.5 11.5t-11.5 43.5v1082h-403q-33 0 -44.5 11t-11.5 44v186q0 33 11.5 44.5t44.5 11.5zM713 1565h-135q-39 2 -78 55l-178 258q-35 55 22 55h123 q51 0 82 -55l96 -160l96 160q31 55 82 55h123q57 0 23 -55l-178 -258q-39 -53 -78 -55z" glyph-name="Tcaron" horiz-adv-x="1292" unicode="Ť"/><glyph d="M1024 1348h-4q-80 2 -134.5 57t-54.5 135q0 82 55.5 139.5t137.5 57.5q94 0 151.5 -71t57.5 -191q0 -145 -97.5 -271.5t-228.5 -185.5q-23 -10 -33 6l-55 86q-10 18 10 33q160 101 195 205zM809 31q-84 -53 -203 -54q-201 0 -310.5 119t-109.5 332v369h-49q-33 0 -44 11 t-11 44v135q0 33 11 44t44 11h49v189q0 33 11.5 44t44.5 11h200q33 0 44.5 -11t11.5 -44v-189h260q33 0 44 -11t11 -44v-135q0 -33 -11 -44t-44 -11h-260v-353q0 -188 143 -188q59 0 102 20q39 18 51.5 13.5t18.5 -45.5l25 -144q6 -29 1 -42t-30 -27z" glyph-name="tcaron" horiz-adv-x="1028" unicode="ť"/><glyph d="M1176 641h-363v-586q0 -33 -11 -44t-44 -11h-223q-33 0 -44.5 11.5t-11.5 43.5v586h-362q-33 0 -44.5 11.5t-11.5 43.5v156q0 33 11.5 44t44.5 11h362v230h-403q-33 0 -44.5 11t-11.5 44v186q0 33 11.5 44.5t44.5 11.5h1141q33 0 44 -11.5t11 -44.5v-186q0 -33 -11.5 -44 t-43.5 -11h-404v-230h363q33 0 44 -11t11 -44v-156q0 -33 -11 -44t-44 -11z" glyph-name="Tbar" horiz-adv-x="1292" unicode="Ŧ"/><glyph d="M813 412h-260q2 -41 16 -76q35 -80 127 -80q59 0 103 20q39 18 51 13.5t18 -45.5l25 -144q6 -29 1 -42t-30 -27q-84 -53 -202 -54q-158 0 -260.5 74t-139.5 209q-16 63 -20 152h-101q-33 0 -44 11t-11 44v135q0 33 11.5 44t43.5 11h101v140h-101q-33 0 -44 11t-11 44v135 q0 33 11.5 44t43.5 11h101v168q0 33 11 44.5t44 11.5h201q33 0 44 -11.5t11 -44.5v-168h260q33 0 44 -11t11 -44v-135q0 -33 -11 -44t-44 -11h-260v-140h260q33 0 44 -11t11 -44v-135q0 -33 -11 -44t-44 -11z" glyph-name="tbar" horiz-adv-x="974" unicode="ŧ"/><glyph d="M743.5 -27q-264.5 0 -442.5 162t-178 455v788q0 33 11 44.5t44 11.5h223q33 0 44.5 -11.5t11.5 -44.5v-778q0 -338 286.5 -338t286.5 338v778q0 33 11.5 44.5t43.5 11.5h224q33 0 44 -11.5t11 -44.5v-788q0 -293 -178 -455t-442.5 -162zM885 1833q18 0 38.5 20.5 t30.5 44.5q10 29 24.5 34t45.5 -5l78 -35q33 -12 39 -26.5t-6 -44.5q-74 -195 -236 -195q-88 0 -174 49q-16 8 -38.5 20.5t-33 17.5t-24 9t-27.5 4q-18 0 -38.5 -20t-31.5 -45q-12 -29 -25 -34t-44 5l-78 35q-33 12 -39 26.5t6 45.5q74 195 236 194q88 0 174 -49 q16 -8 38.5 -20.5t33 -17.5t24 -9t27.5 -4z" glyph-name="Utilde" horiz-adv-x="1486" unicode="Ũ"/><glyph d="M813 129q-72 -78 -135.5 -115t-163.5 -37q-190 0 -290.5 109t-100.5 375v526q0 33 11 44t44 11h203q33 0 44 -11t11 -44v-465q0 -143 34 -204.5t124 -61.5q92 0 129 61.5t37 204.5v465q0 33 11 44t44 11h203q33 0 44 -11t11 -44v-465v-467q0 -33 -11 -44t-44 -11h-98 q-23 0 -35.5 11.5t-30.5 43.5zM745 1442q18 0 39 20.5t31 44.5q10 29 24.5 34t45.5 -5l78 -35q33 -12 39 -26.5t-7 -44.5q-74 -195 -235 -195q-88 0 -174 49q-16 8 -39 20.5t-33 17.5t-23.5 9t-27.5 4q-18 0 -39 -20.5t-31 -44.5q-12 -29 -25.5 -34t-43.5 5l-78 35 q-33 12 -39 26.5t6 45.5q74 195 236 194q88 0 174 -49q16 -8 38.5 -20.5t33 -17.5t23.5 -9t27 -4z" glyph-name="utilde" unicode="ũ"/><glyph d="M743.5 -27q-264.5 0 -442.5 162t-178 455v788q0 33 11 44.5t44 11.5h223q33 0 44.5 -11.5t11.5 -44.5v-778q0 -338 286.5 -338t286.5 338v778q0 33 11.5 44.5t43.5 11.5h224q33 0 44 -11.5t11 -44.5v-788q0 -293 -178 -455t-442.5 -162zM993 1632h-497q-33 0 -44.5 11.5 t-11.5 44.5v108q0 33 11.5 44t44.5 11h497q33 0 44.5 -11t11.5 -44v-108q0 -33 -11.5 -44.5t-44.5 -11.5z" glyph-name="Umacron" horiz-adv-x="1486" unicode="Ū"/><glyph d="M813 129q-72 -78 -135.5 -115t-163.5 -37q-190 0 -290.5 109t-100.5 375v526q0 33 11 44t44 11h203q33 0 44 -11t11 -44v-465q0 -143 34 -204.5t124 -61.5q92 0 129 61.5t37 204.5v465q0 33 11 44t44 11h203q33 0 44 -11t11 -44v-465v-467q0 -33 -11 -44t-44 -11h-98 q-23 0 -35.5 11.5t-30.5 43.5zM852 1241h-498q-33 0 -44 11.5t-11 43.5v109q0 33 11.5 44t43.5 11h498q33 0 44 -11t11 -44v-109q0 -33 -11 -44t-44 -11z" glyph-name="umacron" unicode="ū"/><glyph d="M743.5 -27q-264.5 0 -442.5 162t-178 455v788q0 33 11 44.5t44 11.5h223q33 0 44.5 -11.5t11.5 -44.5v-778q0 -338 286.5 -338t286.5 338v778q0 33 11.5 44.5t43.5 11.5h224q33 0 44 -11.5t11 -44.5v-788q0 -293 -178 -455t-442.5 -162zM743.5 1595q-94.5 0 -185.5 41 t-138 146q-31 72 10 92l92 49q45 25 65.5 -20t33 -63.5t43 -34t79.5 -15.5q51 0 82 15.5t42.5 32.5t33.5 65q20 45 66 20l92 -49q41 -20 10 -92q-47 -104 -139 -145.5t-186.5 -41.5z" glyph-name="Ubreve" horiz-adv-x="1486" unicode="Ŭ"/><glyph d="M813 129q-72 -78 -135.5 -115t-163.5 -37q-190 0 -290.5 109t-100.5 375v526q0 33 11 44t44 11h203q33 0 44 -11t11 -44v-465q0 -143 34 -204.5t124 -61.5q92 0 129 61.5t37 204.5v465q0 33 11 44t44 11h203q33 0 44 -11t11 -44v-465v-467q0 -33 -11 -44t-44 -11h-98 q-23 0 -35.5 11.5t-30.5 43.5zM604 1204q-94 0 -185 41t-138 146q-31 72 10 92l92 49q45 25 65.5 -20.5t33 -63.5t43 -33.5t79.5 -15.5q51 0 82 15.5t42 32.5t34 64q20 45 65 21l93 -49q41 -20 10 -92q-47 -104 -139.5 -145.5t-186.5 -41.5z" glyph-name="ubreve" unicode="ŭ"/><glyph d="M743.5 -27q-264.5 0 -442.5 162t-178 455v788q0 33 11 44.5t44 11.5h223q33 0 44.5 -11.5t11.5 -44.5v-778q0 -338 286.5 -338t286.5 338v778q0 33 11.5 44.5t43.5 11.5h224q33 0 44 -11.5t11 -44.5v-788q0 -293 -178 -455t-442.5 -162zM743 1565q-98 0 -166.5 68.5 t-68.5 166.5t68.5 167t166.5 69q96 0 166 -69t70 -167t-70 -166.5t-166 -68.5zM743.5 1710q36.5 0 57 27.5t20.5 62.5t-20.5 61.5t-57 26.5t-58 -27.5t-21.5 -60.5q0 -35 21.5 -62.5t58 -27.5z" glyph-name="Uring" horiz-adv-x="1486" unicode="Ů"/><glyph d="M813 129q-72 -78 -135.5 -115t-163.5 -37q-190 0 -290.5 109t-100.5 375v526q0 33 11 44t44 11h203q33 0 44 -11t11 -44v-465q0 -143 34 -204.5t124 -61.5q92 0 129 61.5t37 204.5v465q0 33 11 44t44 11h203q33 0 44 -11t11 -44v-465v-467q0 -33 -11 -44t-44 -11h-98 q-23 0 -35.5 11.5t-30.5 43.5zM604 1174q-98 0 -166.5 68.5t-68.5 166.5t68.5 167t166.5 69q96 0 166 -69t70 -167t-70 -166.5t-166 -68.5zM604 1319q35 0 56.5 27.5t21.5 62.5t-20.5 61.5t-57.5 26.5t-58.5 -27.5t-21.5 -60.5q0 -35 21.5 -62.5t58.5 -27.5z" glyph-name="uring" unicode="ů"/><glyph d="M743.5 -27q-264.5 0 -442.5 162t-178 455v788q0 33 11 44.5t44 11.5h223q33 0 44.5 -11.5t11.5 -44.5v-778q0 -338 286.5 -338t286.5 338v778q0 33 11.5 44.5t43.5 11.5h224q33 0 44 -11.5t11 -44.5v-788q0 -293 -178 -455t-442.5 -162zM786 1751l-124 -154 q-20 -33 -87 -32h-143q-61 0 -2 65l256 283q37 45 78 -19l31 -49q26 -47 -9 -94zM1116 1751l-125 -154q-20 -33 -86 -32h-143q-61 0 -2 65l256 283q37 45 78 -19l30 -49q27 -47 -8 -94z" glyph-name="Uhungarumlaut" horiz-adv-x="1486" unicode="Ű"/><glyph d="M813 129q-72 -78 -135.5 -115t-163.5 -37q-190 0 -290.5 109t-100.5 375v526q0 33 11 44t44 11h203q33 0 44 -11t11 -44v-465q0 -143 34 -204.5t124 -61.5q92 0 129 61.5t37 204.5v465q0 33 11 44t44 11h203q33 0 44 -11t11 -44v-465v-467q0 -33 -11 -44t-44 -11h-98 q-23 0 -35.5 11.5t-30.5 43.5zM655 1360l-125 -154q-20 -33 -86 -32h-143q-61 0 -2 65l256 283q37 45 78 -19l31 -49q26 -47 -9 -94zM985 1360l-125 -154q-20 -33 -86 -32h-143q-61 0 -2 65l256 283q37 45 78 -19l30 -49q27 -47 -8 -94z" glyph-name="uhungarumlaut" unicode="ű"/><glyph d="M553 -233q0 117 96 213q-229 27 -377.5 186.5t-148.5 423.5v788q0 33 11 44.5t44 11.5h223q33 0 44.5 -11.5t11.5 -44.5v-778q0 -338 286.5 -338t286.5 338v778q0 33 11.5 44.5t43.5 11.5h224q33 0 44 -11.5t11 -44.5v-788q0 -272 -155.5 -432t-393.5 -181 q-96 -78 -96 -155q0 -147 110 -148q23 0 93 4q35 0 45 -8t10 -39v-41q0 -31 -10.5 -41t-44.5 -14q-57 -6 -113 -6q-115 0 -185.5 59.5t-70.5 178.5z" glyph-name="Uogonek" horiz-adv-x="1486" unicode="Ų"/><glyph d="M874 20l-61 109q-72 -78 -135.5 -115t-163.5 -37q-190 0 -290.5 109t-100.5 375v526q0 33 11 44t44 11h203q33 0 44 -11t11 -44v-465q0 -143 34 -204.5t124 -61.5q92 0 129 61.5t37 204.5v465q0 33 11 44t44 11h203q33 0 44 -11t11 -44v-932q0 -31 -11 -43t-38 -12 q-131 -80 -131 -178q0 -147 111 -148q23 0 92 4q35 0 45 -8t10 -39v-41q0 -31 -10.5 -41t-44.5 -14q-57 -6 -113 -6q-115 0 -185.5 59.5t-70.5 178.5q0 137 137 245z" glyph-name="uogonek" horiz-adv-x="1304" unicode="ų"/><glyph d="M631 670l297 735q12 33 19 44t20 11h41q12 -4 39 -55l296 -735l250 708q10 33 25.5 44.5t46.5 11.5h272q29 0 35 -11.5t-8 -44.5l-547 -1349q-25 -55 -39 -56h-24q-14 0 -39 56l-328 790l-328 -790q-25 -55 -38 -56h-25q-14 0 -39 56l-547 1349q-14 33 -8 44.5t35 11.5 h272q31 0 46.5 -11.5t25.5 -44.5zM920 1933h135q39 -2 78 -55l178 -258q33 -55 -23 -55h-123q-51 0 -82 55l-96 160l-96 -160q-31 -55 -82 -55h-123q-55 0 -22 55l178 258q39 53 78 55z" glyph-name="Wcircumflex" horiz-adv-x="1974" unicode="Ŵ"/><glyph d="M479 610l230 404l7 14t8 13t7 10.5t8 10.5t10.5 5t12.5 2h14q6 0 12.5 -2t11.5 -9t8 -11.5t9 -15.5t10 -17l230 -404l119 377q8 33 24.5 44t46.5 11h242q29 0 35 -11t-8 -44l-328 -952q-18 -55 -43 -55h-17q-18 0 -49 55l-311 579l-311 -579q-31 -55 -49 -55h-17 q-23 0 -43 55l-328 952q-14 33 -8 44t35 11h242q51 0 67 -45zM700 1542h136q39 -2 77 -55l179 -258q35 -55 -23 -55h-123q-51 0 -82 55l-96 160l-96 -160q-31 -55 -82 -55h-123q-57 0 -23 55l179 258q38 53 77 55z" glyph-name="wcircumflex" horiz-adv-x="1536" unicode="ŵ"/><glyph d="M14 1378q-16 33 -10 44.5t37 11.5h256q27 0 39 -10.5t33 -45.5l319 -573l326 573q20 35 32.5 45.5t38.5 10.5h250q31 0 37 -11.5t-10 -44.5l-512 -858v-465q0 -33 -11.5 -44t-43.5 -11h-213q-33 0 -44.5 11.5t-11.5 43.5v465zM621 1933h135q39 -2 78 -55l178 -258 q33 -55 -23 -55h-123q-51 0 -82 55l-96 160l-96 -160q-31 -55 -82 -55h-123q-55 0 -22 55l178 258q39 53 78 55z" glyph-name="Ycircumflex" horiz-adv-x="1376" unicode="Ŷ"/><glyph d="M569 485l224 502q18 33 31.5 44t39.5 11h230q29 0 35 -11t-9 -44l-616 -1349q-18 -33 -31.5 -44.5t-40.5 -11.5h-229q-29 0 -35 11.5t8 44.5l227 497l-391 852q-14 33 -8 44t35 11h229q27 0 40.5 -11t31.5 -44l227 -504zM504 1542h135q39 -2 78 -55l178 -258 q33 -55 -23 -55h-122q-51 0 -82 55l-97 160l-96 -160q-31 -55 -82 -55h-123q-57 0 -22 55l178 258q39 53 78 55z" glyph-name="ycircumflex" horiz-adv-x="1132" unicode="ŷ"/><glyph d="M14 1378q-16 33 -10 44.5t37 11.5h256q27 0 39 -10.5t33 -45.5l319 -573l326 573q20 35 32.5 45.5t38.5 10.5h250q31 0 37 -11.5t-10 -44.5l-512 -858v-465q0 -33 -11.5 -44t-43.5 -11h-213q-33 0 -44.5 11.5t-11.5 43.5v465zM332 1747q0 61 41 104t102.5 43t104.5 -43 t43 -104t-43 -102t-104.5 -41t-102.5 41t-41 102zM768 1747q0 61 41 104t102.5 43t104.5 -43t43 -104t-43 -102t-104.5 -41t-102.5 41t-41 102z" glyph-name="Ydieresis" horiz-adv-x="1376" unicode="Ÿ"/><glyph d="M1137 0h-1098q-18 0 -19 18v29q0 8 19 39l678 1065h-588q-33 0 -44 11.5t-11 43.5v172q0 33 11 44.5t44 11.5h1075q18 0 19 -19v-29q0 -8 -19 -38l-678 -1065h611q33 0 44 -11.5t11 -44.5v-172q0 -33 -11 -44t-44 -11zM877 1694l-132 -97q-39 -33 -86 -32h-172 q-61 0 -2 65l256 283q37 45 78 -19l76 -122q14 -25 11.5 -40t-29.5 -38z" glyph-name="Zacute" horiz-adv-x="1243" unicode="Ź"/><glyph d="M897 0h-838q-18 0 -18 18v25q0 14 18 43l441 684h-363q-33 0 -44 11.5t-11 43.5v162q0 33 11 44t44 11h817q18 0 19 -18v-25q0 -14 -19 -43l-428 -684h371q33 0 44 -11t11 -44v-162q0 -33 -11 -44t-44 -11zM768 1303l-131 -97q-39 -33 -86 -32h-172q-61 0 -2 65l256 283 q37 45 78 -19l75 -123q14 -25 11.5 -39.5t-29.5 -37.5z" glyph-name="zacute" horiz-adv-x="1013" unicode="ź"/><glyph d="M1137 0h-1098q-18 0 -19 18v29q0 8 19 39l678 1065h-588q-33 0 -44 11.5t-11 43.5v172q0 33 11 44.5t44 11.5h1075q18 0 19 -19v-29q0 -8 -19 -38l-678 -1065h611q33 0 44 -11.5t11 -44.5v-172q0 -33 -11 -44t-44 -11zM459 1745q0 76 51 129t127 53t129 -53t53 -129 t-53 -127t-129 -51t-127 51t-51 127z" glyph-name="Zdotaccent" horiz-adv-x="1243" unicode="Ż"/><glyph d="M897 0h-838q-18 0 -18 18v25q0 14 18 43l441 684h-363q-33 0 -44 11.5t-11 43.5v162q0 33 11 44t44 11h817q18 0 19 -18v-25q0 -14 -19 -43l-428 -684h371q33 0 44 -11t11 -44v-162q0 -33 -11 -44t-44 -11zM346 1354q0 76 51.5 129t127 53t129 -53t53.5 -129t-53.5 -127 t-129 -51t-127 51t-51.5 127z" glyph-name="zdotaccent" horiz-adv-x="1013" unicode="ż"/><glyph d="M1137 0h-1098q-18 0 -19 18v29q0 8 19 39l678 1065h-588q-33 0 -44 11.5t-11 43.5v172q0 33 11 44.5t44 11.5h1075q18 0 19 -19v-29q0 -8 -19 -38l-678 -1065h611q33 0 44 -11.5t11 -44.5v-172q0 -33 -11 -44t-44 -11zM688 1565h-135q-39 2 -78 55l-178 258q-35 55 22 55 h123q51 0 82 -55l97 -160l96 160q31 55 82 55h123q57 0 22 -55l-178 -258q-39 -53 -78 -55z" glyph-name="Zcaron" horiz-adv-x="1243" unicode="Ž"/><glyph d="M897 0h-838q-18 0 -18 18v25q0 14 18 43l441 684h-363q-33 0 -44 11.5t-11 43.5v162q0 33 11 44t44 11h817q18 0 19 -18v-25q0 -14 -19 -43l-428 -684h371q33 0 44 -11t11 -44v-162q0 -33 -11 -44t-44 -11zM586 1174h-135q-39 2 -78 55l-178 258q-35 55 22 55h123 q51 0 82 -55l96 -160l96 160q31 55 82 55h123q57 0 23 -55l-178 -258q-39 -53 -78 -55z" glyph-name="zcaron" horiz-adv-x="1013" unicode="ž"/><glyph d="M186 1038v64q0 217 110 337t310 120q119 0 203 -54q25 -14 30 -27.5t-1 -41.5l-25 -144q-6 -41 -18.5 -46t-51.5 14q-43 20 -102 20q-143 0 -143 -188v-1037q0 -33 -11.5 -44t-44.5 -11h-200q-33 0 -44.5 11.5t-11.5 43.5v738h-100q-33 0 -44 11t-11 44v135q0 33 11 44 t44 11h100z" glyph-name="longs" horiz-adv-x="862" unicode="ſ"/><glyph d="M635 793v-820q0 -217 -109.5 -336.5t-310.5 -119.5q-119 0 -203 53q-25 14 -30 27.5t2 42.5l24 143q6 41 18.5 46t51.5 -13q43 -20 102 -21q143 0 144 189v809h-179q-33 0 -44 11t-11 44v135q0 33 11.5 44t43.5 11h179v64q0 217 109.5 337t309.5 120q119 0 203 -54 q25 -14 30 -27.5t-1 -41.5l-25 -144q-6 -41 -18 -46t-51 14q-43 20 -103 20q-143 0 -143 -188v-54h260q33 0 44 -11t11 -44v-135q0 -33 -11 -44t-44 -11h-260z" glyph-name="florin" horiz-adv-x="999" unicode="ƒ"/><glyph d="M774 901h-4l-174 -352h352zM819 1405l717 -1350q10 -20 -1 -37.5t-34 -17.5h-262q-27 0 -40 11.5t-32 43.5l-108 211h-576l-108 -211q-18 -33 -31.5 -44t-40.5 -11h-262q-23 0 -34 17.5t-1 37.5l717 1350q4 8 10 19.5t9 15.5l7.5 10t8.5 8t10 2h6q6 0 10 -2t8.5 -8 l7.5 -10t9 -15.5t10 -19.5zM770 1565q-98 0 -166.5 68.5t-68.5 166.5t68.5 167t166.5 69q96 0 166 -69t70 -167t-70 -166.5t-166 -68.5zM770 1710q37 0 57.5 27.5t20.5 62.5t-20.5 61.5t-57.5 26.5t-58.5 -27.5t-21.5 -60.5q0 -35 21.5 -62.5t58.5 -27.5zM1022 2253 l-131 -96q-39 -33 -86 -33h-172q-61 0 -2 65l256 283q37 45 78 -18l75 -123q14 -25 11.5 -40t-29.5 -38z" glyph-name="Aringacute" horiz-adv-x="1542" unicode="Ǻ"/><glyph d="M256 772q-29 -4 -40 7.5t-19 43.5l-35 138q-8 31 -2 44t33 21q35 8 152.5 23.5t209.5 15.5q160 0 260 -33t148.5 -105.5t62.5 -152.5t14 -211v-508q0 -33 -11 -44t-44 -11h-117q-23 0 -35 11.5t-26 43.5l-21 51q-47 -39 -75.5 -59t-105.5 -45t-171 -25 q-143 0 -249.5 89.5t-106.5 255.5q0 158 110.5 243.5t266.5 85.5q152 0 272 -39q0 104 -36 145.5t-150 41.5q-133 0 -285 -27zM535 434q-78 0 -112 -33.5t-34 -78.5q0 -37 34 -74t112 -37q90 0 192 102v88q-131 33 -192 33zM580 1174q-98 0 -167 68.5t-69 166.5t68.5 167 t167.5 69q96 0 165.5 -69t69.5 -167t-69.5 -166.5t-165.5 -68.5zM580 1319q35 0 56 27.5t21 62.5t-20.5 61.5t-57 26.5t-58 -27.5t-21.5 -60.5q0 -35 21.5 -62.5t58.5 -27.5zM815 1876l-131 -96q-39 -33 -86 -33h-172q-61 0 -2 65l256 283q37 45 78 -18l76 -123 q14 -25 11 -40t-30 -38z" glyph-name="aringacute" horiz-adv-x="1159" unicode="ǻ"/><glyph d="M913 0q-33 0 -44 11.5t-11 43.5v211h-369l-114 -211q-14 -33 -28.5 -44t-43.5 -11h-262q-23 0 -34 17.5t-1 37.5l764 1323q37 51 49 56h1055q33 0 44 -11.5t11 -44.5v-172q0 -33 -11 -44t-44 -11h-651v-289h598q33 0 44 -11t11 -44v-172q0 -33 -11.5 -44t-43.5 -11h-598 v-297h651q33 0 44 -11.5t11 -44.5v-172q0 -33 -11 -44t-44 -11h-961zM858 948l-217 -399h217v399zM1413 1694l-131 -97q-39 -33 -86 -32h-172q-61 0 -2 65l256 283q37 45 78 -19l76 -122q14 -25 11 -40t-30 -38z" glyph-name="AEacute" horiz-adv-x="2045" unicode="Ǽ"/><glyph d="M750 612q0 102 -41 144.5t-160 42.5q-133 0 -285 -27q-47 -6 -59 49l-35 140q-8 31 -2 44t33 21q33 8 156.5 23.5t215.5 15.5q113 0 185.5 -27.5t148.5 -109.5q168 137 383 137q125 0 226.5 -53.5t162 -139.5t92 -187t31.5 -204v-8q0 -29 -10 -40t-41 -11h-680 q27 -80 91.5 -129t146.5 -49q119 0 237 53q57 27 80 -4l80 -100q20 -25 22.5 -38.5t-12.5 -31.5q-70 -70 -185.5 -108t-240.5 -38q-238 0 -383 201q-74 -72 -204 -136.5t-267 -64.5q-145 0 -251.5 85t-106.5 251q0 162 102.5 250t257.5 88q57 0 159 -11.5t153 -27.5z M750 313v88q-131 33 -232 33q-80 0 -119 -34.5t-39 -77.5q0 -23 8.5 -45.5t41 -44t86 -21.5t132.5 29.5t122 72.5zM1079 621h404q-45 190 -199 190q-164 0 -205 -190zM1133 1303l-132 -97q-39 -33 -86 -32h-172q-61 0 -2 65l256 283q37 45 78 -19l76 -123q14 -25 11.5 -39.5 t-29.5 -37.5z" glyph-name="aeacute" horiz-adv-x="1867" unicode="ǽ"/><glyph d="M86 717q0 305 217 524t520 219q121 0 246 -43l31 60q23 45 69 45h99q76 0 49 -56l-74 -141q145 -104 231.5 -264t86.5 -344q0 -305 -217.5 -524.5t-520.5 -219.5q-133 0 -256 47l-32 -63q-23 -45 -70 -45h-98q-76 0 -50 55l76 148q-143 102 -225 261t-82 341zM1223 717 q0 203 -121 334l-400 -770q55 -18 121 -19q186 0 293 136.5t107 318.5zM424 717q0 -193 115 -324l395 764q-61 14 -111 14q-182 0 -290.5 -136t-108.5 -318zM1094 1694l-131 -97q-39 -33 -86 -32h-172q-61 0 -3 65l256 283q37 45 78 -19l76 -122q14 -25 11.5 -40t-29.5 -38z " glyph-name="Oslashacute" horiz-adv-x="1646" unicode="Ǿ"/><glyph d="M66 520q0 225 159.5 385t384.5 160q82 0 158 -25l25 50q23 45 69 45h99q76 0 49 -56l-68 -129q98 -78 155.5 -189.5t57.5 -240.5q0 -223 -159.5 -383t-385.5 -160q-80 0 -159 23l-25 -47q-23 -45 -70 -45h-98q-78 0 -49 55l65 129q-96 76 -152 187.5t-56 240.5zM610 250 q96 0 165 78t69 192q0 86 -43 156l-219 -424q8 -2 28 -2zM377 520q0 -90 41 -155l217 419q-4 0 -12.5 1t-12.5 1q-96 0 -164.5 -75.5t-68.5 -190.5zM846 1303l-131 -97q-39 -33 -86 -32h-172q-61 0 -2 65l256 283q37 45 77 -19l76 -123q14 -25 11.5 -39.5t-29.5 -37.5z" glyph-name="oslashacute" horiz-adv-x="1245" unicode="ǿ"/><glyph d="M672 -532h-4q-80 2 -134.5 57t-54.5 135q0 82 55.5 139.5t137.5 57.5q94 0 151.5 -71t57.5 -192q0 -145 -97.5 -271t-228.5 -185q-23 -10 -33 6l-55 86q-10 18 10 33q160 101 195 205zM676 1167q-139 0 -188.5 -44t-49.5 -124q0 -74 63.5 -101.5t227.5 -45.5 q100 -12 178 -33.5t154 -67.5t118 -130t42 -201q0 -184 -144.5 -313.5t-396.5 -129.5q-338 0 -559 154q-27 16 -28 33.5t16 44.5l84 139q16 29 30.5 35t42.5 -8q174 -109 393 -109q238 0 238 137q0 88 -71.5 120t-239.5 52q-471 55 -471 412q0 78 29.5 157t90 150.5 t170 116.5t250.5 45q147 0 259 -37t243 -116q27 -16 28 -34t-16 -44l-84 -140q-16 -31 -30.5 -37t-42.5 11q-94 63 -167 85.5t-169 22.5z" glyph-name="Scommaaccent" horiz-adv-x="1312" unicode="Ș"/><glyph d="M541 -532h-4q-80 2 -134.5 57t-54.5 135q0 82 55.5 139.5t137.5 57.5q94 0 151.5 -71t57.5 -192q0 -145 -97.5 -271t-228.5 -185q-23 -10 -33 6l-55 86q-10 18 10 33q160 101 195 205zM512 217q172 0 172 88q0 33 -48 49.5t-155 30.5q-401 51 -401 334q0 158 119.5 252 t312.5 94q197 0 401 -117q27 -16 28 -33.5t-15 -44.5l-60 -102q-16 -31 -29.5 -37t-43.5 10q-125 84 -261 84q-158 0 -157 -88q0 -57 203 -84q193 -25 297 -96.5t104 -232.5q0 -158 -124 -252.5t-323 -94.5q-229 0 -426 134q-27 16 -27.5 33.5t15.5 43.5l60 103 q18 33 29.5 39t43.5 -13q138 -100 285 -100z" glyph-name="scommaaccent" horiz-adv-x="1050" unicode="ș"/><glyph d="M635 -532h-4q-80 2 -134.5 57t-54.5 135q0 82 55.5 139.5t137.5 57.5q94 0 151.5 -71t57.5 -192q0 -145 -97.5 -271t-228.5 -185q-23 -10 -33 6l-55 86q-10 18 10 33q160 101 195 205zM76 1434h1141q33 0 44 -11.5t11 -44.5v-186q0 -33 -11.5 -44t-43.5 -11h-404v-1082 q0 -33 -11 -44t-44 -11h-223q-33 0 -44.5 11.5t-11.5 43.5v1082h-403q-33 0 -44.5 11t-11.5 44v186q0 33 11.5 44.5t44.5 11.5z" glyph-name="uni021A" horiz-adv-x="1292" unicode="Ț"/><glyph d="M426 -532h-4q-80 2 -134.5 57t-54.5 135q0 82 55.5 139.5t137.5 57.5q94 0 151.5 -71t57.5 -192q0 -145 -97.5 -271t-228.5 -185q-23 -10 -33 6l-55 86q-10 18 10 33q160 101 195 205zM809 31q-84 -53 -203 -54q-201 0 -310.5 119t-109.5 332v369h-49q-33 0 -44 11 t-11 44v135q0 33 11 44t44 11h49v189q0 33 11.5 44t44.5 11h200q33 0 44.5 -11t11.5 -44v-189h260q33 0 44 -11t11 -44v-135q0 -33 -11 -44t-44 -11h-260v-353q0 -188 143 -188q59 0 102 20q39 18 51.5 13.5t18.5 -45.5l25 -144q6 -29 1 -42t-30 -27z" glyph-name="uni021B" horiz-adv-x="913" unicode="ț"/><glyph d="M346 1542h135q39 -2 78 -55l178 -258q33 -55 -22 -55h-123q-51 0 -82 55l-96 160l-97 -160q-31 -55 -81 -55h-123q-55 0 -23 55l178 258q39 53 78 55z" glyph-name="circumflex" horiz-adv-x="827" unicode="ˆ"/><glyph d="M481 1174h-135q-39 2 -78 55l-178 258q-33 55 23 55h123q51 0 81 -55l97 -160l96 160q31 55 82 55h123q55 0 22 -55l-178 -258q-39 -53 -78 -55z" glyph-name="caron" horiz-adv-x="827" unicode="ˇ"/><glyph d="M655 1241h-497q-33 0 -44.5 11.5t-11.5 43.5v109q0 33 11.5 44t44.5 11h497q33 0 44.5 -11t11.5 -44v-109q0 -33 -11.5 -44t-44.5 -11z" glyph-name="uni02C9" horiz-adv-x="813" unicode="ˉ"/><glyph d="M403.5 1204q-94.5 0 -185.5 41t-138 146q-31 72 10 92l92 49q45 25 65.5 -20.5t33 -63.5t43 -33.5t79.5 -15.5q51 0 82 15.5t42.5 32.5t33.5 64q20 45 66 21l92 -49q41 -20 10 -92q-47 -104 -139 -145.5t-186.5 -41.5z" glyph-name="breve" horiz-adv-x="808" unicode="˘"/><glyph d="M72 1354q0 76 51 129t127 53t129 -53t53 -129t-53 -127t-129 -51t-127 51t-51 127z" glyph-name="dotaccent" horiz-adv-x="503" unicode="˙"/><glyph d="M313 1174q-98 0 -166.5 68.5t-68.5 166.5t68.5 167t166.5 69q96 0 166 -69t70 -167t-70 -166.5t-166 -68.5zM313 1319q35 0 56.5 27.5t21.5 62.5t-20.5 61.5t-57.5 26.5t-58.5 -27.5t-21.5 -60.5q0 -35 21.5 -62.5t58.5 -27.5z" glyph-name="ring" horiz-adv-x="626" unicode="˚"/><glyph d="M213 20l149 -20q-43 -25 -87 -75t-44 -103q0 -147 111 -148q23 0 92 4q35 0 45 -8t10 -39v-41q0 -31 -10 -41t-45 -14q-57 -6 -112 -6q-115 0 -185.5 59.5t-70.5 178.5q0 144 147 253z" glyph-name="ogonek" horiz-adv-x="555" unicode="˛"/><glyph d="M608 1442q18 0 39 20.5t31 44.5q10 29 24.5 34t45.5 -5l77 -35q33 -12 39 -26.5t-6 -44.5q-74 -195 -235 -195q-88 0 -174 49q-16 8 -39 20.5t-33 17.5t-23.5 9t-27.5 4q-18 0 -39 -20.5t-31 -44.5q-12 -29 -25.5 -34t-44.5 5l-77 35q-33 12 -39.5 26.5t6.5 45.5 q74 195 235 194q88 0 174 -49q16 -8 39 -20.5t33 -17.5t23.5 -9t27.5 -4z" glyph-name="tilde" horiz-adv-x="933" unicode="˜"/><glyph d="M453 1360l-125 -154q-20 -33 -86 -32h-144q-61 0 -2 65l256 283q37 45 78 -19l31 -49q27 -47 -8 -94zM782 1360l-125 -154q-20 -33 -86 -32h-143q-61 0 -2 65l256 283q37 45 78 -19l31 -49q26 -47 -9 -94z" glyph-name="hungarumlaut" horiz-adv-x="858" unicode="˝"/><glyph d="M1516 0h-1477q-29 0 -35 11.5t8 43.5l717 1350q4 8 10 19.5t9.5 15.5t7.5 10t8 8t10 2h6q6 0 10.5 -2t8.5 -8t7 -10t9 -15.5t10 -19.5l717 -1350q14 -33 8.5 -44t-34.5 -11zM1057 283l-279 544l-278 -542z" glyph-name="Delta" horiz-adv-x="1554" unicode="Δ"/><glyph d="M1270 717q0 184 -106.5 319t-293.5 135q-182 0 -290.5 -136t-108.5 -318q0 -174 131 -375q88 -133 88 -192v-95q0 -33 -11 -44t-44 -11h-502q-33 0 -44 11.5t-11 43.5v172q0 33 11 44.5t44 11.5h205q-115 88 -160 207.5t-45 226.5q0 305 217 524t520.5 219t520.5 -219 t217 -524q0 -106 -45 -226t-160 -208h205q33 0 44 -11.5t11 -44.5v-172q0 -33 -11.5 -44t-43.5 -11h-502q-33 0 -44 11.5t-11 43.5v95q0 59 88 192q131 201 131 375z" glyph-name="Omega" horiz-adv-x="1740" unicode="Ω"/><glyph d="M885 55l-41 74q-72 -78 -135.5 -115t-163.5 -37q-29 0 -78 5v-344q0 -33 -11.5 -44.5t-43.5 -11.5h-203q-33 0 -44 11.5t-11 44.5v1349q0 33 11 44t44 11h203q33 0 44 -11t11 -44v-465q0 -143 34 -204.5t124 -61.5q92 0 129 61.5t37 204.5v465q0 33 11 44t44 11h203 q33 0 44 -11t11 -44v-932q0 -33 -11.5 -44t-43.5 -11h-99q-23 0 -35 11t-30 44z" glyph-name="mu" horiz-adv-x="1257" unicode="μ"/><glyph d="M76 1042h1315q33 0 44 -11t11 -44v-172q0 -33 -11.5 -44t-43.5 -11h-261v-316q0 -188 144 -188q59 0 102 20q39 18 51.5 13.5t18.5 -45.5l24 -144q6 -29 1 -42t-29 -27q-84 -53 -203 -54q-201 0 -310.5 119t-109.5 332v332h-233v-705q0 -33 -11.5 -44t-44.5 -11h-200 q-33 0 -44.5 11.5t-11.5 43.5v705h-198q-33 0 -44.5 11t-11.5 44v172q0 33 11.5 44t44.5 11z" glyph-name="pi" horiz-adv-x="1546" unicode="π"/><glyph d="M631 670l297 735q12 33 19 44t20 11h41q12 -4 39 -55l296 -735l250 708q10 33 25.5 44.5t46.5 11.5h272q29 0 35 -11.5t-8 -44.5l-547 -1349q-25 -55 -39 -56h-24q-14 0 -39 56l-328 790l-328 -790q-25 -55 -38 -56h-25q-14 0 -39 56l-547 1349q-14 33 -8 44.5t35 11.5 h272q31 0 46.5 -11.5t25.5 -44.5zM815 1597l-131 97q-27 23 -30 38t12 40l75 122q41 63 78 19l256 -283q59 -66 -2 -65h-172q-47 -1 -86 32z" glyph-name="Wgrave" horiz-adv-x="1974" unicode="Ẁ"/><glyph d="M479 610l230 404l7 14t8 13t7 10.5t8 10.5t10.5 5t12.5 2h14q6 0 12.5 -2t11.5 -9t8 -11.5t9 -15.5t10 -17l230 -404l119 377q8 33 24.5 44t46.5 11h242q29 0 35 -11t-8 -44l-328 -952q-18 -55 -43 -55h-17q-18 0 -49 55l-311 579l-311 -579q-31 -55 -49 -55h-17 q-23 0 -43 55l-328 952q-14 33 -8 44t35 11h242q51 0 67 -45zM600 1206l-131 97q-27 23 -30 38t12 39l75 123q41 63 78 19l256 -283q59 -66 -2 -65h-172q-47 -1 -86 32z" glyph-name="wgrave" horiz-adv-x="1536" unicode="ẁ"/><glyph d="M381 1378l250 -708l297 735q27 51 39 55h41q12 0 19 -11t20 -44l296 -735l250 708q10 33 25.5 44.5t46.5 11.5h272q29 0 35 -11.5t-8 -44.5l-547 -1349q-25 -55 -39 -56h-24q-14 0 -39 56l-328 790l-328 -790q-25 -55 -38 -56h-25q-14 0 -39 56l-547 1349q-14 33 -8 44.5 t35 11.5h272q31 0 46.5 -11.5t25.5 -44.5zM1260 1694l-132 -97q-39 -33 -86 -32h-172q-61 0 -2 65l256 283q37 45 78 -19l76 -122q14 -25 11.5 -40t-29.5 -38z" glyph-name="Wacute" horiz-adv-x="1974" unicode="Ẃ"/><glyph d="M356 997l123 -387l230 404l7 14t8 13t7 10.5t8 10.5t10.5 5t12.5 2h14q6 0 12.5 -2t11.5 -9t8 -11.5t9 -15.5t10 -17l230 -404l119 377q8 33 24.5 44t46.5 11h242q29 0 35 -11t-8 -44l-328 -952q-18 -55 -43 -55h-17q-18 0 -49 55l-311 579l-311 -579q-31 -55 -49 -55 h-17q-23 0 -43 55l-328 952q-14 33 -8 44t35 11h242q51 0 67 -45zM1034 1303l-131 -97q-39 -33 -86 -32h-172q-61 0 -2 65l256 283q37 45 78 -19l76 -123q14 -25 11 -39.5t-30 -37.5z" glyph-name="wacute" horiz-adv-x="1536" unicode="ẃ"/><glyph d="M631 670l297 735q12 33 19 44t20 11h41q12 -4 39 -55l296 -735l250 708q10 33 25.5 44.5t46.5 11.5h272q29 0 35 -11.5t-8 -44.5l-547 -1349q-25 -55 -39 -56h-24q-14 0 -39 56l-328 790l-328 -790q-25 -55 -38 -56h-25q-14 0 -39 56l-547 1349q-14 33 -8 44.5t35 11.5 h272q31 0 46.5 -11.5t25.5 -44.5zM631 1747q0 61 41 104t102.5 43t104.5 -43t43 -104t-43 -102t-104.5 -41t-102.5 41t-41 102zM1067 1747q0 61 41 104t102.5 43t104.5 -43t43 -104t-43 -102t-104.5 -41t-102.5 41t-41 102z" glyph-name="Wdieresis" horiz-adv-x="1974" unicode="Ẅ"/><glyph d="M479 610l230 404l7 14t8 13t7 10.5t8 10.5t10.5 5t12.5 2h14q6 0 12.5 -2t11.5 -9t8 -11.5t9 -15.5t10 -17l230 -404l119 377q8 33 24.5 44t46.5 11h242q29 0 35 -11t-8 -44l-328 -952q-18 -55 -43 -55h-17q-18 0 -49 55l-311 579l-311 -579q-31 -55 -49 -55h-17 q-23 0 -43 55l-328 952q-14 33 -8 44t35 11h242q51 0 67 -45zM412 1355.5q0 61.5 41 104.5t102 43t104 -43t43 -104.5t-43 -102.5t-104 -41t-102 41t-41 102.5zM848 1355.5q0 61.5 41 104.5t102.5 43t104.5 -43t43 -104.5t-43 -102.5t-104.5 -41t-102.5 41t-41 102.5z" glyph-name="wdieresis" horiz-adv-x="1536" unicode="ẅ"/><glyph d="M14 1378q-16 33 -10 44.5t37 11.5h256q27 0 39 -10.5t33 -45.5l319 -573l326 573q20 35 32.5 45.5t38.5 10.5h250q31 0 37 -11.5t-10 -44.5l-512 -858v-465q0 -33 -11.5 -44t-43.5 -11h-213q-33 0 -44.5 11.5t-11.5 43.5v465zM621 1597l-132 97q-27 23 -29.5 38t11.5 40 l76 122q41 63 78 19l256 -283q59 -66 -2 -65h-172q-47 -1 -86 32z" glyph-name="Ygrave" horiz-adv-x="1376" unicode="Ỳ"/><glyph d="M569 485l224 502q18 33 31.5 44t39.5 11h230q29 0 35 -11t-9 -44l-616 -1349q-18 -33 -31.5 -44.5t-40.5 -11.5h-229q-29 0 -35 11.5t8 44.5l227 497l-391 852q-14 33 -8 44t35 11h229q27 0 40.5 -11t31.5 -44l227 -504zM498 1206l-131 97q-27 23 -30 38t11 39l76 123 q41 63 78 19l256 -283q59 -66 -2 -65h-172q-47 -1 -86 32z" glyph-name="ygrave" horiz-adv-x="1132" unicode="ỳ"/><glyph d="M737 459h-579q-33 0 -44.5 11t-11.5 44v131q0 33 11.5 44t44.5 11h579q33 0 44.5 -11t11.5 -44v-131q0 -33 -11.5 -44t-44.5 -11z" glyph-name="endash" horiz-adv-x="894" unicode="–"/><glyph d="M1083 459h-925q-33 0 -44.5 11t-11.5 44v131q0 33 11.5 44t44.5 11h925q33 0 44.5 -11t11.5 -44v-131q0 -33 -11.5 -44t-44.5 -11z" glyph-name="emdash" horiz-adv-x="1241" unicode="—"/><glyph d="M311 1124h4q80 -2 134.5 -57t54.5 -135q0 -82 -55.5 -139.5t-137.5 -57.5q-94 0 -151.5 71t-57.5 191q0 145 97.5 271.5t228.5 185.5q23 10 33 -6l55 -86q10 -18 -10 -33q-160 -101 -195 -205z" glyph-name="quoteleft" horiz-adv-x="606" unicode="‘"/><glyph d="M295 1071h-4q-80 2 -134.5 57.5t-54.5 135.5q0 82 55.5 139t137.5 57q94 0 151.5 -70.5t57.5 -191.5q0 -145 -97.5 -271t-228.5 -186q-23 -10 -33 7l-55 86q-10 18 10 32q160 101 195 205z" glyph-name="quoteright" horiz-adv-x="606" unicode="’"/><glyph d="M295 -23h-4q-80 2 -134.5 57.5t-54.5 135.5q0 82 55.5 139.5t137.5 57.5q94 0 151.5 -71t57.5 -192q0 -145 -97.5 -271t-228.5 -185q-23 -10 -33 6l-55 86q-10 18 10 33q160 100 195 204z" glyph-name="quotesinglbase" horiz-adv-x="606" unicode="‚"/><glyph d="M784 1124h4q80 -2 134.5 -57t54.5 -135q0 -82 -55.5 -139.5t-137.5 -57.5q-94 0 -151.5 71t-57.5 191q0 145 97.5 271.5t228.5 185.5q20 10 33 -6l55 -86q10 -18 -10 -33q-160 -101 -195 -205zM311 1124h4q80 -2 134.5 -57t54.5 -135q0 -82 -55.5 -139.5t-137.5 -57.5 q-94 0 -151.5 71t-57.5 191q0 145 97.5 271.5t228.5 185.5q23 10 33 -6l55 -86q10 -18 -10 -33q-160 -101 -195 -205z" glyph-name="quotedblleft" horiz-adv-x="1079" unicode="“"/><glyph d="M295 1071h-4q-80 2 -134.5 57.5t-54.5 135.5q0 82 55.5 139t137.5 57q94 0 151.5 -70.5t57.5 -191.5q0 -145 -97.5 -271t-228.5 -186q-23 -10 -33 7l-55 86q-10 18 10 32q160 101 195 205zM768 1071h-4q-80 2 -134.5 57.5t-54.5 135.5q0 82 55.5 139t137.5 57 q94 0 151.5 -70.5t57.5 -191.5q0 -145 -97.5 -271t-228.5 -186q-20 -10 -33 7l-55 86q-10 18 10 32q160 101 195 205z" glyph-name="quotedblright" horiz-adv-x="1079" unicode="”"/><glyph d="M295 -23h-4q-80 2 -134.5 57.5t-54.5 135.5q0 82 55.5 139.5t137.5 57.5q94 0 151.5 -71t57.5 -192q0 -145 -97.5 -271t-228.5 -185q-23 -10 -33 6l-55 86q-10 18 10 33q160 100 195 204zM768 -23h-4q-80 2 -134.5 57.5t-54.5 135.5q0 82 55.5 139.5t137.5 57.5 q94 0 151.5 -71t57.5 -192q0 -145 -97.5 -271t-228.5 -185q-20 -10 -33 6l-55 86q-10 18 10 33q160 100 195 204z" glyph-name="quotedblbase" horiz-adv-x="1079" unicode="„"/><glyph d="M729 797h-168l-29 -944q0 -33 -11 -44.5t-44 -11.5h-86q-33 0 -44 11.5t-11 44.5l-29 944h-166q-33 0 -44 11t-11 44v131q0 33 11.5 44t43.5 11h164v340q0 33 11.5 44.5t43.5 11.5h150q33 0 44 -11.5t11 -44.5v-340h164q33 0 44 -11t11 -44v-131q0 -33 -11 -44t-44 -11z " glyph-name="dagger" horiz-adv-x="870" unicode="†"/><glyph d="M729 207h-164v-354q0 -33 -11 -44.5t-44 -11.5h-150q-33 0 -44 11.5t-11 44.5v354h-164q-33 0 -44 11t-11 44v131q0 33 11.5 44.5t43.5 11.5h164v403h-164q-33 0 -44 11t-11 44v131q0 33 11.5 44.5t43.5 11.5h164v284q0 33 11.5 44.5t43.5 11.5h150q33 0 44 -11.5 t11 -44.5v-284h164q33 0 44 -11.5t11 -44.5v-131q0 -33 -11 -44t-44 -11h-164v-403h164q33 0 44 -11.5t11 -44.5v-131q0 -33 -11 -44t-44 -11z" glyph-name="daggerdbl" horiz-adv-x="870" unicode="‡"/><glyph d="M66 700.5q0 104.5 71.5 178t176 73.5t178 -73.5t73.5 -178t-73.5 -176t-178 -71.5t-176 71.5t-71.5 176z" glyph-name="bullet" horiz-adv-x="630" unicode="•"/><glyph d="M102 170q0 82 55.5 139.5t137.5 57.5t139.5 -57.5t57.5 -139.5t-57.5 -137.5t-139.5 -55.5t-137.5 55.5t-55.5 137.5zM594 170q0 82 55.5 139.5t137 57.5t139 -57.5t57.5 -139.5t-57.5 -137.5t-139 -55.5t-137 55.5t-55.5 137.5zM1085 170q0 82 55.5 139.5t137.5 57.5 t139.5 -57.5t57.5 -139.5t-57.5 -137.5t-139.5 -55.5t-137.5 55.5t-55.5 137.5z" glyph-name="ellipsis" horiz-adv-x="1576" unicode="…"/><glyph d="M420 727q-160 0 -257 95.5t-97 271.5t97 271t257 95t257 -95t97 -271t-97 -271.5t-257 -95.5zM419.5 907q57.5 0 94.5 51.5t37 135.5t-37 135t-94.5 51t-94 -51t-36.5 -135t36.5 -135.5t94 -51.5zM1487 1378l-952 -1339q-29 -39 -70 -39h-148q-78 0 -36 55l952 1340 q29 39 70 39h147q78 -1 37 -56zM1347.5 -4q-159.5 0 -257 95t-97.5 271.5t97.5 271.5t257 95t257 -95t97.5 -271.5t-97.5 -271.5t-257 -95zM1347.5 176q57.5 0 94.5 51.5t37 135t-37 135t-94.5 51.5t-94 -51.5t-36.5 -135t36.5 -135t94 -51.5zM2160.5 -4q-159.5 0 -257 95 t-97.5 271.5t97.5 271.5t257 95t257 -95t97.5 -271.5t-97.5 -271.5t-257 -95zM2160.5 176q57.5 0 94.5 51.5t37 135t-37 135t-94.5 51.5t-94 -51.5t-36.5 -135t36.5 -135t94 -51.5z" glyph-name="perthousand" horiz-adv-x="2580" unicode="‰"/><glyph d="M80 625l328 372q25 25 38 27t39 -14l121 -70q47 -29 12 -78l-256 -342l256 -342q33 -47 -12 -78l-121 -69q-27 -16 -40 -14.5t-37 26.5l-328 373q-39 43 -39 96v16q0 54 39 97z" glyph-name="guilsinglleft" horiz-adv-x="702" unicode="‹"/><glyph d="M295 997l328 -372q39 -43 39 -97v-16q0 -53 -39 -96l-328 -373q-25 -25 -38 -27t-40 15l-121 69q-45 31 -12 78l256 342l-256 342q-35 49 12 78l121 70q27 16 40 14t38 -27z" glyph-name="guilsinglright" horiz-adv-x="702" unicode="›"/><glyph d="M1008 1378l-691 -1333q-23 -45 -69 -45h-98q-76 0 -50 55l691 1334q23 45 69 45h98q79 -1 50 -56z" glyph-name="fraction" horiz-adv-x="1077" unicode="⁄"/><glyph glyph-name="uni2070" horiz-adv-x="0" unicode="⁰"/><glyph glyph-name="uni2080" horiz-adv-x="649" unicode="₀"/><glyph d="M43 545l127 65q43 25 57 25h92q25 0 25 -25v-585q0 -25 -25 -25h-131q-25 0 -24 25v381h-109q-25 0 -24 24v88q0 19 12 27z" glyph-name="uni2081" horiz-adv-x="405" unicode="₁"/><glyph glyph-name="uni2083" horiz-adv-x="0" unicode="₃"/><glyph glyph-name="uni2086" horiz-adv-x="0" unicode="₆"/><glyph glyph-name="uni2088" horiz-adv-x="0" unicode="₈"/><glyph glyph-name="peseta" horiz-adv-x="3162" unicode="₧"/><glyph d="M1012 479h-412q92 -217 305 -217q96 0 176 37q31 12 46.5 5t25.5 -38l57 -162q23 -61 -18 -75q-143 -55 -287 -56q-229 0 -404 141.5t-249 364.5h-166q-33 0 -44 11.5t-11 44.5v28q0 33 11 44t44 11h133q-8 51 -8 123v41h-125q-33 0 -44 11.5t-11 44.5v28q0 33 11 44.5 t44 11.5h145q55 240 237.5 389t436.5 149q143 0 287 -55q41 -14 18 -76l-57 -162q-10 -31 -25.5 -38t-46.5 6q-80 37 -176 36q-254 0 -332 -249h439q33 0 44 -11.5t11 -44.5v-28q0 -33 -11.5 -44.5t-43.5 -11.5h-463v-41q0 -72 10 -123h453q33 0 44 -11t11 -44v-28 q0 -33 -11 -44.5t-44 -11.5z" glyph-name="Euro" horiz-adv-x="1323" unicode="€"/><glyph d="M219 438l-98 -28q-37 -10 -51.5 -3t-18.5 35l-6 33q-8 53 31 68q20 6 143 45v418q0 227 73 338.5t286 111.5q160 0 243.5 -92t81.5 -234.5t-80 -300.5q-61 -117 -160.5 -192.5t-277.5 -140.5v-68q0 -162 70.5 -231.5t220.5 -69.5q70 0 121 37q35 25 49 17.5t20 -50.5 l4 -31q6 -29 1 -42t-29 -27q-84 -53 -203 -54q-199 0 -309.5 123t-110.5 328v10zM692 903q47 102 59.5 190.5t-29.5 151t-144.5 62.5t-147.5 -69t-45 -232v-355q237 105 307 252z" glyph-name="afii61289" horiz-adv-x="985" unicode="ℓ"/><glyph d="M51 1434h635q29 0 29 -27v-121q0 -16 -6.5 -22.5t-22.5 -6.5h-219v-587q0 -25 -31 -25h-139q-27 0 -27 25v587h-219q-31 0 -31 29v121q0 27 31 27zM1550 1006l-239 -347q-25 -31 -33 -30h-14q-8 0 -29 30l-236 342l-38 -327q-2 -14 -4.5 -19.5t-8.5 -7.5t-20 -2h-123 q-35 0 -29 29l96 766q2 10 11 10h8q6 0 14 -10l367 -537l366 537q8 10 17 10h8q8 0 10 -10l94 -766q6 -29 -30 -29h-123q-16 0 -21.5 5t-7.5 24z" glyph-name="trademark" horiz-adv-x="1847" unicode="™"/><glyph d="M1270 717q0 184 -106.5 319t-293.5 135q-182 0 -290.5 -136t-108.5 -318q0 -174 131 -375q88 -133 88 -192v-95q0 -33 -11 -44t-44 -11h-502q-33 0 -44 11.5t-11 43.5v172q0 33 11 44.5t44 11.5h205q-115 88 -160 207.5t-45 226.5q0 305 217 524t520.5 219t520.5 -219 t217 -524q0 -106 -45 -226t-160 -208h205q33 0 44 -11.5t11 -44.5v-172q0 -33 -11.5 -44t-43.5 -11h-502q-33 0 -44 11.5t-11 43.5v95q0 59 88 192q131 201 131 375z" glyph-name="uni2126" horiz-adv-x="1740" unicode="Ω"/><glyph d="M426 1067v-258h750v266q-139 190 -373 191q-238 0 -377 -199zM1485 614h-1059v-254q137 -197 377 -196q207 0 373 166q25 25 40 25.5t37 -25.5l62 -70q23 -23 22.5 -39t-22.5 -39q-215 -211 -512 -211q-303 0 -520 219.5t-217 526.5q0 305 217 524t520 219t520 -219 t217 -524v-47q0 -33 -11 -44.5t-44 -11.5z" glyph-name="estimated" horiz-adv-x="1605" unicode="℮"/><glyph d="M1130 1378l-690 -1333q-23 -45 -69 -45h-99q-76 0 -49 55l690 1334q23 45 70 45h98q78 -1 49 -56zM135 1343l127 66q43 25 57 25h93q25 0 24 -25v-586q0 -25 -24 -24h-138q-25 0 -24 24v375h-103q-25 0 -24 25v94q0 18 12 26zM1077 -27q-119 0 -185.5 55.5t-66.5 139.5 q0 59 34 102t65 54v4q-82 55 -82 139q0 86 57 140.5t178 54.5t179.5 -54.5t58.5 -140.5q0 -49 -27.5 -86t-54.5 -53v-4q31 -10 64.5 -53.5t33.5 -102.5q0 -84 -67.5 -139.5t-186.5 -55.5zM1077 270q-102 -25 -102 -92q0 -35 27.5 -56.5t74.5 -21.5t77 21.5t30 56.5 q-1 65 -107 92zM1077 535q-88 0 -88 -78q0 -55 88 -76q90 20 90 76q0 35 -23.5 56.5t-66.5 21.5z" glyph-name="oneeighth" horiz-adv-x="1454" unicode="⅛"/><glyph d="M1208 1378l-690 -1333q-23 -45 -69 -45h-99q-76 0 -49 55l690 1334q23 45 70 45h98q78 -1 49 -56zM1155 -27q-119 0 -185.5 55.5t-66.5 139.5q0 59 34 102t64 54v4q-82 55 -81 139q0 86 57 140.5t178 54.5t179.5 -54.5t58.5 -140.5q0 -49 -28 -86t-54 -53v-4 q31 -10 64.5 -53.5t33.5 -102.5q0 -84 -67.5 -139.5t-186.5 -55.5zM1155 270q-102 -25 -102 -92q0 -35 27.5 -56.5t74.5 -21.5t77 21.5t30 56.5q-1 65 -107 92zM1155 535q-88 0 -88 -78q0 -55 88 -76q90 20 90 76q0 35 -23.5 56.5t-66.5 21.5zM360 778q-131 0 -227 96 q-16 14 2 35l80 86q18 18 37 4q55 -55 108 -55q37 0 63 16.5t26 38.5q0 47 -89 48h-59q-25 0 -25 24v94q0 27 25 27h59q88 0 89 47q0 23 -26 39t-63 16q-53 0 -108 -55q-18 -14 -37 4l-80 86q-18 20 -2 35q96 96 227 96q94 0 170 -51t76 -147q0 -90 -80 -142v-2 q80 -51 80 -141q0 -96 -76 -147.5t-170 -51.5z" glyph-name="threeeighths" horiz-adv-x="1531" unicode="⅜"/><glyph d="M1202 1378l-690 -1333q-23 -45 -70 -45h-98q-78 0 -49 55l690 1334q23 45 70 45h98q76 -1 49 -56zM1149 -27q-119 0 -185.5 55.5t-66.5 139.5q0 59 34 102t64 54v4q-82 55 -82 139q0 86 57.5 140.5t178.5 54.5t179 -54.5t58 -140.5q0 -49 -27.5 -86t-53.5 -53v-4 q31 -10 64.5 -53.5t33.5 -102.5q0 -84 -67.5 -139.5t-186.5 -55.5zM1149 270q-102 -25 -102 -92q0 -35 27.5 -56.5t74.5 -21.5t76.5 21.5t29.5 56.5q0 65 -106 92zM1149 535q-88 0 -88 -78q0 -55 88 -76q90 20 90 76q0 35 -23.5 56.5t-66.5 21.5zM215 1434h320q23 0 22 -25 v-78q0 -27 -22 -26h-230l-12 -105h67q244 0 244 -209q0 -106 -71.5 -162.5t-184.5 -56.5q-117 0 -217 96q-12 14 4 35l51 55q18 20 35 3q63 -57 127 -58q106 0 107 84q0 82 -107 82h-174q-31 0 -24 27l38 313q2 12 4.5 16.5t7.5 6.5t15 2z" glyph-name="fiveeighths" horiz-adv-x="1525" unicode="⅝"/><glyph d="M1092 1378l-691 -1333q-23 -45 -69 -45h-99q-78 0 -49 55l690 1334q23 45 70 45h98q77 -1 50 -56zM1038.5 -27q-118.5 0 -185.5 55.5t-67 139.5q0 59 34 102t65 54v4q-82 55 -82 139q0 86 57.5 140.5t178 54.5t179 -54.5t58.5 -140.5q0 -49 -27.5 -86t-54.5 -53v-4 q31 -10 64.5 -53.5t33.5 -102.5q0 -84 -67.5 -139.5t-186 -55.5zM1038 270q-102 -25 -102 -92q0 -35 27.5 -56.5t74.5 -21.5t77 21.5t30 56.5q-1 65 -107 92zM1038 535q-88 0 -88 -78q0 -55 88 -76q90 20 90 76q0 35 -23.5 56.5t-66.5 21.5zM623 1417v-4q0 -12 -9 -27 l-313 -563q-14 -25 -39 -24h-102q-33 0 -25 24l254 463h-242q-25 2 -24 25v98q0 25 24 25h457q19 -1 19 -17z" glyph-name="seveneighths" horiz-adv-x="1415" unicode="⅞"/><glyph d="M524 936q240 0 336 -131q0 166 -70.5 266t-183.5 100q-162 0 -282 -120q-27 -23 -41.5 -21t-36.5 27l-119 129q-23 27 -25 40t19 38q201 197 459 196q131 0 235.5 -40t174 -109.5t114.5 -168t65.5 -209t20.5 -237.5q0 -160 -26.5 -283.5t-89 -226t-180.5 -158t-286 -55.5 q-231 0 -378.5 149.5t-147.5 364.5t124.5 332t317.5 117zM627 252q98 0 156.5 59.5t58.5 153.5q0 92 -58.5 151.5t-156.5 59.5q-90 0 -152.5 -61.5t-62.5 -149.5q0 -94 59.5 -153.5t155.5 -59.5z" glyph-name="partialdiff" horiz-adv-x="1282" unicode="∂"/><glyph d="M1516 0h-1477q-29 0 -35 11.5t8 43.5l717 1350q4 8 10 19.5t9.5 15.5t7.5 10t8 8t10 2h6q6 0 10.5 -2t8.5 -8t7 -10t9 -15.5t10 -19.5l717 -1350q14 -33 8.5 -44t-34.5 -11zM1057 283l-279 544l-278 -542z" glyph-name="uni2206" horiz-adv-x="1554" unicode="∆"/><glyph d="M487 1151v-1096q0 -33 -11 -44t-44 -11h-223q-33 0 -44 11.5t-11 43.5v1323q0 33 11 44.5t44 11.5h930q33 0 44 -11.5t11 -44.5v-1323q0 -33 -11.5 -44t-43.5 -11h-224q-33 0 -44 11.5t-11 43.5v1096h-373z" glyph-name="product" horiz-adv-x="1347" unicode="∏"/><glyph d="M883 672l-254 -389h463q33 0 44 -11.5t11 -44.5v-172q0 -33 -11.5 -44t-43.5 -11h-930q-33 0 -44.5 11.5t-11.5 43.5l447 658l-447 665q0 33 11.5 44.5t44.5 11.5h930q33 0 44 -11.5t11 -44.5v-172q0 -33 -11.5 -44t-43.5 -11h-463l254 -395q23 -43 0 -84z" glyph-name="summation" horiz-adv-x="1259" unicode="∑"/><glyph d="M1063 479h-905q-33 0 -44.5 11.5t-11.5 44.5v110q0 33 11.5 44t44.5 11h905q33 0 44 -11t11 -44v-110q0 -33 -11 -44.5t-44 -11.5z" glyph-name="minus" horiz-adv-x="1220" unicode="−"/><glyph d="M1008 1378l-691 -1333q-23 -45 -69 -45h-98q-76 0 -50 55l691 1334q23 45 69 45h98q79 -1 50 -56z" glyph-name="uni2215" horiz-adv-x="1097" unicode="∕"/><glyph d="M98 700.5q0 90.5 62.5 155t152.5 64.5t154.5 -64.5t64.5 -155t-64.5 -153t-154.5 -62.5t-152.5 62.5t-62.5 153z" glyph-name="uni2219" horiz-adv-x="630" unicode="∙"/><glyph d="M1395 1133h-252l-559 -1098q-4 -8 -10.5 -19.5t-9.5 -15.5t-7 -10t-8 -8t-10 -2h-7q-6 0 -10 2t-8 8t-7 10t-9 15.5t-11 19.5l-475 952q-14 33 -8 44t35 11h229q45 0 72 -55l197 -416l403 807q18 33 31.5 44.5t40.5 11.5h383q33 0 44 -11.5t11 -44.5v-190q0 -33 -11 -44 t-44 -11z" glyph-name="radical" horiz-adv-x="1449" unicode="√"/><glyph d="M1335 756q0 -219 -101 -343t-259 -124q-106 0 -185 61.5t-100 118.5h-10q-16 -27 -45 -55.5t-88.5 -61.5t-120.5 -33q-162 0 -261 106.5t-99 332.5q0 221 99 327.5t261 106.5q88 0 156.5 -51t97.5 -99h10q20 57 99 119t186 62q158 0 259 -122t101 -345zM788 756 q53 -190 168 -191q63 0 102.5 51.5t39.5 139.5q0 86 -40 138t-102 52q-115 0 -168 -190zM303 756q0 -78 38 -119t101 -41q102 0 140 160q-39 162 -140 162q-63 0 -101 -42t-38 -120z" glyph-name="infinity" horiz-adv-x="1400" unicode="∞"/><glyph d="M303 -16v1020q0 217 109.5 336.5t310.5 119.5q119 0 203 -53q25 -14 30 -27.5t-2 -42.5l-24 -143q-6 -41 -18.5 -46t-51.5 13q-43 20 -102 21q-143 0 -144 -189v-1020q0 -217 -109.5 -336.5t-309.5 -119.5q-119 0 -203 53q-25 14 -30 27.5t1 42.5l25 143q6 41 18 46 t51 -13q43 -20 103 -21q143 1 143 189z" glyph-name="integral" horiz-adv-x="958" unicode="∫"/><glyph d="M555 713q-6 4 -30.5 21.5t-33 22.5t-27 14t-32.5 12t-31 3q-12 0 -25.5 -6t-31.5 -22.5t-29.5 -27.5t-36 -35.5l-32.5 -32.5q-23 -20 -39.5 -19.5t-38.5 25.5l-82 92q-37 43 4 78q86 86 156.5 131t154.5 45q86 0 211 -94q6 -4 31 -21.5t33 -23t26.5 -14.5t33 -12t30.5 -3 q12 0 25.5 6t32 22.5t29.5 27.5t35.5 36t33.5 33q23 20 39 19t38 -25l82 -93q37 -43 -4 -77q-86 -86 -156.5 -131.5t-154.5 -45.5q-86 1 -211 95zM573 301q-6 4 -30.5 21.5t-32.5 22.5t-26.5 14.5t-33 12.5t-30.5 3q-12 0 -25.5 -6.5t-32 -22.5t-29.5 -27.5t-36 -36 t-33 -32.5q-23 -20 -39 -19.5t-39 25.5l-82 92q-37 43 5 78q86 86 156.5 131t154.5 45q86 0 211 -94q6 -4 30.5 -21.5t32.5 -22.5t26.5 -14.5t33 -12.5t30.5 -3q27 0 73 42t83 83q23 20 39 19.5t39 -25.5l82 -92q37 -43 -4 -78q-86 -86 -157 -131t-155 -45q-86 0 -211 94z " glyph-name="approxequal" horiz-adv-x="1185" unicode="≈"/><glyph d="M229 55l150 381h-221q-33 0 -44.5 11.5t-11.5 44.5v131q0 33 11.5 44t44.5 11h317l64 160h-381q-33 0 -44.5 11t-11.5 44v131q0 33 11.5 44t44.5 11h475l123 310q23 45 69 45h88q55 0 56 -31q0 -8 -125 -324h192q33 0 44.5 -11t11.5 -44v-131q0 -33 -11.5 -44t-44.5 -11 h-286l-64 -160h350q33 0 44.5 -11.5t11.5 -43.5v-131q0 -33 -11.5 -44.5t-44.5 -11.5h-446l-154 -391q-23 -45 -69 -45h-88q-70 0 -50 55z" glyph-name="notequal" horiz-adv-x="1193" unicode="≠"/><glyph d="M233 1120l682 281q31 14 43.5 9t12.5 -32v-186q0 -51 -56 -76l-409 -162l409 -161q55 -25 56 -76v-187q0 -27 -12.5 -31.5t-43.5 9.5l-682 280q-53 25 -55 68v197q2 42 55 67zM1010 117h-815q-33 0 -44.5 11t-11.5 44v145q0 33 11.5 44.5t44.5 11.5h815q33 0 44 -11.5 t11 -44.5v-145q0 -33 -11 -44t-44 -11z" glyph-name="lessequal" horiz-adv-x="1193" unicode="≤"/><glyph d="M279 1401l682 -281q53 -25 55 -67v-197q-2 -43 -55 -68l-682 -280q-31 -14 -43.5 -9t-12.5 31v187q0 51 56 76l409 161l-409 162q-55 25 -56 76v186q0 27 12.5 32t43.5 -9zM999 117h-815q-33 0 -44 11t-11 44v145q0 33 11.5 44.5t43.5 11.5h815q33 0 44.5 -11.5 t11.5 -44.5v-145q0 -33 -11.5 -44t-44.5 -11z" glyph-name="greaterequal" horiz-adv-x="1193" unicode="≥"/><glyph d="M412 717l299 -336l299 336l-299 336zM1313 633l-531 -604q-37 -43 -67 -43h-8q-31 0 -68 43l-530 604q-84 84 0 168l530 604q37 43 68 43h8q31 0 67 -43l531 -604q84 -84 0 -168z" glyph-name="lozenge" horiz-adv-x="1421" unicode="◊"/><glyph d="M489 1137l-110 -168h145q14 0 19.5 -4t5.5 -19v-123q0 -25 -25 -24h-430q-8 0 -8 8v12q0 4 8 19l232 303q29 37 40 73.5t-1.5 60t-45.5 23.5q-66 0 -116 -51q-18 -14 -37 4l-72 78q-18 20 -2 35q96 96 227 96q94 0 152.5 -52t59.5 -123.5t-42 -147.5z" glyph-name="two.numr" horiz-adv-x="651"/><glyph d="M74 1343l127 66q43 25 57 25h92q25 0 25 -25v-586q0 -25 -25 -24h-131q-25 0 -24 24v381h-109q-25 0 -25 25v88q1 18 13 26z" glyph-name="one.numr" horiz-adv-x="514"/><glyph d="M305 778q-131 0 -227 96q-16 14 2 35l67 72q18 18 37 4q61 -61 121 -61q47 0 67.5 23.5t20.5 51.5q0 57 -88 58h-59q-25 0 -25 24v74q0 27 25 27h59q88 0 88 57q0 29 -20.5 52.5t-67.5 23.5q-57 0 -121 -64q-18 -14 -37 4l-67 74q-18 20 -2 35q96 96 227 96q94 0 170 -51 t76 -147q0 -90 -80 -142v-2q80 -51 80 -141q0 -96 -76 -147.5t-170 -51.5z" glyph-name="three.numr" horiz-adv-x="626"/><glyph d="M209 1536h1155q33 0 44 -11.5t11 -43.5v-1563q0 -33 -11 -44t-44 -11h-1155q-33 0 -44 11t-11 44v1563q0 33 11 44t44 11zM786 494l201 -201q47 -47 90 0l117 119q27 25 27 44t-27 46l-201 200l201 201q27 27 27 45.5t-27 44.5l-117 117q-25 29 -44 29t-46 -29l-201 -201 l-200 201q-29 29 -46.5 29t-43.5 -29l-119 -117q-27 -27 -27 -45t27 -45l201 -201l-201 -200q-27 -27 -27 -46.5t27 -43.5l119 -119q27 -27 44 -27t46 27z" glyph-name="glyph405" horiz-adv-x="1572"/><glyph d="M311 1434h138q23 0 22 -25v-332h76q23 0 22 -24v-88q0 -25 -22 -25h-76v-117q0 -25 -22 -24h-111q-14 0 -18.5 5t-4.5 19v117h-260q-25 0 -24 25v57q0 18 14 39l252 364q4 9 14 9zM315 1221l-102 -144h102v144z" glyph-name="four.numr" horiz-adv-x="630"/><glyph d="M143 1434h320q23 0 22 -25v-78q0 -27 -22 -26h-230l-12 -105h68q244 0 243 -209q0 -106 -71.5 -162.5t-184.5 -56.5q-117 0 -217 96q-12 14 4 35l52 55q18 20 35 3q63 -57 126 -58q106 0 107 84q0 82 -107 82h-174q-31 0 -24 27l39 313q2 12 4 16.5t7 6.5t15 2z" glyph-name="five.numr" horiz-adv-x="573"/><glyph d="M360 1219q88 0 146.5 -55.5t58.5 -155.5q0 -98 -68.5 -168t-174.5 -70q-152 0 -211.5 89t-59.5 247t68.5 256t216.5 98q121 0 213 -92q14 -16 -4 -35l-56 -61q-20 -18 -36 0q-53 53 -129 53q-53 0 -86 -46t-33 -124q46 64 155 64zM313 899q45 0 72 27.5t27 70.5t-29 71 t-70 28q-47 0 -73.5 -28t-26.5 -71t26.5 -70.5t73.5 -27.5z" glyph-name="six.numr" horiz-adv-x="606"/><glyph d="M561 1417v-4q0 -12 -8 -27l-313 -563q-14 -25 -39 -24h-103q-33 0 -24 24l254 463h-242q-25 2 -25 25v98q0 25 25 25h457q18 -1 18 -17z" glyph-name="seven.numr" horiz-adv-x="602"/><glyph d="M303 772q-119 0 -185.5 55.5t-66.5 139.5q0 59 34 102t65 53v4q-82 55 -82 140q0 86 57 140t178 54t179.5 -54t58.5 -140q0 -49 -28 -86t-54 -54v-4q31 -10 64.5 -53t33.5 -102q0 -84 -67.5 -139.5t-186.5 -55.5zM303 1069q-102 -25 -102 -92q0 -35 27.5 -56.5 t74.5 -21.5t77 21.5t30 56.5q-1 65 -107 92zM303 1333q-88 0 -88 -78q0 -55 88 -75q90 20 90 75q0 35 -23.5 56.5t-66.5 21.5z" glyph-name="eight.numr" horiz-adv-x="608"/><glyph d="M256 1012q-88 0 -146.5 55t-58.5 156q0 98 68.5 167.5t175.5 69.5q152 0 211 -89t59 -246.5t-68.5 -256t-215.5 -98.5q-121 0 -213 92q-14 16 4 35l55 61q20 18 37 0q53 -53 129 -53q53 0 86 46t33 124q-47 -63 -156 -63zM303 1331q-45 0 -71.5 -27.5t-26.5 -70.5 t28.5 -70.5t69.5 -27.5q47 0 73.5 27.5t26.5 70.5t-26.5 70.5t-73.5 27.5z" glyph-name="nine.numr" horiz-adv-x="606"/><glyph d="M51 1116.5q0 149.5 71 246.5t204 97t202.5 -97t69.5 -246.5t-69.5 -247t-202.5 -97.5t-204 97.5t-71 247zM229 1116q0 -76 30 -129t66.5 -53t66.5 53t30 129t-30 129t-66.5 53t-66.5 -53t-30 -129z" glyph-name="zero.numr" horiz-adv-x="649"/><glyph d="M449 338l-111 -168h145q14 0 19.5 -4t5.5 -19v-122q0 -25 -25 -25h-430q-8 0 -8 8v12q0 4 8 19l232 303q29 37 40 74t-1.5 60.5t-44.5 23.5q-66 0 -117 -51q-18 -14 -37 4l-72 77q-18 20 -2 35q96 96 228 97q94 0 152 -52.5t59.5 -124t-41.5 -147.5z" glyph-name="two.dnom" horiz-adv-x="569"/><glyph d="M281 -23q-131 0 -228 97q-16 14 2 35l68 71q18 18 37 4q61 -61 121 -61q47 0 67.5 23.5t20.5 52.5q0 57 -88 57h-60q-25 0 -24 25v73q0 27 24 27h60q88 0 88 57q0 29 -20.5 52.5t-67.5 23.5q-57 0 -121 -63q-18 -14 -37 4l-68 73q-18 20 -2 35q96 96 228 96 q94 0 169.5 -51t75.5 -147q0 -90 -80 -142v-2q80 -51 80 -141q0 -96 -75.5 -147.5t-169.5 -51.5z" glyph-name="three.dnom" horiz-adv-x="575"/><glyph d="M256 215q-88 0 -146.5 55.5t-58.5 155.5q0 98 68.5 168t175.5 70q152 0 211 -89.5t59 -247t-68.5 -256t-215.5 -98.5q-121 0 -213 93q-14 16 4 34l55 62q20 18 37 0q53 -53 129 -53q53 0 86 46t33 124q-47 -64 -156 -64zM303 535q-45 0 -71.5 -28t-26.5 -71t28.5 -70.5 t69.5 -27.5q47 0 73.5 27.5t26.5 70.5t-26.5 71t-73.5 28z" glyph-name="nine.dnom" horiz-adv-x="616"/><glyph d="M311 635h138q23 0 22 -25v-331h76q23 0 22 -25v-88q0 -25 -22 -25h-76v-116q0 -25 -22 -25h-111q-14 0 -18.5 5t-4.5 20v116h-260q-25 0 -24 25v57q0 18 14 39l252 365q4 8 14 8zM315 422l-102 -143h102v143z" glyph-name="four.dnom" horiz-adv-x="630"/><glyph d="M303 -27q-119 0 -185.5 55.5t-66.5 139.5q0 59 34 102t65 54v4q-82 55 -82 139q0 86 57 140.5t178 54.5t179.5 -54.5t58.5 -140.5q0 -49 -28 -86t-54 -53v-4q31 -10 64.5 -53.5t33.5 -102.5q0 -84 -67.5 -139.5t-186.5 -55.5zM303 270q-102 -25 -102 -92 q0 -35 27.5 -56.5t74.5 -21.5t77 21.5t30 56.5q-1 65 -107 92zM303 535q-88 0 -88 -78q0 -55 88 -76q90 20 90 76q0 35 -23.5 56.5t-66.5 21.5z" glyph-name="eight.dnom" horiz-adv-x="608"/><glyph d="M561 618v-4q0 -12 -8 -26l-313 -563q-14 -25 -39 -25h-103q-33 0 -24 25l254 462h-242q-25 2 -25 25v98q0 25 25 25h457q18 -1 18 -17z" glyph-name="seven.dnom" horiz-adv-x="591"/><glyph d="M360 422q88 0 146.5 -55.5t58.5 -155.5q0 -98 -68.5 -168t-174.5 -70q-152 0 -211.5 89.5t-59.5 247t68.5 256t216.5 98.5q121 0 213 -93q14 -16 -4 -34l-56 -62q-20 -18 -36 0q-53 53 -129 53q-53 0 -86 -46t-33 -124q46 64 155 64zM313 102q45 0 72 28t27 71t-29 70.5 t-70 27.5q-47 0 -73.5 -27.5t-26.5 -70.5t26.5 -71t73.5 -28z" glyph-name="six.dnom" horiz-adv-x="606"/><glyph d="M143 635h320q23 0 22 -25v-78q0 -27 -22 -26h-230l-12 -105h68q244 0 243 -208q0 -106 -71.5 -163t-184.5 -57q-117 0 -217 97q-12 14 4 34l52 56q18 20 35 2q63 -57 126 -58q106 0 107 84q0 82 -107 82h-174q-31 0 -24 27l39 313q2 12 4 16.5t7 6.5t15 2z" glyph-name="five.dnom" horiz-adv-x="573"/><glyph d="M430 716.5q0 -454.5 254 -454.5t254 454.5t-254 454.5t-254 -454.5zM92 716.5q0 323.5 151.5 533.5t440.5 210t440.5 -210t151.5 -533.5t-151.5 -533.5t-440.5 -210t-440.5 210t-151.5 533.5z" glyph-name="zero.tnum" horiz-adv-x="1368"/><glyph d="M100 1231l238 147q84 55 119 56h135q33 0 44 -11.5t11 -44.5v-1323q0 -33 -11 -44t-44 -11h-223q-33 0 -44.5 11.5t-11.5 43.5v961h-186q-33 0 -44 11t-11 44v100q-1 40 28 60z" glyph-name="one.tnum" horiz-adv-x="800"/><glyph d="M965 784l-371 -501h422q33 0 44 -11.5t11 -44.5v-172q0 -33 -11 -44t-44 -11h-948q-18 0 -19 18v29q0 12 19 39l618 813q76 109 30 190.5t-151 81.5q-166 0 -301 -135q-27 -23 -41 -20.5t-37 26.5l-118 129q-23 27 -25 40.5t18 37.5q215 211 504 211q158 0 275.5 -65.5 t171 -165t44.5 -220.5t-91 -225z" glyph-name="two.tnum" horiz-adv-x="1142"/><glyph d="M592 590h-199q-33 0 -44 11t-11 44v156q0 33 11 44t44 11h170q100 0 150.5 42t50.5 106q0 168 -201 167q-88 0 -137 -28.5t-117 -102.5q-37 -39 -78 7l-112 124q-23 27 -25 40.5t19 37.5q109 106 210 158.5t240 52.5q92 0 182.5 -25.5t170 -73.5t129 -133t49.5 -194 q0 -197 -174 -309v-2q96 -49 152 -120t56 -191q0 -215 -158.5 -327t-406.5 -112q-262 0 -477 211q-20 25 -18 38.5t24 39.5l113 123q41 43 78 6q72 -68 132 -98.5t148 -30.5q131 0 183.5 47t52.5 133q0 61 -53.5 104.5t-153.5 43.5z" glyph-name="three.tnum" horiz-adv-x="1200"/><glyph d="M743 1434h265q33 0 44 -11.5t11 -44.5v-805h143q33 0 44.5 -11t11.5 -44v-143q0 -33 -11.5 -44.5t-44.5 -11.5h-143v-264q0 -33 -11.5 -44t-43.5 -11h-203q-33 0 -44 11.5t-11 43.5v264h-617q-33 0 -44 11.5t-11 44.5v153q0 47 31 88l602 801q12 17 32 17zM750 1020 l-340 -447h340v447z" glyph-name="four.tnum" horiz-adv-x="1323"/><glyph d="M258 1434h707q33 0 44 -11.5t11 -44.5v-172q0 -33 -11.5 -44t-43.5 -11h-504l-31 -231h154q115 0 205 -20.5t167.5 -69t120.5 -142.5t43 -229q0 -238 -158.5 -362t-406.5 -124q-262 0 -477 211q-20 25 -18.5 38.5t24.5 39.5l113 123q41 43 77 6q72 -68 132.5 -98.5 t148.5 -30.5q129 0 182.5 48t53.5 136.5t-53.5 136.5t-182.5 48h-385q-33 0 -46 12t-9 43l88 692q4 35 14 45.5t41 10.5z" glyph-name="five.tnum" horiz-adv-x="1185"/><glyph d="M758 936q193 0 317.5 -117t124.5 -332t-147.5 -364.5t-378.5 -149.5q-168 0 -286 55.5t-180.5 158t-89 226.5t-26.5 283q0 127 20.5 237.5t65.5 209t114.5 168t174 109.5t235.5 40q258 0 459 -196q20 -25 18.5 -38.5t-24.5 -39.5l-119 -129q-23 -25 -37 -27t-41 21 q-121 121 -282 120q-113 0 -183.5 -100t-70.5 -266q96 131 336 131zM655 252q96 0 155.5 59.5t59.5 153.5q0 88 -62.5 149.5t-152.5 61.5q-98 0 -156.5 -59.5t-58.5 -151.5q0 -94 58.5 -153.5t156.5 -59.5z" glyph-name="six.tnum" horiz-adv-x="1282"/><glyph d="M1167 1395v-11q0 -20 -20 -57l-682 -1272q-33 -55 -90 -55h-230q-78 0 -55 55l572 1073h-545q-33 4 -44.5 14.5t-11.5 41.5v194q0 33 11.5 44.5t44.5 11.5h1007q43 0 43 -39z" glyph-name="seven.tnum" horiz-adv-x="1167"/><glyph d="M618 -27q-258 0 -402 119t-144 303q0 125 71.5 217.5t139.5 116.5v12q-53 33 -115 113t-62 184q0 190 125 306t390 116q260 0 384.5 -115.5t124.5 -306.5q0 -104 -61 -185t-115 -112v-12q68 -25 139.5 -117t71.5 -217q0 -184 -143.5 -303t-403.5 -119zM618 612 q-223 -59 -223 -196q0 -74 60.5 -119t162.5 -45q100 0 162 45t62 119q-1 137 -224 196zM618.5 1182q-92.5 0 -140.5 -45t-48 -119q0 -117 188 -162q188 45 189 162q0 74 -48 119t-140.5 45z" glyph-name="eight.tnum" horiz-adv-x="1236"/><glyph d="M528 498q-193 0 -317.5 116.5t-124.5 331.5t147.5 364.5t378.5 149.5q168 0 286 -55t180.5 -157.5t89 -226.5t26.5 -284q0 -127 -20.5 -237.5t-65.5 -208.5t-114.5 -168t-174 -110t-235.5 -40q-258 0 -459 197q-20 25 -18 38t24 40l119 129q23 25 37 27t41 -21 q121 -121 282 -121q113 0 183.5 100.5t70.5 266.5q-96 -131 -336 -131zM631 1182q-96 0 -155.5 -59.5t-59.5 -153.5q0 -88 62.5 -149.5t152.5 -61.5q98 0 156.5 59.5t58.5 151.5q0 94 -58.5 153.5t-156.5 59.5z" glyph-name="nine.tnum" horiz-adv-x="1275"/><glyph d="M66 702.5q0 292.5 141 510t391 350.5q51 29 82 -25l88 -154q37 -61 -41 -98q-344 -168 -344 -583.5t344 -583.5q78 -37 41 -99l-88 -153q-31 -53 -82 -25q-250 133 -391 350.5t-141 510z" glyph-name="parenleft.aalt" horiz-adv-x="845"/><glyph d="M780 702.5q0 -292.5 -141 -510t-391 -350.5q-51 -29 -82 25l-88 153q-37 61 41 99q344 168 344 583.5t-344 583.5q-78 37 -41 98l88 154q31 53 82 25q250 -133 391 -350.5t141 -510z" glyph-name="parenright.aalt" horiz-adv-x="845"/><glyph d="M723 604h-565q-33 0 -44.5 11.5t-11.5 43.5v132q0 33 11.5 44t44.5 11h565q33 0 44 -11.5t11 -43.5v-132q0 -33 -11 -44t-44 -11z" glyph-name="hyphen.aalt" horiz-adv-x="880"/><glyph d="M680 -8v-152q0 -33 -11.5 -44t-43.5 -11h-416q-33 0 -44 11t-11 44v1727q0 33 11 44t44 11h416q33 0 44 -11.5t11 -43.5v-152q0 -33 -11.5 -44t-43.5 -11h-183v-1313h183q33 0 44 -11t11 -44z" glyph-name="bracketleft.aalt" horiz-adv-x="792"/><glyph d="M113 -160v152q0 33 11 44t44 11h182v1313h-182q-33 0 -44 11t-11 44v152q0 33 11 44t44 11h416q33 0 44 -11.5t11 -43.5v-1727q0 -33 -11.5 -44t-43.5 -11h-416q-33 0 -44 11t-11 44z" glyph-name="bracketright.aalt" horiz-adv-x="792"/><glyph d="M66 643v176q0 47 47 64q4 2 24.5 8t30.5 9t29.5 11.5t30 16.5t22.5 19t18 26.5t6 32.5v161q0 514 523 514q33 0 44 -11t11 -44v-178q0 -33 -11.5 -44t-43.5 -11q-199 0 -199 -226v-161q0 -102 -52 -174t-122 -93v-16q70 -20 122 -92t52 -174v-162q0 -225 199 -225 q33 0 44 -11.5t11 -44.5v-178q0 -33 -11.5 -44t-43.5 -11q-522 0 -523 514v162q0 16 -6 31.5t-18 26.5t-22.5 19.5t-30 16.5t-29.5 11t-30.5 9.5t-24.5 8.5q-47 16 -47 63z" glyph-name="braceleft.aalt" horiz-adv-x="917"/><glyph d="M154 -127v1729q0 33 11 44t44 11h149q33 0 44.5 -11.5t11.5 -43.5v-1729q0 -33 -11.5 -44t-44.5 -11h-149q-33 0 -44 11t-11 44z" glyph-name="bar.aalt" horiz-adv-x="567"/><glyph d="M852 819v-176q0 -47 -47 -63q-4 -2 -24.5 -8.5t-31 -9.5t-30 -11t-29.5 -16.5t-22.5 -19.5t-18.5 -26.5t-6 -31.5v-162q0 -514 -522 -514q-33 0 -44 11t-11 44v178q0 33 11 44.5t44 11.5q199 0 198 225v162q0 102 52.5 173.5t122.5 92.5v16q-70 20 -122.5 92t-52.5 175 v161q0 225 -198 226q-33 0 -44 11t-11 44v178q0 33 11 44t44 11q522 0 522 -514v-161q0 -16 6 -32t18.5 -27t22.5 -19t29.5 -16.5t30 -11.5t31 -9t24.5 -8q47 -17 47 -64z" glyph-name="braceright.aalt" horiz-adv-x="917"/><glyph d="M154 -92v696q0 33 11 44t44 11h102q33 0 44.5 -11t11.5 -44v-696q0 -33 -11.5 -44t-44.5 -11h-102q-33 0 -44 11t-11 44zM154 895v631q0 33 11 44t44 11h102q33 0 44.5 -11t11.5 -44v-631q0 -33 -11.5 -44t-44.5 -11h-102q-33 0 -44 11t-11 44z" glyph-name="brokenbar.aalt" horiz-adv-x="520"/><glyph d="M104 864l328 373q25 25 38 27t40 -15l121 -69q47 -29 12 -78l-256 -342l256 -342q33 -47 -12 -78l-121 -70q-27 -16 -40 -14t-38 27l-328 372q-39 43 -38 97v16q-1 53 38 96zM604 864l328 373q25 25 38 27t40 -15l120 -69q47 -29 13 -78l-256 -342l256 -342 q33 -47 -13 -78l-120 -70q-27 -16 -40.5 -14t-37.5 27l-328 372q-39 43 -39 97v16q0 53 39 96z" glyph-name="guillemotleft.aalt" horiz-adv-x="1232"/><glyph d="M801 1237l327 -373q39 -43 39 -96v-16q0 -53 -39 -97l-327 -372q-25 -25 -38 -27t-40 14l-121 70q-45 31 -12 78l256 342l-256 342q-35 49 12 78l121 69q27 16 40 14.5t38 -26.5zM301 1237l328 -373q39 -43 39 -96v-16q0 -53 -39 -97l-328 -372q-25 -25 -38 -27t-40 14 l-121 70q-45 31 -12 78l256 342l-256 342q-35 49 12 78l121 69q27 16 40 14.5t38 -26.5z" glyph-name="periodcentered.aalt" horiz-adv-x="1232"/><glyph d="M737 604h-579q-33 0 -44.5 11.5t-11.5 43.5v132q0 33 11.5 44t44.5 11h579q33 0 44.5 -11.5t11.5 -43.5v-132q0 -33 -11.5 -44t-44.5 -11z" glyph-name="guillemotright.aalt" horiz-adv-x="894"/><glyph d="M1083 604h-925q-33 0 -44.5 11.5t-11.5 43.5v132q0 33 11.5 44t44.5 11h925q33 0 44.5 -11.5t11.5 -43.5v-132q0 -33 -11.5 -44t-44.5 -11z" glyph-name="endash.aalt" horiz-adv-x="1241"/><glyph d="M66 731.5q0 104.5 71.5 178t176 73.5t178 -73.5t73.5 -178t-73.5 -176.5t-178 -72t-176 72t-71.5 176.5z" glyph-name="emdash.aalt" horiz-adv-x="630"/><glyph d="M80 864l328 373q25 25 38 27t39 -15l121 -69q47 -29 12 -78l-256 -342l256 -342q33 -47 -12 -78l-121 -70q-27 -16 -40 -14t-37 27l-328 372q-39 43 -39 97v16q0 53 39 96z" glyph-name="bullet.aalt" horiz-adv-x="702"/><glyph d="M295 1237l328 -373q39 -43 39 -96v-16q0 -53 -39 -97l-328 -372q-25 -25 -38 -27t-40 14l-121 70q-45 31 -12 78l256 342l-256 342q-35 49 12 78l121 69q27 16 40 14.5t38 -26.5z" glyph-name="guilsinglleft.aalt" horiz-adv-x="702"/><glyph d="M102 731q0 90 60.5 151.5t148.5 61.5q90 0 151.5 -62.5t61.5 -150.5t-61.5 -148.5t-151.5 -60.5q-88 0 -148.5 60.5t-60.5 148.5z" glyph-name="guilsinglright.aalt" horiz-adv-x="626"/><glyph d="M489 1305l-110 -168h145q14 0 19.5 -4.5t5.5 -18.5v-123q0 -25 -25 -24h-430q-8 0 -8 8v12q0 8 8 19l232 303q29 37 40 73.5t-1.5 60t-45.5 23.5q-66 0 -116 -51q-18 -14 -37 4l-72 78q-18 20 -2 35q96 96 227 96q94 0 152.5 -52t59.5 -123.5t-42 -147.5z" glyph-name="two.superior" horiz-adv-x="651"/><glyph d="M74 1511l127 66q43 25 57 25h92q25 0 25 -25v-586q0 -25 -25 -24h-129q-25 0 -24 24v385h-111q-25 0 -25 25v84q1 18 13 26z" glyph-name="one.superior" horiz-adv-x="514"/><glyph d="M66 1284.5q0 149.5 70.5 246.5t203.5 97t202.5 -97t69.5 -246.5t-69.5 -247t-202.5 -97.5t-203.5 97.5t-70.5 247zM233 1284q0 -80 30 -136t77 -56t76.5 56t29.5 136q0 90 -28.5 141.5t-77.5 51.5t-78 -51.5t-29 -141.5z" glyph-name="zero.superior" horiz-adv-x="677"/><glyph d="M311 1602h138q23 0 22 -25v-332h76q23 0 22 -24v-88q0 -25 -22 -25h-76v-117q0 -25 -22 -24h-111q-14 0 -18.5 5t-4.5 19v117h-260q-25 0 -24 25v57q0 18 14 39l252 364q4 9 14 9zM315 1389l-102 -144h102v144z" glyph-name="four.superior" horiz-adv-x="630"/><glyph d="M143 1602h320q23 0 22 -25v-78q0 -27 -22 -26h-230l-12 -105h68q244 0 243 -209q0 -106 -71.5 -162.5t-184.5 -56.5q-117 0 -217 96q-12 14 4 35l52 55q18 20 35 2q63 -57 126 -57q106 0 107 84q0 82 -107 82h-174q-31 0 -24 27l39 313q2 12 4 16t7 6.5t15 2.5z" glyph-name="five.superior" horiz-adv-x="573"/><glyph d="M360 1386q88 0 146.5 -55t58.5 -155q0 -98 -68.5 -168t-174.5 -70q-152 0 -211.5 89t-59.5 247t68.5 256t216.5 98q121 0 213 -92q14 -16 -4 -35l-56 -61q-20 -18 -36 0q-53 53 -129 53q-53 0 -86 -46t-33 -124q46 63 155 63zM313 1067q45 0 72 27.5t27 70.5t-29 71 t-70 28q-47 0 -73.5 -28t-26.5 -71t26.5 -70.5t73.5 -27.5z" glyph-name="six.superior" horiz-adv-x="606"/><glyph d="M561 1585v-4q0 -12 -8 -27l-313 -563q-14 -25 -39 -24h-103q-33 0 -24 24l254 463h-242q-25 2 -25 25v98q0 25 25 25h457q18 -1 18 -17z" glyph-name="seven.superior" horiz-adv-x="602"/><glyph d="M303 940q-119 0 -185.5 55.5t-66.5 139.5q0 59 34 102t65 53v4q-82 55 -82 140q0 86 57 140t178 54t179.5 -54t58.5 -140q0 -49 -28 -86t-54 -54v-4q31 -10 64.5 -53t33.5 -102q0 -84 -67.5 -139.5t-186.5 -55.5zM303 1237q-102 -25 -102 -92q0 -35 27.5 -56.5 t74.5 -21.5t77 21.5t30 56.5q-1 65 -107 92zM303 1501q-88 0 -88 -78q0 -55 88 -75q90 20 90 75q0 35 -23.5 56.5t-66.5 21.5z" glyph-name="eight.superior" horiz-adv-x="608"/><glyph d="M256 1180q-88 0 -146.5 55t-58.5 156q0 98 68.5 167.5t175.5 69.5q152 0 211 -89t59 -246.5t-68.5 -256t-215.5 -98.5q-121 0 -213 92q-14 16 4 35l55 61q20 18 37 0q53 -53 129 -53q53 0 86 46t33 124q-47 -63 -156 -63zM303 1499q-45 0 -71.5 -27.5t-26.5 -70.5 t28.5 -70.5t69.5 -27.5q47 0 73.5 27.5t26.5 70.5t-26.5 70.5t-73.5 27.5z" glyph-name="nine.superior" horiz-adv-x="606"/><glyph d="M51 10.5q0 149.5 71 246.5t204 97t202.5 -97t69.5 -246.5t-69.5 -247t-202.5 -97.5t-204 97.5t-71 247zM219 10q0 -82 32 -137t75 -55t74.5 55t31.5 137t-31.5 137.5t-74.5 55.5t-75 -55.5t-32 -137.5z" glyph-name="zero.sinf" horiz-adv-x="649"/><glyph d="M449 31l-111 -168h145q14 0 19.5 -4t5.5 -19v-123q0 -25 -25 -24h-430q-8 0 -8 8v12q0 4 8 19l232 303q29 37 40 73.5t-1.5 60.5t-44.5 24q-66 0 -117 -52q-18 -14 -37 4l-72 78q-18 20 -2 35q96 96 228 96q94 0 152 -52t59.5 -123.5t-41.5 -147.5z" glyph-name="two.sinf" horiz-adv-x="569"/><glyph d="M281 -328q-131 0 -228 97q-16 14 2 34l68 72q18 18 37 4q61 -61 121 -61q47 0 67.5 23.5t20.5 52.5q0 57 -88 57h-60q-25 0 -24 24v74q0 27 24 27h60q88 0 88 57q0 29 -20.5 52.5t-67.5 23.5q-57 0 -121 -64q-18 -14 -37 5l-68 73q-18 20 -2 35q96 96 228 96 q94 0 169.5 -51t75.5 -147q0 -90 -80 -142v-2q80 -51 80 -141q0 -96 -75.5 -147.5t-169.5 -51.5z" glyph-name="three.sinf" horiz-adv-x="575"/><glyph d="M256 -94q-88 0 -146.5 55t-58.5 156q0 98 68.5 167.5t175.5 69.5q152 0 211 -89t59 -246.5t-68.5 -256t-215.5 -98.5q-121 0 -213 92q-14 16 4 35l55 62q20 18 37 0q53 -53 129 -54q53 0 86 46t33 124q-47 -63 -156 -63zM303 225q-45 0 -71.5 -27.5t-26.5 -70.5 t28.5 -70.5t69.5 -27.5q47 0 73.5 27.5t26.5 70.5t-26.5 70.5t-73.5 27.5z" glyph-name="nine.sinf" horiz-adv-x="616"/><glyph d="M311 328h138q23 0 22 -25v-332h76q23 0 22 -24v-88q0 -25 -22 -25h-76v-117q0 -25 -22 -24h-111q-14 0 -18.5 5t-4.5 19v117h-260q-25 0 -24 25v57q0 18 14 39l252 364q4 9 14 9zM315 115l-102 -144h102v144z" glyph-name="four.sinf" horiz-adv-x="630"/><glyph d="M303 -334q-119 0 -185.5 55.5t-66.5 139.5q0 59 34 102t65 53v4q-82 55 -82 140q0 86 57 140t178 54t179.5 -54t58.5 -140q0 -49 -28 -86t-54 -54v-4q31 -10 64.5 -53t33.5 -102q0 -84 -67.5 -139.5t-186.5 -55.5zM303 -37q-102 -25 -102 -92q0 -35 27.5 -56.5 t74.5 -21.5t77 21.5t30 56.5q-1 65 -107 92zM303 227q-88 0 -88 -77q0 -55 88 -76q90 20 90 76q0 35 -23.5 56t-66.5 21z" glyph-name="eight.sinf" horiz-adv-x="608"/><glyph d="M561 311v-4q0 -12 -8 -26l-313 -564q-14 -25 -39 -24h-103q-33 0 -24 24l254 463h-242q-25 2 -25 25v98q0 25 25 25h457q18 -1 18 -17z" glyph-name="seven.sinf" horiz-adv-x="591"/><glyph d="M360 113q88 0 146.5 -55.5t58.5 -155.5q0 -98 -68.5 -168t-174.5 -70q-152 0 -211.5 89t-59.5 247t68.5 256t216.5 98q121 0 213 -92q14 -16 -4 -35l-56 -61q-20 -18 -36 0q-53 53 -129 53q-53 0 -86 -46t-33 -124q46 64 155 64zM313 -207q45 0 72 27.5t27 70.5t-29 71 t-70 28q-47 0 -73.5 -28t-26.5 -71t26.5 -70.5t73.5 -27.5z" glyph-name="six.sinf" horiz-adv-x="606"/><glyph d="M143 328h320q23 0 22 -25v-78q0 -27 -22 -26h-230l-12 -105h68q244 0 243 -209q0 -106 -71.5 -162.5t-184.5 -56.5q-117 0 -217 96q-12 14 4 35l52 56q18 20 35 2q63 -57 126 -58q106 0 107 84q0 82 -107 82h-174q-31 0 -24 27l39 313q2 12 4 16.5t7 6.5t15 2z" glyph-name="five.sinf" horiz-adv-x="573"/><glyph d="M43 238l127 65q43 25 57 25h92q25 0 25 -25v-586q0 -25 -25 -24h-129q-25 0 -24 24v385h-111q-25 0 -24 25v84q0 19 12 27z" glyph-name="one.sinf" horiz-adv-x="405"/><glyph d="M51 317.5q0 149.5 71 247t204 97.5t202.5 -97.5t69.5 -247t-69.5 -247t-202.5 -97.5t-204 97.5t-71 247zM229 317.5q0 -75.5 30 -129t66.5 -53.5t66.5 53.5t30 129t-30 129t-66.5 53.5t-66.5 -53.5t-30 -129z" glyph-name="zero.dnom" horiz-adv-x="649"/><glyph d="M305 946q-131 0 -227 96q-16 14 2 35l67 72q18 18 37 4q61 -61 121 -61q47 0 67.5 23.5t20.5 51.5q0 57 -88 58h-59q-25 0 -25 24v74q0 27 25 27h59q88 0 88 57q0 29 -20.5 52.5t-67.5 23.5q-57 0 -121 -64q-18 -14 -37 4l-67 74q-18 20 -2 35q96 96 227 96q94 0 170 -51 t76 -147q0 -90 -80 -142v-2q80 -51 80 -141q0 -96 -76 -147.5t-170 -51.5z" glyph-name="three.superior" horiz-adv-x="626"/></font>
</defs>
</svg>
